G04 #@! TF.GenerationSoftware,KiCad,Pcbnew,9.0.9-9.0.9~ubuntu24.04.1*
G04 #@! TF.CreationDate,2026-09-20T14:15:40+00:00*
G04 #@! TF.ProjectId,adv7280m-csi2,61647637-3238-4306-9d2d-637369322e6b,rev?*
G04 #@! TF.SameCoordinates,Original*
G04 #@! TF.FileFunction,Legend,Bot*
G04 #@! TF.FilePolarity,Positive*
%FSLAX46Y46*%
G04 Gerber Fmt 4.6, Leading zero omitted, Abs format (unit mm)*
G04 Created by KiCad (PCBNEW 9.0.9-9.0.9~ubuntu24.04.1) date 2026-09-20 14:15:40*
%MOMM*%
%LPD*%
G01*
G04 APERTURE LIST*
G04 Aperture macros list*
%AMRoundRect*
0 Rectangle with rounded corners*
0 $1 Rounding radius*
0 $2 $3 $4 $5 $6 $7 $8 $9 X,Y pos of 4 corners*
0 Add a 4 corners polygon primitive as box body*
4,1,4,$2,$3,$4,$5,$6,$7,$8,$9,$2,$3,0*
0 Add four circle primitives for the rounded corners*
1,1,$1+$1,$2,$3*
1,1,$1+$1,$4,$5*
1,1,$1+$1,$6,$7*
1,1,$1+$1,$8,$9*
0 Add four rect primitives between the rounded corners*
20,1,$1+$1,$2,$3,$4,$5,0*
20,1,$1+$1,$4,$5,$6,$7,0*
20,1,$1+$1,$6,$7,$8,$9,0*
20,1,$1+$1,$8,$9,$2,$3,0*%
G04 Aperture macros list end*
%ADD10C,0.150000*%
%ADD11O,2.300000X3.500000*%
%ADD12O,3.500000X2.000000*%
%ADD13C,2.200000*%
%ADD14R,1.700000X1.700000*%
%ADD15C,1.700000*%
%ADD16RoundRect,0.250000X-1.050000X1.050000X-1.050000X-1.050000X1.050000X-1.050000X1.050000X1.050000X0*%
%ADD17C,2.600000*%
G04 APERTURE END LIST*
D10*
X28907142Y-44008557D02*
X28392857Y-44008557D01*
X28649999Y-44908557D02*
X28649999Y-44008557D01*
X28092857Y-44908557D02*
X28092857Y-44008557D01*
X28092857Y-44437128D02*
X27578571Y-44437128D01*
X27578571Y-44908557D02*
X27578571Y-44008557D01*
X27192857Y-44865700D02*
X27064286Y-44908557D01*
X27064286Y-44908557D02*
X26850000Y-44908557D01*
X26850000Y-44908557D02*
X26764286Y-44865700D01*
X26764286Y-44865700D02*
X26721428Y-44822842D01*
X26721428Y-44822842D02*
X26678571Y-44737128D01*
X26678571Y-44737128D02*
X26678571Y-44651414D01*
X26678571Y-44651414D02*
X26721428Y-44565700D01*
X26721428Y-44565700D02*
X26764286Y-44522842D01*
X26764286Y-44522842D02*
X26850000Y-44479985D01*
X26850000Y-44479985D02*
X27021428Y-44437128D01*
X27021428Y-44437128D02*
X27107143Y-44394271D01*
X27107143Y-44394271D02*
X27150000Y-44351414D01*
X27150000Y-44351414D02*
X27192857Y-44265700D01*
X27192857Y-44265700D02*
X27192857Y-44179985D01*
X27192857Y-44179985D02*
X27150000Y-44094271D01*
X27150000Y-44094271D02*
X27107143Y-44051414D01*
X27107143Y-44051414D02*
X27021428Y-44008557D01*
X27021428Y-44008557D02*
X26807143Y-44008557D01*
X26807143Y-44008557D02*
X26678571Y-44051414D01*
X26378571Y-44008557D02*
X25778571Y-44008557D01*
X25778571Y-44008557D02*
X26164285Y-44908557D01*
X25521428Y-44008557D02*
X24964285Y-44008557D01*
X24964285Y-44008557D02*
X25264285Y-44351414D01*
X25264285Y-44351414D02*
X25135714Y-44351414D01*
X25135714Y-44351414D02*
X25050000Y-44394271D01*
X25050000Y-44394271D02*
X25007142Y-44437128D01*
X25007142Y-44437128D02*
X24964285Y-44522842D01*
X24964285Y-44522842D02*
X24964285Y-44737128D01*
X24964285Y-44737128D02*
X25007142Y-44822842D01*
X25007142Y-44822842D02*
X25050000Y-44865700D01*
X25050000Y-44865700D02*
X25135714Y-44908557D01*
X25135714Y-44908557D02*
X25392857Y-44908557D01*
X25392857Y-44908557D02*
X25478571Y-44865700D01*
X25478571Y-44865700D02*
X25521428Y-44822842D01*
X24107142Y-44908557D02*
X24621428Y-44908557D01*
X24364285Y-44908557D02*
X24364285Y-44008557D01*
X24364285Y-44008557D02*
X24449999Y-44137128D01*
X24449999Y-44137128D02*
X24535714Y-44222842D01*
X24535714Y-44222842D02*
X24621428Y-44265700D01*
X23335714Y-44308557D02*
X23335714Y-44908557D01*
X23549999Y-43965700D02*
X23764285Y-44608557D01*
X23764285Y-44608557D02*
X23207142Y-44608557D01*
X21878571Y-44437128D02*
X21749999Y-44479985D01*
X21749999Y-44479985D02*
X21707142Y-44522842D01*
X21707142Y-44522842D02*
X21664285Y-44608557D01*
X21664285Y-44608557D02*
X21664285Y-44737128D01*
X21664285Y-44737128D02*
X21707142Y-44822842D01*
X21707142Y-44822842D02*
X21749999Y-44865700D01*
X21749999Y-44865700D02*
X21835714Y-44908557D01*
X21835714Y-44908557D02*
X22178571Y-44908557D01*
X22178571Y-44908557D02*
X22178571Y-44008557D01*
X22178571Y-44008557D02*
X21878571Y-44008557D01*
X21878571Y-44008557D02*
X21792857Y-44051414D01*
X21792857Y-44051414D02*
X21749999Y-44094271D01*
X21749999Y-44094271D02*
X21707142Y-44179985D01*
X21707142Y-44179985D02*
X21707142Y-44265700D01*
X21707142Y-44265700D02*
X21749999Y-44351414D01*
X21749999Y-44351414D02*
X21792857Y-44394271D01*
X21792857Y-44394271D02*
X21878571Y-44437128D01*
X21878571Y-44437128D02*
X22178571Y-44437128D01*
X21278571Y-44008557D02*
X21278571Y-44737128D01*
X21278571Y-44737128D02*
X21235714Y-44822842D01*
X21235714Y-44822842D02*
X21192857Y-44865700D01*
X21192857Y-44865700D02*
X21107142Y-44908557D01*
X21107142Y-44908557D02*
X20935714Y-44908557D01*
X20935714Y-44908557D02*
X20849999Y-44865700D01*
X20849999Y-44865700D02*
X20807142Y-44822842D01*
X20807142Y-44822842D02*
X20764285Y-44737128D01*
X20764285Y-44737128D02*
X20764285Y-44008557D01*
X20035714Y-44437128D02*
X20335714Y-44437128D01*
X20335714Y-44908557D02*
X20335714Y-44008557D01*
X20335714Y-44008557D02*
X19907142Y-44008557D01*
X19264285Y-44437128D02*
X19564285Y-44437128D01*
X19564285Y-44908557D02*
X19564285Y-44008557D01*
X19564285Y-44008557D02*
X19135713Y-44008557D01*
X18792856Y-44437128D02*
X18492856Y-44437128D01*
X18364284Y-44908557D02*
X18792856Y-44908557D01*
X18792856Y-44908557D02*
X18792856Y-44008557D01*
X18792856Y-44008557D02*
X18364284Y-44008557D01*
X17464284Y-44908557D02*
X17764284Y-44479985D01*
X17978570Y-44908557D02*
X17978570Y-44008557D01*
X17978570Y-44008557D02*
X17635713Y-44008557D01*
X17635713Y-44008557D02*
X17549998Y-44051414D01*
X17549998Y-44051414D02*
X17507141Y-44094271D01*
X17507141Y-44094271D02*
X17464284Y-44179985D01*
X17464284Y-44179985D02*
X17464284Y-44308557D01*
X17464284Y-44308557D02*
X17507141Y-44394271D01*
X17507141Y-44394271D02*
X17549998Y-44437128D01*
X17549998Y-44437128D02*
X17635713Y-44479985D01*
X17635713Y-44479985D02*
X17978570Y-44479985D01*
X16392856Y-44908557D02*
X16392856Y-44308557D01*
X16392856Y-44479985D02*
X16349999Y-44394271D01*
X16349999Y-44394271D02*
X16307142Y-44351414D01*
X16307142Y-44351414D02*
X16221427Y-44308557D01*
X16221427Y-44308557D02*
X16135713Y-44308557D01*
X15492856Y-44865700D02*
X15578570Y-44908557D01*
X15578570Y-44908557D02*
X15749999Y-44908557D01*
X15749999Y-44908557D02*
X15835713Y-44865700D01*
X15835713Y-44865700D02*
X15878570Y-44779985D01*
X15878570Y-44779985D02*
X15878570Y-44437128D01*
X15878570Y-44437128D02*
X15835713Y-44351414D01*
X15835713Y-44351414D02*
X15749999Y-44308557D01*
X15749999Y-44308557D02*
X15578570Y-44308557D01*
X15578570Y-44308557D02*
X15492856Y-44351414D01*
X15492856Y-44351414D02*
X15449999Y-44437128D01*
X15449999Y-44437128D02*
X15449999Y-44522842D01*
X15449999Y-44522842D02*
X15878570Y-44608557D01*
X15149998Y-44308557D02*
X14935712Y-44908557D01*
X14935712Y-44908557D02*
X14721427Y-44308557D01*
X13392856Y-44437128D02*
X13264284Y-44479985D01*
X13264284Y-44479985D02*
X13221427Y-44522842D01*
X13221427Y-44522842D02*
X13178570Y-44608557D01*
X13178570Y-44608557D02*
X13178570Y-44737128D01*
X13178570Y-44737128D02*
X13221427Y-44822842D01*
X13221427Y-44822842D02*
X13264284Y-44865700D01*
X13264284Y-44865700D02*
X13349999Y-44908557D01*
X13349999Y-44908557D02*
X13692856Y-44908557D01*
X13692856Y-44908557D02*
X13692856Y-44008557D01*
X13692856Y-44008557D02*
X13392856Y-44008557D01*
X13392856Y-44008557D02*
X13307142Y-44051414D01*
X13307142Y-44051414D02*
X13264284Y-44094271D01*
X13264284Y-44094271D02*
X13221427Y-44179985D01*
X13221427Y-44179985D02*
X13221427Y-44265700D01*
X13221427Y-44265700D02*
X13264284Y-44351414D01*
X13264284Y-44351414D02*
X13307142Y-44394271D01*
X13307142Y-44394271D02*
X13392856Y-44437128D01*
X13392856Y-44437128D02*
X13692856Y-44437128D01*
X37714286Y-16169104D02*
X37238096Y-16169104D01*
X37809524Y-16454819D02*
X37476191Y-15454819D01*
X37476191Y-15454819D02*
X37142858Y-16454819D01*
X36809524Y-16454819D02*
X36809524Y-15454819D01*
X36809524Y-15454819D02*
X36571429Y-15454819D01*
X36571429Y-15454819D02*
X36428572Y-15502438D01*
X36428572Y-15502438D02*
X36333334Y-15597676D01*
X36333334Y-15597676D02*
X36285715Y-15692914D01*
X36285715Y-15692914D02*
X36238096Y-15883390D01*
X36238096Y-15883390D02*
X36238096Y-16026247D01*
X36238096Y-16026247D02*
X36285715Y-16216723D01*
X36285715Y-16216723D02*
X36333334Y-16311961D01*
X36333334Y-16311961D02*
X36428572Y-16407200D01*
X36428572Y-16407200D02*
X36571429Y-16454819D01*
X36571429Y-16454819D02*
X36809524Y-16454819D01*
X35952381Y-15454819D02*
X35619048Y-16454819D01*
X35619048Y-16454819D02*
X35285715Y-15454819D01*
X35047619Y-15454819D02*
X34380953Y-15454819D01*
X34380953Y-15454819D02*
X34809524Y-16454819D01*
X34047619Y-15550057D02*
X34000000Y-15502438D01*
X34000000Y-15502438D02*
X33904762Y-15454819D01*
X33904762Y-15454819D02*
X33666667Y-15454819D01*
X33666667Y-15454819D02*
X33571429Y-15502438D01*
X33571429Y-15502438D02*
X33523810Y-15550057D01*
X33523810Y-15550057D02*
X33476191Y-15645295D01*
X33476191Y-15645295D02*
X33476191Y-15740533D01*
X33476191Y-15740533D02*
X33523810Y-15883390D01*
X33523810Y-15883390D02*
X34095238Y-16454819D01*
X34095238Y-16454819D02*
X33476191Y-16454819D01*
X32904762Y-15883390D02*
X33000000Y-15835771D01*
X33000000Y-15835771D02*
X33047619Y-15788152D01*
X33047619Y-15788152D02*
X33095238Y-15692914D01*
X33095238Y-15692914D02*
X33095238Y-15645295D01*
X33095238Y-15645295D02*
X33047619Y-15550057D01*
X33047619Y-15550057D02*
X33000000Y-15502438D01*
X33000000Y-15502438D02*
X32904762Y-15454819D01*
X32904762Y-15454819D02*
X32714286Y-15454819D01*
X32714286Y-15454819D02*
X32619048Y-15502438D01*
X32619048Y-15502438D02*
X32571429Y-15550057D01*
X32571429Y-15550057D02*
X32523810Y-15645295D01*
X32523810Y-15645295D02*
X32523810Y-15692914D01*
X32523810Y-15692914D02*
X32571429Y-15788152D01*
X32571429Y-15788152D02*
X32619048Y-15835771D01*
X32619048Y-15835771D02*
X32714286Y-15883390D01*
X32714286Y-15883390D02*
X32904762Y-15883390D01*
X32904762Y-15883390D02*
X33000000Y-15931009D01*
X33000000Y-15931009D02*
X33047619Y-15978628D01*
X33047619Y-15978628D02*
X33095238Y-16073866D01*
X33095238Y-16073866D02*
X33095238Y-16264342D01*
X33095238Y-16264342D02*
X33047619Y-16359580D01*
X33047619Y-16359580D02*
X33000000Y-16407200D01*
X33000000Y-16407200D02*
X32904762Y-16454819D01*
X32904762Y-16454819D02*
X32714286Y-16454819D01*
X32714286Y-16454819D02*
X32619048Y-16407200D01*
X32619048Y-16407200D02*
X32571429Y-16359580D01*
X32571429Y-16359580D02*
X32523810Y-16264342D01*
X32523810Y-16264342D02*
X32523810Y-16073866D01*
X32523810Y-16073866D02*
X32571429Y-15978628D01*
X32571429Y-15978628D02*
X32619048Y-15931009D01*
X32619048Y-15931009D02*
X32714286Y-15883390D01*
X31904762Y-15454819D02*
X31809524Y-15454819D01*
X31809524Y-15454819D02*
X31714286Y-15502438D01*
X31714286Y-15502438D02*
X31666667Y-15550057D01*
X31666667Y-15550057D02*
X31619048Y-15645295D01*
X31619048Y-15645295D02*
X31571429Y-15835771D01*
X31571429Y-15835771D02*
X31571429Y-16073866D01*
X31571429Y-16073866D02*
X31619048Y-16264342D01*
X31619048Y-16264342D02*
X31666667Y-16359580D01*
X31666667Y-16359580D02*
X31714286Y-16407200D01*
X31714286Y-16407200D02*
X31809524Y-16454819D01*
X31809524Y-16454819D02*
X31904762Y-16454819D01*
X31904762Y-16454819D02*
X32000000Y-16407200D01*
X32000000Y-16407200D02*
X32047619Y-16359580D01*
X32047619Y-16359580D02*
X32095238Y-16264342D01*
X32095238Y-16264342D02*
X32142857Y-16073866D01*
X32142857Y-16073866D02*
X32142857Y-15835771D01*
X32142857Y-15835771D02*
X32095238Y-15645295D01*
X32095238Y-15645295D02*
X32047619Y-15550057D01*
X32047619Y-15550057D02*
X32000000Y-15502438D01*
X32000000Y-15502438D02*
X31904762Y-15454819D01*
X31142857Y-16454819D02*
X31142857Y-15454819D01*
X31142857Y-15454819D02*
X30809524Y-16169104D01*
X30809524Y-16169104D02*
X30476191Y-15454819D01*
X30476191Y-15454819D02*
X30476191Y-16454819D01*
X30000000Y-16073866D02*
X29238096Y-16073866D01*
X28190477Y-16359580D02*
X28238096Y-16407200D01*
X28238096Y-16407200D02*
X28380953Y-16454819D01*
X28380953Y-16454819D02*
X28476191Y-16454819D01*
X28476191Y-16454819D02*
X28619048Y-16407200D01*
X28619048Y-16407200D02*
X28714286Y-16311961D01*
X28714286Y-16311961D02*
X28761905Y-16216723D01*
X28761905Y-16216723D02*
X28809524Y-16026247D01*
X28809524Y-16026247D02*
X28809524Y-15883390D01*
X28809524Y-15883390D02*
X28761905Y-15692914D01*
X28761905Y-15692914D02*
X28714286Y-15597676D01*
X28714286Y-15597676D02*
X28619048Y-15502438D01*
X28619048Y-15502438D02*
X28476191Y-15454819D01*
X28476191Y-15454819D02*
X28380953Y-15454819D01*
X28380953Y-15454819D02*
X28238096Y-15502438D01*
X28238096Y-15502438D02*
X28190477Y-15550057D01*
X27809524Y-16407200D02*
X27666667Y-16454819D01*
X27666667Y-16454819D02*
X27428572Y-16454819D01*
X27428572Y-16454819D02*
X27333334Y-16407200D01*
X27333334Y-16407200D02*
X27285715Y-16359580D01*
X27285715Y-16359580D02*
X27238096Y-16264342D01*
X27238096Y-16264342D02*
X27238096Y-16169104D01*
X27238096Y-16169104D02*
X27285715Y-16073866D01*
X27285715Y-16073866D02*
X27333334Y-16026247D01*
X27333334Y-16026247D02*
X27428572Y-15978628D01*
X27428572Y-15978628D02*
X27619048Y-15931009D01*
X27619048Y-15931009D02*
X27714286Y-15883390D01*
X27714286Y-15883390D02*
X27761905Y-15835771D01*
X27761905Y-15835771D02*
X27809524Y-15740533D01*
X27809524Y-15740533D02*
X27809524Y-15645295D01*
X27809524Y-15645295D02*
X27761905Y-15550057D01*
X27761905Y-15550057D02*
X27714286Y-15502438D01*
X27714286Y-15502438D02*
X27619048Y-15454819D01*
X27619048Y-15454819D02*
X27380953Y-15454819D01*
X27380953Y-15454819D02*
X27238096Y-15502438D01*
X26809524Y-16454819D02*
X26809524Y-15454819D01*
X26380953Y-15550057D02*
X26333334Y-15502438D01*
X26333334Y-15502438D02*
X26238096Y-15454819D01*
X26238096Y-15454819D02*
X26000001Y-15454819D01*
X26000001Y-15454819D02*
X25904763Y-15502438D01*
X25904763Y-15502438D02*
X25857144Y-15550057D01*
X25857144Y-15550057D02*
X25809525Y-15645295D01*
X25809525Y-15645295D02*
X25809525Y-15740533D01*
X25809525Y-15740533D02*
X25857144Y-15883390D01*
X25857144Y-15883390D02*
X26428572Y-16454819D01*
X26428572Y-16454819D02*
X25809525Y-16454819D01*
X24619048Y-16454819D02*
X24619048Y-15788152D01*
X24619048Y-15978628D02*
X24571429Y-15883390D01*
X24571429Y-15883390D02*
X24523810Y-15835771D01*
X24523810Y-15835771D02*
X24428572Y-15788152D01*
X24428572Y-15788152D02*
X24333334Y-15788152D01*
X23619048Y-16407200D02*
X23714286Y-16454819D01*
X23714286Y-16454819D02*
X23904762Y-16454819D01*
X23904762Y-16454819D02*
X24000000Y-16407200D01*
X24000000Y-16407200D02*
X24047619Y-16311961D01*
X24047619Y-16311961D02*
X24047619Y-15931009D01*
X24047619Y-15931009D02*
X24000000Y-15835771D01*
X24000000Y-15835771D02*
X23904762Y-15788152D01*
X23904762Y-15788152D02*
X23714286Y-15788152D01*
X23714286Y-15788152D02*
X23619048Y-15835771D01*
X23619048Y-15835771D02*
X23571429Y-15931009D01*
X23571429Y-15931009D02*
X23571429Y-16026247D01*
X23571429Y-16026247D02*
X24047619Y-16121485D01*
X23238095Y-15788152D02*
X23000000Y-16454819D01*
X23000000Y-16454819D02*
X22761905Y-15788152D01*
X21285714Y-15931009D02*
X21142857Y-15978628D01*
X21142857Y-15978628D02*
X21095238Y-16026247D01*
X21095238Y-16026247D02*
X21047619Y-16121485D01*
X21047619Y-16121485D02*
X21047619Y-16264342D01*
X21047619Y-16264342D02*
X21095238Y-16359580D01*
X21095238Y-16359580D02*
X21142857Y-16407200D01*
X21142857Y-16407200D02*
X21238095Y-16454819D01*
X21238095Y-16454819D02*
X21619047Y-16454819D01*
X21619047Y-16454819D02*
X21619047Y-15454819D01*
X21619047Y-15454819D02*
X21285714Y-15454819D01*
X21285714Y-15454819D02*
X21190476Y-15502438D01*
X21190476Y-15502438D02*
X21142857Y-15550057D01*
X21142857Y-15550057D02*
X21095238Y-15645295D01*
X21095238Y-15645295D02*
X21095238Y-15740533D01*
X21095238Y-15740533D02*
X21142857Y-15835771D01*
X21142857Y-15835771D02*
X21190476Y-15883390D01*
X21190476Y-15883390D02*
X21285714Y-15931009D01*
X21285714Y-15931009D02*
X21619047Y-15931009D01*
X18666666Y-15788152D02*
X18666666Y-16597676D01*
X18666666Y-16597676D02*
X18714285Y-16692914D01*
X18714285Y-16692914D02*
X18761904Y-16740533D01*
X18761904Y-16740533D02*
X18857142Y-16788152D01*
X18857142Y-16788152D02*
X18999999Y-16788152D01*
X18999999Y-16788152D02*
X19095237Y-16740533D01*
X18666666Y-16407200D02*
X18761904Y-16454819D01*
X18761904Y-16454819D02*
X18952380Y-16454819D01*
X18952380Y-16454819D02*
X19047618Y-16407200D01*
X19047618Y-16407200D02*
X19095237Y-16359580D01*
X19095237Y-16359580D02*
X19142856Y-16264342D01*
X19142856Y-16264342D02*
X19142856Y-15978628D01*
X19142856Y-15978628D02*
X19095237Y-15883390D01*
X19095237Y-15883390D02*
X19047618Y-15835771D01*
X19047618Y-15835771D02*
X18952380Y-15788152D01*
X18952380Y-15788152D02*
X18761904Y-15788152D01*
X18761904Y-15788152D02*
X18666666Y-15835771D01*
X18190475Y-16454819D02*
X18190475Y-15788152D01*
X18190475Y-15454819D02*
X18238094Y-15502438D01*
X18238094Y-15502438D02*
X18190475Y-15550057D01*
X18190475Y-15550057D02*
X18142856Y-15502438D01*
X18142856Y-15502438D02*
X18190475Y-15454819D01*
X18190475Y-15454819D02*
X18190475Y-15550057D01*
X17857142Y-15788152D02*
X17476190Y-15788152D01*
X17714285Y-15454819D02*
X17714285Y-16311961D01*
X17714285Y-16311961D02*
X17666666Y-16407200D01*
X17666666Y-16407200D02*
X17571428Y-16454819D01*
X17571428Y-16454819D02*
X17476190Y-16454819D01*
X17142856Y-16454819D02*
X17142856Y-15454819D01*
X16714285Y-16454819D02*
X16714285Y-15931009D01*
X16714285Y-15931009D02*
X16761904Y-15835771D01*
X16761904Y-15835771D02*
X16857142Y-15788152D01*
X16857142Y-15788152D02*
X16999999Y-15788152D01*
X16999999Y-15788152D02*
X17095237Y-15835771D01*
X17095237Y-15835771D02*
X17142856Y-15883390D01*
X15809523Y-15788152D02*
X15809523Y-16454819D01*
X16238094Y-15788152D02*
X16238094Y-16311961D01*
X16238094Y-16311961D02*
X16190475Y-16407200D01*
X16190475Y-16407200D02*
X16095237Y-16454819D01*
X16095237Y-16454819D02*
X15952380Y-16454819D01*
X15952380Y-16454819D02*
X15857142Y-16407200D01*
X15857142Y-16407200D02*
X15809523Y-16359580D01*
X15333332Y-16454819D02*
X15333332Y-15454819D01*
X15333332Y-15835771D02*
X15238094Y-15788152D01*
X15238094Y-15788152D02*
X15047618Y-15788152D01*
X15047618Y-15788152D02*
X14952380Y-15835771D01*
X14952380Y-15835771D02*
X14904761Y-15883390D01*
X14904761Y-15883390D02*
X14857142Y-15978628D01*
X14857142Y-15978628D02*
X14857142Y-16264342D01*
X14857142Y-16264342D02*
X14904761Y-16359580D01*
X14904761Y-16359580D02*
X14952380Y-16407200D01*
X14952380Y-16407200D02*
X15047618Y-16454819D01*
X15047618Y-16454819D02*
X15238094Y-16454819D01*
X15238094Y-16454819D02*
X15333332Y-16407200D01*
X13666665Y-16454819D02*
X13666665Y-15788152D01*
X13666665Y-15454819D02*
X13714284Y-15502438D01*
X13714284Y-15502438D02*
X13666665Y-15550057D01*
X13666665Y-15550057D02*
X13619046Y-15502438D01*
X13619046Y-15502438D02*
X13666665Y-15454819D01*
X13666665Y-15454819D02*
X13666665Y-15550057D01*
X13190475Y-15788152D02*
X13190475Y-16454819D01*
X13190475Y-15883390D02*
X13142856Y-15835771D01*
X13142856Y-15835771D02*
X13047618Y-15788152D01*
X13047618Y-15788152D02*
X12904761Y-15788152D01*
X12904761Y-15788152D02*
X12809523Y-15835771D01*
X12809523Y-15835771D02*
X12761904Y-15931009D01*
X12761904Y-15931009D02*
X12761904Y-16454819D01*
X11904761Y-16407200D02*
X11999999Y-16454819D01*
X11999999Y-16454819D02*
X12190475Y-16454819D01*
X12190475Y-16454819D02*
X12285713Y-16407200D01*
X12285713Y-16407200D02*
X12333332Y-16311961D01*
X12333332Y-16311961D02*
X12333332Y-15931009D01*
X12333332Y-15931009D02*
X12285713Y-15835771D01*
X12285713Y-15835771D02*
X12190475Y-15788152D01*
X12190475Y-15788152D02*
X11999999Y-15788152D01*
X11999999Y-15788152D02*
X11904761Y-15835771D01*
X11904761Y-15835771D02*
X11857142Y-15931009D01*
X11857142Y-15931009D02*
X11857142Y-16026247D01*
X11857142Y-16026247D02*
X12333332Y-16121485D01*
X11476189Y-16407200D02*
X11380951Y-16454819D01*
X11380951Y-16454819D02*
X11190475Y-16454819D01*
X11190475Y-16454819D02*
X11095237Y-16407200D01*
X11095237Y-16407200D02*
X11047618Y-16311961D01*
X11047618Y-16311961D02*
X11047618Y-16264342D01*
X11047618Y-16264342D02*
X11095237Y-16169104D01*
X11095237Y-16169104D02*
X11190475Y-16121485D01*
X11190475Y-16121485D02*
X11333332Y-16121485D01*
X11333332Y-16121485D02*
X11428570Y-16073866D01*
X11428570Y-16073866D02*
X11476189Y-15978628D01*
X11476189Y-15978628D02*
X11476189Y-15931009D01*
X11476189Y-15931009D02*
X11428570Y-15835771D01*
X11428570Y-15835771D02*
X11333332Y-15788152D01*
X11333332Y-15788152D02*
X11190475Y-15788152D01*
X11190475Y-15788152D02*
X11095237Y-15835771D01*
X10761903Y-15788152D02*
X10380951Y-15788152D01*
X10619046Y-15454819D02*
X10619046Y-16311961D01*
X10619046Y-16311961D02*
X10571427Y-16407200D01*
X10571427Y-16407200D02*
X10476189Y-16454819D01*
X10476189Y-16454819D02*
X10380951Y-16454819D01*
X10142855Y-15788152D02*
X9904760Y-16454819D01*
X9904760Y-16454819D02*
X9666665Y-15788152D01*
X8857141Y-16454819D02*
X8857141Y-15931009D01*
X8857141Y-15931009D02*
X8904760Y-15835771D01*
X8904760Y-15835771D02*
X8999998Y-15788152D01*
X8999998Y-15788152D02*
X9190474Y-15788152D01*
X9190474Y-15788152D02*
X9285712Y-15835771D01*
X8857141Y-16407200D02*
X8952379Y-16454819D01*
X8952379Y-16454819D02*
X9190474Y-16454819D01*
X9190474Y-16454819D02*
X9285712Y-16407200D01*
X9285712Y-16407200D02*
X9333331Y-16311961D01*
X9333331Y-16311961D02*
X9333331Y-16216723D01*
X9333331Y-16216723D02*
X9285712Y-16121485D01*
X9285712Y-16121485D02*
X9190474Y-16073866D01*
X9190474Y-16073866D02*
X8952379Y-16073866D01*
X8952379Y-16073866D02*
X8857141Y-16026247D01*
X8380950Y-15788152D02*
X8380950Y-16454819D01*
X8380950Y-15883390D02*
X8333331Y-15835771D01*
X8333331Y-15835771D02*
X8238093Y-15788152D01*
X8238093Y-15788152D02*
X8095236Y-15788152D01*
X8095236Y-15788152D02*
X7999998Y-15835771D01*
X7999998Y-15835771D02*
X7952379Y-15931009D01*
X7952379Y-15931009D02*
X7952379Y-16454819D01*
X6761903Y-15407200D02*
X7619045Y-16692914D01*
X5999998Y-16454819D02*
X5999998Y-15931009D01*
X5999998Y-15931009D02*
X6047617Y-15835771D01*
X6047617Y-15835771D02*
X6142855Y-15788152D01*
X6142855Y-15788152D02*
X6333331Y-15788152D01*
X6333331Y-15788152D02*
X6428569Y-15835771D01*
X5999998Y-16407200D02*
X6095236Y-16454819D01*
X6095236Y-16454819D02*
X6333331Y-16454819D01*
X6333331Y-16454819D02*
X6428569Y-16407200D01*
X6428569Y-16407200D02*
X6476188Y-16311961D01*
X6476188Y-16311961D02*
X6476188Y-16216723D01*
X6476188Y-16216723D02*
X6428569Y-16121485D01*
X6428569Y-16121485D02*
X6333331Y-16073866D01*
X6333331Y-16073866D02*
X6095236Y-16073866D01*
X6095236Y-16073866D02*
X5999998Y-16026247D01*
X5095236Y-16454819D02*
X5095236Y-15454819D01*
X5095236Y-16407200D02*
X5190474Y-16454819D01*
X5190474Y-16454819D02*
X5380950Y-16454819D01*
X5380950Y-16454819D02*
X5476188Y-16407200D01*
X5476188Y-16407200D02*
X5523807Y-16359580D01*
X5523807Y-16359580D02*
X5571426Y-16264342D01*
X5571426Y-16264342D02*
X5571426Y-15978628D01*
X5571426Y-15978628D02*
X5523807Y-15883390D01*
X5523807Y-15883390D02*
X5476188Y-15835771D01*
X5476188Y-15835771D02*
X5380950Y-15788152D01*
X5380950Y-15788152D02*
X5190474Y-15788152D01*
X5190474Y-15788152D02*
X5095236Y-15835771D01*
X4714283Y-15788152D02*
X4476188Y-16454819D01*
X4476188Y-16454819D02*
X4238093Y-15788152D01*
%LPC*%
D11*
X37000000Y-8000000D03*
D12*
X33200000Y-13000000D03*
X33200000Y-3000000D03*
D13*
X39400000Y-44500000D03*
D14*
X37000000Y-36700000D03*
D15*
X39540000Y-36700000D03*
D13*
X35500000Y-29000000D03*
X2600000Y-37000000D03*
D14*
X37000000Y-52000000D03*
D15*
X39540000Y-52000000D03*
D16*
X6000000Y-46500000D03*
D17*
X6000000Y-51580000D03*
D14*
X7000000Y-38300000D03*
D15*
X7000000Y-40840000D03*
D13*
X8000000Y-3200000D03*
D14*
X30000000Y-52300000D03*
D15*
X32540000Y-52300000D03*
%LPD*%
M02*
