%TF.GenerationSoftware,KiCad,Pcbnew,9.0.9-9.0.9~ubuntu24.04.1*%
%TF.CreationDate,2026-09-20T10:20:26+00:00*%
%TF.ProjectId,adv7280m-csi2,61647637-3238-4306-9d2d-637369322e6b,rev?*%
%TF.SameCoordinates,Original*%
%TF.FileFunction,Drillmap*%
%TF.FilePolarity,Positive*%
%FSLAX45Y45*%
G04 Gerber Fmt 4.5, Leading zero omitted, Abs format (unit mm)*
G04 Created by KiCad (PCBNEW 9.0.9-9.0.9~ubuntu24.04.1) date 2026-09-20 10:20:26*
%MOMM*%
%LPD*%
G01*
G04 APERTURE LIST*
%ADD10C,0.100000*%
%ADD11C,0.200000*%
%ADD12C,0.130000*%
G04 APERTURE END LIST*
D10*
X0Y-150000D02*
G75*
G02*
X150000Y0I150000J0D01*
G01*
X0Y-3050000D02*
X0Y-150000D01*
X150000Y0D02*
X4050000Y0D01*
X150000Y-3200000D02*
G75*
G02*
X0Y-3050000I0J150000D01*
G01*
X4050000Y0D02*
G75*
G02*
X4200000Y-150000I0J-150000D01*
G01*
X4050000Y-3200000D02*
X150000Y-3200000D01*
X4200000Y-150000D02*
X4200000Y-3050000D01*
X4200000Y-3050000D02*
G75*
G02*
X4050000Y-3200000I-150000J0D01*
G01*
D11*
D10*
X890000Y-1440000D02*
X910000Y-1460000D01*
X910000Y-1440000D02*
X890000Y-1460000D01*
X1000000Y-1533000D02*
X1020000Y-1553000D01*
X1020000Y-1533000D02*
X1000000Y-1553000D01*
X1170000Y-1250000D02*
X1190000Y-1270000D01*
X1190000Y-1250000D02*
X1170000Y-1270000D01*
X1310000Y-1388000D02*
X1330000Y-1408000D01*
X1330000Y-1388000D02*
X1310000Y-1408000D01*
X475000Y-800000D02*
G75*
G02*
X445000Y-800000I-15000J0D01*
G01*
X445000Y-800000D02*
G75*
G02*
X475000Y-800000I15000J0D01*
G01*
X475000Y-1100000D02*
G75*
G02*
X445000Y-1100000I-15000J0D01*
G01*
X445000Y-1100000D02*
G75*
G02*
X475000Y-1100000I15000J0D01*
G01*
X475000Y-1400000D02*
G75*
G02*
X445000Y-1400000I-15000J0D01*
G01*
X445000Y-1400000D02*
G75*
G02*
X475000Y-1400000I15000J0D01*
G01*
X475000Y-1700000D02*
G75*
G02*
X445000Y-1700000I-15000J0D01*
G01*
X445000Y-1700000D02*
G75*
G02*
X475000Y-1700000I15000J0D01*
G01*
X795000Y-2280000D02*
G75*
G02*
X765000Y-2280000I-15000J0D01*
G01*
X765000Y-2280000D02*
G75*
G02*
X795000Y-2280000I15000J0D01*
G01*
X845000Y-1860000D02*
G75*
G02*
X815000Y-1860000I-15000J0D01*
G01*
X815000Y-1860000D02*
G75*
G02*
X845000Y-1860000I15000J0D01*
G01*
X845000Y-2000000D02*
G75*
G02*
X815000Y-2000000I-15000J0D01*
G01*
X815000Y-2000000D02*
G75*
G02*
X845000Y-2000000I15000J0D01*
G01*
X845000Y-2100000D02*
G75*
G02*
X815000Y-2100000I-15000J0D01*
G01*
X815000Y-2100000D02*
G75*
G02*
X845000Y-2100000I15000J0D01*
G01*
X852500Y-2580000D02*
G75*
G02*
X822500Y-2580000I-15000J0D01*
G01*
X822500Y-2580000D02*
G75*
G02*
X852500Y-2580000I15000J0D01*
G01*
X955000Y-2350000D02*
G75*
G02*
X925000Y-2350000I-15000J0D01*
G01*
X925000Y-2350000D02*
G75*
G02*
X955000Y-2350000I15000J0D01*
G01*
X955000Y-2550000D02*
G75*
G02*
X925000Y-2550000I-15000J0D01*
G01*
X925000Y-2550000D02*
G75*
G02*
X955000Y-2550000I15000J0D01*
G01*
X955000Y-2850000D02*
G75*
G02*
X925000Y-2850000I-15000J0D01*
G01*
X925000Y-2850000D02*
G75*
G02*
X955000Y-2850000I15000J0D01*
G01*
X1155000Y-1940000D02*
G75*
G02*
X1125000Y-1940000I-15000J0D01*
G01*
X1125000Y-1940000D02*
G75*
G02*
X1155000Y-1940000I15000J0D01*
G01*
X1165000Y-2240000D02*
G75*
G02*
X1135000Y-2240000I-15000J0D01*
G01*
X1135000Y-2240000D02*
G75*
G02*
X1165000Y-2240000I15000J0D01*
G01*
X1165000Y-2740000D02*
G75*
G02*
X1135000Y-2740000I-15000J0D01*
G01*
X1135000Y-2740000D02*
G75*
G02*
X1165000Y-2740000I15000J0D01*
G01*
X1300000Y-150000D02*
G75*
G02*
X1270000Y-150000I-15000J0D01*
G01*
X1270000Y-150000D02*
G75*
G02*
X1300000Y-150000I15000J0D01*
G01*
X1365000Y-855000D02*
G75*
G02*
X1335000Y-855000I-15000J0D01*
G01*
X1335000Y-855000D02*
G75*
G02*
X1365000Y-855000I15000J0D01*
G01*
X1365000Y-1115000D02*
G75*
G02*
X1335000Y-1115000I-15000J0D01*
G01*
X1335000Y-1115000D02*
G75*
G02*
X1365000Y-1115000I15000J0D01*
G01*
X1365000Y-2500000D02*
G75*
G02*
X1335000Y-2500000I-15000J0D01*
G01*
X1335000Y-2500000D02*
G75*
G02*
X1365000Y-2500000I15000J0D01*
G01*
X1467500Y-2370000D02*
G75*
G02*
X1437500Y-2370000I-15000J0D01*
G01*
X1437500Y-2370000D02*
G75*
G02*
X1467500Y-2370000I15000J0D01*
G01*
X1603000Y-1280000D02*
G75*
G02*
X1573000Y-1280000I-15000J0D01*
G01*
X1573000Y-1280000D02*
G75*
G02*
X1603000Y-1280000I15000J0D01*
G01*
X1622500Y-1990000D02*
G75*
G02*
X1592500Y-1990000I-15000J0D01*
G01*
X1592500Y-1990000D02*
G75*
G02*
X1622500Y-1990000I15000J0D01*
G01*
X1622500Y-2350000D02*
G75*
G02*
X1592500Y-2350000I-15000J0D01*
G01*
X1592500Y-2350000D02*
G75*
G02*
X1622500Y-2350000I15000J0D01*
G01*
X1622500Y-2490000D02*
G75*
G02*
X1592500Y-2490000I-15000J0D01*
G01*
X1592500Y-2490000D02*
G75*
G02*
X1622500Y-2490000I15000J0D01*
G01*
X1622500Y-2850000D02*
G75*
G02*
X1592500Y-2850000I-15000J0D01*
G01*
X1592500Y-2850000D02*
G75*
G02*
X1622500Y-2850000I15000J0D01*
G01*
X1645000Y-390000D02*
G75*
G02*
X1615000Y-390000I-15000J0D01*
G01*
X1615000Y-390000D02*
G75*
G02*
X1645000Y-390000I15000J0D01*
G01*
X1775000Y-2500000D02*
G75*
G02*
X1745000Y-2500000I-15000J0D01*
G01*
X1745000Y-2500000D02*
G75*
G02*
X1775000Y-2500000I15000J0D01*
G01*
X1805000Y-1570000D02*
G75*
G02*
X1775000Y-1570000I-15000J0D01*
G01*
X1775000Y-1570000D02*
G75*
G02*
X1805000Y-1570000I15000J0D01*
G01*
X1835000Y-220000D02*
G75*
G02*
X1805000Y-220000I-15000J0D01*
G01*
X1805000Y-220000D02*
G75*
G02*
X1835000Y-220000I15000J0D01*
G01*
X1865000Y-650000D02*
G75*
G02*
X1835000Y-650000I-15000J0D01*
G01*
X1835000Y-650000D02*
G75*
G02*
X1865000Y-650000I15000J0D01*
G01*
X1875000Y-2290000D02*
G75*
G02*
X1845000Y-2290000I-15000J0D01*
G01*
X1845000Y-2290000D02*
G75*
G02*
X1875000Y-2290000I15000J0D01*
G01*
X1895000Y-1730000D02*
G75*
G02*
X1865000Y-1730000I-15000J0D01*
G01*
X1865000Y-1730000D02*
G75*
G02*
X1895000Y-1730000I15000J0D01*
G01*
X1915000Y-950000D02*
G75*
G02*
X1885000Y-950000I-15000J0D01*
G01*
X1885000Y-950000D02*
G75*
G02*
X1915000Y-950000I15000J0D01*
G01*
X1915000Y-1050000D02*
G75*
G02*
X1885000Y-1050000I-15000J0D01*
G01*
X1885000Y-1050000D02*
G75*
G02*
X1915000Y-1050000I15000J0D01*
G01*
X1915000Y-1150000D02*
G75*
G02*
X1885000Y-1150000I-15000J0D01*
G01*
X1885000Y-1150000D02*
G75*
G02*
X1915000Y-1150000I15000J0D01*
G01*
X1935000Y-690000D02*
G75*
G02*
X1905000Y-690000I-15000J0D01*
G01*
X1905000Y-690000D02*
G75*
G02*
X1935000Y-690000I15000J0D01*
G01*
X2015000Y-950000D02*
G75*
G02*
X1985000Y-950000I-15000J0D01*
G01*
X1985000Y-950000D02*
G75*
G02*
X2015000Y-950000I15000J0D01*
G01*
X2015000Y-1050000D02*
G75*
G02*
X1985000Y-1050000I-15000J0D01*
G01*
X1985000Y-1050000D02*
G75*
G02*
X2015000Y-1050000I15000J0D01*
G01*
X2015000Y-1150000D02*
G75*
G02*
X1985000Y-1150000I-15000J0D01*
G01*
X1985000Y-1150000D02*
G75*
G02*
X2015000Y-1150000I15000J0D01*
G01*
X2015000Y-1730000D02*
G75*
G02*
X1985000Y-1730000I-15000J0D01*
G01*
X1985000Y-1730000D02*
G75*
G02*
X2015000Y-1730000I15000J0D01*
G01*
X2015000Y-2480000D02*
G75*
G02*
X1985000Y-2480000I-15000J0D01*
G01*
X1985000Y-2480000D02*
G75*
G02*
X2015000Y-2480000I15000J0D01*
G01*
X2115000Y-950000D02*
G75*
G02*
X2085000Y-950000I-15000J0D01*
G01*
X2085000Y-950000D02*
G75*
G02*
X2115000Y-950000I15000J0D01*
G01*
X2115000Y-1050000D02*
G75*
G02*
X2085000Y-1050000I-15000J0D01*
G01*
X2085000Y-1050000D02*
G75*
G02*
X2115000Y-1050000I15000J0D01*
G01*
X2115000Y-1150000D02*
G75*
G02*
X2085000Y-1150000I-15000J0D01*
G01*
X2085000Y-1150000D02*
G75*
G02*
X2115000Y-1150000I15000J0D01*
G01*
X2195000Y-390000D02*
G75*
G02*
X2165000Y-390000I-15000J0D01*
G01*
X2165000Y-390000D02*
G75*
G02*
X2195000Y-390000I15000J0D01*
G01*
X2232500Y-2670000D02*
G75*
G02*
X2202500Y-2670000I-15000J0D01*
G01*
X2202500Y-2670000D02*
G75*
G02*
X2232500Y-2670000I15000J0D01*
G01*
X2257000Y-1540000D02*
G75*
G02*
X2227000Y-1540000I-15000J0D01*
G01*
X2227000Y-1540000D02*
G75*
G02*
X2257000Y-1540000I15000J0D01*
G01*
X2310000Y-2420000D02*
G75*
G02*
X2280000Y-2420000I-15000J0D01*
G01*
X2280000Y-2420000D02*
G75*
G02*
X2310000Y-2420000I15000J0D01*
G01*
X2345000Y-390000D02*
G75*
G02*
X2315000Y-390000I-15000J0D01*
G01*
X2315000Y-390000D02*
G75*
G02*
X2345000Y-390000I15000J0D01*
G01*
X2353000Y-1530000D02*
G75*
G02*
X2323000Y-1530000I-15000J0D01*
G01*
X2323000Y-1530000D02*
G75*
G02*
X2353000Y-1530000I15000J0D01*
G01*
X2410000Y-150000D02*
G75*
G02*
X2380000Y-150000I-15000J0D01*
G01*
X2380000Y-150000D02*
G75*
G02*
X2410000Y-150000I15000J0D01*
G01*
X2447000Y-1540000D02*
G75*
G02*
X2417000Y-1540000I-15000J0D01*
G01*
X2417000Y-1540000D02*
G75*
G02*
X2447000Y-1540000I15000J0D01*
G01*
X2457000Y-810000D02*
G75*
G02*
X2427000Y-810000I-15000J0D01*
G01*
X2427000Y-810000D02*
G75*
G02*
X2457000Y-810000I15000J0D01*
G01*
X2543000Y-1530000D02*
G75*
G02*
X2513000Y-1530000I-15000J0D01*
G01*
X2513000Y-1530000D02*
G75*
G02*
X2543000Y-1530000I15000J0D01*
G01*
X2553000Y-1000000D02*
G75*
G02*
X2523000Y-1000000I-15000J0D01*
G01*
X2523000Y-1000000D02*
G75*
G02*
X2553000Y-1000000I15000J0D01*
G01*
X2645000Y-390000D02*
G75*
G02*
X2615000Y-390000I-15000J0D01*
G01*
X2615000Y-390000D02*
G75*
G02*
X2645000Y-390000I15000J0D01*
G01*
X2645000Y-760000D02*
G75*
G02*
X2615000Y-760000I-15000J0D01*
G01*
X2615000Y-760000D02*
G75*
G02*
X2645000Y-760000I15000J0D01*
G01*
X2645000Y-2590000D02*
G75*
G02*
X2615000Y-2590000I-15000J0D01*
G01*
X2615000Y-2590000D02*
G75*
G02*
X2645000Y-2590000I15000J0D01*
G01*
X2715000Y-1060000D02*
G75*
G02*
X2685000Y-1060000I-15000J0D01*
G01*
X2685000Y-1060000D02*
G75*
G02*
X2715000Y-1060000I15000J0D01*
G01*
X2725000Y-820000D02*
G75*
G02*
X2695000Y-820000I-15000J0D01*
G01*
X2695000Y-820000D02*
G75*
G02*
X2725000Y-820000I15000J0D01*
G01*
X2725000Y-2430000D02*
G75*
G02*
X2695000Y-2430000I-15000J0D01*
G01*
X2695000Y-2430000D02*
G75*
G02*
X2725000Y-2430000I15000J0D01*
G01*
X2795000Y-390000D02*
G75*
G02*
X2765000Y-390000I-15000J0D01*
G01*
X2765000Y-390000D02*
G75*
G02*
X2795000Y-390000I15000J0D01*
G01*
X2795000Y-760000D02*
G75*
G02*
X2765000Y-760000I-15000J0D01*
G01*
X2765000Y-760000D02*
G75*
G02*
X2795000Y-760000I15000J0D01*
G01*
X2875000Y-1690000D02*
G75*
G02*
X2845000Y-1690000I-15000J0D01*
G01*
X2845000Y-1690000D02*
G75*
G02*
X2875000Y-1690000I15000J0D01*
G01*
X2905000Y-2590000D02*
G75*
G02*
X2875000Y-2590000I-15000J0D01*
G01*
X2875000Y-2590000D02*
G75*
G02*
X2905000Y-2590000I15000J0D01*
G01*
X3335000Y-1520000D02*
G75*
G02*
X3305000Y-1520000I-15000J0D01*
G01*
X3305000Y-1520000D02*
G75*
G02*
X3335000Y-1520000I15000J0D01*
G01*
X3665000Y-2070000D02*
G75*
G02*
X3635000Y-2070000I-15000J0D01*
G01*
X3635000Y-2070000D02*
G75*
G02*
X3665000Y-2070000I15000J0D01*
G01*
X3320000Y-250000D02*
X3320000Y-350000D01*
X3270000Y-300000D02*
X3370000Y-300000D01*
X3395000Y-250000D02*
X3245000Y-250000D01*
X3245000Y-350000D02*
G75*
G02*
X3245000Y-250000I0J50000D01*
G01*
X3245000Y-350000D02*
X3395000Y-350000D01*
X3395000Y-350000D02*
G75*
G03*
X3395000Y-250000I0J50000D01*
G01*
X3320000Y-1250000D02*
X3320000Y-1350000D01*
X3270000Y-1300000D02*
X3370000Y-1300000D01*
X3395000Y-1250000D02*
X3245000Y-1250000D01*
X3245000Y-1350000D02*
G75*
G02*
X3245000Y-1250000I0J50000D01*
G01*
X3245000Y-1350000D02*
X3395000Y-1350000D01*
X3395000Y-1350000D02*
G75*
G03*
X3395000Y-1250000I0J50000D01*
G01*
D12*
X3745962Y-845962D02*
X3745962Y-754038D01*
X3654038Y-754038D01*
X3654038Y-845962D01*
X3745962Y-845962D01*
D10*
X3765000Y-860000D02*
X3765000Y-740000D01*
X3635000Y-740000D02*
G75*
G02*
X3765000Y-740000I65000J0D01*
G01*
X3635000Y-740000D02*
X3635000Y-860000D01*
X3635000Y-860000D02*
G75*
G03*
X3765000Y-860000I65000J0D01*
G01*
D11*
X255777Y-3516484D02*
X255777Y-3316484D01*
X255777Y-3316484D02*
X303396Y-3316484D01*
X303396Y-3316484D02*
X331967Y-3326008D01*
X331967Y-3326008D02*
X351015Y-3345055D01*
X351015Y-3345055D02*
X360539Y-3364103D01*
X360539Y-3364103D02*
X370062Y-3402198D01*
X370062Y-3402198D02*
X370062Y-3430769D01*
X370062Y-3430769D02*
X360539Y-3468865D01*
X360539Y-3468865D02*
X351015Y-3487912D01*
X351015Y-3487912D02*
X331967Y-3506960D01*
X331967Y-3506960D02*
X303396Y-3516484D01*
X303396Y-3516484D02*
X255777Y-3516484D01*
X455777Y-3516484D02*
X455777Y-3383150D01*
X455777Y-3421246D02*
X465301Y-3402198D01*
X465301Y-3402198D02*
X474824Y-3392674D01*
X474824Y-3392674D02*
X493872Y-3383150D01*
X493872Y-3383150D02*
X512920Y-3383150D01*
X579586Y-3516484D02*
X579586Y-3383150D01*
X579586Y-3316484D02*
X570063Y-3326008D01*
X570063Y-3326008D02*
X579586Y-3335531D01*
X579586Y-3335531D02*
X589110Y-3326008D01*
X589110Y-3326008D02*
X579586Y-3316484D01*
X579586Y-3316484D02*
X579586Y-3335531D01*
X703396Y-3516484D02*
X684348Y-3506960D01*
X684348Y-3506960D02*
X674824Y-3487912D01*
X674824Y-3487912D02*
X674824Y-3316484D01*
X808158Y-3516484D02*
X789110Y-3506960D01*
X789110Y-3506960D02*
X779586Y-3487912D01*
X779586Y-3487912D02*
X779586Y-3316484D01*
X1036729Y-3516484D02*
X1036729Y-3316484D01*
X1036729Y-3316484D02*
X1103396Y-3459341D01*
X1103396Y-3459341D02*
X1170063Y-3316484D01*
X1170063Y-3316484D02*
X1170063Y-3516484D01*
X1351015Y-3516484D02*
X1351015Y-3411722D01*
X1351015Y-3411722D02*
X1341491Y-3392674D01*
X1341491Y-3392674D02*
X1322444Y-3383150D01*
X1322444Y-3383150D02*
X1284348Y-3383150D01*
X1284348Y-3383150D02*
X1265301Y-3392674D01*
X1351015Y-3506960D02*
X1331967Y-3516484D01*
X1331967Y-3516484D02*
X1284348Y-3516484D01*
X1284348Y-3516484D02*
X1265301Y-3506960D01*
X1265301Y-3506960D02*
X1255777Y-3487912D01*
X1255777Y-3487912D02*
X1255777Y-3468865D01*
X1255777Y-3468865D02*
X1265301Y-3449817D01*
X1265301Y-3449817D02*
X1284348Y-3440293D01*
X1284348Y-3440293D02*
X1331967Y-3440293D01*
X1331967Y-3440293D02*
X1351015Y-3430769D01*
X1446253Y-3383150D02*
X1446253Y-3583150D01*
X1446253Y-3392674D02*
X1465301Y-3383150D01*
X1465301Y-3383150D02*
X1503396Y-3383150D01*
X1503396Y-3383150D02*
X1522443Y-3392674D01*
X1522443Y-3392674D02*
X1531967Y-3402198D01*
X1531967Y-3402198D02*
X1541491Y-3421246D01*
X1541491Y-3421246D02*
X1541491Y-3478388D01*
X1541491Y-3478388D02*
X1531967Y-3497436D01*
X1531967Y-3497436D02*
X1522443Y-3506960D01*
X1522443Y-3506960D02*
X1503396Y-3516484D01*
X1503396Y-3516484D02*
X1465301Y-3516484D01*
X1465301Y-3516484D02*
X1446253Y-3506960D01*
X1627205Y-3497436D02*
X1636729Y-3506960D01*
X1636729Y-3506960D02*
X1627205Y-3516484D01*
X1627205Y-3516484D02*
X1617682Y-3506960D01*
X1617682Y-3506960D02*
X1627205Y-3497436D01*
X1627205Y-3497436D02*
X1627205Y-3516484D01*
X1627205Y-3392674D02*
X1636729Y-3402198D01*
X1636729Y-3402198D02*
X1627205Y-3411722D01*
X1627205Y-3411722D02*
X1617682Y-3402198D01*
X1617682Y-3402198D02*
X1627205Y-3392674D01*
X1627205Y-3392674D02*
X1627205Y-3411722D01*
D10*
X-25000Y-3835000D02*
X-5000Y-3855000D01*
X-5000Y-3835000D02*
X-25000Y-3855000D01*
D11*
X293872Y-3736484D02*
X312920Y-3736484D01*
X312920Y-3736484D02*
X331967Y-3746008D01*
X331967Y-3746008D02*
X341491Y-3755531D01*
X341491Y-3755531D02*
X351015Y-3774579D01*
X351015Y-3774579D02*
X360539Y-3812674D01*
X360539Y-3812674D02*
X360539Y-3860293D01*
X360539Y-3860293D02*
X351015Y-3898388D01*
X351015Y-3898388D02*
X341491Y-3917436D01*
X341491Y-3917436D02*
X331967Y-3926960D01*
X331967Y-3926960D02*
X312920Y-3936484D01*
X312920Y-3936484D02*
X293872Y-3936484D01*
X293872Y-3936484D02*
X274824Y-3926960D01*
X274824Y-3926960D02*
X265301Y-3917436D01*
X265301Y-3917436D02*
X255777Y-3898388D01*
X255777Y-3898388D02*
X246253Y-3860293D01*
X246253Y-3860293D02*
X246253Y-3812674D01*
X246253Y-3812674D02*
X255777Y-3774579D01*
X255777Y-3774579D02*
X265301Y-3755531D01*
X265301Y-3755531D02*
X274824Y-3746008D01*
X274824Y-3746008D02*
X293872Y-3736484D01*
X446253Y-3917436D02*
X455777Y-3926960D01*
X455777Y-3926960D02*
X446253Y-3936484D01*
X446253Y-3936484D02*
X436729Y-3926960D01*
X436729Y-3926960D02*
X446253Y-3917436D01*
X446253Y-3917436D02*
X446253Y-3936484D01*
X531967Y-3755531D02*
X541491Y-3746008D01*
X541491Y-3746008D02*
X560539Y-3736484D01*
X560539Y-3736484D02*
X608158Y-3736484D01*
X608158Y-3736484D02*
X627205Y-3746008D01*
X627205Y-3746008D02*
X636729Y-3755531D01*
X636729Y-3755531D02*
X646253Y-3774579D01*
X646253Y-3774579D02*
X646253Y-3793627D01*
X646253Y-3793627D02*
X636729Y-3822198D01*
X636729Y-3822198D02*
X522443Y-3936484D01*
X522443Y-3936484D02*
X646253Y-3936484D01*
X770062Y-3736484D02*
X789110Y-3736484D01*
X789110Y-3736484D02*
X808158Y-3746008D01*
X808158Y-3746008D02*
X817682Y-3755531D01*
X817682Y-3755531D02*
X827205Y-3774579D01*
X827205Y-3774579D02*
X836729Y-3812674D01*
X836729Y-3812674D02*
X836729Y-3860293D01*
X836729Y-3860293D02*
X827205Y-3898388D01*
X827205Y-3898388D02*
X817682Y-3917436D01*
X817682Y-3917436D02*
X808158Y-3926960D01*
X808158Y-3926960D02*
X789110Y-3936484D01*
X789110Y-3936484D02*
X770062Y-3936484D01*
X770062Y-3936484D02*
X751015Y-3926960D01*
X751015Y-3926960D02*
X741491Y-3917436D01*
X741491Y-3917436D02*
X731967Y-3898388D01*
X731967Y-3898388D02*
X722443Y-3860293D01*
X722443Y-3860293D02*
X722443Y-3812674D01*
X722443Y-3812674D02*
X731967Y-3774579D01*
X731967Y-3774579D02*
X741491Y-3755531D01*
X741491Y-3755531D02*
X751015Y-3746008D01*
X751015Y-3746008D02*
X770062Y-3736484D01*
X960539Y-3736484D02*
X979586Y-3736484D01*
X979586Y-3736484D02*
X998634Y-3746008D01*
X998634Y-3746008D02*
X1008158Y-3755531D01*
X1008158Y-3755531D02*
X1017682Y-3774579D01*
X1017682Y-3774579D02*
X1027205Y-3812674D01*
X1027205Y-3812674D02*
X1027205Y-3860293D01*
X1027205Y-3860293D02*
X1017682Y-3898388D01*
X1017682Y-3898388D02*
X1008158Y-3917436D01*
X1008158Y-3917436D02*
X998634Y-3926960D01*
X998634Y-3926960D02*
X979586Y-3936484D01*
X979586Y-3936484D02*
X960539Y-3936484D01*
X960539Y-3936484D02*
X941491Y-3926960D01*
X941491Y-3926960D02*
X931967Y-3917436D01*
X931967Y-3917436D02*
X922443Y-3898388D01*
X922443Y-3898388D02*
X912920Y-3860293D01*
X912920Y-3860293D02*
X912920Y-3812674D01*
X912920Y-3812674D02*
X922443Y-3774579D01*
X922443Y-3774579D02*
X931967Y-3755531D01*
X931967Y-3755531D02*
X941491Y-3746008D01*
X941491Y-3746008D02*
X960539Y-3736484D01*
X1112920Y-3936484D02*
X1112920Y-3803150D01*
X1112920Y-3822198D02*
X1122444Y-3812674D01*
X1122444Y-3812674D02*
X1141491Y-3803150D01*
X1141491Y-3803150D02*
X1170063Y-3803150D01*
X1170063Y-3803150D02*
X1189110Y-3812674D01*
X1189110Y-3812674D02*
X1198634Y-3831722D01*
X1198634Y-3831722D02*
X1198634Y-3936484D01*
X1198634Y-3831722D02*
X1208158Y-3812674D01*
X1208158Y-3812674D02*
X1227205Y-3803150D01*
X1227205Y-3803150D02*
X1255777Y-3803150D01*
X1255777Y-3803150D02*
X1274825Y-3812674D01*
X1274825Y-3812674D02*
X1284348Y-3831722D01*
X1284348Y-3831722D02*
X1284348Y-3936484D01*
X1379586Y-3936484D02*
X1379586Y-3803150D01*
X1379586Y-3822198D02*
X1389110Y-3812674D01*
X1389110Y-3812674D02*
X1408158Y-3803150D01*
X1408158Y-3803150D02*
X1436729Y-3803150D01*
X1436729Y-3803150D02*
X1455777Y-3812674D01*
X1455777Y-3812674D02*
X1465301Y-3831722D01*
X1465301Y-3831722D02*
X1465301Y-3936484D01*
X1465301Y-3831722D02*
X1474824Y-3812674D01*
X1474824Y-3812674D02*
X1493872Y-3803150D01*
X1493872Y-3803150D02*
X1522443Y-3803150D01*
X1522443Y-3803150D02*
X1541491Y-3812674D01*
X1541491Y-3812674D02*
X1551015Y-3831722D01*
X1551015Y-3831722D02*
X1551015Y-3936484D01*
X1941491Y-3726960D02*
X1770063Y-3984103D01*
X2198634Y-3736484D02*
X2217682Y-3736484D01*
X2217682Y-3736484D02*
X2236729Y-3746008D01*
X2236729Y-3746008D02*
X2246253Y-3755531D01*
X2246253Y-3755531D02*
X2255777Y-3774579D01*
X2255777Y-3774579D02*
X2265301Y-3812674D01*
X2265301Y-3812674D02*
X2265301Y-3860293D01*
X2265301Y-3860293D02*
X2255777Y-3898388D01*
X2255777Y-3898388D02*
X2246253Y-3917436D01*
X2246253Y-3917436D02*
X2236729Y-3926960D01*
X2236729Y-3926960D02*
X2217682Y-3936484D01*
X2217682Y-3936484D02*
X2198634Y-3936484D01*
X2198634Y-3936484D02*
X2179587Y-3926960D01*
X2179587Y-3926960D02*
X2170063Y-3917436D01*
X2170063Y-3917436D02*
X2160539Y-3898388D01*
X2160539Y-3898388D02*
X2151015Y-3860293D01*
X2151015Y-3860293D02*
X2151015Y-3812674D01*
X2151015Y-3812674D02*
X2160539Y-3774579D01*
X2160539Y-3774579D02*
X2170063Y-3755531D01*
X2170063Y-3755531D02*
X2179587Y-3746008D01*
X2179587Y-3746008D02*
X2198634Y-3736484D01*
X2351015Y-3917436D02*
X2360539Y-3926960D01*
X2360539Y-3926960D02*
X2351015Y-3936484D01*
X2351015Y-3936484D02*
X2341491Y-3926960D01*
X2341491Y-3926960D02*
X2351015Y-3917436D01*
X2351015Y-3917436D02*
X2351015Y-3936484D01*
X2484348Y-3736484D02*
X2503396Y-3736484D01*
X2503396Y-3736484D02*
X2522444Y-3746008D01*
X2522444Y-3746008D02*
X2531968Y-3755531D01*
X2531968Y-3755531D02*
X2541491Y-3774579D01*
X2541491Y-3774579D02*
X2551015Y-3812674D01*
X2551015Y-3812674D02*
X2551015Y-3860293D01*
X2551015Y-3860293D02*
X2541491Y-3898388D01*
X2541491Y-3898388D02*
X2531968Y-3917436D01*
X2531968Y-3917436D02*
X2522444Y-3926960D01*
X2522444Y-3926960D02*
X2503396Y-3936484D01*
X2503396Y-3936484D02*
X2484348Y-3936484D01*
X2484348Y-3936484D02*
X2465301Y-3926960D01*
X2465301Y-3926960D02*
X2455777Y-3917436D01*
X2455777Y-3917436D02*
X2446253Y-3898388D01*
X2446253Y-3898388D02*
X2436729Y-3860293D01*
X2436729Y-3860293D02*
X2436729Y-3812674D01*
X2436729Y-3812674D02*
X2446253Y-3774579D01*
X2446253Y-3774579D02*
X2455777Y-3755531D01*
X2455777Y-3755531D02*
X2465301Y-3746008D01*
X2465301Y-3746008D02*
X2484348Y-3736484D01*
X2674825Y-3736484D02*
X2693872Y-3736484D01*
X2693872Y-3736484D02*
X2712920Y-3746008D01*
X2712920Y-3746008D02*
X2722444Y-3755531D01*
X2722444Y-3755531D02*
X2731968Y-3774579D01*
X2731968Y-3774579D02*
X2741491Y-3812674D01*
X2741491Y-3812674D02*
X2741491Y-3860293D01*
X2741491Y-3860293D02*
X2731968Y-3898388D01*
X2731968Y-3898388D02*
X2722444Y-3917436D01*
X2722444Y-3917436D02*
X2712920Y-3926960D01*
X2712920Y-3926960D02*
X2693872Y-3936484D01*
X2693872Y-3936484D02*
X2674825Y-3936484D01*
X2674825Y-3936484D02*
X2655777Y-3926960D01*
X2655777Y-3926960D02*
X2646253Y-3917436D01*
X2646253Y-3917436D02*
X2636729Y-3898388D01*
X2636729Y-3898388D02*
X2627206Y-3860293D01*
X2627206Y-3860293D02*
X2627206Y-3812674D01*
X2627206Y-3812674D02*
X2636729Y-3774579D01*
X2636729Y-3774579D02*
X2646253Y-3755531D01*
X2646253Y-3755531D02*
X2655777Y-3746008D01*
X2655777Y-3746008D02*
X2674825Y-3736484D01*
X2808158Y-3736484D02*
X2941491Y-3736484D01*
X2941491Y-3736484D02*
X2855777Y-3936484D01*
X3027206Y-3936484D02*
X3065301Y-3936484D01*
X3065301Y-3936484D02*
X3084348Y-3926960D01*
X3084348Y-3926960D02*
X3093872Y-3917436D01*
X3093872Y-3917436D02*
X3112920Y-3888865D01*
X3112920Y-3888865D02*
X3122444Y-3850769D01*
X3122444Y-3850769D02*
X3122444Y-3774579D01*
X3122444Y-3774579D02*
X3112920Y-3755531D01*
X3112920Y-3755531D02*
X3103396Y-3746008D01*
X3103396Y-3746008D02*
X3084348Y-3736484D01*
X3084348Y-3736484D02*
X3046253Y-3736484D01*
X3046253Y-3736484D02*
X3027206Y-3746008D01*
X3027206Y-3746008D02*
X3017682Y-3755531D01*
X3017682Y-3755531D02*
X3008158Y-3774579D01*
X3008158Y-3774579D02*
X3008158Y-3822198D01*
X3008158Y-3822198D02*
X3017682Y-3841246D01*
X3017682Y-3841246D02*
X3027206Y-3850769D01*
X3027206Y-3850769D02*
X3046253Y-3860293D01*
X3046253Y-3860293D02*
X3084348Y-3860293D01*
X3084348Y-3860293D02*
X3103396Y-3850769D01*
X3103396Y-3850769D02*
X3112920Y-3841246D01*
X3112920Y-3841246D02*
X3122444Y-3822198D01*
X3198634Y-3736484D02*
X3198634Y-3774579D01*
X3274825Y-3736484D02*
X3274825Y-3774579D01*
X3570063Y-4012674D02*
X3560539Y-4003150D01*
X3560539Y-4003150D02*
X3541491Y-3974579D01*
X3541491Y-3974579D02*
X3531968Y-3955531D01*
X3531968Y-3955531D02*
X3522444Y-3926960D01*
X3522444Y-3926960D02*
X3512920Y-3879341D01*
X3512920Y-3879341D02*
X3512920Y-3841246D01*
X3512920Y-3841246D02*
X3522444Y-3793627D01*
X3522444Y-3793627D02*
X3531968Y-3765055D01*
X3531968Y-3765055D02*
X3541491Y-3746008D01*
X3541491Y-3746008D02*
X3560539Y-3717436D01*
X3560539Y-3717436D02*
X3570063Y-3707912D01*
X3731968Y-3803150D02*
X3731968Y-3936484D01*
X3684348Y-3726960D02*
X3636729Y-3869817D01*
X3636729Y-3869817D02*
X3760539Y-3869817D01*
X3989110Y-3936484D02*
X3989110Y-3736484D01*
X4074825Y-3936484D02*
X4074825Y-3831722D01*
X4074825Y-3831722D02*
X4065301Y-3812674D01*
X4065301Y-3812674D02*
X4046253Y-3803150D01*
X4046253Y-3803150D02*
X4017682Y-3803150D01*
X4017682Y-3803150D02*
X3998634Y-3812674D01*
X3998634Y-3812674D02*
X3989110Y-3822198D01*
X4198634Y-3936484D02*
X4179587Y-3926960D01*
X4179587Y-3926960D02*
X4170063Y-3917436D01*
X4170063Y-3917436D02*
X4160539Y-3898388D01*
X4160539Y-3898388D02*
X4160539Y-3841246D01*
X4160539Y-3841246D02*
X4170063Y-3822198D01*
X4170063Y-3822198D02*
X4179587Y-3812674D01*
X4179587Y-3812674D02*
X4198634Y-3803150D01*
X4198634Y-3803150D02*
X4227206Y-3803150D01*
X4227206Y-3803150D02*
X4246253Y-3812674D01*
X4246253Y-3812674D02*
X4255777Y-3822198D01*
X4255777Y-3822198D02*
X4265301Y-3841246D01*
X4265301Y-3841246D02*
X4265301Y-3898388D01*
X4265301Y-3898388D02*
X4255777Y-3917436D01*
X4255777Y-3917436D02*
X4246253Y-3926960D01*
X4246253Y-3926960D02*
X4227206Y-3936484D01*
X4227206Y-3936484D02*
X4198634Y-3936484D01*
X4379587Y-3936484D02*
X4360539Y-3926960D01*
X4360539Y-3926960D02*
X4351015Y-3907912D01*
X4351015Y-3907912D02*
X4351015Y-3736484D01*
X4531968Y-3926960D02*
X4512920Y-3936484D01*
X4512920Y-3936484D02*
X4474825Y-3936484D01*
X4474825Y-3936484D02*
X4455777Y-3926960D01*
X4455777Y-3926960D02*
X4446253Y-3907912D01*
X4446253Y-3907912D02*
X4446253Y-3831722D01*
X4446253Y-3831722D02*
X4455777Y-3812674D01*
X4455777Y-3812674D02*
X4474825Y-3803150D01*
X4474825Y-3803150D02*
X4512920Y-3803150D01*
X4512920Y-3803150D02*
X4531968Y-3812674D01*
X4531968Y-3812674D02*
X4541492Y-3831722D01*
X4541492Y-3831722D02*
X4541492Y-3850769D01*
X4541492Y-3850769D02*
X4446253Y-3869817D01*
X4617682Y-3926960D02*
X4636730Y-3936484D01*
X4636730Y-3936484D02*
X4674825Y-3936484D01*
X4674825Y-3936484D02*
X4693873Y-3926960D01*
X4693873Y-3926960D02*
X4703396Y-3907912D01*
X4703396Y-3907912D02*
X4703396Y-3898388D01*
X4703396Y-3898388D02*
X4693873Y-3879341D01*
X4693873Y-3879341D02*
X4674825Y-3869817D01*
X4674825Y-3869817D02*
X4646253Y-3869817D01*
X4646253Y-3869817D02*
X4627206Y-3860293D01*
X4627206Y-3860293D02*
X4617682Y-3841246D01*
X4617682Y-3841246D02*
X4617682Y-3831722D01*
X4617682Y-3831722D02*
X4627206Y-3812674D01*
X4627206Y-3812674D02*
X4646253Y-3803150D01*
X4646253Y-3803150D02*
X4674825Y-3803150D01*
X4674825Y-3803150D02*
X4693873Y-3812674D01*
X4770063Y-4012674D02*
X4779587Y-4003150D01*
X4779587Y-4003150D02*
X4798634Y-3974579D01*
X4798634Y-3974579D02*
X4808158Y-3955531D01*
X4808158Y-3955531D02*
X4817682Y-3926960D01*
X4817682Y-3926960D02*
X4827206Y-3879341D01*
X4827206Y-3879341D02*
X4827206Y-3841246D01*
X4827206Y-3841246D02*
X4817682Y-3793627D01*
X4817682Y-3793627D02*
X4808158Y-3765055D01*
X4808158Y-3765055D02*
X4798634Y-3746008D01*
X4798634Y-3746008D02*
X4779587Y-3717436D01*
X4779587Y-3717436D02*
X4770063Y-3707912D01*
D10*
X-5000Y-4109000D02*
G75*
G02*
X-35000Y-4109000I-15000J0D01*
G01*
X-35000Y-4109000D02*
G75*
G02*
X-5000Y-4109000I15000J0D01*
G01*
D11*
X293872Y-4000484D02*
X312920Y-4000484D01*
X312920Y-4000484D02*
X331967Y-4010008D01*
X331967Y-4010008D02*
X341491Y-4019531D01*
X341491Y-4019531D02*
X351015Y-4038579D01*
X351015Y-4038579D02*
X360539Y-4076674D01*
X360539Y-4076674D02*
X360539Y-4124293D01*
X360539Y-4124293D02*
X351015Y-4162388D01*
X351015Y-4162388D02*
X341491Y-4181436D01*
X341491Y-4181436D02*
X331967Y-4190960D01*
X331967Y-4190960D02*
X312920Y-4200484D01*
X312920Y-4200484D02*
X293872Y-4200484D01*
X293872Y-4200484D02*
X274824Y-4190960D01*
X274824Y-4190960D02*
X265301Y-4181436D01*
X265301Y-4181436D02*
X255777Y-4162388D01*
X255777Y-4162388D02*
X246253Y-4124293D01*
X246253Y-4124293D02*
X246253Y-4076674D01*
X246253Y-4076674D02*
X255777Y-4038579D01*
X255777Y-4038579D02*
X265301Y-4019531D01*
X265301Y-4019531D02*
X274824Y-4010008D01*
X274824Y-4010008D02*
X293872Y-4000484D01*
X446253Y-4181436D02*
X455777Y-4190960D01*
X455777Y-4190960D02*
X446253Y-4200484D01*
X446253Y-4200484D02*
X436729Y-4190960D01*
X436729Y-4190960D02*
X446253Y-4181436D01*
X446253Y-4181436D02*
X446253Y-4200484D01*
X522443Y-4000484D02*
X646253Y-4000484D01*
X646253Y-4000484D02*
X579586Y-4076674D01*
X579586Y-4076674D02*
X608158Y-4076674D01*
X608158Y-4076674D02*
X627205Y-4086198D01*
X627205Y-4086198D02*
X636729Y-4095722D01*
X636729Y-4095722D02*
X646253Y-4114769D01*
X646253Y-4114769D02*
X646253Y-4162388D01*
X646253Y-4162388D02*
X636729Y-4181436D01*
X636729Y-4181436D02*
X627205Y-4190960D01*
X627205Y-4190960D02*
X608158Y-4200484D01*
X608158Y-4200484D02*
X551015Y-4200484D01*
X551015Y-4200484D02*
X531967Y-4190960D01*
X531967Y-4190960D02*
X522443Y-4181436D01*
X770062Y-4000484D02*
X789110Y-4000484D01*
X789110Y-4000484D02*
X808158Y-4010008D01*
X808158Y-4010008D02*
X817682Y-4019531D01*
X817682Y-4019531D02*
X827205Y-4038579D01*
X827205Y-4038579D02*
X836729Y-4076674D01*
X836729Y-4076674D02*
X836729Y-4124293D01*
X836729Y-4124293D02*
X827205Y-4162388D01*
X827205Y-4162388D02*
X817682Y-4181436D01*
X817682Y-4181436D02*
X808158Y-4190960D01*
X808158Y-4190960D02*
X789110Y-4200484D01*
X789110Y-4200484D02*
X770062Y-4200484D01*
X770062Y-4200484D02*
X751015Y-4190960D01*
X751015Y-4190960D02*
X741491Y-4181436D01*
X741491Y-4181436D02*
X731967Y-4162388D01*
X731967Y-4162388D02*
X722443Y-4124293D01*
X722443Y-4124293D02*
X722443Y-4076674D01*
X722443Y-4076674D02*
X731967Y-4038579D01*
X731967Y-4038579D02*
X741491Y-4019531D01*
X741491Y-4019531D02*
X751015Y-4010008D01*
X751015Y-4010008D02*
X770062Y-4000484D01*
X960539Y-4000484D02*
X979586Y-4000484D01*
X979586Y-4000484D02*
X998634Y-4010008D01*
X998634Y-4010008D02*
X1008158Y-4019531D01*
X1008158Y-4019531D02*
X1017682Y-4038579D01*
X1017682Y-4038579D02*
X1027205Y-4076674D01*
X1027205Y-4076674D02*
X1027205Y-4124293D01*
X1027205Y-4124293D02*
X1017682Y-4162388D01*
X1017682Y-4162388D02*
X1008158Y-4181436D01*
X1008158Y-4181436D02*
X998634Y-4190960D01*
X998634Y-4190960D02*
X979586Y-4200484D01*
X979586Y-4200484D02*
X960539Y-4200484D01*
X960539Y-4200484D02*
X941491Y-4190960D01*
X941491Y-4190960D02*
X931967Y-4181436D01*
X931967Y-4181436D02*
X922443Y-4162388D01*
X922443Y-4162388D02*
X912920Y-4124293D01*
X912920Y-4124293D02*
X912920Y-4076674D01*
X912920Y-4076674D02*
X922443Y-4038579D01*
X922443Y-4038579D02*
X931967Y-4019531D01*
X931967Y-4019531D02*
X941491Y-4010008D01*
X941491Y-4010008D02*
X960539Y-4000484D01*
X1112920Y-4200484D02*
X1112920Y-4067150D01*
X1112920Y-4086198D02*
X1122444Y-4076674D01*
X1122444Y-4076674D02*
X1141491Y-4067150D01*
X1141491Y-4067150D02*
X1170063Y-4067150D01*
X1170063Y-4067150D02*
X1189110Y-4076674D01*
X1189110Y-4076674D02*
X1198634Y-4095722D01*
X1198634Y-4095722D02*
X1198634Y-4200484D01*
X1198634Y-4095722D02*
X1208158Y-4076674D01*
X1208158Y-4076674D02*
X1227205Y-4067150D01*
X1227205Y-4067150D02*
X1255777Y-4067150D01*
X1255777Y-4067150D02*
X1274825Y-4076674D01*
X1274825Y-4076674D02*
X1284348Y-4095722D01*
X1284348Y-4095722D02*
X1284348Y-4200484D01*
X1379586Y-4200484D02*
X1379586Y-4067150D01*
X1379586Y-4086198D02*
X1389110Y-4076674D01*
X1389110Y-4076674D02*
X1408158Y-4067150D01*
X1408158Y-4067150D02*
X1436729Y-4067150D01*
X1436729Y-4067150D02*
X1455777Y-4076674D01*
X1455777Y-4076674D02*
X1465301Y-4095722D01*
X1465301Y-4095722D02*
X1465301Y-4200484D01*
X1465301Y-4095722D02*
X1474824Y-4076674D01*
X1474824Y-4076674D02*
X1493872Y-4067150D01*
X1493872Y-4067150D02*
X1522443Y-4067150D01*
X1522443Y-4067150D02*
X1541491Y-4076674D01*
X1541491Y-4076674D02*
X1551015Y-4095722D01*
X1551015Y-4095722D02*
X1551015Y-4200484D01*
X1941491Y-3990960D02*
X1770063Y-4248103D01*
X2198634Y-4000484D02*
X2217682Y-4000484D01*
X2217682Y-4000484D02*
X2236729Y-4010008D01*
X2236729Y-4010008D02*
X2246253Y-4019531D01*
X2246253Y-4019531D02*
X2255777Y-4038579D01*
X2255777Y-4038579D02*
X2265301Y-4076674D01*
X2265301Y-4076674D02*
X2265301Y-4124293D01*
X2265301Y-4124293D02*
X2255777Y-4162388D01*
X2255777Y-4162388D02*
X2246253Y-4181436D01*
X2246253Y-4181436D02*
X2236729Y-4190960D01*
X2236729Y-4190960D02*
X2217682Y-4200484D01*
X2217682Y-4200484D02*
X2198634Y-4200484D01*
X2198634Y-4200484D02*
X2179587Y-4190960D01*
X2179587Y-4190960D02*
X2170063Y-4181436D01*
X2170063Y-4181436D02*
X2160539Y-4162388D01*
X2160539Y-4162388D02*
X2151015Y-4124293D01*
X2151015Y-4124293D02*
X2151015Y-4076674D01*
X2151015Y-4076674D02*
X2160539Y-4038579D01*
X2160539Y-4038579D02*
X2170063Y-4019531D01*
X2170063Y-4019531D02*
X2179587Y-4010008D01*
X2179587Y-4010008D02*
X2198634Y-4000484D01*
X2351015Y-4181436D02*
X2360539Y-4190960D01*
X2360539Y-4190960D02*
X2351015Y-4200484D01*
X2351015Y-4200484D02*
X2341491Y-4190960D01*
X2341491Y-4190960D02*
X2351015Y-4181436D01*
X2351015Y-4181436D02*
X2351015Y-4200484D01*
X2484348Y-4000484D02*
X2503396Y-4000484D01*
X2503396Y-4000484D02*
X2522444Y-4010008D01*
X2522444Y-4010008D02*
X2531968Y-4019531D01*
X2531968Y-4019531D02*
X2541491Y-4038579D01*
X2541491Y-4038579D02*
X2551015Y-4076674D01*
X2551015Y-4076674D02*
X2551015Y-4124293D01*
X2551015Y-4124293D02*
X2541491Y-4162388D01*
X2541491Y-4162388D02*
X2531968Y-4181436D01*
X2531968Y-4181436D02*
X2522444Y-4190960D01*
X2522444Y-4190960D02*
X2503396Y-4200484D01*
X2503396Y-4200484D02*
X2484348Y-4200484D01*
X2484348Y-4200484D02*
X2465301Y-4190960D01*
X2465301Y-4190960D02*
X2455777Y-4181436D01*
X2455777Y-4181436D02*
X2446253Y-4162388D01*
X2446253Y-4162388D02*
X2436729Y-4124293D01*
X2436729Y-4124293D02*
X2436729Y-4076674D01*
X2436729Y-4076674D02*
X2446253Y-4038579D01*
X2446253Y-4038579D02*
X2455777Y-4019531D01*
X2455777Y-4019531D02*
X2465301Y-4010008D01*
X2465301Y-4010008D02*
X2484348Y-4000484D01*
X2741491Y-4200484D02*
X2627206Y-4200484D01*
X2684348Y-4200484D02*
X2684348Y-4000484D01*
X2684348Y-4000484D02*
X2665301Y-4029055D01*
X2665301Y-4029055D02*
X2646253Y-4048103D01*
X2646253Y-4048103D02*
X2627206Y-4057627D01*
X2931967Y-4200484D02*
X2817682Y-4200484D01*
X2874825Y-4200484D02*
X2874825Y-4000484D01*
X2874825Y-4000484D02*
X2855777Y-4029055D01*
X2855777Y-4029055D02*
X2836729Y-4048103D01*
X2836729Y-4048103D02*
X2817682Y-4057627D01*
X3046253Y-4086198D02*
X3027206Y-4076674D01*
X3027206Y-4076674D02*
X3017682Y-4067150D01*
X3017682Y-4067150D02*
X3008158Y-4048103D01*
X3008158Y-4048103D02*
X3008158Y-4038579D01*
X3008158Y-4038579D02*
X3017682Y-4019531D01*
X3017682Y-4019531D02*
X3027206Y-4010008D01*
X3027206Y-4010008D02*
X3046253Y-4000484D01*
X3046253Y-4000484D02*
X3084348Y-4000484D01*
X3084348Y-4000484D02*
X3103396Y-4010008D01*
X3103396Y-4010008D02*
X3112920Y-4019531D01*
X3112920Y-4019531D02*
X3122444Y-4038579D01*
X3122444Y-4038579D02*
X3122444Y-4048103D01*
X3122444Y-4048103D02*
X3112920Y-4067150D01*
X3112920Y-4067150D02*
X3103396Y-4076674D01*
X3103396Y-4076674D02*
X3084348Y-4086198D01*
X3084348Y-4086198D02*
X3046253Y-4086198D01*
X3046253Y-4086198D02*
X3027206Y-4095722D01*
X3027206Y-4095722D02*
X3017682Y-4105246D01*
X3017682Y-4105246D02*
X3008158Y-4124293D01*
X3008158Y-4124293D02*
X3008158Y-4162388D01*
X3008158Y-4162388D02*
X3017682Y-4181436D01*
X3017682Y-4181436D02*
X3027206Y-4190960D01*
X3027206Y-4190960D02*
X3046253Y-4200484D01*
X3046253Y-4200484D02*
X3084348Y-4200484D01*
X3084348Y-4200484D02*
X3103396Y-4190960D01*
X3103396Y-4190960D02*
X3112920Y-4181436D01*
X3112920Y-4181436D02*
X3122444Y-4162388D01*
X3122444Y-4162388D02*
X3122444Y-4124293D01*
X3122444Y-4124293D02*
X3112920Y-4105246D01*
X3112920Y-4105246D02*
X3103396Y-4095722D01*
X3103396Y-4095722D02*
X3084348Y-4086198D01*
X3198634Y-4000484D02*
X3198634Y-4038579D01*
X3274825Y-4000484D02*
X3274825Y-4038579D01*
X3570063Y-4276674D02*
X3560539Y-4267150D01*
X3560539Y-4267150D02*
X3541491Y-4238579D01*
X3541491Y-4238579D02*
X3531968Y-4219531D01*
X3531968Y-4219531D02*
X3522444Y-4190960D01*
X3522444Y-4190960D02*
X3512920Y-4143341D01*
X3512920Y-4143341D02*
X3512920Y-4105246D01*
X3512920Y-4105246D02*
X3522444Y-4057627D01*
X3522444Y-4057627D02*
X3531968Y-4029055D01*
X3531968Y-4029055D02*
X3541491Y-4010008D01*
X3541491Y-4010008D02*
X3560539Y-3981436D01*
X3560539Y-3981436D02*
X3570063Y-3971912D01*
X3731968Y-4000484D02*
X3693872Y-4000484D01*
X3693872Y-4000484D02*
X3674825Y-4010008D01*
X3674825Y-4010008D02*
X3665301Y-4019531D01*
X3665301Y-4019531D02*
X3646253Y-4048103D01*
X3646253Y-4048103D02*
X3636729Y-4086198D01*
X3636729Y-4086198D02*
X3636729Y-4162388D01*
X3636729Y-4162388D02*
X3646253Y-4181436D01*
X3646253Y-4181436D02*
X3655777Y-4190960D01*
X3655777Y-4190960D02*
X3674825Y-4200484D01*
X3674825Y-4200484D02*
X3712920Y-4200484D01*
X3712920Y-4200484D02*
X3731968Y-4190960D01*
X3731968Y-4190960D02*
X3741491Y-4181436D01*
X3741491Y-4181436D02*
X3751015Y-4162388D01*
X3751015Y-4162388D02*
X3751015Y-4114769D01*
X3751015Y-4114769D02*
X3741491Y-4095722D01*
X3741491Y-4095722D02*
X3731968Y-4086198D01*
X3731968Y-4086198D02*
X3712920Y-4076674D01*
X3712920Y-4076674D02*
X3674825Y-4076674D01*
X3674825Y-4076674D02*
X3655777Y-4086198D01*
X3655777Y-4086198D02*
X3646253Y-4095722D01*
X3646253Y-4095722D02*
X3636729Y-4114769D01*
X3817682Y-4000484D02*
X3951015Y-4000484D01*
X3951015Y-4000484D02*
X3865301Y-4200484D01*
X4179587Y-4200484D02*
X4179587Y-4000484D01*
X4265301Y-4200484D02*
X4265301Y-4095722D01*
X4265301Y-4095722D02*
X4255777Y-4076674D01*
X4255777Y-4076674D02*
X4236730Y-4067150D01*
X4236730Y-4067150D02*
X4208158Y-4067150D01*
X4208158Y-4067150D02*
X4189110Y-4076674D01*
X4189110Y-4076674D02*
X4179587Y-4086198D01*
X4389111Y-4200484D02*
X4370063Y-4190960D01*
X4370063Y-4190960D02*
X4360539Y-4181436D01*
X4360539Y-4181436D02*
X4351015Y-4162388D01*
X4351015Y-4162388D02*
X4351015Y-4105246D01*
X4351015Y-4105246D02*
X4360539Y-4086198D01*
X4360539Y-4086198D02*
X4370063Y-4076674D01*
X4370063Y-4076674D02*
X4389111Y-4067150D01*
X4389111Y-4067150D02*
X4417682Y-4067150D01*
X4417682Y-4067150D02*
X4436730Y-4076674D01*
X4436730Y-4076674D02*
X4446253Y-4086198D01*
X4446253Y-4086198D02*
X4455777Y-4105246D01*
X4455777Y-4105246D02*
X4455777Y-4162388D01*
X4455777Y-4162388D02*
X4446253Y-4181436D01*
X4446253Y-4181436D02*
X4436730Y-4190960D01*
X4436730Y-4190960D02*
X4417682Y-4200484D01*
X4417682Y-4200484D02*
X4389111Y-4200484D01*
X4570063Y-4200484D02*
X4551015Y-4190960D01*
X4551015Y-4190960D02*
X4541492Y-4171912D01*
X4541492Y-4171912D02*
X4541492Y-4000484D01*
X4722444Y-4190960D02*
X4703396Y-4200484D01*
X4703396Y-4200484D02*
X4665301Y-4200484D01*
X4665301Y-4200484D02*
X4646253Y-4190960D01*
X4646253Y-4190960D02*
X4636730Y-4171912D01*
X4636730Y-4171912D02*
X4636730Y-4095722D01*
X4636730Y-4095722D02*
X4646253Y-4076674D01*
X4646253Y-4076674D02*
X4665301Y-4067150D01*
X4665301Y-4067150D02*
X4703396Y-4067150D01*
X4703396Y-4067150D02*
X4722444Y-4076674D01*
X4722444Y-4076674D02*
X4731968Y-4095722D01*
X4731968Y-4095722D02*
X4731968Y-4114769D01*
X4731968Y-4114769D02*
X4636730Y-4133817D01*
X4808158Y-4190960D02*
X4827206Y-4200484D01*
X4827206Y-4200484D02*
X4865301Y-4200484D01*
X4865301Y-4200484D02*
X4884349Y-4190960D01*
X4884349Y-4190960D02*
X4893873Y-4171912D01*
X4893873Y-4171912D02*
X4893873Y-4162388D01*
X4893873Y-4162388D02*
X4884349Y-4143341D01*
X4884349Y-4143341D02*
X4865301Y-4133817D01*
X4865301Y-4133817D02*
X4836730Y-4133817D01*
X4836730Y-4133817D02*
X4817682Y-4124293D01*
X4817682Y-4124293D02*
X4808158Y-4105246D01*
X4808158Y-4105246D02*
X4808158Y-4095722D01*
X4808158Y-4095722D02*
X4817682Y-4076674D01*
X4817682Y-4076674D02*
X4836730Y-4067150D01*
X4836730Y-4067150D02*
X4865301Y-4067150D01*
X4865301Y-4067150D02*
X4884349Y-4076674D01*
X4960539Y-4276674D02*
X4970063Y-4267150D01*
X4970063Y-4267150D02*
X4989111Y-4238579D01*
X4989111Y-4238579D02*
X4998634Y-4219531D01*
X4998634Y-4219531D02*
X5008158Y-4190960D01*
X5008158Y-4190960D02*
X5017682Y-4143341D01*
X5017682Y-4143341D02*
X5017682Y-4105246D01*
X5017682Y-4105246D02*
X5008158Y-4057627D01*
X5008158Y-4057627D02*
X4998634Y-4029055D01*
X4998634Y-4029055D02*
X4989111Y-4010008D01*
X4989111Y-4010008D02*
X4970063Y-3981436D01*
X4970063Y-3981436D02*
X4960539Y-3971912D01*
D10*
X-55000Y-4323000D02*
X-55000Y-4423000D01*
X-105000Y-4373000D02*
X-5000Y-4373000D01*
D11*
X360539Y-4464484D02*
X246253Y-4464484D01*
X303396Y-4464484D02*
X303396Y-4264484D01*
X303396Y-4264484D02*
X284348Y-4293055D01*
X284348Y-4293055D02*
X265301Y-4312103D01*
X265301Y-4312103D02*
X246253Y-4321627D01*
X446253Y-4445436D02*
X455777Y-4454960D01*
X455777Y-4454960D02*
X446253Y-4464484D01*
X446253Y-4464484D02*
X436729Y-4454960D01*
X436729Y-4454960D02*
X446253Y-4445436D01*
X446253Y-4445436D02*
X446253Y-4464484D01*
X579586Y-4264484D02*
X598634Y-4264484D01*
X598634Y-4264484D02*
X617682Y-4274008D01*
X617682Y-4274008D02*
X627205Y-4283531D01*
X627205Y-4283531D02*
X636729Y-4302579D01*
X636729Y-4302579D02*
X646253Y-4340674D01*
X646253Y-4340674D02*
X646253Y-4388293D01*
X646253Y-4388293D02*
X636729Y-4426389D01*
X636729Y-4426389D02*
X627205Y-4445436D01*
X627205Y-4445436D02*
X617682Y-4454960D01*
X617682Y-4454960D02*
X598634Y-4464484D01*
X598634Y-4464484D02*
X579586Y-4464484D01*
X579586Y-4464484D02*
X560539Y-4454960D01*
X560539Y-4454960D02*
X551015Y-4445436D01*
X551015Y-4445436D02*
X541491Y-4426389D01*
X541491Y-4426389D02*
X531967Y-4388293D01*
X531967Y-4388293D02*
X531967Y-4340674D01*
X531967Y-4340674D02*
X541491Y-4302579D01*
X541491Y-4302579D02*
X551015Y-4283531D01*
X551015Y-4283531D02*
X560539Y-4274008D01*
X560539Y-4274008D02*
X579586Y-4264484D01*
X770062Y-4264484D02*
X789110Y-4264484D01*
X789110Y-4264484D02*
X808158Y-4274008D01*
X808158Y-4274008D02*
X817682Y-4283531D01*
X817682Y-4283531D02*
X827205Y-4302579D01*
X827205Y-4302579D02*
X836729Y-4340674D01*
X836729Y-4340674D02*
X836729Y-4388293D01*
X836729Y-4388293D02*
X827205Y-4426389D01*
X827205Y-4426389D02*
X817682Y-4445436D01*
X817682Y-4445436D02*
X808158Y-4454960D01*
X808158Y-4454960D02*
X789110Y-4464484D01*
X789110Y-4464484D02*
X770062Y-4464484D01*
X770062Y-4464484D02*
X751015Y-4454960D01*
X751015Y-4454960D02*
X741491Y-4445436D01*
X741491Y-4445436D02*
X731967Y-4426389D01*
X731967Y-4426389D02*
X722443Y-4388293D01*
X722443Y-4388293D02*
X722443Y-4340674D01*
X722443Y-4340674D02*
X731967Y-4302579D01*
X731967Y-4302579D02*
X741491Y-4283531D01*
X741491Y-4283531D02*
X751015Y-4274008D01*
X751015Y-4274008D02*
X770062Y-4264484D01*
X960539Y-4264484D02*
X979586Y-4264484D01*
X979586Y-4264484D02*
X998634Y-4274008D01*
X998634Y-4274008D02*
X1008158Y-4283531D01*
X1008158Y-4283531D02*
X1017682Y-4302579D01*
X1017682Y-4302579D02*
X1027205Y-4340674D01*
X1027205Y-4340674D02*
X1027205Y-4388293D01*
X1027205Y-4388293D02*
X1017682Y-4426389D01*
X1017682Y-4426389D02*
X1008158Y-4445436D01*
X1008158Y-4445436D02*
X998634Y-4454960D01*
X998634Y-4454960D02*
X979586Y-4464484D01*
X979586Y-4464484D02*
X960539Y-4464484D01*
X960539Y-4464484D02*
X941491Y-4454960D01*
X941491Y-4454960D02*
X931967Y-4445436D01*
X931967Y-4445436D02*
X922443Y-4426389D01*
X922443Y-4426389D02*
X912920Y-4388293D01*
X912920Y-4388293D02*
X912920Y-4340674D01*
X912920Y-4340674D02*
X922443Y-4302579D01*
X922443Y-4302579D02*
X931967Y-4283531D01*
X931967Y-4283531D02*
X941491Y-4274008D01*
X941491Y-4274008D02*
X960539Y-4264484D01*
X1112920Y-4464484D02*
X1112920Y-4331150D01*
X1112920Y-4350198D02*
X1122444Y-4340674D01*
X1122444Y-4340674D02*
X1141491Y-4331150D01*
X1141491Y-4331150D02*
X1170063Y-4331150D01*
X1170063Y-4331150D02*
X1189110Y-4340674D01*
X1189110Y-4340674D02*
X1198634Y-4359722D01*
X1198634Y-4359722D02*
X1198634Y-4464484D01*
X1198634Y-4359722D02*
X1208158Y-4340674D01*
X1208158Y-4340674D02*
X1227205Y-4331150D01*
X1227205Y-4331150D02*
X1255777Y-4331150D01*
X1255777Y-4331150D02*
X1274825Y-4340674D01*
X1274825Y-4340674D02*
X1284348Y-4359722D01*
X1284348Y-4359722D02*
X1284348Y-4464484D01*
X1379586Y-4464484D02*
X1379586Y-4331150D01*
X1379586Y-4350198D02*
X1389110Y-4340674D01*
X1389110Y-4340674D02*
X1408158Y-4331150D01*
X1408158Y-4331150D02*
X1436729Y-4331150D01*
X1436729Y-4331150D02*
X1455777Y-4340674D01*
X1455777Y-4340674D02*
X1465301Y-4359722D01*
X1465301Y-4359722D02*
X1465301Y-4464484D01*
X1465301Y-4359722D02*
X1474824Y-4340674D01*
X1474824Y-4340674D02*
X1493872Y-4331150D01*
X1493872Y-4331150D02*
X1522443Y-4331150D01*
X1522443Y-4331150D02*
X1541491Y-4340674D01*
X1541491Y-4340674D02*
X1551015Y-4359722D01*
X1551015Y-4359722D02*
X1551015Y-4464484D01*
X1941491Y-4254960D02*
X1770063Y-4512103D01*
X2198634Y-4264484D02*
X2217682Y-4264484D01*
X2217682Y-4264484D02*
X2236729Y-4274008D01*
X2236729Y-4274008D02*
X2246253Y-4283531D01*
X2246253Y-4283531D02*
X2255777Y-4302579D01*
X2255777Y-4302579D02*
X2265301Y-4340674D01*
X2265301Y-4340674D02*
X2265301Y-4388293D01*
X2265301Y-4388293D02*
X2255777Y-4426389D01*
X2255777Y-4426389D02*
X2246253Y-4445436D01*
X2246253Y-4445436D02*
X2236729Y-4454960D01*
X2236729Y-4454960D02*
X2217682Y-4464484D01*
X2217682Y-4464484D02*
X2198634Y-4464484D01*
X2198634Y-4464484D02*
X2179587Y-4454960D01*
X2179587Y-4454960D02*
X2170063Y-4445436D01*
X2170063Y-4445436D02*
X2160539Y-4426389D01*
X2160539Y-4426389D02*
X2151015Y-4388293D01*
X2151015Y-4388293D02*
X2151015Y-4340674D01*
X2151015Y-4340674D02*
X2160539Y-4302579D01*
X2160539Y-4302579D02*
X2170063Y-4283531D01*
X2170063Y-4283531D02*
X2179587Y-4274008D01*
X2179587Y-4274008D02*
X2198634Y-4264484D01*
X2351015Y-4445436D02*
X2360539Y-4454960D01*
X2360539Y-4454960D02*
X2351015Y-4464484D01*
X2351015Y-4464484D02*
X2341491Y-4454960D01*
X2341491Y-4454960D02*
X2351015Y-4445436D01*
X2351015Y-4445436D02*
X2351015Y-4464484D01*
X2484348Y-4264484D02*
X2503396Y-4264484D01*
X2503396Y-4264484D02*
X2522444Y-4274008D01*
X2522444Y-4274008D02*
X2531968Y-4283531D01*
X2531968Y-4283531D02*
X2541491Y-4302579D01*
X2541491Y-4302579D02*
X2551015Y-4340674D01*
X2551015Y-4340674D02*
X2551015Y-4388293D01*
X2551015Y-4388293D02*
X2541491Y-4426389D01*
X2541491Y-4426389D02*
X2531968Y-4445436D01*
X2531968Y-4445436D02*
X2522444Y-4454960D01*
X2522444Y-4454960D02*
X2503396Y-4464484D01*
X2503396Y-4464484D02*
X2484348Y-4464484D01*
X2484348Y-4464484D02*
X2465301Y-4454960D01*
X2465301Y-4454960D02*
X2455777Y-4445436D01*
X2455777Y-4445436D02*
X2446253Y-4426389D01*
X2446253Y-4426389D02*
X2436729Y-4388293D01*
X2436729Y-4388293D02*
X2436729Y-4340674D01*
X2436729Y-4340674D02*
X2446253Y-4302579D01*
X2446253Y-4302579D02*
X2455777Y-4283531D01*
X2455777Y-4283531D02*
X2465301Y-4274008D01*
X2465301Y-4274008D02*
X2484348Y-4264484D01*
X2617682Y-4264484D02*
X2741491Y-4264484D01*
X2741491Y-4264484D02*
X2674825Y-4340674D01*
X2674825Y-4340674D02*
X2703396Y-4340674D01*
X2703396Y-4340674D02*
X2722444Y-4350198D01*
X2722444Y-4350198D02*
X2731968Y-4359722D01*
X2731968Y-4359722D02*
X2741491Y-4378770D01*
X2741491Y-4378770D02*
X2741491Y-4426389D01*
X2741491Y-4426389D02*
X2731968Y-4445436D01*
X2731968Y-4445436D02*
X2722444Y-4454960D01*
X2722444Y-4454960D02*
X2703396Y-4464484D01*
X2703396Y-4464484D02*
X2646253Y-4464484D01*
X2646253Y-4464484D02*
X2627206Y-4454960D01*
X2627206Y-4454960D02*
X2617682Y-4445436D01*
X2836729Y-4464484D02*
X2874825Y-4464484D01*
X2874825Y-4464484D02*
X2893872Y-4454960D01*
X2893872Y-4454960D02*
X2903396Y-4445436D01*
X2903396Y-4445436D02*
X2922444Y-4416865D01*
X2922444Y-4416865D02*
X2931967Y-4378770D01*
X2931967Y-4378770D02*
X2931967Y-4302579D01*
X2931967Y-4302579D02*
X2922444Y-4283531D01*
X2922444Y-4283531D02*
X2912920Y-4274008D01*
X2912920Y-4274008D02*
X2893872Y-4264484D01*
X2893872Y-4264484D02*
X2855777Y-4264484D01*
X2855777Y-4264484D02*
X2836729Y-4274008D01*
X2836729Y-4274008D02*
X2827206Y-4283531D01*
X2827206Y-4283531D02*
X2817682Y-4302579D01*
X2817682Y-4302579D02*
X2817682Y-4350198D01*
X2817682Y-4350198D02*
X2827206Y-4369246D01*
X2827206Y-4369246D02*
X2836729Y-4378770D01*
X2836729Y-4378770D02*
X2855777Y-4388293D01*
X2855777Y-4388293D02*
X2893872Y-4388293D01*
X2893872Y-4388293D02*
X2912920Y-4378770D01*
X2912920Y-4378770D02*
X2922444Y-4369246D01*
X2922444Y-4369246D02*
X2931967Y-4350198D01*
X3103396Y-4331150D02*
X3103396Y-4464484D01*
X3055777Y-4254960D02*
X3008158Y-4397817D01*
X3008158Y-4397817D02*
X3131967Y-4397817D01*
X3198634Y-4264484D02*
X3198634Y-4302579D01*
X3274825Y-4264484D02*
X3274825Y-4302579D01*
X3570063Y-4540674D02*
X3560539Y-4531150D01*
X3560539Y-4531150D02*
X3541491Y-4502579D01*
X3541491Y-4502579D02*
X3531968Y-4483531D01*
X3531968Y-4483531D02*
X3522444Y-4454960D01*
X3522444Y-4454960D02*
X3512920Y-4407341D01*
X3512920Y-4407341D02*
X3512920Y-4369246D01*
X3512920Y-4369246D02*
X3522444Y-4321627D01*
X3522444Y-4321627D02*
X3531968Y-4293055D01*
X3531968Y-4293055D02*
X3541491Y-4274008D01*
X3541491Y-4274008D02*
X3560539Y-4245436D01*
X3560539Y-4245436D02*
X3570063Y-4235912D01*
X3684348Y-4264484D02*
X3703396Y-4264484D01*
X3703396Y-4264484D02*
X3722444Y-4274008D01*
X3722444Y-4274008D02*
X3731968Y-4283531D01*
X3731968Y-4283531D02*
X3741491Y-4302579D01*
X3741491Y-4302579D02*
X3751015Y-4340674D01*
X3751015Y-4340674D02*
X3751015Y-4388293D01*
X3751015Y-4388293D02*
X3741491Y-4426389D01*
X3741491Y-4426389D02*
X3731968Y-4445436D01*
X3731968Y-4445436D02*
X3722444Y-4454960D01*
X3722444Y-4454960D02*
X3703396Y-4464484D01*
X3703396Y-4464484D02*
X3684348Y-4464484D01*
X3684348Y-4464484D02*
X3665301Y-4454960D01*
X3665301Y-4454960D02*
X3655777Y-4445436D01*
X3655777Y-4445436D02*
X3646253Y-4426389D01*
X3646253Y-4426389D02*
X3636729Y-4388293D01*
X3636729Y-4388293D02*
X3636729Y-4340674D01*
X3636729Y-4340674D02*
X3646253Y-4302579D01*
X3646253Y-4302579D02*
X3655777Y-4283531D01*
X3655777Y-4283531D02*
X3665301Y-4274008D01*
X3665301Y-4274008D02*
X3684348Y-4264484D01*
X3989110Y-4464484D02*
X3989110Y-4264484D01*
X4074825Y-4464484D02*
X4074825Y-4359722D01*
X4074825Y-4359722D02*
X4065301Y-4340674D01*
X4065301Y-4340674D02*
X4046253Y-4331150D01*
X4046253Y-4331150D02*
X4017682Y-4331150D01*
X4017682Y-4331150D02*
X3998634Y-4340674D01*
X3998634Y-4340674D02*
X3989110Y-4350198D01*
X4198634Y-4464484D02*
X4179587Y-4454960D01*
X4179587Y-4454960D02*
X4170063Y-4445436D01*
X4170063Y-4445436D02*
X4160539Y-4426389D01*
X4160539Y-4426389D02*
X4160539Y-4369246D01*
X4160539Y-4369246D02*
X4170063Y-4350198D01*
X4170063Y-4350198D02*
X4179587Y-4340674D01*
X4179587Y-4340674D02*
X4198634Y-4331150D01*
X4198634Y-4331150D02*
X4227206Y-4331150D01*
X4227206Y-4331150D02*
X4246253Y-4340674D01*
X4246253Y-4340674D02*
X4255777Y-4350198D01*
X4255777Y-4350198D02*
X4265301Y-4369246D01*
X4265301Y-4369246D02*
X4265301Y-4426389D01*
X4265301Y-4426389D02*
X4255777Y-4445436D01*
X4255777Y-4445436D02*
X4246253Y-4454960D01*
X4246253Y-4454960D02*
X4227206Y-4464484D01*
X4227206Y-4464484D02*
X4198634Y-4464484D01*
X4379587Y-4464484D02*
X4360539Y-4454960D01*
X4360539Y-4454960D02*
X4351015Y-4435912D01*
X4351015Y-4435912D02*
X4351015Y-4264484D01*
X4531968Y-4454960D02*
X4512920Y-4464484D01*
X4512920Y-4464484D02*
X4474825Y-4464484D01*
X4474825Y-4464484D02*
X4455777Y-4454960D01*
X4455777Y-4454960D02*
X4446253Y-4435912D01*
X4446253Y-4435912D02*
X4446253Y-4359722D01*
X4446253Y-4359722D02*
X4455777Y-4340674D01*
X4455777Y-4340674D02*
X4474825Y-4331150D01*
X4474825Y-4331150D02*
X4512920Y-4331150D01*
X4512920Y-4331150D02*
X4531968Y-4340674D01*
X4531968Y-4340674D02*
X4541492Y-4359722D01*
X4541492Y-4359722D02*
X4541492Y-4378770D01*
X4541492Y-4378770D02*
X4446253Y-4397817D01*
X4617682Y-4454960D02*
X4636730Y-4464484D01*
X4636730Y-4464484D02*
X4674825Y-4464484D01*
X4674825Y-4464484D02*
X4693873Y-4454960D01*
X4693873Y-4454960D02*
X4703396Y-4435912D01*
X4703396Y-4435912D02*
X4703396Y-4426389D01*
X4703396Y-4426389D02*
X4693873Y-4407341D01*
X4693873Y-4407341D02*
X4674825Y-4397817D01*
X4674825Y-4397817D02*
X4646253Y-4397817D01*
X4646253Y-4397817D02*
X4627206Y-4388293D01*
X4627206Y-4388293D02*
X4617682Y-4369246D01*
X4617682Y-4369246D02*
X4617682Y-4359722D01*
X4617682Y-4359722D02*
X4627206Y-4340674D01*
X4627206Y-4340674D02*
X4646253Y-4331150D01*
X4646253Y-4331150D02*
X4674825Y-4331150D01*
X4674825Y-4331150D02*
X4693873Y-4340674D01*
X4941492Y-4388293D02*
X5093873Y-4388293D01*
X5017682Y-4464484D02*
X5017682Y-4312103D01*
X5331968Y-4283531D02*
X5341492Y-4274008D01*
X5341492Y-4274008D02*
X5360539Y-4264484D01*
X5360539Y-4264484D02*
X5408158Y-4264484D01*
X5408158Y-4264484D02*
X5427206Y-4274008D01*
X5427206Y-4274008D02*
X5436730Y-4283531D01*
X5436730Y-4283531D02*
X5446254Y-4302579D01*
X5446254Y-4302579D02*
X5446254Y-4321627D01*
X5446254Y-4321627D02*
X5436730Y-4350198D01*
X5436730Y-4350198D02*
X5322444Y-4464484D01*
X5322444Y-4464484D02*
X5446254Y-4464484D01*
X5674825Y-4454960D02*
X5693873Y-4464484D01*
X5693873Y-4464484D02*
X5731968Y-4464484D01*
X5731968Y-4464484D02*
X5751015Y-4454960D01*
X5751015Y-4454960D02*
X5760539Y-4435912D01*
X5760539Y-4435912D02*
X5760539Y-4426389D01*
X5760539Y-4426389D02*
X5751015Y-4407341D01*
X5751015Y-4407341D02*
X5731968Y-4397817D01*
X5731968Y-4397817D02*
X5703396Y-4397817D01*
X5703396Y-4397817D02*
X5684349Y-4388293D01*
X5684349Y-4388293D02*
X5674825Y-4369246D01*
X5674825Y-4369246D02*
X5674825Y-4359722D01*
X5674825Y-4359722D02*
X5684349Y-4340674D01*
X5684349Y-4340674D02*
X5703396Y-4331150D01*
X5703396Y-4331150D02*
X5731968Y-4331150D01*
X5731968Y-4331150D02*
X5751015Y-4340674D01*
X5874825Y-4464484D02*
X5855777Y-4454960D01*
X5855777Y-4454960D02*
X5846254Y-4435912D01*
X5846254Y-4435912D02*
X5846254Y-4264484D01*
X5979587Y-4464484D02*
X5960539Y-4454960D01*
X5960539Y-4454960D02*
X5951015Y-4445436D01*
X5951015Y-4445436D02*
X5941492Y-4426389D01*
X5941492Y-4426389D02*
X5941492Y-4369246D01*
X5941492Y-4369246D02*
X5951015Y-4350198D01*
X5951015Y-4350198D02*
X5960539Y-4340674D01*
X5960539Y-4340674D02*
X5979587Y-4331150D01*
X5979587Y-4331150D02*
X6008158Y-4331150D01*
X6008158Y-4331150D02*
X6027206Y-4340674D01*
X6027206Y-4340674D02*
X6036730Y-4350198D01*
X6036730Y-4350198D02*
X6046254Y-4369246D01*
X6046254Y-4369246D02*
X6046254Y-4426389D01*
X6046254Y-4426389D02*
X6036730Y-4445436D01*
X6036730Y-4445436D02*
X6027206Y-4454960D01*
X6027206Y-4454960D02*
X6008158Y-4464484D01*
X6008158Y-4464484D02*
X5979587Y-4464484D01*
X6103396Y-4331150D02*
X6179587Y-4331150D01*
X6131968Y-4264484D02*
X6131968Y-4435912D01*
X6131968Y-4435912D02*
X6141492Y-4454960D01*
X6141492Y-4454960D02*
X6160539Y-4464484D01*
X6160539Y-4464484D02*
X6179587Y-4464484D01*
X6236730Y-4454960D02*
X6255777Y-4464484D01*
X6255777Y-4464484D02*
X6293873Y-4464484D01*
X6293873Y-4464484D02*
X6312920Y-4454960D01*
X6312920Y-4454960D02*
X6322444Y-4435912D01*
X6322444Y-4435912D02*
X6322444Y-4426389D01*
X6322444Y-4426389D02*
X6312920Y-4407341D01*
X6312920Y-4407341D02*
X6293873Y-4397817D01*
X6293873Y-4397817D02*
X6265301Y-4397817D01*
X6265301Y-4397817D02*
X6246254Y-4388293D01*
X6246254Y-4388293D02*
X6236730Y-4369246D01*
X6236730Y-4369246D02*
X6236730Y-4359722D01*
X6236730Y-4359722D02*
X6246254Y-4340674D01*
X6246254Y-4340674D02*
X6265301Y-4331150D01*
X6265301Y-4331150D02*
X6293873Y-4331150D01*
X6293873Y-4331150D02*
X6312920Y-4340674D01*
X6389111Y-4540674D02*
X6398635Y-4531150D01*
X6398635Y-4531150D02*
X6417682Y-4502579D01*
X6417682Y-4502579D02*
X6427206Y-4483531D01*
X6427206Y-4483531D02*
X6436730Y-4454960D01*
X6436730Y-4454960D02*
X6446254Y-4407341D01*
X6446254Y-4407341D02*
X6446254Y-4369246D01*
X6446254Y-4369246D02*
X6436730Y-4321627D01*
X6436730Y-4321627D02*
X6427206Y-4293055D01*
X6427206Y-4293055D02*
X6417682Y-4274008D01*
X6417682Y-4274008D02*
X6398635Y-4245436D01*
X6398635Y-4245436D02*
X6389111Y-4235912D01*
D12*
X-24038Y-4682962D02*
X-24038Y-4591038D01*
X-115962Y-4591038D01*
X-115962Y-4682962D01*
X-24038Y-4682962D01*
D11*
X360539Y-4728484D02*
X246253Y-4728484D01*
X303396Y-4728484D02*
X303396Y-4528484D01*
X303396Y-4528484D02*
X284348Y-4557055D01*
X284348Y-4557055D02*
X265301Y-4576103D01*
X265301Y-4576103D02*
X246253Y-4585627D01*
X446253Y-4709436D02*
X455777Y-4718960D01*
X455777Y-4718960D02*
X446253Y-4728484D01*
X446253Y-4728484D02*
X436729Y-4718960D01*
X436729Y-4718960D02*
X446253Y-4709436D01*
X446253Y-4709436D02*
X446253Y-4728484D01*
X522443Y-4528484D02*
X646253Y-4528484D01*
X646253Y-4528484D02*
X579586Y-4604674D01*
X579586Y-4604674D02*
X608158Y-4604674D01*
X608158Y-4604674D02*
X627205Y-4614198D01*
X627205Y-4614198D02*
X636729Y-4623722D01*
X636729Y-4623722D02*
X646253Y-4642770D01*
X646253Y-4642770D02*
X646253Y-4690389D01*
X646253Y-4690389D02*
X636729Y-4709436D01*
X636729Y-4709436D02*
X627205Y-4718960D01*
X627205Y-4718960D02*
X608158Y-4728484D01*
X608158Y-4728484D02*
X551015Y-4728484D01*
X551015Y-4728484D02*
X531967Y-4718960D01*
X531967Y-4718960D02*
X522443Y-4709436D01*
X770062Y-4528484D02*
X789110Y-4528484D01*
X789110Y-4528484D02*
X808158Y-4538008D01*
X808158Y-4538008D02*
X817682Y-4547531D01*
X817682Y-4547531D02*
X827205Y-4566579D01*
X827205Y-4566579D02*
X836729Y-4604674D01*
X836729Y-4604674D02*
X836729Y-4652293D01*
X836729Y-4652293D02*
X827205Y-4690389D01*
X827205Y-4690389D02*
X817682Y-4709436D01*
X817682Y-4709436D02*
X808158Y-4718960D01*
X808158Y-4718960D02*
X789110Y-4728484D01*
X789110Y-4728484D02*
X770062Y-4728484D01*
X770062Y-4728484D02*
X751015Y-4718960D01*
X751015Y-4718960D02*
X741491Y-4709436D01*
X741491Y-4709436D02*
X731967Y-4690389D01*
X731967Y-4690389D02*
X722443Y-4652293D01*
X722443Y-4652293D02*
X722443Y-4604674D01*
X722443Y-4604674D02*
X731967Y-4566579D01*
X731967Y-4566579D02*
X741491Y-4547531D01*
X741491Y-4547531D02*
X751015Y-4538008D01*
X751015Y-4538008D02*
X770062Y-4528484D01*
X960539Y-4528484D02*
X979586Y-4528484D01*
X979586Y-4528484D02*
X998634Y-4538008D01*
X998634Y-4538008D02*
X1008158Y-4547531D01*
X1008158Y-4547531D02*
X1017682Y-4566579D01*
X1017682Y-4566579D02*
X1027205Y-4604674D01*
X1027205Y-4604674D02*
X1027205Y-4652293D01*
X1027205Y-4652293D02*
X1017682Y-4690389D01*
X1017682Y-4690389D02*
X1008158Y-4709436D01*
X1008158Y-4709436D02*
X998634Y-4718960D01*
X998634Y-4718960D02*
X979586Y-4728484D01*
X979586Y-4728484D02*
X960539Y-4728484D01*
X960539Y-4728484D02*
X941491Y-4718960D01*
X941491Y-4718960D02*
X931967Y-4709436D01*
X931967Y-4709436D02*
X922443Y-4690389D01*
X922443Y-4690389D02*
X912920Y-4652293D01*
X912920Y-4652293D02*
X912920Y-4604674D01*
X912920Y-4604674D02*
X922443Y-4566579D01*
X922443Y-4566579D02*
X931967Y-4547531D01*
X931967Y-4547531D02*
X941491Y-4538008D01*
X941491Y-4538008D02*
X960539Y-4528484D01*
X1112920Y-4728484D02*
X1112920Y-4595150D01*
X1112920Y-4614198D02*
X1122444Y-4604674D01*
X1122444Y-4604674D02*
X1141491Y-4595150D01*
X1141491Y-4595150D02*
X1170063Y-4595150D01*
X1170063Y-4595150D02*
X1189110Y-4604674D01*
X1189110Y-4604674D02*
X1198634Y-4623722D01*
X1198634Y-4623722D02*
X1198634Y-4728484D01*
X1198634Y-4623722D02*
X1208158Y-4604674D01*
X1208158Y-4604674D02*
X1227205Y-4595150D01*
X1227205Y-4595150D02*
X1255777Y-4595150D01*
X1255777Y-4595150D02*
X1274825Y-4604674D01*
X1274825Y-4604674D02*
X1284348Y-4623722D01*
X1284348Y-4623722D02*
X1284348Y-4728484D01*
X1379586Y-4728484D02*
X1379586Y-4595150D01*
X1379586Y-4614198D02*
X1389110Y-4604674D01*
X1389110Y-4604674D02*
X1408158Y-4595150D01*
X1408158Y-4595150D02*
X1436729Y-4595150D01*
X1436729Y-4595150D02*
X1455777Y-4604674D01*
X1455777Y-4604674D02*
X1465301Y-4623722D01*
X1465301Y-4623722D02*
X1465301Y-4728484D01*
X1465301Y-4623722D02*
X1474824Y-4604674D01*
X1474824Y-4604674D02*
X1493872Y-4595150D01*
X1493872Y-4595150D02*
X1522443Y-4595150D01*
X1522443Y-4595150D02*
X1541491Y-4604674D01*
X1541491Y-4604674D02*
X1551015Y-4623722D01*
X1551015Y-4623722D02*
X1551015Y-4728484D01*
X1941491Y-4518960D02*
X1770063Y-4776103D01*
X2198634Y-4528484D02*
X2217682Y-4528484D01*
X2217682Y-4528484D02*
X2236729Y-4538008D01*
X2236729Y-4538008D02*
X2246253Y-4547531D01*
X2246253Y-4547531D02*
X2255777Y-4566579D01*
X2255777Y-4566579D02*
X2265301Y-4604674D01*
X2265301Y-4604674D02*
X2265301Y-4652293D01*
X2265301Y-4652293D02*
X2255777Y-4690389D01*
X2255777Y-4690389D02*
X2246253Y-4709436D01*
X2246253Y-4709436D02*
X2236729Y-4718960D01*
X2236729Y-4718960D02*
X2217682Y-4728484D01*
X2217682Y-4728484D02*
X2198634Y-4728484D01*
X2198634Y-4728484D02*
X2179587Y-4718960D01*
X2179587Y-4718960D02*
X2170063Y-4709436D01*
X2170063Y-4709436D02*
X2160539Y-4690389D01*
X2160539Y-4690389D02*
X2151015Y-4652293D01*
X2151015Y-4652293D02*
X2151015Y-4604674D01*
X2151015Y-4604674D02*
X2160539Y-4566579D01*
X2160539Y-4566579D02*
X2170063Y-4547531D01*
X2170063Y-4547531D02*
X2179587Y-4538008D01*
X2179587Y-4538008D02*
X2198634Y-4528484D01*
X2351015Y-4709436D02*
X2360539Y-4718960D01*
X2360539Y-4718960D02*
X2351015Y-4728484D01*
X2351015Y-4728484D02*
X2341491Y-4718960D01*
X2341491Y-4718960D02*
X2351015Y-4709436D01*
X2351015Y-4709436D02*
X2351015Y-4728484D01*
X2484348Y-4528484D02*
X2503396Y-4528484D01*
X2503396Y-4528484D02*
X2522444Y-4538008D01*
X2522444Y-4538008D02*
X2531968Y-4547531D01*
X2531968Y-4547531D02*
X2541491Y-4566579D01*
X2541491Y-4566579D02*
X2551015Y-4604674D01*
X2551015Y-4604674D02*
X2551015Y-4652293D01*
X2551015Y-4652293D02*
X2541491Y-4690389D01*
X2541491Y-4690389D02*
X2531968Y-4709436D01*
X2531968Y-4709436D02*
X2522444Y-4718960D01*
X2522444Y-4718960D02*
X2503396Y-4728484D01*
X2503396Y-4728484D02*
X2484348Y-4728484D01*
X2484348Y-4728484D02*
X2465301Y-4718960D01*
X2465301Y-4718960D02*
X2455777Y-4709436D01*
X2455777Y-4709436D02*
X2446253Y-4690389D01*
X2446253Y-4690389D02*
X2436729Y-4652293D01*
X2436729Y-4652293D02*
X2436729Y-4604674D01*
X2436729Y-4604674D02*
X2446253Y-4566579D01*
X2446253Y-4566579D02*
X2455777Y-4547531D01*
X2455777Y-4547531D02*
X2465301Y-4538008D01*
X2465301Y-4538008D02*
X2484348Y-4528484D01*
X2731968Y-4528484D02*
X2636729Y-4528484D01*
X2636729Y-4528484D02*
X2627206Y-4623722D01*
X2627206Y-4623722D02*
X2636729Y-4614198D01*
X2636729Y-4614198D02*
X2655777Y-4604674D01*
X2655777Y-4604674D02*
X2703396Y-4604674D01*
X2703396Y-4604674D02*
X2722444Y-4614198D01*
X2722444Y-4614198D02*
X2731968Y-4623722D01*
X2731968Y-4623722D02*
X2741491Y-4642770D01*
X2741491Y-4642770D02*
X2741491Y-4690389D01*
X2741491Y-4690389D02*
X2731968Y-4709436D01*
X2731968Y-4709436D02*
X2722444Y-4718960D01*
X2722444Y-4718960D02*
X2703396Y-4728484D01*
X2703396Y-4728484D02*
X2655777Y-4728484D01*
X2655777Y-4728484D02*
X2636729Y-4718960D01*
X2636729Y-4718960D02*
X2627206Y-4709436D01*
X2931967Y-4728484D02*
X2817682Y-4728484D01*
X2874825Y-4728484D02*
X2874825Y-4528484D01*
X2874825Y-4528484D02*
X2855777Y-4557055D01*
X2855777Y-4557055D02*
X2836729Y-4576103D01*
X2836729Y-4576103D02*
X2817682Y-4585627D01*
X3008158Y-4547531D02*
X3017682Y-4538008D01*
X3017682Y-4538008D02*
X3036729Y-4528484D01*
X3036729Y-4528484D02*
X3084348Y-4528484D01*
X3084348Y-4528484D02*
X3103396Y-4538008D01*
X3103396Y-4538008D02*
X3112920Y-4547531D01*
X3112920Y-4547531D02*
X3122444Y-4566579D01*
X3122444Y-4566579D02*
X3122444Y-4585627D01*
X3122444Y-4585627D02*
X3112920Y-4614198D01*
X3112920Y-4614198D02*
X2998634Y-4728484D01*
X2998634Y-4728484D02*
X3122444Y-4728484D01*
X3198634Y-4528484D02*
X3198634Y-4566579D01*
X3274825Y-4528484D02*
X3274825Y-4566579D01*
X3570063Y-4804674D02*
X3560539Y-4795150D01*
X3560539Y-4795150D02*
X3541491Y-4766579D01*
X3541491Y-4766579D02*
X3531968Y-4747531D01*
X3531968Y-4747531D02*
X3522444Y-4718960D01*
X3522444Y-4718960D02*
X3512920Y-4671341D01*
X3512920Y-4671341D02*
X3512920Y-4633246D01*
X3512920Y-4633246D02*
X3522444Y-4585627D01*
X3522444Y-4585627D02*
X3531968Y-4557055D01*
X3531968Y-4557055D02*
X3541491Y-4538008D01*
X3541491Y-4538008D02*
X3560539Y-4509436D01*
X3560539Y-4509436D02*
X3570063Y-4499912D01*
X3751015Y-4728484D02*
X3636729Y-4728484D01*
X3693872Y-4728484D02*
X3693872Y-4528484D01*
X3693872Y-4528484D02*
X3674825Y-4557055D01*
X3674825Y-4557055D02*
X3655777Y-4576103D01*
X3655777Y-4576103D02*
X3636729Y-4585627D01*
X3979587Y-4718960D02*
X3998634Y-4728484D01*
X3998634Y-4728484D02*
X4036729Y-4728484D01*
X4036729Y-4728484D02*
X4055777Y-4718960D01*
X4055777Y-4718960D02*
X4065301Y-4699912D01*
X4065301Y-4699912D02*
X4065301Y-4690389D01*
X4065301Y-4690389D02*
X4055777Y-4671341D01*
X4055777Y-4671341D02*
X4036729Y-4661817D01*
X4036729Y-4661817D02*
X4008158Y-4661817D01*
X4008158Y-4661817D02*
X3989110Y-4652293D01*
X3989110Y-4652293D02*
X3979587Y-4633246D01*
X3979587Y-4633246D02*
X3979587Y-4623722D01*
X3979587Y-4623722D02*
X3989110Y-4604674D01*
X3989110Y-4604674D02*
X4008158Y-4595150D01*
X4008158Y-4595150D02*
X4036729Y-4595150D01*
X4036729Y-4595150D02*
X4055777Y-4604674D01*
X4179587Y-4728484D02*
X4160539Y-4718960D01*
X4160539Y-4718960D02*
X4151015Y-4699912D01*
X4151015Y-4699912D02*
X4151015Y-4528484D01*
X4284349Y-4728484D02*
X4265301Y-4718960D01*
X4265301Y-4718960D02*
X4255777Y-4709436D01*
X4255777Y-4709436D02*
X4246253Y-4690389D01*
X4246253Y-4690389D02*
X4246253Y-4633246D01*
X4246253Y-4633246D02*
X4255777Y-4614198D01*
X4255777Y-4614198D02*
X4265301Y-4604674D01*
X4265301Y-4604674D02*
X4284349Y-4595150D01*
X4284349Y-4595150D02*
X4312920Y-4595150D01*
X4312920Y-4595150D02*
X4331968Y-4604674D01*
X4331968Y-4604674D02*
X4341492Y-4614198D01*
X4341492Y-4614198D02*
X4351015Y-4633246D01*
X4351015Y-4633246D02*
X4351015Y-4690389D01*
X4351015Y-4690389D02*
X4341492Y-4709436D01*
X4341492Y-4709436D02*
X4331968Y-4718960D01*
X4331968Y-4718960D02*
X4312920Y-4728484D01*
X4312920Y-4728484D02*
X4284349Y-4728484D01*
X4408158Y-4595150D02*
X4484349Y-4595150D01*
X4436730Y-4528484D02*
X4436730Y-4699912D01*
X4436730Y-4699912D02*
X4446253Y-4718960D01*
X4446253Y-4718960D02*
X4465301Y-4728484D01*
X4465301Y-4728484D02*
X4484349Y-4728484D01*
X4531968Y-4804674D02*
X4541492Y-4795150D01*
X4541492Y-4795150D02*
X4560539Y-4766579D01*
X4560539Y-4766579D02*
X4570063Y-4747531D01*
X4570063Y-4747531D02*
X4579587Y-4718960D01*
X4579587Y-4718960D02*
X4589111Y-4671341D01*
X4589111Y-4671341D02*
X4589111Y-4633246D01*
X4589111Y-4633246D02*
X4579587Y-4585627D01*
X4579587Y-4585627D02*
X4570063Y-4557055D01*
X4570063Y-4557055D02*
X4560539Y-4538008D01*
X4560539Y-4538008D02*
X4541492Y-4509436D01*
X4541492Y-4509436D02*
X4531968Y-4499912D01*
M02*
