%TF.GenerationSoftware,KiCad,Pcbnew,9.0.9-9.0.9~ubuntu24.04.1*%
%TF.CreationDate,2026-09-20T10:20:26+00:00*%
%TF.ProjectId,adv7280m-csi2,61647637-3238-4306-9d2d-637369322e6b,rev?*%
%TF.SameCoordinates,Original*%
%TF.FileFunction,Drillmap*%
%TF.FilePolarity,Positive*%
%FSLAX45Y45*%
G04 Gerber Fmt 4.5, Leading zero omitted, Abs format (unit mm)*
G04 Created by KiCad (PCBNEW 9.0.9-9.0.9~ubuntu24.04.1) date 2026-09-20 10:20:26*
%MOMM*%
%LPD*%
G01*
G04 APERTURE LIST*
%ADD10C,0.100000*%
%ADD11C,0.200000*%
%ADD12C,0.220000*%
G04 APERTURE END LIST*
D10*
X0Y-150000D02*
G75*
G02*
X150000Y0I150000J0D01*
G01*
X0Y-3050000D02*
X0Y-150000D01*
X150000Y0D02*
X4050000Y0D01*
X150000Y-3200000D02*
G75*
G02*
X0Y-3050000I0J150000D01*
G01*
X4050000Y0D02*
G75*
G02*
X4200000Y-150000I0J-150000D01*
G01*
X4050000Y-3200000D02*
X150000Y-3200000D01*
X4200000Y-150000D02*
X4200000Y-3050000D01*
X4200000Y-3050000D02*
G75*
G02*
X4050000Y-3200000I-150000J0D01*
G01*
D11*
D12*
X690000Y-210000D02*
X910000Y-430000D01*
X910000Y-210000D02*
X690000Y-430000D01*
X3440000Y-2790000D02*
X3660000Y-3010000D01*
X3660000Y-2790000D02*
X3440000Y-3010000D01*
D11*
X255777Y-3516484D02*
X255777Y-3316484D01*
X255777Y-3316484D02*
X303396Y-3316484D01*
X303396Y-3316484D02*
X331967Y-3326008D01*
X331967Y-3326008D02*
X351015Y-3345055D01*
X351015Y-3345055D02*
X360539Y-3364103D01*
X360539Y-3364103D02*
X370062Y-3402198D01*
X370062Y-3402198D02*
X370062Y-3430769D01*
X370062Y-3430769D02*
X360539Y-3468865D01*
X360539Y-3468865D02*
X351015Y-3487912D01*
X351015Y-3487912D02*
X331967Y-3506960D01*
X331967Y-3506960D02*
X303396Y-3516484D01*
X303396Y-3516484D02*
X255777Y-3516484D01*
X455777Y-3516484D02*
X455777Y-3383150D01*
X455777Y-3421246D02*
X465301Y-3402198D01*
X465301Y-3402198D02*
X474824Y-3392674D01*
X474824Y-3392674D02*
X493872Y-3383150D01*
X493872Y-3383150D02*
X512920Y-3383150D01*
X579586Y-3516484D02*
X579586Y-3383150D01*
X579586Y-3316484D02*
X570063Y-3326008D01*
X570063Y-3326008D02*
X579586Y-3335531D01*
X579586Y-3335531D02*
X589110Y-3326008D01*
X589110Y-3326008D02*
X579586Y-3316484D01*
X579586Y-3316484D02*
X579586Y-3335531D01*
X703396Y-3516484D02*
X684348Y-3506960D01*
X684348Y-3506960D02*
X674824Y-3487912D01*
X674824Y-3487912D02*
X674824Y-3316484D01*
X808158Y-3516484D02*
X789110Y-3506960D01*
X789110Y-3506960D02*
X779586Y-3487912D01*
X779586Y-3487912D02*
X779586Y-3316484D01*
X1036729Y-3516484D02*
X1036729Y-3316484D01*
X1036729Y-3316484D02*
X1103396Y-3459341D01*
X1103396Y-3459341D02*
X1170063Y-3316484D01*
X1170063Y-3316484D02*
X1170063Y-3516484D01*
X1351015Y-3516484D02*
X1351015Y-3411722D01*
X1351015Y-3411722D02*
X1341491Y-3392674D01*
X1341491Y-3392674D02*
X1322444Y-3383150D01*
X1322444Y-3383150D02*
X1284348Y-3383150D01*
X1284348Y-3383150D02*
X1265301Y-3392674D01*
X1351015Y-3506960D02*
X1331967Y-3516484D01*
X1331967Y-3516484D02*
X1284348Y-3516484D01*
X1284348Y-3516484D02*
X1265301Y-3506960D01*
X1265301Y-3506960D02*
X1255777Y-3487912D01*
X1255777Y-3487912D02*
X1255777Y-3468865D01*
X1255777Y-3468865D02*
X1265301Y-3449817D01*
X1265301Y-3449817D02*
X1284348Y-3440293D01*
X1284348Y-3440293D02*
X1331967Y-3440293D01*
X1331967Y-3440293D02*
X1351015Y-3430769D01*
X1446253Y-3383150D02*
X1446253Y-3583150D01*
X1446253Y-3392674D02*
X1465301Y-3383150D01*
X1465301Y-3383150D02*
X1503396Y-3383150D01*
X1503396Y-3383150D02*
X1522443Y-3392674D01*
X1522443Y-3392674D02*
X1531967Y-3402198D01*
X1531967Y-3402198D02*
X1541491Y-3421246D01*
X1541491Y-3421246D02*
X1541491Y-3478388D01*
X1541491Y-3478388D02*
X1531967Y-3497436D01*
X1531967Y-3497436D02*
X1522443Y-3506960D01*
X1522443Y-3506960D02*
X1503396Y-3516484D01*
X1503396Y-3516484D02*
X1465301Y-3516484D01*
X1465301Y-3516484D02*
X1446253Y-3506960D01*
X1627205Y-3497436D02*
X1636729Y-3506960D01*
X1636729Y-3506960D02*
X1627205Y-3516484D01*
X1627205Y-3516484D02*
X1617682Y-3506960D01*
X1617682Y-3506960D02*
X1627205Y-3497436D01*
X1627205Y-3497436D02*
X1627205Y-3516484D01*
X1627205Y-3392674D02*
X1636729Y-3402198D01*
X1636729Y-3402198D02*
X1627205Y-3411722D01*
X1627205Y-3411722D02*
X1617682Y-3402198D01*
X1617682Y-3402198D02*
X1627205Y-3392674D01*
X1627205Y-3392674D02*
X1627205Y-3411722D01*
X-205000Y-3745000D02*
X-5000Y-3945000D01*
X-5000Y-3745000D02*
X-205000Y-3945000D01*
X246253Y-3755531D02*
X255777Y-3746008D01*
X255777Y-3746008D02*
X274824Y-3736484D01*
X274824Y-3736484D02*
X322444Y-3736484D01*
X322444Y-3736484D02*
X341491Y-3746008D01*
X341491Y-3746008D02*
X351015Y-3755531D01*
X351015Y-3755531D02*
X360539Y-3774579D01*
X360539Y-3774579D02*
X360539Y-3793627D01*
X360539Y-3793627D02*
X351015Y-3822198D01*
X351015Y-3822198D02*
X236729Y-3936484D01*
X236729Y-3936484D02*
X360539Y-3936484D01*
X446253Y-3917436D02*
X455777Y-3926960D01*
X455777Y-3926960D02*
X446253Y-3936484D01*
X446253Y-3936484D02*
X436729Y-3926960D01*
X436729Y-3926960D02*
X446253Y-3917436D01*
X446253Y-3917436D02*
X446253Y-3936484D01*
X531967Y-3755531D02*
X541491Y-3746008D01*
X541491Y-3746008D02*
X560539Y-3736484D01*
X560539Y-3736484D02*
X608158Y-3736484D01*
X608158Y-3736484D02*
X627205Y-3746008D01*
X627205Y-3746008D02*
X636729Y-3755531D01*
X636729Y-3755531D02*
X646253Y-3774579D01*
X646253Y-3774579D02*
X646253Y-3793627D01*
X646253Y-3793627D02*
X636729Y-3822198D01*
X636729Y-3822198D02*
X522443Y-3936484D01*
X522443Y-3936484D02*
X646253Y-3936484D01*
X770062Y-3736484D02*
X789110Y-3736484D01*
X789110Y-3736484D02*
X808158Y-3746008D01*
X808158Y-3746008D02*
X817682Y-3755531D01*
X817682Y-3755531D02*
X827205Y-3774579D01*
X827205Y-3774579D02*
X836729Y-3812674D01*
X836729Y-3812674D02*
X836729Y-3860293D01*
X836729Y-3860293D02*
X827205Y-3898388D01*
X827205Y-3898388D02*
X817682Y-3917436D01*
X817682Y-3917436D02*
X808158Y-3926960D01*
X808158Y-3926960D02*
X789110Y-3936484D01*
X789110Y-3936484D02*
X770062Y-3936484D01*
X770062Y-3936484D02*
X751015Y-3926960D01*
X751015Y-3926960D02*
X741491Y-3917436D01*
X741491Y-3917436D02*
X731967Y-3898388D01*
X731967Y-3898388D02*
X722443Y-3860293D01*
X722443Y-3860293D02*
X722443Y-3812674D01*
X722443Y-3812674D02*
X731967Y-3774579D01*
X731967Y-3774579D02*
X741491Y-3755531D01*
X741491Y-3755531D02*
X751015Y-3746008D01*
X751015Y-3746008D02*
X770062Y-3736484D01*
X960539Y-3736484D02*
X979586Y-3736484D01*
X979586Y-3736484D02*
X998634Y-3746008D01*
X998634Y-3746008D02*
X1008158Y-3755531D01*
X1008158Y-3755531D02*
X1017682Y-3774579D01*
X1017682Y-3774579D02*
X1027205Y-3812674D01*
X1027205Y-3812674D02*
X1027205Y-3860293D01*
X1027205Y-3860293D02*
X1017682Y-3898388D01*
X1017682Y-3898388D02*
X1008158Y-3917436D01*
X1008158Y-3917436D02*
X998634Y-3926960D01*
X998634Y-3926960D02*
X979586Y-3936484D01*
X979586Y-3936484D02*
X960539Y-3936484D01*
X960539Y-3936484D02*
X941491Y-3926960D01*
X941491Y-3926960D02*
X931967Y-3917436D01*
X931967Y-3917436D02*
X922443Y-3898388D01*
X922443Y-3898388D02*
X912920Y-3860293D01*
X912920Y-3860293D02*
X912920Y-3812674D01*
X912920Y-3812674D02*
X922443Y-3774579D01*
X922443Y-3774579D02*
X931967Y-3755531D01*
X931967Y-3755531D02*
X941491Y-3746008D01*
X941491Y-3746008D02*
X960539Y-3736484D01*
X1112920Y-3936484D02*
X1112920Y-3803150D01*
X1112920Y-3822198D02*
X1122444Y-3812674D01*
X1122444Y-3812674D02*
X1141491Y-3803150D01*
X1141491Y-3803150D02*
X1170063Y-3803150D01*
X1170063Y-3803150D02*
X1189110Y-3812674D01*
X1189110Y-3812674D02*
X1198634Y-3831722D01*
X1198634Y-3831722D02*
X1198634Y-3936484D01*
X1198634Y-3831722D02*
X1208158Y-3812674D01*
X1208158Y-3812674D02*
X1227205Y-3803150D01*
X1227205Y-3803150D02*
X1255777Y-3803150D01*
X1255777Y-3803150D02*
X1274825Y-3812674D01*
X1274825Y-3812674D02*
X1284348Y-3831722D01*
X1284348Y-3831722D02*
X1284348Y-3936484D01*
X1379586Y-3936484D02*
X1379586Y-3803150D01*
X1379586Y-3822198D02*
X1389110Y-3812674D01*
X1389110Y-3812674D02*
X1408158Y-3803150D01*
X1408158Y-3803150D02*
X1436729Y-3803150D01*
X1436729Y-3803150D02*
X1455777Y-3812674D01*
X1455777Y-3812674D02*
X1465301Y-3831722D01*
X1465301Y-3831722D02*
X1465301Y-3936484D01*
X1465301Y-3831722D02*
X1474824Y-3812674D01*
X1474824Y-3812674D02*
X1493872Y-3803150D01*
X1493872Y-3803150D02*
X1522443Y-3803150D01*
X1522443Y-3803150D02*
X1541491Y-3812674D01*
X1541491Y-3812674D02*
X1551015Y-3831722D01*
X1551015Y-3831722D02*
X1551015Y-3936484D01*
X1941491Y-3726960D02*
X1770063Y-3984103D01*
X2198634Y-3736484D02*
X2217682Y-3736484D01*
X2217682Y-3736484D02*
X2236729Y-3746008D01*
X2236729Y-3746008D02*
X2246253Y-3755531D01*
X2246253Y-3755531D02*
X2255777Y-3774579D01*
X2255777Y-3774579D02*
X2265301Y-3812674D01*
X2265301Y-3812674D02*
X2265301Y-3860293D01*
X2265301Y-3860293D02*
X2255777Y-3898388D01*
X2255777Y-3898388D02*
X2246253Y-3917436D01*
X2246253Y-3917436D02*
X2236729Y-3926960D01*
X2236729Y-3926960D02*
X2217682Y-3936484D01*
X2217682Y-3936484D02*
X2198634Y-3936484D01*
X2198634Y-3936484D02*
X2179587Y-3926960D01*
X2179587Y-3926960D02*
X2170063Y-3917436D01*
X2170063Y-3917436D02*
X2160539Y-3898388D01*
X2160539Y-3898388D02*
X2151015Y-3860293D01*
X2151015Y-3860293D02*
X2151015Y-3812674D01*
X2151015Y-3812674D02*
X2160539Y-3774579D01*
X2160539Y-3774579D02*
X2170063Y-3755531D01*
X2170063Y-3755531D02*
X2179587Y-3746008D01*
X2179587Y-3746008D02*
X2198634Y-3736484D01*
X2351015Y-3917436D02*
X2360539Y-3926960D01*
X2360539Y-3926960D02*
X2351015Y-3936484D01*
X2351015Y-3936484D02*
X2341491Y-3926960D01*
X2341491Y-3926960D02*
X2351015Y-3917436D01*
X2351015Y-3917436D02*
X2351015Y-3936484D01*
X2484348Y-3736484D02*
X2503396Y-3736484D01*
X2503396Y-3736484D02*
X2522444Y-3746008D01*
X2522444Y-3746008D02*
X2531968Y-3755531D01*
X2531968Y-3755531D02*
X2541491Y-3774579D01*
X2541491Y-3774579D02*
X2551015Y-3812674D01*
X2551015Y-3812674D02*
X2551015Y-3860293D01*
X2551015Y-3860293D02*
X2541491Y-3898388D01*
X2541491Y-3898388D02*
X2531968Y-3917436D01*
X2531968Y-3917436D02*
X2522444Y-3926960D01*
X2522444Y-3926960D02*
X2503396Y-3936484D01*
X2503396Y-3936484D02*
X2484348Y-3936484D01*
X2484348Y-3936484D02*
X2465301Y-3926960D01*
X2465301Y-3926960D02*
X2455777Y-3917436D01*
X2455777Y-3917436D02*
X2446253Y-3898388D01*
X2446253Y-3898388D02*
X2436729Y-3860293D01*
X2436729Y-3860293D02*
X2436729Y-3812674D01*
X2436729Y-3812674D02*
X2446253Y-3774579D01*
X2446253Y-3774579D02*
X2455777Y-3755531D01*
X2455777Y-3755531D02*
X2465301Y-3746008D01*
X2465301Y-3746008D02*
X2484348Y-3736484D01*
X2665301Y-3822198D02*
X2646253Y-3812674D01*
X2646253Y-3812674D02*
X2636729Y-3803150D01*
X2636729Y-3803150D02*
X2627206Y-3784103D01*
X2627206Y-3784103D02*
X2627206Y-3774579D01*
X2627206Y-3774579D02*
X2636729Y-3755531D01*
X2636729Y-3755531D02*
X2646253Y-3746008D01*
X2646253Y-3746008D02*
X2665301Y-3736484D01*
X2665301Y-3736484D02*
X2703396Y-3736484D01*
X2703396Y-3736484D02*
X2722444Y-3746008D01*
X2722444Y-3746008D02*
X2731968Y-3755531D01*
X2731968Y-3755531D02*
X2741491Y-3774579D01*
X2741491Y-3774579D02*
X2741491Y-3784103D01*
X2741491Y-3784103D02*
X2731968Y-3803150D01*
X2731968Y-3803150D02*
X2722444Y-3812674D01*
X2722444Y-3812674D02*
X2703396Y-3822198D01*
X2703396Y-3822198D02*
X2665301Y-3822198D01*
X2665301Y-3822198D02*
X2646253Y-3831722D01*
X2646253Y-3831722D02*
X2636729Y-3841246D01*
X2636729Y-3841246D02*
X2627206Y-3860293D01*
X2627206Y-3860293D02*
X2627206Y-3898388D01*
X2627206Y-3898388D02*
X2636729Y-3917436D01*
X2636729Y-3917436D02*
X2646253Y-3926960D01*
X2646253Y-3926960D02*
X2665301Y-3936484D01*
X2665301Y-3936484D02*
X2703396Y-3936484D01*
X2703396Y-3936484D02*
X2722444Y-3926960D01*
X2722444Y-3926960D02*
X2731968Y-3917436D01*
X2731968Y-3917436D02*
X2741491Y-3898388D01*
X2741491Y-3898388D02*
X2741491Y-3860293D01*
X2741491Y-3860293D02*
X2731968Y-3841246D01*
X2731968Y-3841246D02*
X2722444Y-3831722D01*
X2722444Y-3831722D02*
X2703396Y-3822198D01*
X2912920Y-3736484D02*
X2874825Y-3736484D01*
X2874825Y-3736484D02*
X2855777Y-3746008D01*
X2855777Y-3746008D02*
X2846253Y-3755531D01*
X2846253Y-3755531D02*
X2827206Y-3784103D01*
X2827206Y-3784103D02*
X2817682Y-3822198D01*
X2817682Y-3822198D02*
X2817682Y-3898388D01*
X2817682Y-3898388D02*
X2827206Y-3917436D01*
X2827206Y-3917436D02*
X2836729Y-3926960D01*
X2836729Y-3926960D02*
X2855777Y-3936484D01*
X2855777Y-3936484D02*
X2893872Y-3936484D01*
X2893872Y-3936484D02*
X2912920Y-3926960D01*
X2912920Y-3926960D02*
X2922444Y-3917436D01*
X2922444Y-3917436D02*
X2931967Y-3898388D01*
X2931967Y-3898388D02*
X2931967Y-3850769D01*
X2931967Y-3850769D02*
X2922444Y-3831722D01*
X2922444Y-3831722D02*
X2912920Y-3822198D01*
X2912920Y-3822198D02*
X2893872Y-3812674D01*
X2893872Y-3812674D02*
X2855777Y-3812674D01*
X2855777Y-3812674D02*
X2836729Y-3822198D01*
X2836729Y-3822198D02*
X2827206Y-3831722D01*
X2827206Y-3831722D02*
X2817682Y-3850769D01*
X3103396Y-3736484D02*
X3065301Y-3736484D01*
X3065301Y-3736484D02*
X3046253Y-3746008D01*
X3046253Y-3746008D02*
X3036729Y-3755531D01*
X3036729Y-3755531D02*
X3017682Y-3784103D01*
X3017682Y-3784103D02*
X3008158Y-3822198D01*
X3008158Y-3822198D02*
X3008158Y-3898388D01*
X3008158Y-3898388D02*
X3017682Y-3917436D01*
X3017682Y-3917436D02*
X3027206Y-3926960D01*
X3027206Y-3926960D02*
X3046253Y-3936484D01*
X3046253Y-3936484D02*
X3084348Y-3936484D01*
X3084348Y-3936484D02*
X3103396Y-3926960D01*
X3103396Y-3926960D02*
X3112920Y-3917436D01*
X3112920Y-3917436D02*
X3122444Y-3898388D01*
X3122444Y-3898388D02*
X3122444Y-3850769D01*
X3122444Y-3850769D02*
X3112920Y-3831722D01*
X3112920Y-3831722D02*
X3103396Y-3822198D01*
X3103396Y-3822198D02*
X3084348Y-3812674D01*
X3084348Y-3812674D02*
X3046253Y-3812674D01*
X3046253Y-3812674D02*
X3027206Y-3822198D01*
X3027206Y-3822198D02*
X3017682Y-3831722D01*
X3017682Y-3831722D02*
X3008158Y-3850769D01*
X3198634Y-3736484D02*
X3198634Y-3774579D01*
X3274825Y-3736484D02*
X3274825Y-3774579D01*
X3570063Y-4012674D02*
X3560539Y-4003150D01*
X3560539Y-4003150D02*
X3541491Y-3974579D01*
X3541491Y-3974579D02*
X3531968Y-3955531D01*
X3531968Y-3955531D02*
X3522444Y-3926960D01*
X3522444Y-3926960D02*
X3512920Y-3879341D01*
X3512920Y-3879341D02*
X3512920Y-3841246D01*
X3512920Y-3841246D02*
X3522444Y-3793627D01*
X3522444Y-3793627D02*
X3531968Y-3765055D01*
X3531968Y-3765055D02*
X3541491Y-3746008D01*
X3541491Y-3746008D02*
X3560539Y-3717436D01*
X3560539Y-3717436D02*
X3570063Y-3707912D01*
X3636729Y-3755531D02*
X3646253Y-3746008D01*
X3646253Y-3746008D02*
X3665301Y-3736484D01*
X3665301Y-3736484D02*
X3712920Y-3736484D01*
X3712920Y-3736484D02*
X3731968Y-3746008D01*
X3731968Y-3746008D02*
X3741491Y-3755531D01*
X3741491Y-3755531D02*
X3751015Y-3774579D01*
X3751015Y-3774579D02*
X3751015Y-3793627D01*
X3751015Y-3793627D02*
X3741491Y-3822198D01*
X3741491Y-3822198D02*
X3627206Y-3936484D01*
X3627206Y-3936484D02*
X3751015Y-3936484D01*
X3989110Y-3936484D02*
X3989110Y-3736484D01*
X4074825Y-3936484D02*
X4074825Y-3831722D01*
X4074825Y-3831722D02*
X4065301Y-3812674D01*
X4065301Y-3812674D02*
X4046253Y-3803150D01*
X4046253Y-3803150D02*
X4017682Y-3803150D01*
X4017682Y-3803150D02*
X3998634Y-3812674D01*
X3998634Y-3812674D02*
X3989110Y-3822198D01*
X4198634Y-3936484D02*
X4179587Y-3926960D01*
X4179587Y-3926960D02*
X4170063Y-3917436D01*
X4170063Y-3917436D02*
X4160539Y-3898388D01*
X4160539Y-3898388D02*
X4160539Y-3841246D01*
X4160539Y-3841246D02*
X4170063Y-3822198D01*
X4170063Y-3822198D02*
X4179587Y-3812674D01*
X4179587Y-3812674D02*
X4198634Y-3803150D01*
X4198634Y-3803150D02*
X4227206Y-3803150D01*
X4227206Y-3803150D02*
X4246253Y-3812674D01*
X4246253Y-3812674D02*
X4255777Y-3822198D01*
X4255777Y-3822198D02*
X4265301Y-3841246D01*
X4265301Y-3841246D02*
X4265301Y-3898388D01*
X4265301Y-3898388D02*
X4255777Y-3917436D01*
X4255777Y-3917436D02*
X4246253Y-3926960D01*
X4246253Y-3926960D02*
X4227206Y-3936484D01*
X4227206Y-3936484D02*
X4198634Y-3936484D01*
X4379587Y-3936484D02*
X4360539Y-3926960D01*
X4360539Y-3926960D02*
X4351015Y-3907912D01*
X4351015Y-3907912D02*
X4351015Y-3736484D01*
X4531968Y-3926960D02*
X4512920Y-3936484D01*
X4512920Y-3936484D02*
X4474825Y-3936484D01*
X4474825Y-3936484D02*
X4455777Y-3926960D01*
X4455777Y-3926960D02*
X4446253Y-3907912D01*
X4446253Y-3907912D02*
X4446253Y-3831722D01*
X4446253Y-3831722D02*
X4455777Y-3812674D01*
X4455777Y-3812674D02*
X4474825Y-3803150D01*
X4474825Y-3803150D02*
X4512920Y-3803150D01*
X4512920Y-3803150D02*
X4531968Y-3812674D01*
X4531968Y-3812674D02*
X4541492Y-3831722D01*
X4541492Y-3831722D02*
X4541492Y-3850769D01*
X4541492Y-3850769D02*
X4446253Y-3869817D01*
X4617682Y-3926960D02*
X4636730Y-3936484D01*
X4636730Y-3936484D02*
X4674825Y-3936484D01*
X4674825Y-3936484D02*
X4693873Y-3926960D01*
X4693873Y-3926960D02*
X4703396Y-3907912D01*
X4703396Y-3907912D02*
X4703396Y-3898388D01*
X4703396Y-3898388D02*
X4693873Y-3879341D01*
X4693873Y-3879341D02*
X4674825Y-3869817D01*
X4674825Y-3869817D02*
X4646253Y-3869817D01*
X4646253Y-3869817D02*
X4627206Y-3860293D01*
X4627206Y-3860293D02*
X4617682Y-3841246D01*
X4617682Y-3841246D02*
X4617682Y-3831722D01*
X4617682Y-3831722D02*
X4627206Y-3812674D01*
X4627206Y-3812674D02*
X4646253Y-3803150D01*
X4646253Y-3803150D02*
X4674825Y-3803150D01*
X4674825Y-3803150D02*
X4693873Y-3812674D01*
X4770063Y-4012674D02*
X4779587Y-4003150D01*
X4779587Y-4003150D02*
X4798634Y-3974579D01*
X4798634Y-3974579D02*
X4808158Y-3955531D01*
X4808158Y-3955531D02*
X4817682Y-3926960D01*
X4817682Y-3926960D02*
X4827206Y-3879341D01*
X4827206Y-3879341D02*
X4827206Y-3841246D01*
X4827206Y-3841246D02*
X4817682Y-3793627D01*
X4817682Y-3793627D02*
X4808158Y-3765055D01*
X4808158Y-3765055D02*
X4798634Y-3746008D01*
X4798634Y-3746008D02*
X4779587Y-3717436D01*
X4779587Y-3717436D02*
X4770063Y-3707912D01*
X5131968Y-4012674D02*
X5122444Y-4003150D01*
X5122444Y-4003150D02*
X5103396Y-3974579D01*
X5103396Y-3974579D02*
X5093873Y-3955531D01*
X5093873Y-3955531D02*
X5084349Y-3926960D01*
X5084349Y-3926960D02*
X5074825Y-3879341D01*
X5074825Y-3879341D02*
X5074825Y-3841246D01*
X5074825Y-3841246D02*
X5084349Y-3793627D01*
X5084349Y-3793627D02*
X5093873Y-3765055D01*
X5093873Y-3765055D02*
X5103396Y-3746008D01*
X5103396Y-3746008D02*
X5122444Y-3717436D01*
X5122444Y-3717436D02*
X5131968Y-3707912D01*
X5208158Y-3803150D02*
X5208158Y-3936484D01*
X5208158Y-3822198D02*
X5217682Y-3812674D01*
X5217682Y-3812674D02*
X5236730Y-3803150D01*
X5236730Y-3803150D02*
X5265301Y-3803150D01*
X5265301Y-3803150D02*
X5284349Y-3812674D01*
X5284349Y-3812674D02*
X5293873Y-3831722D01*
X5293873Y-3831722D02*
X5293873Y-3936484D01*
X5417682Y-3936484D02*
X5398634Y-3926960D01*
X5398634Y-3926960D02*
X5389111Y-3917436D01*
X5389111Y-3917436D02*
X5379587Y-3898388D01*
X5379587Y-3898388D02*
X5379587Y-3841246D01*
X5379587Y-3841246D02*
X5389111Y-3822198D01*
X5389111Y-3822198D02*
X5398634Y-3812674D01*
X5398634Y-3812674D02*
X5417682Y-3803150D01*
X5417682Y-3803150D02*
X5446254Y-3803150D01*
X5446254Y-3803150D02*
X5465301Y-3812674D01*
X5465301Y-3812674D02*
X5474825Y-3822198D01*
X5474825Y-3822198D02*
X5484349Y-3841246D01*
X5484349Y-3841246D02*
X5484349Y-3898388D01*
X5484349Y-3898388D02*
X5474825Y-3917436D01*
X5474825Y-3917436D02*
X5465301Y-3926960D01*
X5465301Y-3926960D02*
X5446254Y-3936484D01*
X5446254Y-3936484D02*
X5417682Y-3936484D01*
X5541492Y-3803150D02*
X5617682Y-3803150D01*
X5570063Y-3736484D02*
X5570063Y-3907912D01*
X5570063Y-3907912D02*
X5579587Y-3926960D01*
X5579587Y-3926960D02*
X5598634Y-3936484D01*
X5598634Y-3936484D02*
X5617682Y-3936484D01*
X5836730Y-3803150D02*
X5836730Y-4003150D01*
X5836730Y-3812674D02*
X5855777Y-3803150D01*
X5855777Y-3803150D02*
X5893873Y-3803150D01*
X5893873Y-3803150D02*
X5912920Y-3812674D01*
X5912920Y-3812674D02*
X5922444Y-3822198D01*
X5922444Y-3822198D02*
X5931968Y-3841246D01*
X5931968Y-3841246D02*
X5931968Y-3898388D01*
X5931968Y-3898388D02*
X5922444Y-3917436D01*
X5922444Y-3917436D02*
X5912920Y-3926960D01*
X5912920Y-3926960D02*
X5893873Y-3936484D01*
X5893873Y-3936484D02*
X5855777Y-3936484D01*
X5855777Y-3936484D02*
X5836730Y-3926960D01*
X6046253Y-3936484D02*
X6027206Y-3926960D01*
X6027206Y-3926960D02*
X6017682Y-3907912D01*
X6017682Y-3907912D02*
X6017682Y-3736484D01*
X6208158Y-3936484D02*
X6208158Y-3831722D01*
X6208158Y-3831722D02*
X6198634Y-3812674D01*
X6198634Y-3812674D02*
X6179587Y-3803150D01*
X6179587Y-3803150D02*
X6141492Y-3803150D01*
X6141492Y-3803150D02*
X6122444Y-3812674D01*
X6208158Y-3926960D02*
X6189111Y-3936484D01*
X6189111Y-3936484D02*
X6141492Y-3936484D01*
X6141492Y-3936484D02*
X6122444Y-3926960D01*
X6122444Y-3926960D02*
X6112920Y-3907912D01*
X6112920Y-3907912D02*
X6112920Y-3888865D01*
X6112920Y-3888865D02*
X6122444Y-3869817D01*
X6122444Y-3869817D02*
X6141492Y-3860293D01*
X6141492Y-3860293D02*
X6189111Y-3860293D01*
X6189111Y-3860293D02*
X6208158Y-3850769D01*
X6274825Y-3803150D02*
X6351015Y-3803150D01*
X6303396Y-3736484D02*
X6303396Y-3907912D01*
X6303396Y-3907912D02*
X6312920Y-3926960D01*
X6312920Y-3926960D02*
X6331968Y-3936484D01*
X6331968Y-3936484D02*
X6351015Y-3936484D01*
X6493873Y-3926960D02*
X6474825Y-3936484D01*
X6474825Y-3936484D02*
X6436730Y-3936484D01*
X6436730Y-3936484D02*
X6417682Y-3926960D01*
X6417682Y-3926960D02*
X6408158Y-3907912D01*
X6408158Y-3907912D02*
X6408158Y-3831722D01*
X6408158Y-3831722D02*
X6417682Y-3812674D01*
X6417682Y-3812674D02*
X6436730Y-3803150D01*
X6436730Y-3803150D02*
X6474825Y-3803150D01*
X6474825Y-3803150D02*
X6493873Y-3812674D01*
X6493873Y-3812674D02*
X6503396Y-3831722D01*
X6503396Y-3831722D02*
X6503396Y-3850769D01*
X6503396Y-3850769D02*
X6408158Y-3869817D01*
X6674825Y-3936484D02*
X6674825Y-3736484D01*
X6674825Y-3926960D02*
X6655777Y-3936484D01*
X6655777Y-3936484D02*
X6617682Y-3936484D01*
X6617682Y-3936484D02*
X6598634Y-3926960D01*
X6598634Y-3926960D02*
X6589111Y-3917436D01*
X6589111Y-3917436D02*
X6579587Y-3898388D01*
X6579587Y-3898388D02*
X6579587Y-3841246D01*
X6579587Y-3841246D02*
X6589111Y-3822198D01*
X6589111Y-3822198D02*
X6598634Y-3812674D01*
X6598634Y-3812674D02*
X6617682Y-3803150D01*
X6617682Y-3803150D02*
X6655777Y-3803150D01*
X6655777Y-3803150D02*
X6674825Y-3812674D01*
X6751015Y-4012674D02*
X6760539Y-4003150D01*
X6760539Y-4003150D02*
X6779587Y-3974579D01*
X6779587Y-3974579D02*
X6789111Y-3955531D01*
X6789111Y-3955531D02*
X6798634Y-3926960D01*
X6798634Y-3926960D02*
X6808158Y-3879341D01*
X6808158Y-3879341D02*
X6808158Y-3841246D01*
X6808158Y-3841246D02*
X6798634Y-3793627D01*
X6798634Y-3793627D02*
X6789111Y-3765055D01*
X6789111Y-3765055D02*
X6779587Y-3746008D01*
X6779587Y-3746008D02*
X6760539Y-3717436D01*
X6760539Y-3717436D02*
X6751015Y-3707912D01*
M02*
