G04 #@! TF.GenerationSoftware,KiCad,Pcbnew,9.0.9-9.0.9~ubuntu24.04.1*
G04 #@! TF.CreationDate,2026-09-20T10:20:26+00:00*
G04 #@! TF.ProjectId,adv7280m-csi2,61647637-3238-4306-9d2d-637369322e6b,rev?*
G04 #@! TF.SameCoordinates,Original*
G04 #@! TF.FileFunction,Soldermask,Top*
G04 #@! TF.FilePolarity,Negative*
%FSLAX46Y46*%
G04 Gerber Fmt 4.6, Leading zero omitted, Abs format (unit mm)*
G04 Created by KiCad (PCBNEW 9.0.9-9.0.9~ubuntu24.04.1) date 2026-09-20 10:20:26*
%MOMM*%
%LPD*%
G01*
G04 APERTURE LIST*
G04 Aperture macros list*
%AMRoundRect*
0 Rectangle with rounded corners*
0 $1 Rounding radius*
0 $2 $3 $4 $5 $6 $7 $8 $9 X,Y pos of 4 corners*
0 Add a 4 corners polygon primitive as box body*
4,1,4,$2,$3,$4,$5,$6,$7,$8,$9,$2,$3,0*
0 Add four circle primitives for the rounded corners*
1,1,$1+$1,$2,$3*
1,1,$1+$1,$4,$5*
1,1,$1+$1,$6,$7*
1,1,$1+$1,$8,$9*
0 Add four rect primitives between the rounded corners*
20,1,$1+$1,$2,$3,$4,$5,0*
20,1,$1+$1,$4,$5,$6,$7,0*
20,1,$1+$1,$6,$7,$8,$9,0*
20,1,$1+$1,$8,$9,$2,$3,0*%
%AMFreePoly0*
4,1,23,0.500000,-0.750000,0.000000,-0.750000,0.000000,-0.745722,-0.065263,-0.745722,-0.191342,-0.711940,-0.304381,-0.646677,-0.396677,-0.554381,-0.461940,-0.441342,-0.495722,-0.315263,-0.495722,-0.250000,-0.500000,-0.250000,-0.500000,0.250000,-0.495722,0.250000,-0.495722,0.315263,-0.461940,0.441342,-0.396677,0.554381,-0.304381,0.646677,-0.191342,0.711940,-0.065263,0.745722,0.000000,0.745722,
0.000000,0.750000,0.500000,0.750000,0.500000,-0.750000,0.500000,-0.750000,$1*%
%AMFreePoly1*
4,1,23,0.000000,0.745722,0.065263,0.745722,0.191342,0.711940,0.304381,0.646677,0.396677,0.554381,0.461940,0.441342,0.495722,0.315263,0.495722,0.250000,0.500000,0.250000,0.500000,-0.250000,0.495722,-0.250000,0.495722,-0.315263,0.461940,-0.441342,0.396677,-0.554381,0.304381,-0.646677,0.191342,-0.711940,0.065263,-0.745722,0.000000,-0.745722,0.000000,-0.750000,-0.500000,-0.750000,
-0.500000,0.750000,0.000000,0.750000,0.000000,0.745722,0.000000,0.745722,$1*%
G04 Aperture macros list end*
%ADD10RoundRect,0.200000X-0.275000X0.200000X-0.275000X-0.200000X0.275000X-0.200000X0.275000X0.200000X0*%
%ADD11RoundRect,0.075000X0.175000X-0.075000X0.175000X0.075000X-0.175000X0.075000X-0.175000X-0.075000X0*%
%ADD12RoundRect,0.140000X-1.960000X0.210000X-1.960000X-0.210000X1.960000X-0.210000X1.960000X0.210000X0*%
%ADD13RoundRect,0.150000X-0.850000X0.150000X-0.850000X-0.150000X0.850000X-0.150000X0.850000X0.150000X0*%
%ADD14RoundRect,0.218750X-0.218750X-0.256250X0.218750X-0.256250X0.218750X0.256250X-0.218750X0.256250X0*%
%ADD15RoundRect,0.225000X-0.250000X0.225000X-0.250000X-0.225000X0.250000X-0.225000X0.250000X0.225000X0*%
%ADD16RoundRect,0.140000X-0.170000X0.140000X-0.170000X-0.140000X0.170000X-0.140000X0.170000X0.140000X0*%
%ADD17RoundRect,0.225000X-0.225000X-0.250000X0.225000X-0.250000X0.225000X0.250000X-0.225000X0.250000X0*%
%ADD18RoundRect,0.140000X0.170000X-0.140000X0.170000X0.140000X-0.170000X0.140000X-0.170000X-0.140000X0*%
%ADD19FreePoly0,0.000000*%
%ADD20FreePoly1,0.000000*%
%ADD21RoundRect,0.140000X0.140000X0.170000X-0.140000X0.170000X-0.140000X-0.170000X0.140000X-0.170000X0*%
%ADD22RoundRect,0.062500X-0.337500X-0.062500X0.337500X-0.062500X0.337500X0.062500X-0.337500X0.062500X0*%
%ADD23RoundRect,0.062500X-0.062500X-0.337500X0.062500X-0.337500X0.062500X0.337500X-0.062500X0.337500X0*%
%ADD24R,3.600000X3.600000*%
%ADD25RoundRect,0.225000X0.250000X-0.225000X0.250000X0.225000X-0.250000X0.225000X-0.250000X-0.225000X0*%
%ADD26RoundRect,0.150000X-0.512500X-0.150000X0.512500X-0.150000X0.512500X0.150000X-0.512500X0.150000X0*%
%ADD27C,1.500000*%
%ADD28RoundRect,0.140000X-0.140000X-0.170000X0.140000X-0.170000X0.140000X0.170000X-0.140000X0.170000X0*%
%ADD29RoundRect,0.200000X0.200000X0.275000X-0.200000X0.275000X-0.200000X-0.275000X0.200000X-0.275000X0*%
%ADD30C,2.200000*%
%ADD31FreePoly0,180.000000*%
%ADD32FreePoly1,180.000000*%
%ADD33RoundRect,0.225000X0.225000X0.250000X-0.225000X0.250000X-0.225000X-0.250000X0.225000X-0.250000X0*%
%ADD34RoundRect,0.250000X0.750000X0.950000X-0.750000X0.950000X-0.750000X-0.950000X0.750000X-0.950000X0*%
%ADD35O,2.300000X3.500000*%
%ADD36O,3.500000X2.000000*%
G04 APERTURE END LIST*
G36*
X19450000Y-1950000D02*
G01*
X19750000Y-1950000D01*
X19750000Y-3450000D01*
X19450000Y-3450000D01*
X19450000Y-1950000D01*
G37*
G36*
X13650000Y-3450000D02*
G01*
X13350000Y-3450000D01*
X13350000Y-1950000D01*
X13650000Y-1950000D01*
X13650000Y-3450000D01*
G37*
G36*
X24750000Y-3450000D02*
G01*
X24450000Y-3450000D01*
X24450000Y-1950000D01*
X24750000Y-1950000D01*
X24750000Y-3450000D01*
G37*
D10*
X21800000Y-4675000D03*
X21800000Y-6325000D03*
D11*
X33200000Y-16749999D03*
X33200000Y-16049999D03*
D12*
X4150000Y-7000000D03*
X4150000Y-23000000D03*
D13*
X6250000Y-8000000D03*
X6250000Y-9000000D03*
X6250000Y-10000000D03*
X6250000Y-11000000D03*
X6250000Y-12000000D03*
X6250000Y-13000000D03*
X6250000Y-14000000D03*
X6250000Y-15000000D03*
X6250000Y-16000000D03*
X6250000Y-17000000D03*
X6250000Y-18000000D03*
X6250000Y-19000000D03*
X6250000Y-20000000D03*
X6250000Y-21000000D03*
X6250000Y-22000000D03*
D14*
X17612500Y-25800000D03*
X19187500Y-25800000D03*
D15*
X24800000Y-4725000D03*
X24800000Y-6275000D03*
D16*
X20000000Y-15520000D03*
X20000000Y-16480000D03*
D10*
X16300000Y-4675000D03*
X16300000Y-6325000D03*
D17*
X6825000Y-24900000D03*
X8375000Y-24900000D03*
D18*
X24000000Y-11480000D03*
X24000000Y-10520000D03*
D17*
X20625000Y-25800000D03*
X22175000Y-25800000D03*
D19*
X18950000Y-2700000D03*
D20*
X20250000Y-2700000D03*
D21*
X15880000Y-10500000D03*
X14920000Y-10500000D03*
D10*
X28600000Y-14175000D03*
X28600000Y-15825000D03*
D22*
X17550000Y-8750000D03*
X17550000Y-9250000D03*
X17550000Y-9750000D03*
X17550000Y-10250000D03*
X17550000Y-10750000D03*
X17550000Y-11250000D03*
X17550000Y-11750000D03*
X17550000Y-12250000D03*
D23*
X18250000Y-12950000D03*
X18750000Y-12950000D03*
X19250000Y-12950000D03*
X19750000Y-12950000D03*
X20250000Y-12950000D03*
X20750000Y-12950000D03*
X21250000Y-12950000D03*
X21750000Y-12950000D03*
D22*
X22450000Y-12250000D03*
X22450000Y-11750000D03*
X22450000Y-11250000D03*
X22450000Y-10750000D03*
X22450000Y-10250000D03*
X22450000Y-9750000D03*
X22450000Y-9250000D03*
X22450000Y-8750000D03*
D23*
X21750000Y-8050000D03*
X21250000Y-8050000D03*
X20750000Y-8050000D03*
X20250000Y-8050000D03*
X19750000Y-8050000D03*
X19250000Y-8050000D03*
X18750000Y-8050000D03*
X18250000Y-8050000D03*
D24*
X20000000Y-10500000D03*
D21*
X15880000Y-9200000D03*
X14920000Y-9200000D03*
D25*
X22950000Y-23175000D03*
X22950000Y-21625000D03*
D26*
X10362500Y-26050000D03*
X10362500Y-27000000D03*
X10362500Y-27950000D03*
X12637500Y-27950000D03*
X12637500Y-26050000D03*
D27*
X30400000Y-17800000D03*
D25*
X26650000Y-23175000D03*
X26650000Y-21625000D03*
D17*
X14525000Y-25800000D03*
X16075000Y-25800000D03*
D28*
X24420000Y-9000000D03*
X25380000Y-9000000D03*
D27*
X36500000Y-22000000D03*
D29*
X31775000Y-14900000D03*
X30125000Y-14900000D03*
D27*
X18400000Y-28300000D03*
X28900000Y-27200000D03*
D28*
X26420000Y-9000000D03*
X27380000Y-9000000D03*
D30*
X35500000Y-29000000D03*
X8000000Y-3200000D03*
D10*
X23300000Y-4675000D03*
X23300000Y-6325000D03*
D31*
X14150000Y-2700000D03*
D32*
X12850000Y-2700000D03*
D26*
X10362500Y-21050000D03*
X10362500Y-22000000D03*
X10362500Y-22950000D03*
X12637500Y-22950000D03*
X12637500Y-21050000D03*
D16*
X18800000Y-15520000D03*
X18800000Y-16480000D03*
D27*
X28200000Y-2700000D03*
D31*
X25250000Y-2700000D03*
D32*
X23950000Y-2700000D03*
D27*
X11400000Y-18200000D03*
D28*
X22420000Y-14400000D03*
X23380000Y-14400000D03*
D33*
X26975000Y-12900000D03*
X25425000Y-12900000D03*
D17*
X14525000Y-22600000D03*
X16075000Y-22600000D03*
D21*
X15880000Y-7900000D03*
X14920000Y-7900000D03*
D17*
X14525000Y-20800000D03*
X16075000Y-20800000D03*
D27*
X26300000Y-27200000D03*
D17*
X14525000Y-27600000D03*
X16075000Y-27600000D03*
D28*
X24320000Y-14400000D03*
X25280000Y-14400000D03*
D10*
X27800000Y-4675000D03*
X27800000Y-6325000D03*
D34*
X26650000Y-18600000D03*
X22950000Y-18600000D03*
D10*
X26300000Y-4675000D03*
X26300000Y-6325000D03*
D21*
X15880000Y-11800000D03*
X14920000Y-11800000D03*
D35*
X37000000Y-8000000D03*
D36*
X33200000Y-13000000D03*
X33200000Y-3000000D03*
D27*
X18600000Y-21700000D03*
M02*
