G04 #@! TF.GenerationSoftware,KiCad,Pcbnew,9.0.9-9.0.9~ubuntu24.04.1*
G04 #@! TF.CreationDate,2026-09-20T10:20:26+00:00*
G04 #@! TF.ProjectId,adv7280m-csi2,61647637-3238-4306-9d2d-637369322e6b,rev?*
G04 #@! TF.SameCoordinates,Original*
G04 #@! TF.FileFunction,Legend,Top*
G04 #@! TF.FilePolarity,Positive*
%FSLAX46Y46*%
G04 Gerber Fmt 4.6, Leading zero omitted, Abs format (unit mm)*
G04 Created by KiCad (PCBNEW 9.0.9-9.0.9~ubuntu24.04.1) date 2026-09-20 10:20:26*
%MOMM*%
%LPD*%
G01*
G04 APERTURE LIST*
G04 Aperture macros list*
%AMRoundRect*
0 Rectangle with rounded corners*
0 $1 Rounding radius*
0 $2 $3 $4 $5 $6 $7 $8 $9 X,Y pos of 4 corners*
0 Add a 4 corners polygon primitive as box body*
4,1,4,$2,$3,$4,$5,$6,$7,$8,$9,$2,$3,0*
0 Add four circle primitives for the rounded corners*
1,1,$1+$1,$2,$3*
1,1,$1+$1,$4,$5*
1,1,$1+$1,$6,$7*
1,1,$1+$1,$8,$9*
0 Add four rect primitives between the rounded corners*
20,1,$1+$1,$2,$3,$4,$5,0*
20,1,$1+$1,$4,$5,$6,$7,0*
20,1,$1+$1,$6,$7,$8,$9,0*
20,1,$1+$1,$8,$9,$2,$3,0*%
%AMFreePoly0*
4,1,23,0.500000,-0.750000,0.000000,-0.750000,0.000000,-0.745722,-0.065263,-0.745722,-0.191342,-0.711940,-0.304381,-0.646677,-0.396677,-0.554381,-0.461940,-0.441342,-0.495722,-0.315263,-0.495722,-0.250000,-0.500000,-0.250000,-0.500000,0.250000,-0.495722,0.250000,-0.495722,0.315263,-0.461940,0.441342,-0.396677,0.554381,-0.304381,0.646677,-0.191342,0.711940,-0.065263,0.745722,0.000000,0.745722,
0.000000,0.750000,0.500000,0.750000,0.500000,-0.750000,0.500000,-0.750000,$1*%
%AMFreePoly1*
4,1,23,0.000000,0.745722,0.065263,0.745722,0.191342,0.711940,0.304381,0.646677,0.396677,0.554381,0.461940,0.441342,0.495722,0.315263,0.495722,0.250000,0.500000,0.250000,0.500000,-0.250000,0.495722,-0.250000,0.495722,-0.315263,0.461940,-0.441342,0.396677,-0.554381,0.304381,-0.646677,0.191342,-0.711940,0.065263,-0.745722,0.000000,-0.745722,0.000000,-0.750000,-0.500000,-0.750000,
-0.500000,0.750000,0.000000,0.750000,0.000000,0.745722,0.000000,0.745722,$1*%
G04 Aperture macros list end*
%ADD10C,0.120000*%
%ADD11C,0.150000*%
%ADD12C,0.100000*%
%ADD13RoundRect,0.200000X-0.275000X0.200000X-0.275000X-0.200000X0.275000X-0.200000X0.275000X0.200000X0*%
%ADD14RoundRect,0.075000X0.175000X-0.075000X0.175000X0.075000X-0.175000X0.075000X-0.175000X-0.075000X0*%
%ADD15RoundRect,0.140000X-1.960000X0.210000X-1.960000X-0.210000X1.960000X-0.210000X1.960000X0.210000X0*%
%ADD16RoundRect,0.150000X-0.850000X0.150000X-0.850000X-0.150000X0.850000X-0.150000X0.850000X0.150000X0*%
%ADD17RoundRect,0.218750X-0.218750X-0.256250X0.218750X-0.256250X0.218750X0.256250X-0.218750X0.256250X0*%
%ADD18RoundRect,0.225000X-0.250000X0.225000X-0.250000X-0.225000X0.250000X-0.225000X0.250000X0.225000X0*%
%ADD19RoundRect,0.140000X-0.170000X0.140000X-0.170000X-0.140000X0.170000X-0.140000X0.170000X0.140000X0*%
%ADD20RoundRect,0.225000X-0.225000X-0.250000X0.225000X-0.250000X0.225000X0.250000X-0.225000X0.250000X0*%
%ADD21RoundRect,0.140000X0.170000X-0.140000X0.170000X0.140000X-0.170000X0.140000X-0.170000X-0.140000X0*%
%ADD22FreePoly0,0.000000*%
%ADD23FreePoly1,0.000000*%
%ADD24RoundRect,0.140000X0.140000X0.170000X-0.140000X0.170000X-0.140000X-0.170000X0.140000X-0.170000X0*%
%ADD25RoundRect,0.062500X-0.337500X-0.062500X0.337500X-0.062500X0.337500X0.062500X-0.337500X0.062500X0*%
%ADD26RoundRect,0.062500X-0.062500X-0.337500X0.062500X-0.337500X0.062500X0.337500X-0.062500X0.337500X0*%
%ADD27R,3.600000X3.600000*%
%ADD28RoundRect,0.225000X0.250000X-0.225000X0.250000X0.225000X-0.250000X0.225000X-0.250000X-0.225000X0*%
%ADD29RoundRect,0.150000X-0.512500X-0.150000X0.512500X-0.150000X0.512500X0.150000X-0.512500X0.150000X0*%
%ADD30C,1.500000*%
%ADD31RoundRect,0.140000X-0.140000X-0.170000X0.140000X-0.170000X0.140000X0.170000X-0.140000X0.170000X0*%
%ADD32RoundRect,0.200000X0.200000X0.275000X-0.200000X0.275000X-0.200000X-0.275000X0.200000X-0.275000X0*%
%ADD33C,2.200000*%
%ADD34FreePoly0,180.000000*%
%ADD35FreePoly1,180.000000*%
%ADD36RoundRect,0.225000X0.225000X0.250000X-0.225000X0.250000X-0.225000X-0.250000X0.225000X-0.250000X0*%
%ADD37RoundRect,0.250000X0.750000X0.950000X-0.750000X0.950000X-0.750000X-0.950000X0.750000X-0.950000X0*%
%ADD38O,2.300000X3.500000*%
%ADD39O,3.500000X2.000000*%
G04 APERTURE END LIST*
D10*
X5947619Y-5763855D02*
X6404762Y-5763855D01*
X6176190Y-6563855D02*
X6176190Y-5763855D01*
X6823810Y-5763855D02*
X6976191Y-5763855D01*
X6976191Y-5763855D02*
X7052381Y-5801950D01*
X7052381Y-5801950D02*
X7128572Y-5878140D01*
X7128572Y-5878140D02*
X7166667Y-6030521D01*
X7166667Y-6030521D02*
X7166667Y-6297188D01*
X7166667Y-6297188D02*
X7128572Y-6449569D01*
X7128572Y-6449569D02*
X7052381Y-6525760D01*
X7052381Y-6525760D02*
X6976191Y-6563855D01*
X6976191Y-6563855D02*
X6823810Y-6563855D01*
X6823810Y-6563855D02*
X6747619Y-6525760D01*
X6747619Y-6525760D02*
X6671429Y-6449569D01*
X6671429Y-6449569D02*
X6633333Y-6297188D01*
X6633333Y-6297188D02*
X6633333Y-6030521D01*
X6633333Y-6030521D02*
X6671429Y-5878140D01*
X6671429Y-5878140D02*
X6747619Y-5801950D01*
X6747619Y-5801950D02*
X6823810Y-5763855D01*
X8576191Y-6563855D02*
X8309524Y-6182902D01*
X8119048Y-6563855D02*
X8119048Y-5763855D01*
X8119048Y-5763855D02*
X8423810Y-5763855D01*
X8423810Y-5763855D02*
X8500000Y-5801950D01*
X8500000Y-5801950D02*
X8538095Y-5840045D01*
X8538095Y-5840045D02*
X8576191Y-5916236D01*
X8576191Y-5916236D02*
X8576191Y-6030521D01*
X8576191Y-6030521D02*
X8538095Y-6106712D01*
X8538095Y-6106712D02*
X8500000Y-6144807D01*
X8500000Y-6144807D02*
X8423810Y-6182902D01*
X8423810Y-6182902D02*
X8119048Y-6182902D01*
X8919048Y-6563855D02*
X8919048Y-5763855D01*
X8919048Y-5763855D02*
X9223810Y-5763855D01*
X9223810Y-5763855D02*
X9300000Y-5801950D01*
X9300000Y-5801950D02*
X9338095Y-5840045D01*
X9338095Y-5840045D02*
X9376191Y-5916236D01*
X9376191Y-5916236D02*
X9376191Y-6030521D01*
X9376191Y-6030521D02*
X9338095Y-6106712D01*
X9338095Y-6106712D02*
X9300000Y-6144807D01*
X9300000Y-6144807D02*
X9223810Y-6182902D01*
X9223810Y-6182902D02*
X8919048Y-6182902D01*
X9719048Y-6563855D02*
X9719048Y-6030521D01*
X9719048Y-5763855D02*
X9680952Y-5801950D01*
X9680952Y-5801950D02*
X9719048Y-5840045D01*
X9719048Y-5840045D02*
X9757143Y-5801950D01*
X9757143Y-5801950D02*
X9719048Y-5763855D01*
X9719048Y-5763855D02*
X9719048Y-5840045D01*
X11166667Y-6487664D02*
X11128571Y-6525760D01*
X11128571Y-6525760D02*
X11014286Y-6563855D01*
X11014286Y-6563855D02*
X10938095Y-6563855D01*
X10938095Y-6563855D02*
X10823809Y-6525760D01*
X10823809Y-6525760D02*
X10747619Y-6449569D01*
X10747619Y-6449569D02*
X10709524Y-6373379D01*
X10709524Y-6373379D02*
X10671428Y-6220998D01*
X10671428Y-6220998D02*
X10671428Y-6106712D01*
X10671428Y-6106712D02*
X10709524Y-5954331D01*
X10709524Y-5954331D02*
X10747619Y-5878140D01*
X10747619Y-5878140D02*
X10823809Y-5801950D01*
X10823809Y-5801950D02*
X10938095Y-5763855D01*
X10938095Y-5763855D02*
X11014286Y-5763855D01*
X11014286Y-5763855D02*
X11128571Y-5801950D01*
X11128571Y-5801950D02*
X11166667Y-5840045D01*
X11471428Y-6335283D02*
X11852381Y-6335283D01*
X11395238Y-6563855D02*
X11661905Y-5763855D01*
X11661905Y-5763855D02*
X11928571Y-6563855D01*
X12195238Y-6563855D02*
X12195238Y-5763855D01*
X12195238Y-5763855D02*
X12461904Y-6335283D01*
X12461904Y-6335283D02*
X12728571Y-5763855D01*
X12728571Y-5763855D02*
X12728571Y-6563855D01*
X13109524Y-6144807D02*
X13376190Y-6144807D01*
X13490476Y-6563855D02*
X13109524Y-6563855D01*
X13109524Y-6563855D02*
X13109524Y-5763855D01*
X13109524Y-5763855D02*
X13490476Y-5763855D01*
X14290477Y-6563855D02*
X14023810Y-6182902D01*
X13833334Y-6563855D02*
X13833334Y-5763855D01*
X13833334Y-5763855D02*
X14138096Y-5763855D01*
X14138096Y-5763855D02*
X14214286Y-5801950D01*
X14214286Y-5801950D02*
X14252381Y-5840045D01*
X14252381Y-5840045D02*
X14290477Y-5916236D01*
X14290477Y-5916236D02*
X14290477Y-6030521D01*
X14290477Y-6030521D02*
X14252381Y-6106712D01*
X14252381Y-6106712D02*
X14214286Y-6144807D01*
X14214286Y-6144807D02*
X14138096Y-6182902D01*
X14138096Y-6182902D02*
X13833334Y-6182902D01*
X14595238Y-6335283D02*
X14976191Y-6335283D01*
X14519048Y-6563855D02*
X14785715Y-5763855D01*
X14785715Y-5763855D02*
X15052381Y-6563855D01*
X35409524Y-16087664D02*
X35371428Y-16125760D01*
X35371428Y-16125760D02*
X35257143Y-16163855D01*
X35257143Y-16163855D02*
X35180952Y-16163855D01*
X35180952Y-16163855D02*
X35066666Y-16125760D01*
X35066666Y-16125760D02*
X34990476Y-16049569D01*
X34990476Y-16049569D02*
X34952381Y-15973379D01*
X34952381Y-15973379D02*
X34914285Y-15820998D01*
X34914285Y-15820998D02*
X34914285Y-15706712D01*
X34914285Y-15706712D02*
X34952381Y-15554331D01*
X34952381Y-15554331D02*
X34990476Y-15478140D01*
X34990476Y-15478140D02*
X35066666Y-15401950D01*
X35066666Y-15401950D02*
X35180952Y-15363855D01*
X35180952Y-15363855D02*
X35257143Y-15363855D01*
X35257143Y-15363855D02*
X35371428Y-15401950D01*
X35371428Y-15401950D02*
X35409524Y-15440045D01*
X35638095Y-15363855D02*
X35904762Y-16163855D01*
X35904762Y-16163855D02*
X36171428Y-15363855D01*
X36704761Y-15744807D02*
X36819047Y-15782902D01*
X36819047Y-15782902D02*
X36857142Y-15820998D01*
X36857142Y-15820998D02*
X36895238Y-15897188D01*
X36895238Y-15897188D02*
X36895238Y-16011474D01*
X36895238Y-16011474D02*
X36857142Y-16087664D01*
X36857142Y-16087664D02*
X36819047Y-16125760D01*
X36819047Y-16125760D02*
X36742857Y-16163855D01*
X36742857Y-16163855D02*
X36438095Y-16163855D01*
X36438095Y-16163855D02*
X36438095Y-15363855D01*
X36438095Y-15363855D02*
X36704761Y-15363855D01*
X36704761Y-15363855D02*
X36780952Y-15401950D01*
X36780952Y-15401950D02*
X36819047Y-15440045D01*
X36819047Y-15440045D02*
X36857142Y-15516236D01*
X36857142Y-15516236D02*
X36857142Y-15592426D01*
X36857142Y-15592426D02*
X36819047Y-15668617D01*
X36819047Y-15668617D02*
X36780952Y-15706712D01*
X36780952Y-15706712D02*
X36704761Y-15744807D01*
X36704761Y-15744807D02*
X36438095Y-15744807D01*
X37199999Y-16125760D02*
X37314285Y-16163855D01*
X37314285Y-16163855D02*
X37504761Y-16163855D01*
X37504761Y-16163855D02*
X37580952Y-16125760D01*
X37580952Y-16125760D02*
X37619047Y-16087664D01*
X37619047Y-16087664D02*
X37657142Y-16011474D01*
X37657142Y-16011474D02*
X37657142Y-15935283D01*
X37657142Y-15935283D02*
X37619047Y-15859093D01*
X37619047Y-15859093D02*
X37580952Y-15820998D01*
X37580952Y-15820998D02*
X37504761Y-15782902D01*
X37504761Y-15782902D02*
X37352380Y-15744807D01*
X37352380Y-15744807D02*
X37276190Y-15706712D01*
X37276190Y-15706712D02*
X37238095Y-15668617D01*
X37238095Y-15668617D02*
X37199999Y-15592426D01*
X37199999Y-15592426D02*
X37199999Y-15516236D01*
X37199999Y-15516236D02*
X37238095Y-15440045D01*
X37238095Y-15440045D02*
X37276190Y-15401950D01*
X37276190Y-15401950D02*
X37352380Y-15363855D01*
X37352380Y-15363855D02*
X37542857Y-15363855D01*
X37542857Y-15363855D02*
X37657142Y-15401950D01*
X38609524Y-16163855D02*
X38609524Y-15363855D01*
X38990476Y-16163855D02*
X38990476Y-15363855D01*
X38990476Y-15363855D02*
X39447619Y-16163855D01*
X39447619Y-16163855D02*
X39447619Y-15363855D01*
X37647619Y-31363855D02*
X37647619Y-30830521D01*
X37647619Y-30982902D02*
X37685714Y-30906712D01*
X37685714Y-30906712D02*
X37723809Y-30868617D01*
X37723809Y-30868617D02*
X37800000Y-30830521D01*
X37800000Y-30830521D02*
X37876190Y-30830521D01*
X38447619Y-31325760D02*
X38371428Y-31363855D01*
X38371428Y-31363855D02*
X38219047Y-31363855D01*
X38219047Y-31363855D02*
X38142857Y-31325760D01*
X38142857Y-31325760D02*
X38104761Y-31249569D01*
X38104761Y-31249569D02*
X38104761Y-30944807D01*
X38104761Y-30944807D02*
X38142857Y-30868617D01*
X38142857Y-30868617D02*
X38219047Y-30830521D01*
X38219047Y-30830521D02*
X38371428Y-30830521D01*
X38371428Y-30830521D02*
X38447619Y-30868617D01*
X38447619Y-30868617D02*
X38485714Y-30944807D01*
X38485714Y-30944807D02*
X38485714Y-31020998D01*
X38485714Y-31020998D02*
X38104761Y-31097188D01*
X38752380Y-30830521D02*
X38942856Y-31363855D01*
X38942856Y-31363855D02*
X39133333Y-30830521D01*
X40009523Y-31135283D02*
X40390476Y-31135283D01*
X39933333Y-31363855D02*
X40200000Y-30563855D01*
X40200000Y-30563855D02*
X40466666Y-31363855D01*
D11*
X13028570Y-31322842D02*
X12985713Y-31365700D01*
X12985713Y-31365700D02*
X12857141Y-31408557D01*
X12857141Y-31408557D02*
X12771427Y-31408557D01*
X12771427Y-31408557D02*
X12642856Y-31365700D01*
X12642856Y-31365700D02*
X12557141Y-31279985D01*
X12557141Y-31279985D02*
X12514284Y-31194271D01*
X12514284Y-31194271D02*
X12471427Y-31022842D01*
X12471427Y-31022842D02*
X12471427Y-30894271D01*
X12471427Y-30894271D02*
X12514284Y-30722842D01*
X12514284Y-30722842D02*
X12557141Y-30637128D01*
X12557141Y-30637128D02*
X12642856Y-30551414D01*
X12642856Y-30551414D02*
X12771427Y-30508557D01*
X12771427Y-30508557D02*
X12857141Y-30508557D01*
X12857141Y-30508557D02*
X12985713Y-30551414D01*
X12985713Y-30551414D02*
X13028570Y-30594271D01*
X13285713Y-30508557D02*
X13585713Y-31408557D01*
X13585713Y-31408557D02*
X13885713Y-30508557D01*
X14485713Y-30937128D02*
X14614285Y-30979985D01*
X14614285Y-30979985D02*
X14657142Y-31022842D01*
X14657142Y-31022842D02*
X14699999Y-31108557D01*
X14699999Y-31108557D02*
X14699999Y-31237128D01*
X14699999Y-31237128D02*
X14657142Y-31322842D01*
X14657142Y-31322842D02*
X14614285Y-31365700D01*
X14614285Y-31365700D02*
X14528570Y-31408557D01*
X14528570Y-31408557D02*
X14185713Y-31408557D01*
X14185713Y-31408557D02*
X14185713Y-30508557D01*
X14185713Y-30508557D02*
X14485713Y-30508557D01*
X14485713Y-30508557D02*
X14571428Y-30551414D01*
X14571428Y-30551414D02*
X14614285Y-30594271D01*
X14614285Y-30594271D02*
X14657142Y-30679985D01*
X14657142Y-30679985D02*
X14657142Y-30765700D01*
X14657142Y-30765700D02*
X14614285Y-30851414D01*
X14614285Y-30851414D02*
X14571428Y-30894271D01*
X14571428Y-30894271D02*
X14485713Y-30937128D01*
X14485713Y-30937128D02*
X14185713Y-30937128D01*
X15042856Y-31365700D02*
X15171428Y-31408557D01*
X15171428Y-31408557D02*
X15385713Y-31408557D01*
X15385713Y-31408557D02*
X15471428Y-31365700D01*
X15471428Y-31365700D02*
X15514285Y-31322842D01*
X15514285Y-31322842D02*
X15557142Y-31237128D01*
X15557142Y-31237128D02*
X15557142Y-31151414D01*
X15557142Y-31151414D02*
X15514285Y-31065700D01*
X15514285Y-31065700D02*
X15471428Y-31022842D01*
X15471428Y-31022842D02*
X15385713Y-30979985D01*
X15385713Y-30979985D02*
X15214285Y-30937128D01*
X15214285Y-30937128D02*
X15128570Y-30894271D01*
X15128570Y-30894271D02*
X15085713Y-30851414D01*
X15085713Y-30851414D02*
X15042856Y-30765700D01*
X15042856Y-30765700D02*
X15042856Y-30679985D01*
X15042856Y-30679985D02*
X15085713Y-30594271D01*
X15085713Y-30594271D02*
X15128570Y-30551414D01*
X15128570Y-30551414D02*
X15214285Y-30508557D01*
X15214285Y-30508557D02*
X15428570Y-30508557D01*
X15428570Y-30508557D02*
X15557142Y-30551414D01*
X15942856Y-30808557D02*
X16628571Y-31065700D01*
X16628571Y-31065700D02*
X15942856Y-31322842D01*
X17571428Y-31322842D02*
X17528571Y-31365700D01*
X17528571Y-31365700D02*
X17399999Y-31408557D01*
X17399999Y-31408557D02*
X17314285Y-31408557D01*
X17314285Y-31408557D02*
X17185714Y-31365700D01*
X17185714Y-31365700D02*
X17099999Y-31279985D01*
X17099999Y-31279985D02*
X17057142Y-31194271D01*
X17057142Y-31194271D02*
X17014285Y-31022842D01*
X17014285Y-31022842D02*
X17014285Y-30894271D01*
X17014285Y-30894271D02*
X17057142Y-30722842D01*
X17057142Y-30722842D02*
X17099999Y-30637128D01*
X17099999Y-30637128D02*
X17185714Y-30551414D01*
X17185714Y-30551414D02*
X17314285Y-30508557D01*
X17314285Y-30508557D02*
X17399999Y-30508557D01*
X17399999Y-30508557D02*
X17528571Y-30551414D01*
X17528571Y-30551414D02*
X17571428Y-30594271D01*
X17914285Y-31365700D02*
X18042857Y-31408557D01*
X18042857Y-31408557D02*
X18257142Y-31408557D01*
X18257142Y-31408557D02*
X18342857Y-31365700D01*
X18342857Y-31365700D02*
X18385714Y-31322842D01*
X18385714Y-31322842D02*
X18428571Y-31237128D01*
X18428571Y-31237128D02*
X18428571Y-31151414D01*
X18428571Y-31151414D02*
X18385714Y-31065700D01*
X18385714Y-31065700D02*
X18342857Y-31022842D01*
X18342857Y-31022842D02*
X18257142Y-30979985D01*
X18257142Y-30979985D02*
X18085714Y-30937128D01*
X18085714Y-30937128D02*
X17999999Y-30894271D01*
X17999999Y-30894271D02*
X17957142Y-30851414D01*
X17957142Y-30851414D02*
X17914285Y-30765700D01*
X17914285Y-30765700D02*
X17914285Y-30679985D01*
X17914285Y-30679985D02*
X17957142Y-30594271D01*
X17957142Y-30594271D02*
X17999999Y-30551414D01*
X17999999Y-30551414D02*
X18085714Y-30508557D01*
X18085714Y-30508557D02*
X18299999Y-30508557D01*
X18299999Y-30508557D02*
X18428571Y-30551414D01*
X18814285Y-31408557D02*
X18814285Y-30508557D01*
X19242856Y-31065700D02*
X19928571Y-31065700D01*
X20314285Y-30594271D02*
X20357142Y-30551414D01*
X20357142Y-30551414D02*
X20442857Y-30508557D01*
X20442857Y-30508557D02*
X20657142Y-30508557D01*
X20657142Y-30508557D02*
X20742857Y-30551414D01*
X20742857Y-30551414D02*
X20785714Y-30594271D01*
X20785714Y-30594271D02*
X20828571Y-30679985D01*
X20828571Y-30679985D02*
X20828571Y-30765700D01*
X20828571Y-30765700D02*
X20785714Y-30894271D01*
X20785714Y-30894271D02*
X20271428Y-31408557D01*
X20271428Y-31408557D02*
X20828571Y-31408557D01*
X21857142Y-31151414D02*
X22285714Y-31151414D01*
X21771428Y-31408557D02*
X22071428Y-30508557D01*
X22071428Y-30508557D02*
X22371428Y-31408557D01*
X22671428Y-31408557D02*
X22671428Y-30508557D01*
X22671428Y-30508557D02*
X22885714Y-30508557D01*
X22885714Y-30508557D02*
X23014285Y-30551414D01*
X23014285Y-30551414D02*
X23100000Y-30637128D01*
X23100000Y-30637128D02*
X23142857Y-30722842D01*
X23142857Y-30722842D02*
X23185714Y-30894271D01*
X23185714Y-30894271D02*
X23185714Y-31022842D01*
X23185714Y-31022842D02*
X23142857Y-31194271D01*
X23142857Y-31194271D02*
X23100000Y-31279985D01*
X23100000Y-31279985D02*
X23014285Y-31365700D01*
X23014285Y-31365700D02*
X22885714Y-31408557D01*
X22885714Y-31408557D02*
X22671428Y-31408557D01*
X23442857Y-30508557D02*
X23742857Y-31408557D01*
X23742857Y-31408557D02*
X24042857Y-30508557D01*
X24257143Y-30508557D02*
X24857143Y-30508557D01*
X24857143Y-30508557D02*
X24471429Y-31408557D01*
X25157143Y-30594271D02*
X25200000Y-30551414D01*
X25200000Y-30551414D02*
X25285715Y-30508557D01*
X25285715Y-30508557D02*
X25500000Y-30508557D01*
X25500000Y-30508557D02*
X25585715Y-30551414D01*
X25585715Y-30551414D02*
X25628572Y-30594271D01*
X25628572Y-30594271D02*
X25671429Y-30679985D01*
X25671429Y-30679985D02*
X25671429Y-30765700D01*
X25671429Y-30765700D02*
X25628572Y-30894271D01*
X25628572Y-30894271D02*
X25114286Y-31408557D01*
X25114286Y-31408557D02*
X25671429Y-31408557D01*
X26185715Y-30894271D02*
X26100000Y-30851414D01*
X26100000Y-30851414D02*
X26057143Y-30808557D01*
X26057143Y-30808557D02*
X26014286Y-30722842D01*
X26014286Y-30722842D02*
X26014286Y-30679985D01*
X26014286Y-30679985D02*
X26057143Y-30594271D01*
X26057143Y-30594271D02*
X26100000Y-30551414D01*
X26100000Y-30551414D02*
X26185715Y-30508557D01*
X26185715Y-30508557D02*
X26357143Y-30508557D01*
X26357143Y-30508557D02*
X26442858Y-30551414D01*
X26442858Y-30551414D02*
X26485715Y-30594271D01*
X26485715Y-30594271D02*
X26528572Y-30679985D01*
X26528572Y-30679985D02*
X26528572Y-30722842D01*
X26528572Y-30722842D02*
X26485715Y-30808557D01*
X26485715Y-30808557D02*
X26442858Y-30851414D01*
X26442858Y-30851414D02*
X26357143Y-30894271D01*
X26357143Y-30894271D02*
X26185715Y-30894271D01*
X26185715Y-30894271D02*
X26100000Y-30937128D01*
X26100000Y-30937128D02*
X26057143Y-30979985D01*
X26057143Y-30979985D02*
X26014286Y-31065700D01*
X26014286Y-31065700D02*
X26014286Y-31237128D01*
X26014286Y-31237128D02*
X26057143Y-31322842D01*
X26057143Y-31322842D02*
X26100000Y-31365700D01*
X26100000Y-31365700D02*
X26185715Y-31408557D01*
X26185715Y-31408557D02*
X26357143Y-31408557D01*
X26357143Y-31408557D02*
X26442858Y-31365700D01*
X26442858Y-31365700D02*
X26485715Y-31322842D01*
X26485715Y-31322842D02*
X26528572Y-31237128D01*
X26528572Y-31237128D02*
X26528572Y-31065700D01*
X26528572Y-31065700D02*
X26485715Y-30979985D01*
X26485715Y-30979985D02*
X26442858Y-30937128D01*
X26442858Y-30937128D02*
X26357143Y-30894271D01*
X27085715Y-30508557D02*
X27171429Y-30508557D01*
X27171429Y-30508557D02*
X27257143Y-30551414D01*
X27257143Y-30551414D02*
X27300001Y-30594271D01*
X27300001Y-30594271D02*
X27342858Y-30679985D01*
X27342858Y-30679985D02*
X27385715Y-30851414D01*
X27385715Y-30851414D02*
X27385715Y-31065700D01*
X27385715Y-31065700D02*
X27342858Y-31237128D01*
X27342858Y-31237128D02*
X27300001Y-31322842D01*
X27300001Y-31322842D02*
X27257143Y-31365700D01*
X27257143Y-31365700D02*
X27171429Y-31408557D01*
X27171429Y-31408557D02*
X27085715Y-31408557D01*
X27085715Y-31408557D02*
X27000001Y-31365700D01*
X27000001Y-31365700D02*
X26957143Y-31322842D01*
X26957143Y-31322842D02*
X26914286Y-31237128D01*
X26914286Y-31237128D02*
X26871429Y-31065700D01*
X26871429Y-31065700D02*
X26871429Y-30851414D01*
X26871429Y-30851414D02*
X26914286Y-30679985D01*
X26914286Y-30679985D02*
X26957143Y-30594271D01*
X26957143Y-30594271D02*
X27000001Y-30551414D01*
X27000001Y-30551414D02*
X27085715Y-30508557D01*
X27771429Y-31065700D02*
X28457144Y-31065700D01*
X28885715Y-31408557D02*
X28885715Y-30508557D01*
X28885715Y-30508557D02*
X29185715Y-31151414D01*
X29185715Y-31151414D02*
X29485715Y-30508557D01*
X29485715Y-30508557D02*
X29485715Y-31408557D01*
D10*
X21277500Y-5262742D02*
X21277500Y-5737258D01*
X22322500Y-5262742D02*
X22322500Y-5737258D01*
X32750000Y-16999999D02*
X32750000Y-15799999D01*
X33650000Y-16999999D02*
X33650000Y-15799999D01*
X2150000Y-4490000D02*
X650000Y-4490000D01*
X2150000Y-25510000D02*
X650000Y-25510000D01*
D12*
X7750000Y-8400000D02*
X7350000Y-8000000D01*
X7750000Y-7600000D01*
X7750000Y-8400000D01*
G36*
X7750000Y-8400000D02*
G01*
X7350000Y-8000000D01*
X7750000Y-7600000D01*
X7750000Y-8400000D01*
G37*
D10*
X18237221Y-25290000D02*
X18562779Y-25290000D01*
X18237221Y-26310000D02*
X18562779Y-26310000D01*
X24290000Y-5359420D02*
X24290000Y-5640580D01*
X25310000Y-5359420D02*
X25310000Y-5640580D01*
X19640000Y-15892164D02*
X19640000Y-16107836D01*
X20360000Y-15892164D02*
X20360000Y-16107836D01*
X15777500Y-5262742D02*
X15777500Y-5737258D01*
X16822500Y-5262742D02*
X16822500Y-5737258D01*
X7459420Y-24390000D02*
X7740580Y-24390000D01*
X7459420Y-25410000D02*
X7740580Y-25410000D01*
X23640000Y-11107836D02*
X23640000Y-10892164D01*
X24360000Y-11107836D02*
X24360000Y-10892164D01*
X21259420Y-25290000D02*
X21540580Y-25290000D01*
X21259420Y-26310000D02*
X21540580Y-26310000D01*
X18200000Y-3000000D02*
X18200000Y-2400000D01*
X18900000Y-1700000D02*
X20300000Y-1700000D01*
X20300000Y-3700000D02*
X18900000Y-3700000D01*
X21000000Y-2400000D02*
X21000000Y-3000000D01*
X18200000Y-2400000D02*
G75*
G02*
X18900000Y-1700000I699999J1D01*
G01*
X18900000Y-3700000D02*
G75*
G02*
X18200000Y-3000000I-1J699999D01*
G01*
X20300000Y-1700000D02*
G75*
G02*
X21000000Y-2400000I0J-700000D01*
G01*
X21000000Y-3000000D02*
G75*
G02*
X20300000Y-3700000I-700000J0D01*
G01*
X15507836Y-10140000D02*
X15292164Y-10140000D01*
X15507836Y-10860000D02*
X15292164Y-10860000D01*
X28077500Y-14762742D02*
X28077500Y-15237258D01*
X29122500Y-14762742D02*
X29122500Y-15237258D01*
X17390000Y-7890000D02*
X17865000Y-7890000D01*
X17390000Y-8365000D02*
X17390000Y-7890000D01*
X17390000Y-13110000D02*
X17390000Y-12635000D01*
X17865000Y-13110000D02*
X17390000Y-13110000D01*
X22135000Y-7890000D02*
X22610000Y-7890000D01*
X22610000Y-7890000D02*
X22610000Y-8365000D01*
X22610000Y-12635000D02*
X22610000Y-13110000D01*
X22610000Y-13110000D02*
X22135000Y-13110000D01*
X16890000Y-8750000D02*
X16560000Y-8990000D01*
X16560000Y-8510000D01*
X16890000Y-8750000D01*
G36*
X16890000Y-8750000D02*
G01*
X16560000Y-8990000D01*
X16560000Y-8510000D01*
X16890000Y-8750000D01*
G37*
X15507836Y-8840000D02*
X15292164Y-8840000D01*
X15507836Y-9560000D02*
X15292164Y-9560000D01*
X22440000Y-22540580D02*
X22440000Y-22259420D01*
X23460000Y-22540580D02*
X23460000Y-22259420D01*
X10590000Y-25440000D02*
X12410000Y-25440000D01*
X10590000Y-25490000D02*
X10590000Y-25440000D01*
X10590000Y-28560000D02*
X10590000Y-28510000D01*
X12410000Y-25440000D02*
X12410000Y-25490000D01*
X12410000Y-26610000D02*
X12410000Y-27390000D01*
X12410000Y-28510000D02*
X12410000Y-28560000D01*
X12410000Y-28560000D02*
X10590000Y-28560000D01*
X10050000Y-25490000D02*
X9810000Y-25160000D01*
X10290000Y-25160000D01*
X10050000Y-25490000D01*
G36*
X10050000Y-25490000D02*
G01*
X9810000Y-25160000D01*
X10290000Y-25160000D01*
X10050000Y-25490000D01*
G37*
X31350000Y-17800000D02*
G75*
G02*
X29450000Y-17800000I-950000J0D01*
G01*
X29450000Y-17800000D02*
G75*
G02*
X31350000Y-17800000I950000J0D01*
G01*
X26140000Y-22540580D02*
X26140000Y-22259420D01*
X27160000Y-22540580D02*
X27160000Y-22259420D01*
X15159420Y-25290000D02*
X15440580Y-25290000D01*
X15159420Y-26310000D02*
X15440580Y-26310000D01*
X24792164Y-8640000D02*
X25007836Y-8640000D01*
X24792164Y-9360000D02*
X25007836Y-9360000D01*
X37450000Y-22000000D02*
G75*
G02*
X35550000Y-22000000I-950000J0D01*
G01*
X35550000Y-22000000D02*
G75*
G02*
X37450000Y-22000000I950000J0D01*
G01*
X31187258Y-14377500D02*
X30712742Y-14377500D01*
X31187258Y-15422500D02*
X30712742Y-15422500D01*
X19350000Y-28300000D02*
G75*
G02*
X17450000Y-28300000I-950000J0D01*
G01*
X17450000Y-28300000D02*
G75*
G02*
X19350000Y-28300000I950000J0D01*
G01*
X29850000Y-27200000D02*
G75*
G02*
X27950000Y-27200000I-950000J0D01*
G01*
X27950000Y-27200000D02*
G75*
G02*
X29850000Y-27200000I950000J0D01*
G01*
X26792164Y-8640000D02*
X27007836Y-8640000D01*
X26792164Y-9360000D02*
X27007836Y-9360000D01*
X22777500Y-5262742D02*
X22777500Y-5737258D01*
X23822500Y-5262742D02*
X23822500Y-5737258D01*
X12100000Y-3000000D02*
X12100000Y-2400000D01*
X12800000Y-1700000D02*
X14200000Y-1700000D01*
X14200000Y-3700000D02*
X12800000Y-3700000D01*
X14900000Y-2400000D02*
X14900000Y-3000000D01*
X12100000Y-2400000D02*
G75*
G02*
X12800000Y-1700000I700000J0D01*
G01*
X12800000Y-3700000D02*
G75*
G02*
X12100000Y-3000000I0J700000D01*
G01*
X14200000Y-1700000D02*
G75*
G02*
X14900000Y-2400000I1J-699999D01*
G01*
X14900000Y-3000000D02*
G75*
G02*
X14200000Y-3700000I-699999J-1D01*
G01*
X10590000Y-20440000D02*
X12410000Y-20440000D01*
X10590000Y-20490000D02*
X10590000Y-20440000D01*
X10590000Y-23560000D02*
X10590000Y-23510000D01*
X12410000Y-20440000D02*
X12410000Y-20490000D01*
X12410000Y-21610000D02*
X12410000Y-22390000D01*
X12410000Y-23510000D02*
X12410000Y-23560000D01*
X12410000Y-23560000D02*
X10590000Y-23560000D01*
X10050000Y-20490000D02*
X9810000Y-20160000D01*
X10290000Y-20160000D01*
X10050000Y-20490000D01*
G36*
X10050000Y-20490000D02*
G01*
X9810000Y-20160000D01*
X10290000Y-20160000D01*
X10050000Y-20490000D01*
G37*
X18440000Y-15892164D02*
X18440000Y-16107836D01*
X19160000Y-15892164D02*
X19160000Y-16107836D01*
X29150000Y-2700000D02*
G75*
G02*
X27250000Y-2700000I-950000J0D01*
G01*
X27250000Y-2700000D02*
G75*
G02*
X29150000Y-2700000I950000J0D01*
G01*
X23200000Y-3000000D02*
X23200000Y-2400000D01*
X23900000Y-1700000D02*
X25300000Y-1700000D01*
X25300000Y-3700000D02*
X23900000Y-3700000D01*
X26000000Y-2400000D02*
X26000000Y-3000000D01*
X23200000Y-2400000D02*
G75*
G02*
X23900000Y-1700000I700000J0D01*
G01*
X23900000Y-3700000D02*
G75*
G02*
X23200000Y-3000000I0J700000D01*
G01*
X25300000Y-1700000D02*
G75*
G02*
X26000000Y-2400000I1J-699999D01*
G01*
X26000000Y-3000000D02*
G75*
G02*
X25300000Y-3700000I-699999J-1D01*
G01*
X12350000Y-18200000D02*
G75*
G02*
X10450000Y-18200000I-950000J0D01*
G01*
X10450000Y-18200000D02*
G75*
G02*
X12350000Y-18200000I950000J0D01*
G01*
X22792164Y-14040000D02*
X23007836Y-14040000D01*
X22792164Y-14760000D02*
X23007836Y-14760000D01*
X26340580Y-12390000D02*
X26059420Y-12390000D01*
X26340580Y-13410000D02*
X26059420Y-13410000D01*
X15159420Y-22090000D02*
X15440580Y-22090000D01*
X15159420Y-23110000D02*
X15440580Y-23110000D01*
X15507836Y-7540000D02*
X15292164Y-7540000D01*
X15507836Y-8260000D02*
X15292164Y-8260000D01*
X15159420Y-20290000D02*
X15440580Y-20290000D01*
X15159420Y-21310000D02*
X15440580Y-21310000D01*
X27250000Y-27200000D02*
G75*
G02*
X25350000Y-27200000I-950000J0D01*
G01*
X25350000Y-27200000D02*
G75*
G02*
X27250000Y-27200000I950000J0D01*
G01*
X15159420Y-27090000D02*
X15440580Y-27090000D01*
X15159420Y-28110000D02*
X15440580Y-28110000D01*
X24692164Y-14040000D02*
X24907836Y-14040000D01*
X24692164Y-14760000D02*
X24907836Y-14760000D01*
X27277500Y-5262742D02*
X27277500Y-5737258D01*
X28322500Y-5262742D02*
X28322500Y-5737258D01*
X22040000Y-20460000D02*
X27910000Y-20460000D01*
X27910000Y-16740000D02*
X22040000Y-16740000D01*
X27910000Y-20460000D02*
X27910000Y-16740000D01*
X25777500Y-5262742D02*
X25777500Y-5737258D01*
X26822500Y-5262742D02*
X26822500Y-5737258D01*
X15507836Y-11440000D02*
X15292164Y-11440000D01*
X15507836Y-12160000D02*
X15292164Y-12160000D01*
X29890000Y-12960000D02*
X29890000Y-3040000D01*
X31000000Y-3040000D02*
X29890000Y-3040000D01*
X31000000Y-12960000D02*
X29890000Y-12960000D01*
X41600000Y-3040000D02*
X35400000Y-3040000D01*
X41600000Y-12960000D02*
X35400000Y-12960000D01*
X19550000Y-21700000D02*
G75*
G02*
X17650000Y-21700000I-950000J0D01*
G01*
X17650000Y-21700000D02*
G75*
G02*
X19550000Y-21700000I950000J0D01*
G01*
%LPC*%
G36*
X19450000Y-1950000D02*
G01*
X19750000Y-1950000D01*
X19750000Y-3450000D01*
X19450000Y-3450000D01*
X19450000Y-1950000D01*
G37*
G36*
X13650000Y-3450000D02*
G01*
X13350000Y-3450000D01*
X13350000Y-1950000D01*
X13650000Y-1950000D01*
X13650000Y-3450000D01*
G37*
G36*
X24750000Y-3450000D02*
G01*
X24450000Y-3450000D01*
X24450000Y-1950000D01*
X24750000Y-1950000D01*
X24750000Y-3450000D01*
G37*
D13*
X21800000Y-4675000D03*
X21800000Y-6325000D03*
D14*
X33200000Y-16749999D03*
X33200000Y-16049999D03*
D15*
X4150000Y-7000000D03*
X4150000Y-23000000D03*
D16*
X6250000Y-8000000D03*
X6250000Y-9000000D03*
X6250000Y-10000000D03*
X6250000Y-11000000D03*
X6250000Y-12000000D03*
X6250000Y-13000000D03*
X6250000Y-14000000D03*
X6250000Y-15000000D03*
X6250000Y-16000000D03*
X6250000Y-17000000D03*
X6250000Y-18000000D03*
X6250000Y-19000000D03*
X6250000Y-20000000D03*
X6250000Y-21000000D03*
X6250000Y-22000000D03*
D17*
X17612500Y-25800000D03*
X19187500Y-25800000D03*
D18*
X24800000Y-4725000D03*
X24800000Y-6275000D03*
D19*
X20000000Y-15520000D03*
X20000000Y-16480000D03*
D13*
X16300000Y-4675000D03*
X16300000Y-6325000D03*
D20*
X6825000Y-24900000D03*
X8375000Y-24900000D03*
D21*
X24000000Y-11480000D03*
X24000000Y-10520000D03*
D20*
X20625000Y-25800000D03*
X22175000Y-25800000D03*
D22*
X18950000Y-2700000D03*
D23*
X20250000Y-2700000D03*
D24*
X15880000Y-10500000D03*
X14920000Y-10500000D03*
D13*
X28600000Y-14175000D03*
X28600000Y-15825000D03*
D25*
X17550000Y-8750000D03*
X17550000Y-9250000D03*
X17550000Y-9750000D03*
X17550000Y-10250000D03*
X17550000Y-10750000D03*
X17550000Y-11250000D03*
X17550000Y-11750000D03*
X17550000Y-12250000D03*
D26*
X18250000Y-12950000D03*
X18750000Y-12950000D03*
X19250000Y-12950000D03*
X19750000Y-12950000D03*
X20250000Y-12950000D03*
X20750000Y-12950000D03*
X21250000Y-12950000D03*
X21750000Y-12950000D03*
D25*
X22450000Y-12250000D03*
X22450000Y-11750000D03*
X22450000Y-11250000D03*
X22450000Y-10750000D03*
X22450000Y-10250000D03*
X22450000Y-9750000D03*
X22450000Y-9250000D03*
X22450000Y-8750000D03*
D26*
X21750000Y-8050000D03*
X21250000Y-8050000D03*
X20750000Y-8050000D03*
X20250000Y-8050000D03*
X19750000Y-8050000D03*
X19250000Y-8050000D03*
X18750000Y-8050000D03*
X18250000Y-8050000D03*
D27*
X20000000Y-10500000D03*
D24*
X15880000Y-9200000D03*
X14920000Y-9200000D03*
D28*
X22950000Y-23175000D03*
X22950000Y-21625000D03*
D29*
X10362500Y-26050000D03*
X10362500Y-27000000D03*
X10362500Y-27950000D03*
X12637500Y-27950000D03*
X12637500Y-26050000D03*
D30*
X30400000Y-17800000D03*
D28*
X26650000Y-23175000D03*
X26650000Y-21625000D03*
D20*
X14525000Y-25800000D03*
X16075000Y-25800000D03*
D31*
X24420000Y-9000000D03*
X25380000Y-9000000D03*
D30*
X36500000Y-22000000D03*
D32*
X31775000Y-14900000D03*
X30125000Y-14900000D03*
D30*
X18400000Y-28300000D03*
X28900000Y-27200000D03*
D31*
X26420000Y-9000000D03*
X27380000Y-9000000D03*
D33*
X35500000Y-29000000D03*
X8000000Y-3200000D03*
D13*
X23300000Y-4675000D03*
X23300000Y-6325000D03*
D34*
X14150000Y-2700000D03*
D35*
X12850000Y-2700000D03*
D29*
X10362500Y-21050000D03*
X10362500Y-22000000D03*
X10362500Y-22950000D03*
X12637500Y-22950000D03*
X12637500Y-21050000D03*
D19*
X18800000Y-15520000D03*
X18800000Y-16480000D03*
D30*
X28200000Y-2700000D03*
D34*
X25250000Y-2700000D03*
D35*
X23950000Y-2700000D03*
D30*
X11400000Y-18200000D03*
D31*
X22420000Y-14400000D03*
X23380000Y-14400000D03*
D36*
X26975000Y-12900000D03*
X25425000Y-12900000D03*
D20*
X14525000Y-22600000D03*
X16075000Y-22600000D03*
D24*
X15880000Y-7900000D03*
X14920000Y-7900000D03*
D20*
X14525000Y-20800000D03*
X16075000Y-20800000D03*
D30*
X26300000Y-27200000D03*
D20*
X14525000Y-27600000D03*
X16075000Y-27600000D03*
D31*
X24320000Y-14400000D03*
X25280000Y-14400000D03*
D13*
X27800000Y-4675000D03*
X27800000Y-6325000D03*
D37*
X26650000Y-18600000D03*
X22950000Y-18600000D03*
D13*
X26300000Y-4675000D03*
X26300000Y-6325000D03*
D24*
X15880000Y-11800000D03*
X14920000Y-11800000D03*
D38*
X37000000Y-8000000D03*
D39*
X33200000Y-13000000D03*
X33200000Y-3000000D03*
D30*
X18600000Y-21700000D03*
%LPD*%
M02*
