G04 #@! TF.GenerationSoftware,KiCad,Pcbnew,9.0.9-9.0.9~ubuntu24.04.1*
G04 #@! TF.CreationDate,2026-09-20T10:20:26+00:00*
G04 #@! TF.ProjectId,adv7280m-csi2,61647637-3238-4306-9d2d-637369322e6b,rev?*
G04 #@! TF.SameCoordinates,Original*
G04 #@! TF.FileFunction,Copper,L3,Inr*
G04 #@! TF.FilePolarity,Positive*
%FSLAX46Y46*%
G04 Gerber Fmt 4.6, Leading zero omitted, Abs format (unit mm)*
G04 Created by KiCad (PCBNEW 9.0.9-9.0.9~ubuntu24.04.1) date 2026-09-20 10:20:26*
%MOMM*%
%LPD*%
G01*
G04 APERTURE LIST*
G04 #@! TA.AperFunction,ComponentPad*
%ADD10O,2.300000X3.500000*%
G04 #@! TD*
G04 #@! TA.AperFunction,ComponentPad*
%ADD11O,3.500000X2.000000*%
G04 #@! TD*
G04 #@! TA.AperFunction,ViaPad*
%ADD12C,0.500000*%
G04 #@! TD*
G04 #@! TA.AperFunction,ViaPad*
%ADD13C,0.450000*%
G04 #@! TD*
G04 APERTURE END LIST*
D10*
X37000000Y-8000000D03*
D11*
X33200000Y-13000000D03*
X33200000Y-3000000D03*
D12*
X24420000Y-8100000D03*
X17600000Y-25000000D03*
X27100000Y-8199999D03*
X13500000Y-25000000D03*
X14525000Y-23700000D03*
X18600000Y-22900000D03*
X15880000Y-12800000D03*
X17900000Y-15700000D03*
X11400000Y-19400000D03*
X7800000Y-22800000D03*
X27800000Y-3900000D03*
X23300000Y-3900000D03*
X21800000Y-3900000D03*
X16300000Y-3900000D03*
X26300000Y-3900000D03*
X9400000Y-25500000D03*
X9400000Y-28500000D03*
X9400000Y-23500000D03*
X8300000Y-18600000D03*
X23950000Y-1500000D03*
X12850000Y-1500000D03*
D13*
X9000000Y-14500000D03*
X10100000Y-15430000D03*
X13200000Y-13980000D03*
X11800000Y-12600000D03*
D12*
X8300000Y-20000000D03*
X28900000Y-25900000D03*
X18500000Y-6500000D03*
X27800000Y-7600000D03*
X26300000Y-7600000D03*
X19200000Y-6900000D03*
X8300000Y-21000000D03*
X26300000Y-25900000D03*
X13500000Y-8550000D03*
X16075000Y-24900000D03*
X11500000Y-27400000D03*
X20000000Y-11500000D03*
X21000000Y-10500000D03*
X20000000Y-17300000D03*
X18200000Y-2200000D03*
X21000000Y-9500000D03*
X33200000Y-15200000D03*
X16075000Y-28500000D03*
X19000000Y-9500000D03*
X19000000Y-10500000D03*
X27000000Y-10600000D03*
X4600000Y-14000000D03*
X8375000Y-25800000D03*
X16075000Y-23500000D03*
X25280000Y-15300000D03*
X19000000Y-11500000D03*
X4600000Y-11000000D03*
X28600000Y-16900000D03*
X11500000Y-22400000D03*
X25380000Y-10000000D03*
X13500000Y-11150000D03*
X16075000Y-19900000D03*
X4600000Y-8000000D03*
X4600000Y-17000000D03*
X23380000Y-15300000D03*
X20000000Y-9500000D03*
X21000000Y-11500000D03*
X22175000Y-26700000D03*
X18800000Y-17300000D03*
X27100000Y-24300000D03*
X36500000Y-20700000D03*
X20000000Y-10500000D03*
X22950000Y-24200000D03*
X20000000Y-24800000D03*
X22420000Y-15400000D03*
X24320000Y-15400000D03*
G04 #@! TA.AperFunction,Conductor*
G36*
X25742539Y-7519685D02*
G01*
X25788294Y-7572489D01*
X25799500Y-7624000D01*
X25799500Y-7665891D01*
X25833608Y-7793187D01*
X25866160Y-7849568D01*
X25899500Y-7907314D01*
X25992686Y-8000500D01*
X26106814Y-8066392D01*
X26234108Y-8100500D01*
X26234110Y-8100500D01*
X26365890Y-8100500D01*
X26365892Y-8100500D01*
X26493186Y-8066392D01*
X26607314Y-8000500D01*
X26700500Y-7907314D01*
X26766392Y-7793186D01*
X26800500Y-7665892D01*
X26800500Y-7624000D01*
X26820185Y-7556961D01*
X26872989Y-7511206D01*
X26924500Y-7500000D01*
X27175500Y-7500000D01*
X27242539Y-7519685D01*
X27288294Y-7572489D01*
X27299500Y-7624000D01*
X27299500Y-7665891D01*
X27333608Y-7793187D01*
X27366160Y-7849568D01*
X27399500Y-7907314D01*
X27492686Y-8000500D01*
X27606814Y-8066392D01*
X27734108Y-8100500D01*
X27734110Y-8100500D01*
X27865890Y-8100500D01*
X27865892Y-8100500D01*
X27993186Y-8066392D01*
X28107314Y-8000500D01*
X28200500Y-7907314D01*
X28266392Y-7793186D01*
X28300500Y-7665892D01*
X28300500Y-7624000D01*
X28303050Y-7615314D01*
X28301762Y-7606353D01*
X28312740Y-7582312D01*
X28320185Y-7556961D01*
X28327025Y-7551033D01*
X28330787Y-7542797D01*
X28353021Y-7528507D01*
X28372989Y-7511206D01*
X28383503Y-7508918D01*
X28389565Y-7505023D01*
X28424500Y-7500000D01*
X28476000Y-7500000D01*
X28543039Y-7519685D01*
X28588794Y-7572489D01*
X28600000Y-7624000D01*
X28600000Y-16286696D01*
X28580315Y-16353735D01*
X28527511Y-16399490D01*
X28508097Y-16406469D01*
X28466853Y-16417520D01*
X28406812Y-16433608D01*
X28292686Y-16499500D01*
X28292683Y-16499502D01*
X28199502Y-16592683D01*
X28199500Y-16592686D01*
X28133608Y-16706812D01*
X28116223Y-16771695D01*
X28099500Y-16834108D01*
X28099500Y-16965892D01*
X28116554Y-17029539D01*
X28133608Y-17093187D01*
X28141476Y-17106814D01*
X28199500Y-17207314D01*
X28292686Y-17300500D01*
X28406814Y-17366392D01*
X28508095Y-17393529D01*
X28567753Y-17429892D01*
X28598283Y-17492739D01*
X28600000Y-17513303D01*
X28600000Y-25440823D01*
X28580315Y-25507862D01*
X28563682Y-25528504D01*
X28499500Y-25592686D01*
X28433608Y-25706812D01*
X28399500Y-25834108D01*
X28399500Y-25965891D01*
X28433608Y-26093187D01*
X28466554Y-26150250D01*
X28499500Y-26207314D01*
X28499502Y-26207316D01*
X28563681Y-26271495D01*
X28597166Y-26332818D01*
X28600000Y-26359176D01*
X28600000Y-29376000D01*
X28580315Y-29443039D01*
X28527511Y-29488794D01*
X28476000Y-29500000D01*
X12124000Y-29500000D01*
X12056961Y-29480315D01*
X12011206Y-29427511D01*
X12000000Y-29376000D01*
X12000000Y-28434108D01*
X15574500Y-28434108D01*
X15574500Y-28565891D01*
X15608608Y-28693187D01*
X15641554Y-28750250D01*
X15674500Y-28807314D01*
X15767686Y-28900500D01*
X15881814Y-28966392D01*
X16009108Y-29000500D01*
X16009110Y-29000500D01*
X16140890Y-29000500D01*
X16140892Y-29000500D01*
X16268186Y-28966392D01*
X16382314Y-28900500D01*
X16475500Y-28807314D01*
X16541392Y-28693186D01*
X16575500Y-28565892D01*
X16575500Y-28434108D01*
X16541392Y-28306814D01*
X16475500Y-28192686D01*
X16382314Y-28099500D01*
X16325250Y-28066554D01*
X16268187Y-28033608D01*
X16192406Y-28013303D01*
X16140892Y-27999500D01*
X16009108Y-27999500D01*
X15881812Y-28033608D01*
X15767686Y-28099500D01*
X15767683Y-28099502D01*
X15674502Y-28192683D01*
X15674500Y-28192686D01*
X15608608Y-28306812D01*
X15574500Y-28434108D01*
X12000000Y-28434108D01*
X12000000Y-27467758D01*
X12000500Y-27465892D01*
X12000500Y-27334108D01*
X12000000Y-27332241D01*
X12000000Y-26634108D01*
X21674500Y-26634108D01*
X21674500Y-26765892D01*
X21691554Y-26829539D01*
X21708608Y-26893187D01*
X21739153Y-26946091D01*
X21774500Y-27007314D01*
X21867686Y-27100500D01*
X21981814Y-27166392D01*
X22109108Y-27200500D01*
X22109110Y-27200500D01*
X22240890Y-27200500D01*
X22240892Y-27200500D01*
X22368186Y-27166392D01*
X22482314Y-27100500D01*
X22575500Y-27007314D01*
X22641392Y-26893186D01*
X22675500Y-26765892D01*
X22675500Y-26634108D01*
X22641392Y-26506814D01*
X22575500Y-26392686D01*
X22482314Y-26299500D01*
X22425250Y-26266554D01*
X22368187Y-26233608D01*
X22304539Y-26216554D01*
X22240892Y-26199500D01*
X22109108Y-26199500D01*
X21981812Y-26233608D01*
X21867686Y-26299500D01*
X21867683Y-26299502D01*
X21774502Y-26392683D01*
X21774500Y-26392686D01*
X21708608Y-26506812D01*
X21674500Y-26634108D01*
X12000000Y-26634108D01*
X12000000Y-25834108D01*
X25799500Y-25834108D01*
X25799500Y-25965891D01*
X25833608Y-26093187D01*
X25866554Y-26150250D01*
X25899500Y-26207314D01*
X25992686Y-26300500D01*
X26106814Y-26366392D01*
X26234108Y-26400500D01*
X26234110Y-26400500D01*
X26365890Y-26400500D01*
X26365892Y-26400500D01*
X26493186Y-26366392D01*
X26607314Y-26300500D01*
X26700500Y-26207314D01*
X26766392Y-26093186D01*
X26800500Y-25965892D01*
X26800500Y-25834108D01*
X26766392Y-25706814D01*
X26700500Y-25592686D01*
X26607314Y-25499500D01*
X26505683Y-25440823D01*
X26493187Y-25433608D01*
X26429539Y-25416554D01*
X26365892Y-25399500D01*
X26234108Y-25399500D01*
X26106812Y-25433608D01*
X25992686Y-25499500D01*
X25992683Y-25499502D01*
X25899502Y-25592683D01*
X25899500Y-25592686D01*
X25833608Y-25706812D01*
X25799500Y-25834108D01*
X12000000Y-25834108D01*
X12000000Y-24724000D01*
X12019685Y-24656961D01*
X12072489Y-24611206D01*
X12124000Y-24600000D01*
X15475629Y-24600000D01*
X15542668Y-24619685D01*
X15588423Y-24672489D01*
X15598367Y-24741647D01*
X15595404Y-24756093D01*
X15574500Y-24834108D01*
X15574500Y-24965891D01*
X15608608Y-25093187D01*
X15616766Y-25107316D01*
X15674500Y-25207314D01*
X15767686Y-25300500D01*
X15881814Y-25366392D01*
X16009108Y-25400500D01*
X16009110Y-25400500D01*
X16140890Y-25400500D01*
X16140892Y-25400500D01*
X16268186Y-25366392D01*
X16382314Y-25300500D01*
X16475500Y-25207314D01*
X16541392Y-25093186D01*
X16575500Y-24965892D01*
X16575500Y-24834108D01*
X16554596Y-24756092D01*
X16556259Y-24686243D01*
X16595422Y-24628381D01*
X16659650Y-24600877D01*
X16674371Y-24600000D01*
X19375761Y-24600000D01*
X19442800Y-24619685D01*
X19488555Y-24672489D01*
X19496569Y-24725981D01*
X19499500Y-24725981D01*
X19499500Y-24865891D01*
X19533608Y-24993187D01*
X19566554Y-25050250D01*
X19599500Y-25107314D01*
X19692686Y-25200500D01*
X19806814Y-25266392D01*
X19934108Y-25300500D01*
X19934110Y-25300500D01*
X20065890Y-25300500D01*
X20065892Y-25300500D01*
X20193186Y-25266392D01*
X20307314Y-25200500D01*
X20400500Y-25107314D01*
X20466392Y-24993186D01*
X20500500Y-24865892D01*
X20500500Y-24734108D01*
X20500500Y-24725981D01*
X20503517Y-24725981D01*
X20512060Y-24671161D01*
X20558435Y-24618901D01*
X20624239Y-24600000D01*
X22608594Y-24600000D01*
X22670594Y-24616613D01*
X22756814Y-24666392D01*
X22884108Y-24700500D01*
X22884110Y-24700500D01*
X23015890Y-24700500D01*
X23015892Y-24700500D01*
X23143186Y-24666392D01*
X23229406Y-24616613D01*
X23291406Y-24600000D01*
X26640823Y-24600000D01*
X26707862Y-24619685D01*
X26728504Y-24636318D01*
X26792686Y-24700500D01*
X26906814Y-24766392D01*
X27034108Y-24800500D01*
X27034110Y-24800500D01*
X27165890Y-24800500D01*
X27165892Y-24800500D01*
X27293186Y-24766392D01*
X27407314Y-24700500D01*
X27500500Y-24607314D01*
X27566392Y-24493186D01*
X27600500Y-24365892D01*
X27600500Y-24234108D01*
X27566392Y-24106814D01*
X27500500Y-23992686D01*
X27407314Y-23899500D01*
X27350250Y-23866554D01*
X27293187Y-23833608D01*
X27229539Y-23816554D01*
X27165892Y-23799500D01*
X27124000Y-23799500D01*
X27056961Y-23779815D01*
X27011206Y-23727011D01*
X27000000Y-23675500D01*
X27000000Y-13400000D01*
X22724000Y-13400000D01*
X22656961Y-13380315D01*
X22611206Y-13327511D01*
X22600000Y-13276000D01*
X22600000Y-10534108D01*
X26499500Y-10534108D01*
X26499500Y-10665891D01*
X26533608Y-10793187D01*
X26566160Y-10849568D01*
X26599500Y-10907314D01*
X26692686Y-11000500D01*
X26806814Y-11066392D01*
X26934108Y-11100500D01*
X26934110Y-11100500D01*
X27065890Y-11100500D01*
X27065892Y-11100500D01*
X27193186Y-11066392D01*
X27307314Y-11000500D01*
X27400500Y-10907314D01*
X27466392Y-10793186D01*
X27500500Y-10665892D01*
X27500500Y-10534108D01*
X27466392Y-10406814D01*
X27400500Y-10292686D01*
X27307314Y-10199500D01*
X27250250Y-10166554D01*
X27193187Y-10133608D01*
X27129539Y-10116554D01*
X27065892Y-10099500D01*
X26934108Y-10099500D01*
X26806812Y-10133608D01*
X26692686Y-10199500D01*
X26692683Y-10199502D01*
X26599502Y-10292683D01*
X26599500Y-10292686D01*
X26533608Y-10406812D01*
X26499500Y-10534108D01*
X22600000Y-10534108D01*
X22600000Y-9934108D01*
X24879500Y-9934108D01*
X24879500Y-10065891D01*
X24913608Y-10193187D01*
X24946554Y-10250250D01*
X24979500Y-10307314D01*
X25072686Y-10400500D01*
X25171521Y-10457563D01*
X25186810Y-10466390D01*
X25186814Y-10466392D01*
X25314108Y-10500500D01*
X25314110Y-10500500D01*
X25445890Y-10500500D01*
X25445892Y-10500500D01*
X25573186Y-10466392D01*
X25687314Y-10400500D01*
X25780500Y-10307314D01*
X25846392Y-10193186D01*
X25880500Y-10065892D01*
X25880500Y-9934108D01*
X25846392Y-9806814D01*
X25780500Y-9692686D01*
X25687314Y-9599500D01*
X25630250Y-9566554D01*
X25573187Y-9533608D01*
X25509539Y-9516554D01*
X25445892Y-9499500D01*
X25314108Y-9499500D01*
X25186812Y-9533608D01*
X25072686Y-9599500D01*
X25072683Y-9599502D01*
X24979502Y-9692683D01*
X24979500Y-9692686D01*
X24913608Y-9806812D01*
X24879500Y-9934108D01*
X22600000Y-9934108D01*
X22600000Y-7624000D01*
X22619685Y-7556961D01*
X22672489Y-7511206D01*
X22724000Y-7500000D01*
X25675500Y-7500000D01*
X25742539Y-7519685D01*
G37*
G04 #@! TD.AperFunction*
G04 #@! TA.AperFunction,Conductor*
G36*
X6676100Y-3419685D02*
G01*
X6721855Y-3472489D01*
X6730104Y-3499861D01*
X6730385Y-3499794D01*
X6731522Y-3504531D01*
X6794781Y-3699221D01*
X6887715Y-3881613D01*
X7008028Y-4047213D01*
X7152786Y-4191971D01*
X7307749Y-4304556D01*
X7318390Y-4312287D01*
X7434607Y-4371503D01*
X7500776Y-4405218D01*
X7500778Y-4405218D01*
X7500781Y-4405220D01*
X7605137Y-4439127D01*
X7695465Y-4468477D01*
X7796557Y-4484488D01*
X7897648Y-4500500D01*
X7897649Y-4500500D01*
X8102351Y-4500500D01*
X8102352Y-4500500D01*
X8304534Y-4468477D01*
X8499219Y-4405220D01*
X8681610Y-4312287D01*
X8809034Y-4219709D01*
X8847213Y-4191971D01*
X8847215Y-4191968D01*
X8847219Y-4191966D01*
X8991966Y-4047219D01*
X8991968Y-4047215D01*
X8991971Y-4047213D01*
X9059818Y-3953828D01*
X9112287Y-3881610D01*
X9205220Y-3699219D01*
X9268477Y-3504534D01*
X9268478Y-3504525D01*
X9269615Y-3499794D01*
X9270631Y-3500038D01*
X9298389Y-3441475D01*
X9357697Y-3404539D01*
X9390939Y-3400000D01*
X30876000Y-3400000D01*
X30943039Y-3419685D01*
X30988794Y-3472489D01*
X31000000Y-3524000D01*
X31000000Y-4276000D01*
X30980315Y-4343039D01*
X30927511Y-4388794D01*
X30876000Y-4400000D01*
X11500000Y-4400000D01*
X11500000Y-12176179D01*
X11480315Y-12243218D01*
X11463681Y-12263860D01*
X11419506Y-12308034D01*
X11419504Y-12308037D01*
X11356905Y-12416463D01*
X11356905Y-12416464D01*
X11324500Y-12537399D01*
X11324500Y-12662601D01*
X11336444Y-12707174D01*
X11356905Y-12783536D01*
X11419504Y-12891962D01*
X11419506Y-12891965D01*
X11463681Y-12936140D01*
X11497166Y-12997463D01*
X11500000Y-13023821D01*
X11500000Y-21786696D01*
X11480315Y-21853735D01*
X11427511Y-21899490D01*
X11408097Y-21906469D01*
X11366853Y-21917520D01*
X11306812Y-21933608D01*
X11192686Y-21999500D01*
X11192683Y-21999502D01*
X11099502Y-22092683D01*
X11099500Y-22092686D01*
X11033608Y-22206812D01*
X10999500Y-22334108D01*
X10999500Y-22465891D01*
X11033608Y-22593187D01*
X11066554Y-22650250D01*
X11099500Y-22707314D01*
X11192686Y-22800500D01*
X11306814Y-22866392D01*
X11408095Y-22893529D01*
X11467753Y-22929892D01*
X11498283Y-22992739D01*
X11500000Y-23013303D01*
X11500000Y-26786696D01*
X11480315Y-26853735D01*
X11427511Y-26899490D01*
X11408097Y-26906469D01*
X11366853Y-26917520D01*
X11306812Y-26933608D01*
X11192686Y-26999500D01*
X11192683Y-26999502D01*
X11099502Y-27092683D01*
X11099500Y-27092686D01*
X11033608Y-27206812D01*
X10999500Y-27334108D01*
X10999500Y-27465891D01*
X11033608Y-27593187D01*
X11066554Y-27650250D01*
X11099500Y-27707314D01*
X11192686Y-27800500D01*
X11306814Y-27866392D01*
X11408095Y-27893529D01*
X11467753Y-27929892D01*
X11498283Y-27992739D01*
X11500000Y-28013303D01*
X11500000Y-29376000D01*
X11480315Y-29443039D01*
X11427511Y-29488794D01*
X11376000Y-29500000D01*
X4624000Y-29500000D01*
X4556961Y-29480315D01*
X4511206Y-29427511D01*
X4500000Y-29376000D01*
X4500000Y-25734108D01*
X7874500Y-25734108D01*
X7874500Y-25865891D01*
X7908608Y-25993187D01*
X7941554Y-26050250D01*
X7974500Y-26107314D01*
X8067686Y-26200500D01*
X8181814Y-26266392D01*
X8309108Y-26300500D01*
X8309110Y-26300500D01*
X8440890Y-26300500D01*
X8440892Y-26300500D01*
X8568186Y-26266392D01*
X8682314Y-26200500D01*
X8775500Y-26107314D01*
X8841392Y-25993186D01*
X8875500Y-25865892D01*
X8875500Y-25734108D01*
X8841392Y-25606814D01*
X8775500Y-25492686D01*
X8682314Y-25399500D01*
X8624969Y-25366392D01*
X8568187Y-25333608D01*
X8504539Y-25316554D01*
X8440892Y-25299500D01*
X8309108Y-25299500D01*
X8181812Y-25333608D01*
X8067686Y-25399500D01*
X8067683Y-25399502D01*
X7974502Y-25492683D01*
X7974500Y-25492686D01*
X7908608Y-25606812D01*
X7874500Y-25734108D01*
X4500000Y-25734108D01*
X4500000Y-19934108D01*
X7799500Y-19934108D01*
X7799500Y-20065891D01*
X7833608Y-20193187D01*
X7866554Y-20250250D01*
X7899500Y-20307314D01*
X7899502Y-20307316D01*
X7992687Y-20400501D01*
X7994158Y-20401630D01*
X7995083Y-20402897D01*
X7998433Y-20406247D01*
X7997910Y-20406769D01*
X8035356Y-20458060D01*
X8039506Y-20527807D01*
X8005289Y-20588725D01*
X7994158Y-20598370D01*
X7992687Y-20599498D01*
X7899502Y-20692683D01*
X7899500Y-20692686D01*
X7833608Y-20806812D01*
X7799500Y-20934108D01*
X7799500Y-21065891D01*
X7833608Y-21193187D01*
X7866554Y-21250250D01*
X7899500Y-21307314D01*
X7992686Y-21400500D01*
X8106814Y-21466392D01*
X8234108Y-21500500D01*
X8234110Y-21500500D01*
X8365890Y-21500500D01*
X8365892Y-21500500D01*
X8493186Y-21466392D01*
X8607314Y-21400500D01*
X8700500Y-21307314D01*
X8766392Y-21193186D01*
X8800500Y-21065892D01*
X8800500Y-20934108D01*
X8766392Y-20806814D01*
X8700500Y-20692686D01*
X8607314Y-20599500D01*
X8607311Y-20599498D01*
X8605847Y-20598375D01*
X8604921Y-20597107D01*
X8601567Y-20593753D01*
X8602090Y-20593229D01*
X8564645Y-20541947D01*
X8560491Y-20472201D01*
X8594704Y-20411281D01*
X8605847Y-20401625D01*
X8607306Y-20400504D01*
X8607314Y-20400500D01*
X8700500Y-20307314D01*
X8766392Y-20193186D01*
X8800500Y-20065892D01*
X8800500Y-19934108D01*
X8766392Y-19806814D01*
X8700500Y-19692686D01*
X8607314Y-19599500D01*
X8550250Y-19566554D01*
X8493187Y-19533608D01*
X8429539Y-19516554D01*
X8365892Y-19499500D01*
X8234108Y-19499500D01*
X8106812Y-19533608D01*
X7992686Y-19599500D01*
X7992683Y-19599502D01*
X7899502Y-19692683D01*
X7899500Y-19692686D01*
X7833608Y-19806812D01*
X7799500Y-19934108D01*
X4500000Y-19934108D01*
X4500000Y-18534108D01*
X7799500Y-18534108D01*
X7799500Y-18665891D01*
X7833608Y-18793187D01*
X7866554Y-18850250D01*
X7899500Y-18907314D01*
X7992686Y-19000500D01*
X8106814Y-19066392D01*
X8234108Y-19100500D01*
X8234110Y-19100500D01*
X8365890Y-19100500D01*
X8365892Y-19100500D01*
X8493186Y-19066392D01*
X8607314Y-19000500D01*
X8700500Y-18907314D01*
X8766392Y-18793186D01*
X8800500Y-18665892D01*
X8800500Y-18534108D01*
X8766392Y-18406814D01*
X8700500Y-18292686D01*
X8607314Y-18199500D01*
X8550250Y-18166554D01*
X8493187Y-18133608D01*
X8429539Y-18116554D01*
X8365892Y-18099500D01*
X8234108Y-18099500D01*
X8106812Y-18133608D01*
X7992686Y-18199500D01*
X7992683Y-18199502D01*
X7899502Y-18292683D01*
X7899500Y-18292686D01*
X7833608Y-18406812D01*
X7799500Y-18534108D01*
X4500000Y-18534108D01*
X4500000Y-17624500D01*
X4519685Y-17557461D01*
X4572489Y-17511706D01*
X4624000Y-17500500D01*
X4665890Y-17500500D01*
X4665892Y-17500500D01*
X4793186Y-17466392D01*
X4907314Y-17400500D01*
X5000500Y-17307314D01*
X5066392Y-17193186D01*
X5100500Y-17065892D01*
X5100500Y-16934108D01*
X5066392Y-16806814D01*
X5000500Y-16692686D01*
X4907314Y-16599500D01*
X4850250Y-16566554D01*
X4793187Y-16533608D01*
X4729539Y-16516554D01*
X4665892Y-16499500D01*
X4624000Y-16499500D01*
X4556961Y-16479815D01*
X4511206Y-16427011D01*
X4500000Y-16375500D01*
X4500000Y-15367399D01*
X9624500Y-15367399D01*
X9624500Y-15492601D01*
X9656905Y-15613536D01*
X9719505Y-15721964D01*
X9808036Y-15810495D01*
X9916464Y-15873095D01*
X10037399Y-15905500D01*
X10037401Y-15905500D01*
X10162599Y-15905500D01*
X10162601Y-15905500D01*
X10283536Y-15873095D01*
X10391964Y-15810495D01*
X10480495Y-15721964D01*
X10543095Y-15613536D01*
X10575500Y-15492601D01*
X10575500Y-15367399D01*
X10543095Y-15246464D01*
X10480495Y-15138036D01*
X10391964Y-15049505D01*
X10283536Y-14986905D01*
X10283537Y-14986905D01*
X10240973Y-14975500D01*
X10162601Y-14954500D01*
X10037399Y-14954500D01*
X9959027Y-14975500D01*
X9916463Y-14986905D01*
X9808037Y-15049504D01*
X9808034Y-15049506D01*
X9719506Y-15138034D01*
X9719504Y-15138037D01*
X9656905Y-15246463D01*
X9656905Y-15246464D01*
X9624500Y-15367399D01*
X4500000Y-15367399D01*
X4500000Y-14624500D01*
X4519685Y-14557461D01*
X4572489Y-14511706D01*
X4624000Y-14500500D01*
X4665890Y-14500500D01*
X4665892Y-14500500D01*
X4793186Y-14466392D01*
X4843403Y-14437399D01*
X8524500Y-14437399D01*
X8524500Y-14562601D01*
X8556905Y-14683536D01*
X8619505Y-14791964D01*
X8708036Y-14880495D01*
X8816464Y-14943095D01*
X8937399Y-14975500D01*
X8937401Y-14975500D01*
X9062599Y-14975500D01*
X9062601Y-14975500D01*
X9183536Y-14943095D01*
X9291964Y-14880495D01*
X9380495Y-14791964D01*
X9443095Y-14683536D01*
X9475500Y-14562601D01*
X9475500Y-14437399D01*
X9443095Y-14316464D01*
X9380495Y-14208036D01*
X9291964Y-14119505D01*
X9183536Y-14056905D01*
X9183537Y-14056905D01*
X9143224Y-14046103D01*
X9062601Y-14024500D01*
X8937399Y-14024500D01*
X8856775Y-14046103D01*
X8816463Y-14056905D01*
X8708037Y-14119504D01*
X8708034Y-14119506D01*
X8619506Y-14208034D01*
X8619504Y-14208037D01*
X8556905Y-14316463D01*
X8556905Y-14316464D01*
X8524500Y-14437399D01*
X4843403Y-14437399D01*
X4907314Y-14400500D01*
X5000500Y-14307314D01*
X5066392Y-14193186D01*
X5100500Y-14065892D01*
X5100500Y-13934108D01*
X5066392Y-13806814D01*
X5000500Y-13692686D01*
X4907314Y-13599500D01*
X4798897Y-13536905D01*
X4793187Y-13533608D01*
X4684552Y-13504500D01*
X4665892Y-13499500D01*
X4624000Y-13499500D01*
X4556961Y-13479815D01*
X4511206Y-13427011D01*
X4500000Y-13375500D01*
X4500000Y-11624500D01*
X4519685Y-11557461D01*
X4572489Y-11511706D01*
X4624000Y-11500500D01*
X4665890Y-11500500D01*
X4665892Y-11500500D01*
X4793186Y-11466392D01*
X4907314Y-11400500D01*
X5000500Y-11307314D01*
X5066392Y-11193186D01*
X5100500Y-11065892D01*
X5100500Y-10934108D01*
X5066392Y-10806814D01*
X5000500Y-10692686D01*
X4907314Y-10599500D01*
X4849103Y-10565892D01*
X4793187Y-10533608D01*
X4729539Y-10516554D01*
X4665892Y-10499500D01*
X4624000Y-10499500D01*
X4556961Y-10479815D01*
X4511206Y-10427011D01*
X4500000Y-10375500D01*
X4500000Y-8624500D01*
X4519685Y-8557461D01*
X4572489Y-8511706D01*
X4624000Y-8500500D01*
X4665890Y-8500500D01*
X4665892Y-8500500D01*
X4793186Y-8466392D01*
X4907314Y-8400500D01*
X5000500Y-8307314D01*
X5066392Y-8193186D01*
X5100500Y-8065892D01*
X5100500Y-7934108D01*
X5066392Y-7806814D01*
X5000500Y-7692686D01*
X4907314Y-7599500D01*
X4850250Y-7566554D01*
X4793187Y-7533608D01*
X4729539Y-7516554D01*
X4665892Y-7499500D01*
X4624000Y-7499500D01*
X4556961Y-7479815D01*
X4511206Y-7427011D01*
X4500000Y-7375500D01*
X4500000Y-3524000D01*
X4519685Y-3456961D01*
X4572489Y-3411206D01*
X4624000Y-3400000D01*
X6609061Y-3400000D01*
X6676100Y-3419685D01*
G37*
G04 #@! TD.AperFunction*
G04 #@! TA.AperFunction,Conductor*
G36*
X18807862Y-7219685D02*
G01*
X18828504Y-7236318D01*
X18892686Y-7300500D01*
X19006814Y-7366392D01*
X19134108Y-7400500D01*
X19134110Y-7400500D01*
X19265890Y-7400500D01*
X19265892Y-7400500D01*
X19393186Y-7366392D01*
X19507314Y-7300500D01*
X19571496Y-7236318D01*
X19632820Y-7202834D01*
X19659177Y-7200000D01*
X22176000Y-7200000D01*
X22243039Y-7219685D01*
X22288794Y-7272489D01*
X22300000Y-7324000D01*
X22300000Y-13076000D01*
X22280315Y-13143039D01*
X22227511Y-13188794D01*
X22176000Y-13200000D01*
X19900000Y-13200000D01*
X19900000Y-16713490D01*
X19880315Y-16780529D01*
X19827511Y-16826284D01*
X19808101Y-16833263D01*
X19806814Y-16833607D01*
X19692686Y-16899500D01*
X19692683Y-16899502D01*
X19599502Y-16992683D01*
X19599500Y-16992686D01*
X19533608Y-17106812D01*
X19519775Y-17158441D01*
X19483410Y-17218102D01*
X19420563Y-17248631D01*
X19351188Y-17240336D01*
X19297310Y-17195851D01*
X19280225Y-17158441D01*
X19266391Y-17106812D01*
X19257563Y-17091521D01*
X19200500Y-16992686D01*
X19107314Y-16899500D01*
X19050250Y-16866554D01*
X18993187Y-16833608D01*
X18929539Y-16816554D01*
X18865892Y-16799500D01*
X18734108Y-16799500D01*
X18606812Y-16833608D01*
X18492686Y-16899500D01*
X18492683Y-16899502D01*
X18399502Y-16992683D01*
X18399500Y-16992686D01*
X18333608Y-17106812D01*
X18309751Y-17195851D01*
X18299500Y-17234108D01*
X18299500Y-17365892D01*
X18309750Y-17404147D01*
X18333608Y-17493187D01*
X18366554Y-17550250D01*
X18399500Y-17607314D01*
X18492686Y-17700500D01*
X18606814Y-17766392D01*
X18734108Y-17800500D01*
X18734110Y-17800500D01*
X18865890Y-17800500D01*
X18865892Y-17800500D01*
X18993186Y-17766392D01*
X19107314Y-17700500D01*
X19200500Y-17607314D01*
X19266392Y-17493186D01*
X19280225Y-17441556D01*
X19316590Y-17381897D01*
X19379436Y-17351368D01*
X19448812Y-17359662D01*
X19502690Y-17404147D01*
X19519773Y-17441555D01*
X19529072Y-17476259D01*
X19533608Y-17493187D01*
X19566554Y-17550250D01*
X19599500Y-17607314D01*
X19692686Y-17700500D01*
X19806814Y-17766392D01*
X19808080Y-17766731D01*
X19809031Y-17767310D01*
X19814326Y-17769504D01*
X19813984Y-17770328D01*
X19867745Y-17803089D01*
X19898281Y-17865932D01*
X19900000Y-17886509D01*
X19900000Y-23876000D01*
X19880315Y-23943039D01*
X19827511Y-23988794D01*
X19776000Y-24000000D01*
X16579027Y-24000000D01*
X16511988Y-23980315D01*
X16466233Y-23927511D01*
X16456289Y-23858353D01*
X16471640Y-23814000D01*
X16518054Y-23733608D01*
X16541392Y-23693186D01*
X16575500Y-23565892D01*
X16575500Y-23434108D01*
X16541392Y-23306814D01*
X16475500Y-23192686D01*
X16382314Y-23099500D01*
X16325250Y-23066554D01*
X16268187Y-23033608D01*
X16204539Y-23016554D01*
X16140892Y-22999500D01*
X16009108Y-22999500D01*
X15881812Y-23033608D01*
X15767686Y-23099500D01*
X15767683Y-23099502D01*
X15674502Y-23192683D01*
X15674500Y-23192686D01*
X15608608Y-23306812D01*
X15574500Y-23434108D01*
X15574500Y-23565891D01*
X15608609Y-23693188D01*
X15608609Y-23693189D01*
X15678360Y-23814000D01*
X15694833Y-23881900D01*
X15671981Y-23947927D01*
X15617060Y-23991117D01*
X15570973Y-24000000D01*
X12324000Y-24000000D01*
X12256961Y-23980315D01*
X12211206Y-23927511D01*
X12200000Y-23876000D01*
X12200000Y-19834108D01*
X15574500Y-19834108D01*
X15574500Y-19965891D01*
X15608608Y-20093187D01*
X15641554Y-20150250D01*
X15674500Y-20207314D01*
X15767686Y-20300500D01*
X15881814Y-20366392D01*
X16009108Y-20400500D01*
X16009110Y-20400500D01*
X16140890Y-20400500D01*
X16140892Y-20400500D01*
X16268186Y-20366392D01*
X16382314Y-20300500D01*
X16475500Y-20207314D01*
X16541392Y-20093186D01*
X16575500Y-19965892D01*
X16575500Y-19834108D01*
X16541392Y-19706814D01*
X16475500Y-19592686D01*
X16382314Y-19499500D01*
X16325250Y-19466554D01*
X16268187Y-19433608D01*
X16204539Y-19416554D01*
X16140892Y-19399500D01*
X16009108Y-19399500D01*
X15881812Y-19433608D01*
X15767686Y-19499500D01*
X15767683Y-19499502D01*
X15674502Y-19592683D01*
X15674500Y-19592686D01*
X15608608Y-19706812D01*
X15574500Y-19834108D01*
X12200000Y-19834108D01*
X12200000Y-13917399D01*
X12724500Y-13917399D01*
X12724500Y-14042601D01*
X12756905Y-14163536D01*
X12819505Y-14271964D01*
X12908036Y-14360495D01*
X13016464Y-14423095D01*
X13137399Y-14455500D01*
X13137401Y-14455500D01*
X13262599Y-14455500D01*
X13262601Y-14455500D01*
X13383536Y-14423095D01*
X13491964Y-14360495D01*
X13580495Y-14271964D01*
X13643095Y-14163536D01*
X13675500Y-14042601D01*
X13675500Y-13917399D01*
X13643095Y-13796464D01*
X13580495Y-13688036D01*
X13491964Y-13599505D01*
X13383536Y-13536905D01*
X13383537Y-13536905D01*
X13343224Y-13526103D01*
X13262601Y-13504500D01*
X13137399Y-13504500D01*
X13056775Y-13526103D01*
X13016463Y-13536905D01*
X12908037Y-13599504D01*
X12908034Y-13599506D01*
X12819506Y-13688034D01*
X12819504Y-13688037D01*
X12756905Y-13796463D01*
X12756905Y-13796464D01*
X12724500Y-13917399D01*
X12200000Y-13917399D01*
X12200000Y-12891404D01*
X12216613Y-12829404D01*
X12243095Y-12783536D01*
X12275500Y-12662601D01*
X12275500Y-12537399D01*
X12243095Y-12416464D01*
X12239863Y-12410867D01*
X12216612Y-12370592D01*
X12200000Y-12308594D01*
X12200000Y-11084108D01*
X12999500Y-11084108D01*
X12999500Y-11215891D01*
X13033608Y-11343187D01*
X13066554Y-11400250D01*
X13099500Y-11457314D01*
X13192686Y-11550500D01*
X13306814Y-11616392D01*
X13434108Y-11650500D01*
X13434110Y-11650500D01*
X13565890Y-11650500D01*
X13565892Y-11650500D01*
X13693186Y-11616392D01*
X13807314Y-11550500D01*
X13900500Y-11457314D01*
X13966392Y-11343186D01*
X14000500Y-11215892D01*
X14000500Y-11084108D01*
X13966392Y-10956814D01*
X13900500Y-10842686D01*
X13807314Y-10749500D01*
X13750250Y-10716554D01*
X13693187Y-10683608D01*
X13629539Y-10666554D01*
X13565892Y-10649500D01*
X13434108Y-10649500D01*
X13306812Y-10683608D01*
X13192686Y-10749500D01*
X13192683Y-10749502D01*
X13099502Y-10842683D01*
X13099500Y-10842686D01*
X13033608Y-10956812D01*
X12999500Y-11084108D01*
X12200000Y-11084108D01*
X12200000Y-9434108D01*
X18499500Y-9434108D01*
X18499500Y-9565891D01*
X18533608Y-9693187D01*
X18566554Y-9750250D01*
X18599500Y-9807314D01*
X18599502Y-9807316D01*
X18692687Y-9900501D01*
X18694158Y-9901630D01*
X18695083Y-9902897D01*
X18698433Y-9906247D01*
X18697910Y-9906769D01*
X18735356Y-9958060D01*
X18739506Y-10027807D01*
X18705289Y-10088725D01*
X18694158Y-10098370D01*
X18692687Y-10099498D01*
X18599502Y-10192683D01*
X18599500Y-10192686D01*
X18533608Y-10306812D01*
X18499500Y-10434108D01*
X18499500Y-10565891D01*
X18533608Y-10693187D01*
X18566121Y-10749500D01*
X18599500Y-10807314D01*
X18599502Y-10807316D01*
X18692687Y-10900501D01*
X18694158Y-10901630D01*
X18695083Y-10902897D01*
X18698433Y-10906247D01*
X18697910Y-10906769D01*
X18735356Y-10958060D01*
X18739506Y-11027807D01*
X18705289Y-11088725D01*
X18694158Y-11098370D01*
X18692687Y-11099498D01*
X18599502Y-11192683D01*
X18599500Y-11192686D01*
X18533608Y-11306812D01*
X18499500Y-11434108D01*
X18499500Y-11565891D01*
X18533608Y-11693187D01*
X18566554Y-11750250D01*
X18599500Y-11807314D01*
X18692686Y-11900500D01*
X18806814Y-11966392D01*
X18934108Y-12000500D01*
X18934110Y-12000500D01*
X19065890Y-12000500D01*
X19065892Y-12000500D01*
X19193186Y-11966392D01*
X19307314Y-11900500D01*
X19400500Y-11807314D01*
X19400504Y-11807306D01*
X19401625Y-11805847D01*
X19402892Y-11804921D01*
X19406247Y-11801567D01*
X19406770Y-11802090D01*
X19458053Y-11764645D01*
X19527799Y-11760491D01*
X19588719Y-11794704D01*
X19598375Y-11805847D01*
X19599498Y-11807311D01*
X19599500Y-11807314D01*
X19692686Y-11900500D01*
X19806814Y-11966392D01*
X19934108Y-12000500D01*
X19934110Y-12000500D01*
X20065890Y-12000500D01*
X20065892Y-12000500D01*
X20193186Y-11966392D01*
X20307314Y-11900500D01*
X20400500Y-11807314D01*
X20400504Y-11807306D01*
X20401625Y-11805847D01*
X20402892Y-11804921D01*
X20406247Y-11801567D01*
X20406770Y-11802090D01*
X20458053Y-11764645D01*
X20527799Y-11760491D01*
X20588719Y-11794704D01*
X20598375Y-11805847D01*
X20599498Y-11807311D01*
X20599500Y-11807314D01*
X20692686Y-11900500D01*
X20806814Y-11966392D01*
X20934108Y-12000500D01*
X20934110Y-12000500D01*
X21065890Y-12000500D01*
X21065892Y-12000500D01*
X21193186Y-11966392D01*
X21307314Y-11900500D01*
X21400500Y-11807314D01*
X21466392Y-11693186D01*
X21500500Y-11565892D01*
X21500500Y-11434108D01*
X21466392Y-11306814D01*
X21400500Y-11192686D01*
X21307314Y-11099500D01*
X21307311Y-11099498D01*
X21305847Y-11098375D01*
X21304921Y-11097107D01*
X21301567Y-11093753D01*
X21302090Y-11093229D01*
X21264645Y-11041947D01*
X21260491Y-10972201D01*
X21294704Y-10911281D01*
X21305847Y-10901625D01*
X21307306Y-10900504D01*
X21307314Y-10900500D01*
X21400500Y-10807314D01*
X21466392Y-10693186D01*
X21500500Y-10565892D01*
X21500500Y-10434108D01*
X21466392Y-10306814D01*
X21400500Y-10192686D01*
X21307314Y-10099500D01*
X21307311Y-10099498D01*
X21305847Y-10098375D01*
X21304921Y-10097107D01*
X21301567Y-10093753D01*
X21302090Y-10093229D01*
X21264645Y-10041947D01*
X21260491Y-9972201D01*
X21294704Y-9911281D01*
X21305847Y-9901625D01*
X21307306Y-9900504D01*
X21307314Y-9900500D01*
X21400500Y-9807314D01*
X21466392Y-9693186D01*
X21500500Y-9565892D01*
X21500500Y-9434108D01*
X21466392Y-9306814D01*
X21400500Y-9192686D01*
X21307314Y-9099500D01*
X21222442Y-9050499D01*
X21193187Y-9033608D01*
X21128931Y-9016391D01*
X21065892Y-8999500D01*
X20934108Y-8999500D01*
X20806812Y-9033608D01*
X20692686Y-9099500D01*
X20692683Y-9099502D01*
X20599498Y-9192687D01*
X20598370Y-9194158D01*
X20597102Y-9195083D01*
X20593753Y-9198433D01*
X20593230Y-9197910D01*
X20541940Y-9235356D01*
X20472193Y-9239506D01*
X20411275Y-9205289D01*
X20401630Y-9194158D01*
X20400501Y-9192687D01*
X20307316Y-9099502D01*
X20307314Y-9099500D01*
X20222442Y-9050499D01*
X20193187Y-9033608D01*
X20128931Y-9016391D01*
X20065892Y-8999500D01*
X19934108Y-8999500D01*
X19806812Y-9033608D01*
X19692686Y-9099500D01*
X19692683Y-9099502D01*
X19599498Y-9192687D01*
X19598370Y-9194158D01*
X19597102Y-9195083D01*
X19593753Y-9198433D01*
X19593230Y-9197910D01*
X19541940Y-9235356D01*
X19472193Y-9239506D01*
X19411275Y-9205289D01*
X19401630Y-9194158D01*
X19400501Y-9192687D01*
X19307316Y-9099502D01*
X19307314Y-9099500D01*
X19222442Y-9050499D01*
X19193187Y-9033608D01*
X19128931Y-9016391D01*
X19065892Y-8999500D01*
X18934108Y-8999500D01*
X18806812Y-9033608D01*
X18692686Y-9099500D01*
X18692683Y-9099502D01*
X18599502Y-9192683D01*
X18599500Y-9192686D01*
X18533608Y-9306812D01*
X18499500Y-9434108D01*
X12200000Y-9434108D01*
X12200000Y-8484108D01*
X12999500Y-8484108D01*
X12999500Y-8615891D01*
X13033608Y-8743187D01*
X13066554Y-8800250D01*
X13099500Y-8857314D01*
X13192686Y-8950500D01*
X13306814Y-9016392D01*
X13434108Y-9050500D01*
X13434110Y-9050500D01*
X13565890Y-9050500D01*
X13565892Y-9050500D01*
X13693186Y-9016392D01*
X13807314Y-8950500D01*
X13900500Y-8857314D01*
X13966392Y-8743186D01*
X14000500Y-8615892D01*
X14000500Y-8484108D01*
X13966392Y-8356814D01*
X13900500Y-8242686D01*
X13807314Y-8149500D01*
X13750250Y-8116554D01*
X13693187Y-8083608D01*
X13629539Y-8066554D01*
X13565892Y-8049500D01*
X13434108Y-8049500D01*
X13306812Y-8083608D01*
X13192686Y-8149500D01*
X13192683Y-8149502D01*
X13099502Y-8242683D01*
X13099500Y-8242686D01*
X13033608Y-8356812D01*
X12999500Y-8484108D01*
X12200000Y-8484108D01*
X12200000Y-7324000D01*
X12219685Y-7256961D01*
X12272489Y-7211206D01*
X12324000Y-7200000D01*
X18740823Y-7200000D01*
X18807862Y-7219685D01*
G37*
G04 #@! TD.AperFunction*
M02*
