G04 #@! TF.GenerationSoftware,KiCad,Pcbnew,9.0.9-9.0.9~ubuntu24.04.1*
G04 #@! TF.CreationDate,2026-09-20T10:20:26+00:00*
G04 #@! TF.ProjectId,adv7280m-csi2,61647637-3238-4306-9d2d-637369322e6b,rev?*
G04 #@! TF.SameCoordinates,Original*
G04 #@! TF.FileFunction,Legend,Bot*
G04 #@! TF.FilePolarity,Positive*
%FSLAX46Y46*%
G04 Gerber Fmt 4.6, Leading zero omitted, Abs format (unit mm)*
G04 Created by KiCad (PCBNEW 9.0.9-9.0.9~ubuntu24.04.1) date 2026-09-20 10:20:26*
%MOMM*%
%LPD*%
G01*
G04 APERTURE LIST*
%ADD10C,0.150000*%
%ADD11C,2.200000*%
%ADD12O,2.300000X3.500000*%
%ADD13O,3.500000X2.000000*%
G04 APERTURE END LIST*
D10*
X37642858Y-16169104D02*
X37166668Y-16169104D01*
X37738096Y-16454819D02*
X37404763Y-15454819D01*
X37404763Y-15454819D02*
X37071430Y-16454819D01*
X36738096Y-16454819D02*
X36738096Y-15454819D01*
X36738096Y-15454819D02*
X36500001Y-15454819D01*
X36500001Y-15454819D02*
X36357144Y-15502438D01*
X36357144Y-15502438D02*
X36261906Y-15597676D01*
X36261906Y-15597676D02*
X36214287Y-15692914D01*
X36214287Y-15692914D02*
X36166668Y-15883390D01*
X36166668Y-15883390D02*
X36166668Y-16026247D01*
X36166668Y-16026247D02*
X36214287Y-16216723D01*
X36214287Y-16216723D02*
X36261906Y-16311961D01*
X36261906Y-16311961D02*
X36357144Y-16407200D01*
X36357144Y-16407200D02*
X36500001Y-16454819D01*
X36500001Y-16454819D02*
X36738096Y-16454819D01*
X35880953Y-15454819D02*
X35547620Y-16454819D01*
X35547620Y-16454819D02*
X35214287Y-15454819D01*
X34976191Y-15454819D02*
X34309525Y-15454819D01*
X34309525Y-15454819D02*
X34738096Y-16454819D01*
X33976191Y-15550057D02*
X33928572Y-15502438D01*
X33928572Y-15502438D02*
X33833334Y-15454819D01*
X33833334Y-15454819D02*
X33595239Y-15454819D01*
X33595239Y-15454819D02*
X33500001Y-15502438D01*
X33500001Y-15502438D02*
X33452382Y-15550057D01*
X33452382Y-15550057D02*
X33404763Y-15645295D01*
X33404763Y-15645295D02*
X33404763Y-15740533D01*
X33404763Y-15740533D02*
X33452382Y-15883390D01*
X33452382Y-15883390D02*
X34023810Y-16454819D01*
X34023810Y-16454819D02*
X33404763Y-16454819D01*
X32833334Y-15883390D02*
X32928572Y-15835771D01*
X32928572Y-15835771D02*
X32976191Y-15788152D01*
X32976191Y-15788152D02*
X33023810Y-15692914D01*
X33023810Y-15692914D02*
X33023810Y-15645295D01*
X33023810Y-15645295D02*
X32976191Y-15550057D01*
X32976191Y-15550057D02*
X32928572Y-15502438D01*
X32928572Y-15502438D02*
X32833334Y-15454819D01*
X32833334Y-15454819D02*
X32642858Y-15454819D01*
X32642858Y-15454819D02*
X32547620Y-15502438D01*
X32547620Y-15502438D02*
X32500001Y-15550057D01*
X32500001Y-15550057D02*
X32452382Y-15645295D01*
X32452382Y-15645295D02*
X32452382Y-15692914D01*
X32452382Y-15692914D02*
X32500001Y-15788152D01*
X32500001Y-15788152D02*
X32547620Y-15835771D01*
X32547620Y-15835771D02*
X32642858Y-15883390D01*
X32642858Y-15883390D02*
X32833334Y-15883390D01*
X32833334Y-15883390D02*
X32928572Y-15931009D01*
X32928572Y-15931009D02*
X32976191Y-15978628D01*
X32976191Y-15978628D02*
X33023810Y-16073866D01*
X33023810Y-16073866D02*
X33023810Y-16264342D01*
X33023810Y-16264342D02*
X32976191Y-16359580D01*
X32976191Y-16359580D02*
X32928572Y-16407200D01*
X32928572Y-16407200D02*
X32833334Y-16454819D01*
X32833334Y-16454819D02*
X32642858Y-16454819D01*
X32642858Y-16454819D02*
X32547620Y-16407200D01*
X32547620Y-16407200D02*
X32500001Y-16359580D01*
X32500001Y-16359580D02*
X32452382Y-16264342D01*
X32452382Y-16264342D02*
X32452382Y-16073866D01*
X32452382Y-16073866D02*
X32500001Y-15978628D01*
X32500001Y-15978628D02*
X32547620Y-15931009D01*
X32547620Y-15931009D02*
X32642858Y-15883390D01*
X31833334Y-15454819D02*
X31738096Y-15454819D01*
X31738096Y-15454819D02*
X31642858Y-15502438D01*
X31642858Y-15502438D02*
X31595239Y-15550057D01*
X31595239Y-15550057D02*
X31547620Y-15645295D01*
X31547620Y-15645295D02*
X31500001Y-15835771D01*
X31500001Y-15835771D02*
X31500001Y-16073866D01*
X31500001Y-16073866D02*
X31547620Y-16264342D01*
X31547620Y-16264342D02*
X31595239Y-16359580D01*
X31595239Y-16359580D02*
X31642858Y-16407200D01*
X31642858Y-16407200D02*
X31738096Y-16454819D01*
X31738096Y-16454819D02*
X31833334Y-16454819D01*
X31833334Y-16454819D02*
X31928572Y-16407200D01*
X31928572Y-16407200D02*
X31976191Y-16359580D01*
X31976191Y-16359580D02*
X32023810Y-16264342D01*
X32023810Y-16264342D02*
X32071429Y-16073866D01*
X32071429Y-16073866D02*
X32071429Y-15835771D01*
X32071429Y-15835771D02*
X32023810Y-15645295D01*
X32023810Y-15645295D02*
X31976191Y-15550057D01*
X31976191Y-15550057D02*
X31928572Y-15502438D01*
X31928572Y-15502438D02*
X31833334Y-15454819D01*
X31071429Y-16454819D02*
X31071429Y-15454819D01*
X31071429Y-15454819D02*
X30738096Y-16169104D01*
X30738096Y-16169104D02*
X30404763Y-15454819D01*
X30404763Y-15454819D02*
X30404763Y-16454819D01*
X29928572Y-16073866D02*
X29166668Y-16073866D01*
X28119049Y-16359580D02*
X28166668Y-16407200D01*
X28166668Y-16407200D02*
X28309525Y-16454819D01*
X28309525Y-16454819D02*
X28404763Y-16454819D01*
X28404763Y-16454819D02*
X28547620Y-16407200D01*
X28547620Y-16407200D02*
X28642858Y-16311961D01*
X28642858Y-16311961D02*
X28690477Y-16216723D01*
X28690477Y-16216723D02*
X28738096Y-16026247D01*
X28738096Y-16026247D02*
X28738096Y-15883390D01*
X28738096Y-15883390D02*
X28690477Y-15692914D01*
X28690477Y-15692914D02*
X28642858Y-15597676D01*
X28642858Y-15597676D02*
X28547620Y-15502438D01*
X28547620Y-15502438D02*
X28404763Y-15454819D01*
X28404763Y-15454819D02*
X28309525Y-15454819D01*
X28309525Y-15454819D02*
X28166668Y-15502438D01*
X28166668Y-15502438D02*
X28119049Y-15550057D01*
X27738096Y-16407200D02*
X27595239Y-16454819D01*
X27595239Y-16454819D02*
X27357144Y-16454819D01*
X27357144Y-16454819D02*
X27261906Y-16407200D01*
X27261906Y-16407200D02*
X27214287Y-16359580D01*
X27214287Y-16359580D02*
X27166668Y-16264342D01*
X27166668Y-16264342D02*
X27166668Y-16169104D01*
X27166668Y-16169104D02*
X27214287Y-16073866D01*
X27214287Y-16073866D02*
X27261906Y-16026247D01*
X27261906Y-16026247D02*
X27357144Y-15978628D01*
X27357144Y-15978628D02*
X27547620Y-15931009D01*
X27547620Y-15931009D02*
X27642858Y-15883390D01*
X27642858Y-15883390D02*
X27690477Y-15835771D01*
X27690477Y-15835771D02*
X27738096Y-15740533D01*
X27738096Y-15740533D02*
X27738096Y-15645295D01*
X27738096Y-15645295D02*
X27690477Y-15550057D01*
X27690477Y-15550057D02*
X27642858Y-15502438D01*
X27642858Y-15502438D02*
X27547620Y-15454819D01*
X27547620Y-15454819D02*
X27309525Y-15454819D01*
X27309525Y-15454819D02*
X27166668Y-15502438D01*
X26738096Y-16454819D02*
X26738096Y-15454819D01*
X26309525Y-15550057D02*
X26261906Y-15502438D01*
X26261906Y-15502438D02*
X26166668Y-15454819D01*
X26166668Y-15454819D02*
X25928573Y-15454819D01*
X25928573Y-15454819D02*
X25833335Y-15502438D01*
X25833335Y-15502438D02*
X25785716Y-15550057D01*
X25785716Y-15550057D02*
X25738097Y-15645295D01*
X25738097Y-15645295D02*
X25738097Y-15740533D01*
X25738097Y-15740533D02*
X25785716Y-15883390D01*
X25785716Y-15883390D02*
X26357144Y-16454819D01*
X26357144Y-16454819D02*
X25738097Y-16454819D01*
X24547620Y-16454819D02*
X24547620Y-15788152D01*
X24547620Y-15978628D02*
X24500001Y-15883390D01*
X24500001Y-15883390D02*
X24452382Y-15835771D01*
X24452382Y-15835771D02*
X24357144Y-15788152D01*
X24357144Y-15788152D02*
X24261906Y-15788152D01*
X23547620Y-16407200D02*
X23642858Y-16454819D01*
X23642858Y-16454819D02*
X23833334Y-16454819D01*
X23833334Y-16454819D02*
X23928572Y-16407200D01*
X23928572Y-16407200D02*
X23976191Y-16311961D01*
X23976191Y-16311961D02*
X23976191Y-15931009D01*
X23976191Y-15931009D02*
X23928572Y-15835771D01*
X23928572Y-15835771D02*
X23833334Y-15788152D01*
X23833334Y-15788152D02*
X23642858Y-15788152D01*
X23642858Y-15788152D02*
X23547620Y-15835771D01*
X23547620Y-15835771D02*
X23500001Y-15931009D01*
X23500001Y-15931009D02*
X23500001Y-16026247D01*
X23500001Y-16026247D02*
X23976191Y-16121485D01*
X23166667Y-15788152D02*
X22928572Y-16454819D01*
X22928572Y-16454819D02*
X22690477Y-15788152D01*
X21595238Y-16169104D02*
X21119048Y-16169104D01*
X21690476Y-16454819D02*
X21357143Y-15454819D01*
X21357143Y-15454819D02*
X21023810Y-16454819D01*
X18738095Y-15788152D02*
X18738095Y-16597676D01*
X18738095Y-16597676D02*
X18785714Y-16692914D01*
X18785714Y-16692914D02*
X18833333Y-16740533D01*
X18833333Y-16740533D02*
X18928571Y-16788152D01*
X18928571Y-16788152D02*
X19071428Y-16788152D01*
X19071428Y-16788152D02*
X19166666Y-16740533D01*
X18738095Y-16407200D02*
X18833333Y-16454819D01*
X18833333Y-16454819D02*
X19023809Y-16454819D01*
X19023809Y-16454819D02*
X19119047Y-16407200D01*
X19119047Y-16407200D02*
X19166666Y-16359580D01*
X19166666Y-16359580D02*
X19214285Y-16264342D01*
X19214285Y-16264342D02*
X19214285Y-15978628D01*
X19214285Y-15978628D02*
X19166666Y-15883390D01*
X19166666Y-15883390D02*
X19119047Y-15835771D01*
X19119047Y-15835771D02*
X19023809Y-15788152D01*
X19023809Y-15788152D02*
X18833333Y-15788152D01*
X18833333Y-15788152D02*
X18738095Y-15835771D01*
X18261904Y-16454819D02*
X18261904Y-15788152D01*
X18261904Y-15454819D02*
X18309523Y-15502438D01*
X18309523Y-15502438D02*
X18261904Y-15550057D01*
X18261904Y-15550057D02*
X18214285Y-15502438D01*
X18214285Y-15502438D02*
X18261904Y-15454819D01*
X18261904Y-15454819D02*
X18261904Y-15550057D01*
X17928571Y-15788152D02*
X17547619Y-15788152D01*
X17785714Y-15454819D02*
X17785714Y-16311961D01*
X17785714Y-16311961D02*
X17738095Y-16407200D01*
X17738095Y-16407200D02*
X17642857Y-16454819D01*
X17642857Y-16454819D02*
X17547619Y-16454819D01*
X17214285Y-16454819D02*
X17214285Y-15454819D01*
X16785714Y-16454819D02*
X16785714Y-15931009D01*
X16785714Y-15931009D02*
X16833333Y-15835771D01*
X16833333Y-15835771D02*
X16928571Y-15788152D01*
X16928571Y-15788152D02*
X17071428Y-15788152D01*
X17071428Y-15788152D02*
X17166666Y-15835771D01*
X17166666Y-15835771D02*
X17214285Y-15883390D01*
X15880952Y-15788152D02*
X15880952Y-16454819D01*
X16309523Y-15788152D02*
X16309523Y-16311961D01*
X16309523Y-16311961D02*
X16261904Y-16407200D01*
X16261904Y-16407200D02*
X16166666Y-16454819D01*
X16166666Y-16454819D02*
X16023809Y-16454819D01*
X16023809Y-16454819D02*
X15928571Y-16407200D01*
X15928571Y-16407200D02*
X15880952Y-16359580D01*
X15404761Y-16454819D02*
X15404761Y-15454819D01*
X15404761Y-15835771D02*
X15309523Y-15788152D01*
X15309523Y-15788152D02*
X15119047Y-15788152D01*
X15119047Y-15788152D02*
X15023809Y-15835771D01*
X15023809Y-15835771D02*
X14976190Y-15883390D01*
X14976190Y-15883390D02*
X14928571Y-15978628D01*
X14928571Y-15978628D02*
X14928571Y-16264342D01*
X14928571Y-16264342D02*
X14976190Y-16359580D01*
X14976190Y-16359580D02*
X15023809Y-16407200D01*
X15023809Y-16407200D02*
X15119047Y-16454819D01*
X15119047Y-16454819D02*
X15309523Y-16454819D01*
X15309523Y-16454819D02*
X15404761Y-16407200D01*
X13738094Y-16454819D02*
X13738094Y-15788152D01*
X13738094Y-15454819D02*
X13785713Y-15502438D01*
X13785713Y-15502438D02*
X13738094Y-15550057D01*
X13738094Y-15550057D02*
X13690475Y-15502438D01*
X13690475Y-15502438D02*
X13738094Y-15454819D01*
X13738094Y-15454819D02*
X13738094Y-15550057D01*
X13261904Y-15788152D02*
X13261904Y-16454819D01*
X13261904Y-15883390D02*
X13214285Y-15835771D01*
X13214285Y-15835771D02*
X13119047Y-15788152D01*
X13119047Y-15788152D02*
X12976190Y-15788152D01*
X12976190Y-15788152D02*
X12880952Y-15835771D01*
X12880952Y-15835771D02*
X12833333Y-15931009D01*
X12833333Y-15931009D02*
X12833333Y-16454819D01*
X11976190Y-16407200D02*
X12071428Y-16454819D01*
X12071428Y-16454819D02*
X12261904Y-16454819D01*
X12261904Y-16454819D02*
X12357142Y-16407200D01*
X12357142Y-16407200D02*
X12404761Y-16311961D01*
X12404761Y-16311961D02*
X12404761Y-15931009D01*
X12404761Y-15931009D02*
X12357142Y-15835771D01*
X12357142Y-15835771D02*
X12261904Y-15788152D01*
X12261904Y-15788152D02*
X12071428Y-15788152D01*
X12071428Y-15788152D02*
X11976190Y-15835771D01*
X11976190Y-15835771D02*
X11928571Y-15931009D01*
X11928571Y-15931009D02*
X11928571Y-16026247D01*
X11928571Y-16026247D02*
X12404761Y-16121485D01*
X11547618Y-16407200D02*
X11452380Y-16454819D01*
X11452380Y-16454819D02*
X11261904Y-16454819D01*
X11261904Y-16454819D02*
X11166666Y-16407200D01*
X11166666Y-16407200D02*
X11119047Y-16311961D01*
X11119047Y-16311961D02*
X11119047Y-16264342D01*
X11119047Y-16264342D02*
X11166666Y-16169104D01*
X11166666Y-16169104D02*
X11261904Y-16121485D01*
X11261904Y-16121485D02*
X11404761Y-16121485D01*
X11404761Y-16121485D02*
X11499999Y-16073866D01*
X11499999Y-16073866D02*
X11547618Y-15978628D01*
X11547618Y-15978628D02*
X11547618Y-15931009D01*
X11547618Y-15931009D02*
X11499999Y-15835771D01*
X11499999Y-15835771D02*
X11404761Y-15788152D01*
X11404761Y-15788152D02*
X11261904Y-15788152D01*
X11261904Y-15788152D02*
X11166666Y-15835771D01*
X10833332Y-15788152D02*
X10452380Y-15788152D01*
X10690475Y-15454819D02*
X10690475Y-16311961D01*
X10690475Y-16311961D02*
X10642856Y-16407200D01*
X10642856Y-16407200D02*
X10547618Y-16454819D01*
X10547618Y-16454819D02*
X10452380Y-16454819D01*
X10214284Y-15788152D02*
X9976189Y-16454819D01*
X9976189Y-16454819D02*
X9738094Y-15788152D01*
X8928570Y-16454819D02*
X8928570Y-15931009D01*
X8928570Y-15931009D02*
X8976189Y-15835771D01*
X8976189Y-15835771D02*
X9071427Y-15788152D01*
X9071427Y-15788152D02*
X9261903Y-15788152D01*
X9261903Y-15788152D02*
X9357141Y-15835771D01*
X8928570Y-16407200D02*
X9023808Y-16454819D01*
X9023808Y-16454819D02*
X9261903Y-16454819D01*
X9261903Y-16454819D02*
X9357141Y-16407200D01*
X9357141Y-16407200D02*
X9404760Y-16311961D01*
X9404760Y-16311961D02*
X9404760Y-16216723D01*
X9404760Y-16216723D02*
X9357141Y-16121485D01*
X9357141Y-16121485D02*
X9261903Y-16073866D01*
X9261903Y-16073866D02*
X9023808Y-16073866D01*
X9023808Y-16073866D02*
X8928570Y-16026247D01*
X8452379Y-15788152D02*
X8452379Y-16454819D01*
X8452379Y-15883390D02*
X8404760Y-15835771D01*
X8404760Y-15835771D02*
X8309522Y-15788152D01*
X8309522Y-15788152D02*
X8166665Y-15788152D01*
X8166665Y-15788152D02*
X8071427Y-15835771D01*
X8071427Y-15835771D02*
X8023808Y-15931009D01*
X8023808Y-15931009D02*
X8023808Y-16454819D01*
X6833332Y-15407200D02*
X7690474Y-16692914D01*
X6071427Y-16454819D02*
X6071427Y-15931009D01*
X6071427Y-15931009D02*
X6119046Y-15835771D01*
X6119046Y-15835771D02*
X6214284Y-15788152D01*
X6214284Y-15788152D02*
X6404760Y-15788152D01*
X6404760Y-15788152D02*
X6499998Y-15835771D01*
X6071427Y-16407200D02*
X6166665Y-16454819D01*
X6166665Y-16454819D02*
X6404760Y-16454819D01*
X6404760Y-16454819D02*
X6499998Y-16407200D01*
X6499998Y-16407200D02*
X6547617Y-16311961D01*
X6547617Y-16311961D02*
X6547617Y-16216723D01*
X6547617Y-16216723D02*
X6499998Y-16121485D01*
X6499998Y-16121485D02*
X6404760Y-16073866D01*
X6404760Y-16073866D02*
X6166665Y-16073866D01*
X6166665Y-16073866D02*
X6071427Y-16026247D01*
X5166665Y-16454819D02*
X5166665Y-15454819D01*
X5166665Y-16407200D02*
X5261903Y-16454819D01*
X5261903Y-16454819D02*
X5452379Y-16454819D01*
X5452379Y-16454819D02*
X5547617Y-16407200D01*
X5547617Y-16407200D02*
X5595236Y-16359580D01*
X5595236Y-16359580D02*
X5642855Y-16264342D01*
X5642855Y-16264342D02*
X5642855Y-15978628D01*
X5642855Y-15978628D02*
X5595236Y-15883390D01*
X5595236Y-15883390D02*
X5547617Y-15835771D01*
X5547617Y-15835771D02*
X5452379Y-15788152D01*
X5452379Y-15788152D02*
X5261903Y-15788152D01*
X5261903Y-15788152D02*
X5166665Y-15835771D01*
X4785712Y-15788152D02*
X4547617Y-16454819D01*
X4547617Y-16454819D02*
X4309522Y-15788152D01*
%LPC*%
D11*
X35500000Y-29000000D03*
X8000000Y-3200000D03*
D12*
X37000000Y-8000000D03*
D13*
X33200000Y-13000000D03*
X33200000Y-3000000D03*
%LPD*%
M02*
