%TF.GenerationSoftware,KiCad,Pcbnew,9.0.9-9.0.9~ubuntu24.04.1*%
%TF.CreationDate,2026-09-20T14:15:41+00:00*%
%TF.ProjectId,adv7280m-csi2,61647637-3238-4306-9d2d-637369322e6b,rev?*%
%TF.SameCoordinates,Original*%
%TF.FileFunction,Drillmap*%
%TF.FilePolarity,Positive*%
%FSLAX45Y45*%
G04 Gerber Fmt 4.5, Leading zero omitted, Abs format (unit mm)*
G04 Created by KiCad (PCBNEW 9.0.9-9.0.9~ubuntu24.04.1) date 2026-09-20 14:15:41*
%MOMM*%
%LPD*%
G01*
G04 APERTURE LIST*
%ADD10C,0.100000*%
%ADD11C,0.200000*%
%ADD12C,0.220000*%
G04 APERTURE END LIST*
D10*
X0Y-150000D02*
X0Y-3200000D01*
X0Y-150000D02*
G75*
G02*
X150000Y0I150000J0D01*
G01*
X0Y-3200000D02*
X700000Y-3200000D01*
X0Y-3400000D02*
X0Y-5350000D01*
X0Y-3400000D02*
X700000Y-3400000D01*
X150000Y0D02*
X4050000Y0D01*
X150000Y-5500000D02*
G75*
G02*
X0Y-5350000I0J150000D01*
G01*
X700000Y-3200000D02*
X700000Y-3400000D01*
X950000Y-3200000D02*
X950000Y-3400000D01*
X950000Y-3200000D02*
X3050000Y-3200000D01*
X950000Y-3400000D02*
X3050000Y-3400000D01*
X3050000Y-3200000D02*
X3050000Y-3400000D01*
X3300000Y-3200000D02*
X3300000Y-3400000D01*
X3300000Y-3200000D02*
X4200000Y-3200000D01*
X3300000Y-3400000D02*
X4200000Y-3400000D01*
X4050000Y0D02*
G75*
G02*
X4200000Y-150000I0J-150000D01*
G01*
X4050000Y-5500000D02*
X150000Y-5500000D01*
X4200000Y-150000D02*
X4200000Y-3200000D01*
X4200000Y-3400000D02*
X4200000Y-5350000D01*
X4200000Y-5350000D02*
G75*
G02*
X4050000Y-5500000I-150000J0D01*
G01*
D11*
D12*
X150000Y-3590000D02*
X370000Y-3810000D01*
X370000Y-3590000D02*
X150000Y-3810000D01*
X690000Y-210000D02*
X910000Y-430000D01*
X910000Y-210000D02*
X690000Y-430000D01*
X3440000Y-2790000D02*
X3660000Y-3010000D01*
X3660000Y-2790000D02*
X3440000Y-3010000D01*
X3830000Y-4340000D02*
X4050000Y-4560000D01*
X4050000Y-4340000D02*
X3830000Y-4560000D01*
D11*
X255777Y-5816484D02*
X255777Y-5616484D01*
X255777Y-5616484D02*
X303396Y-5616484D01*
X303396Y-5616484D02*
X331967Y-5626008D01*
X331967Y-5626008D02*
X351015Y-5645055D01*
X351015Y-5645055D02*
X360539Y-5664103D01*
X360539Y-5664103D02*
X370062Y-5702198D01*
X370062Y-5702198D02*
X370062Y-5730769D01*
X370062Y-5730769D02*
X360539Y-5768865D01*
X360539Y-5768865D02*
X351015Y-5787912D01*
X351015Y-5787912D02*
X331967Y-5806960D01*
X331967Y-5806960D02*
X303396Y-5816484D01*
X303396Y-5816484D02*
X255777Y-5816484D01*
X455777Y-5816484D02*
X455777Y-5683150D01*
X455777Y-5721246D02*
X465301Y-5702198D01*
X465301Y-5702198D02*
X474824Y-5692674D01*
X474824Y-5692674D02*
X493872Y-5683150D01*
X493872Y-5683150D02*
X512920Y-5683150D01*
X579586Y-5816484D02*
X579586Y-5683150D01*
X579586Y-5616484D02*
X570063Y-5626008D01*
X570063Y-5626008D02*
X579586Y-5635531D01*
X579586Y-5635531D02*
X589110Y-5626008D01*
X589110Y-5626008D02*
X579586Y-5616484D01*
X579586Y-5616484D02*
X579586Y-5635531D01*
X703396Y-5816484D02*
X684348Y-5806960D01*
X684348Y-5806960D02*
X674824Y-5787912D01*
X674824Y-5787912D02*
X674824Y-5616484D01*
X808158Y-5816484D02*
X789110Y-5806960D01*
X789110Y-5806960D02*
X779586Y-5787912D01*
X779586Y-5787912D02*
X779586Y-5616484D01*
X1036729Y-5816484D02*
X1036729Y-5616484D01*
X1036729Y-5616484D02*
X1103396Y-5759341D01*
X1103396Y-5759341D02*
X1170063Y-5616484D01*
X1170063Y-5616484D02*
X1170063Y-5816484D01*
X1351015Y-5816484D02*
X1351015Y-5711722D01*
X1351015Y-5711722D02*
X1341491Y-5692674D01*
X1341491Y-5692674D02*
X1322444Y-5683150D01*
X1322444Y-5683150D02*
X1284348Y-5683150D01*
X1284348Y-5683150D02*
X1265301Y-5692674D01*
X1351015Y-5806960D02*
X1331967Y-5816484D01*
X1331967Y-5816484D02*
X1284348Y-5816484D01*
X1284348Y-5816484D02*
X1265301Y-5806960D01*
X1265301Y-5806960D02*
X1255777Y-5787912D01*
X1255777Y-5787912D02*
X1255777Y-5768865D01*
X1255777Y-5768865D02*
X1265301Y-5749817D01*
X1265301Y-5749817D02*
X1284348Y-5740293D01*
X1284348Y-5740293D02*
X1331967Y-5740293D01*
X1331967Y-5740293D02*
X1351015Y-5730769D01*
X1446253Y-5683150D02*
X1446253Y-5883150D01*
X1446253Y-5692674D02*
X1465301Y-5683150D01*
X1465301Y-5683150D02*
X1503396Y-5683150D01*
X1503396Y-5683150D02*
X1522443Y-5692674D01*
X1522443Y-5692674D02*
X1531967Y-5702198D01*
X1531967Y-5702198D02*
X1541491Y-5721246D01*
X1541491Y-5721246D02*
X1541491Y-5778388D01*
X1541491Y-5778388D02*
X1531967Y-5797436D01*
X1531967Y-5797436D02*
X1522443Y-5806960D01*
X1522443Y-5806960D02*
X1503396Y-5816484D01*
X1503396Y-5816484D02*
X1465301Y-5816484D01*
X1465301Y-5816484D02*
X1446253Y-5806960D01*
X1627205Y-5797436D02*
X1636729Y-5806960D01*
X1636729Y-5806960D02*
X1627205Y-5816484D01*
X1627205Y-5816484D02*
X1617682Y-5806960D01*
X1617682Y-5806960D02*
X1627205Y-5797436D01*
X1627205Y-5797436D02*
X1627205Y-5816484D01*
X1627205Y-5692674D02*
X1636729Y-5702198D01*
X1636729Y-5702198D02*
X1627205Y-5711722D01*
X1627205Y-5711722D02*
X1617682Y-5702198D01*
X1617682Y-5702198D02*
X1627205Y-5692674D01*
X1627205Y-5692674D02*
X1627205Y-5711722D01*
X-205000Y-6045000D02*
X-5000Y-6245000D01*
X-5000Y-6045000D02*
X-205000Y-6245000D01*
X246253Y-6055531D02*
X255777Y-6046008D01*
X255777Y-6046008D02*
X274824Y-6036484D01*
X274824Y-6036484D02*
X322444Y-6036484D01*
X322444Y-6036484D02*
X341491Y-6046008D01*
X341491Y-6046008D02*
X351015Y-6055531D01*
X351015Y-6055531D02*
X360539Y-6074579D01*
X360539Y-6074579D02*
X360539Y-6093627D01*
X360539Y-6093627D02*
X351015Y-6122198D01*
X351015Y-6122198D02*
X236729Y-6236484D01*
X236729Y-6236484D02*
X360539Y-6236484D01*
X446253Y-6217436D02*
X455777Y-6226960D01*
X455777Y-6226960D02*
X446253Y-6236484D01*
X446253Y-6236484D02*
X436729Y-6226960D01*
X436729Y-6226960D02*
X446253Y-6217436D01*
X446253Y-6217436D02*
X446253Y-6236484D01*
X531967Y-6055531D02*
X541491Y-6046008D01*
X541491Y-6046008D02*
X560539Y-6036484D01*
X560539Y-6036484D02*
X608158Y-6036484D01*
X608158Y-6036484D02*
X627205Y-6046008D01*
X627205Y-6046008D02*
X636729Y-6055531D01*
X636729Y-6055531D02*
X646253Y-6074579D01*
X646253Y-6074579D02*
X646253Y-6093627D01*
X646253Y-6093627D02*
X636729Y-6122198D01*
X636729Y-6122198D02*
X522443Y-6236484D01*
X522443Y-6236484D02*
X646253Y-6236484D01*
X770062Y-6036484D02*
X789110Y-6036484D01*
X789110Y-6036484D02*
X808158Y-6046008D01*
X808158Y-6046008D02*
X817682Y-6055531D01*
X817682Y-6055531D02*
X827205Y-6074579D01*
X827205Y-6074579D02*
X836729Y-6112674D01*
X836729Y-6112674D02*
X836729Y-6160293D01*
X836729Y-6160293D02*
X827205Y-6198388D01*
X827205Y-6198388D02*
X817682Y-6217436D01*
X817682Y-6217436D02*
X808158Y-6226960D01*
X808158Y-6226960D02*
X789110Y-6236484D01*
X789110Y-6236484D02*
X770062Y-6236484D01*
X770062Y-6236484D02*
X751015Y-6226960D01*
X751015Y-6226960D02*
X741491Y-6217436D01*
X741491Y-6217436D02*
X731967Y-6198388D01*
X731967Y-6198388D02*
X722443Y-6160293D01*
X722443Y-6160293D02*
X722443Y-6112674D01*
X722443Y-6112674D02*
X731967Y-6074579D01*
X731967Y-6074579D02*
X741491Y-6055531D01*
X741491Y-6055531D02*
X751015Y-6046008D01*
X751015Y-6046008D02*
X770062Y-6036484D01*
X960539Y-6036484D02*
X979586Y-6036484D01*
X979586Y-6036484D02*
X998634Y-6046008D01*
X998634Y-6046008D02*
X1008158Y-6055531D01*
X1008158Y-6055531D02*
X1017682Y-6074579D01*
X1017682Y-6074579D02*
X1027205Y-6112674D01*
X1027205Y-6112674D02*
X1027205Y-6160293D01*
X1027205Y-6160293D02*
X1017682Y-6198388D01*
X1017682Y-6198388D02*
X1008158Y-6217436D01*
X1008158Y-6217436D02*
X998634Y-6226960D01*
X998634Y-6226960D02*
X979586Y-6236484D01*
X979586Y-6236484D02*
X960539Y-6236484D01*
X960539Y-6236484D02*
X941491Y-6226960D01*
X941491Y-6226960D02*
X931967Y-6217436D01*
X931967Y-6217436D02*
X922443Y-6198388D01*
X922443Y-6198388D02*
X912920Y-6160293D01*
X912920Y-6160293D02*
X912920Y-6112674D01*
X912920Y-6112674D02*
X922443Y-6074579D01*
X922443Y-6074579D02*
X931967Y-6055531D01*
X931967Y-6055531D02*
X941491Y-6046008D01*
X941491Y-6046008D02*
X960539Y-6036484D01*
X1112920Y-6236484D02*
X1112920Y-6103150D01*
X1112920Y-6122198D02*
X1122444Y-6112674D01*
X1122444Y-6112674D02*
X1141491Y-6103150D01*
X1141491Y-6103150D02*
X1170063Y-6103150D01*
X1170063Y-6103150D02*
X1189110Y-6112674D01*
X1189110Y-6112674D02*
X1198634Y-6131722D01*
X1198634Y-6131722D02*
X1198634Y-6236484D01*
X1198634Y-6131722D02*
X1208158Y-6112674D01*
X1208158Y-6112674D02*
X1227205Y-6103150D01*
X1227205Y-6103150D02*
X1255777Y-6103150D01*
X1255777Y-6103150D02*
X1274825Y-6112674D01*
X1274825Y-6112674D02*
X1284348Y-6131722D01*
X1284348Y-6131722D02*
X1284348Y-6236484D01*
X1379586Y-6236484D02*
X1379586Y-6103150D01*
X1379586Y-6122198D02*
X1389110Y-6112674D01*
X1389110Y-6112674D02*
X1408158Y-6103150D01*
X1408158Y-6103150D02*
X1436729Y-6103150D01*
X1436729Y-6103150D02*
X1455777Y-6112674D01*
X1455777Y-6112674D02*
X1465301Y-6131722D01*
X1465301Y-6131722D02*
X1465301Y-6236484D01*
X1465301Y-6131722D02*
X1474824Y-6112674D01*
X1474824Y-6112674D02*
X1493872Y-6103150D01*
X1493872Y-6103150D02*
X1522443Y-6103150D01*
X1522443Y-6103150D02*
X1541491Y-6112674D01*
X1541491Y-6112674D02*
X1551015Y-6131722D01*
X1551015Y-6131722D02*
X1551015Y-6236484D01*
X1941491Y-6026960D02*
X1770063Y-6284103D01*
X2198634Y-6036484D02*
X2217682Y-6036484D01*
X2217682Y-6036484D02*
X2236729Y-6046008D01*
X2236729Y-6046008D02*
X2246253Y-6055531D01*
X2246253Y-6055531D02*
X2255777Y-6074579D01*
X2255777Y-6074579D02*
X2265301Y-6112674D01*
X2265301Y-6112674D02*
X2265301Y-6160293D01*
X2265301Y-6160293D02*
X2255777Y-6198388D01*
X2255777Y-6198388D02*
X2246253Y-6217436D01*
X2246253Y-6217436D02*
X2236729Y-6226960D01*
X2236729Y-6226960D02*
X2217682Y-6236484D01*
X2217682Y-6236484D02*
X2198634Y-6236484D01*
X2198634Y-6236484D02*
X2179587Y-6226960D01*
X2179587Y-6226960D02*
X2170063Y-6217436D01*
X2170063Y-6217436D02*
X2160539Y-6198388D01*
X2160539Y-6198388D02*
X2151015Y-6160293D01*
X2151015Y-6160293D02*
X2151015Y-6112674D01*
X2151015Y-6112674D02*
X2160539Y-6074579D01*
X2160539Y-6074579D02*
X2170063Y-6055531D01*
X2170063Y-6055531D02*
X2179587Y-6046008D01*
X2179587Y-6046008D02*
X2198634Y-6036484D01*
X2351015Y-6217436D02*
X2360539Y-6226960D01*
X2360539Y-6226960D02*
X2351015Y-6236484D01*
X2351015Y-6236484D02*
X2341491Y-6226960D01*
X2341491Y-6226960D02*
X2351015Y-6217436D01*
X2351015Y-6217436D02*
X2351015Y-6236484D01*
X2484348Y-6036484D02*
X2503396Y-6036484D01*
X2503396Y-6036484D02*
X2522444Y-6046008D01*
X2522444Y-6046008D02*
X2531968Y-6055531D01*
X2531968Y-6055531D02*
X2541491Y-6074579D01*
X2541491Y-6074579D02*
X2551015Y-6112674D01*
X2551015Y-6112674D02*
X2551015Y-6160293D01*
X2551015Y-6160293D02*
X2541491Y-6198388D01*
X2541491Y-6198388D02*
X2531968Y-6217436D01*
X2531968Y-6217436D02*
X2522444Y-6226960D01*
X2522444Y-6226960D02*
X2503396Y-6236484D01*
X2503396Y-6236484D02*
X2484348Y-6236484D01*
X2484348Y-6236484D02*
X2465301Y-6226960D01*
X2465301Y-6226960D02*
X2455777Y-6217436D01*
X2455777Y-6217436D02*
X2446253Y-6198388D01*
X2446253Y-6198388D02*
X2436729Y-6160293D01*
X2436729Y-6160293D02*
X2436729Y-6112674D01*
X2436729Y-6112674D02*
X2446253Y-6074579D01*
X2446253Y-6074579D02*
X2455777Y-6055531D01*
X2455777Y-6055531D02*
X2465301Y-6046008D01*
X2465301Y-6046008D02*
X2484348Y-6036484D01*
X2665301Y-6122198D02*
X2646253Y-6112674D01*
X2646253Y-6112674D02*
X2636729Y-6103150D01*
X2636729Y-6103150D02*
X2627206Y-6084103D01*
X2627206Y-6084103D02*
X2627206Y-6074579D01*
X2627206Y-6074579D02*
X2636729Y-6055531D01*
X2636729Y-6055531D02*
X2646253Y-6046008D01*
X2646253Y-6046008D02*
X2665301Y-6036484D01*
X2665301Y-6036484D02*
X2703396Y-6036484D01*
X2703396Y-6036484D02*
X2722444Y-6046008D01*
X2722444Y-6046008D02*
X2731968Y-6055531D01*
X2731968Y-6055531D02*
X2741491Y-6074579D01*
X2741491Y-6074579D02*
X2741491Y-6084103D01*
X2741491Y-6084103D02*
X2731968Y-6103150D01*
X2731968Y-6103150D02*
X2722444Y-6112674D01*
X2722444Y-6112674D02*
X2703396Y-6122198D01*
X2703396Y-6122198D02*
X2665301Y-6122198D01*
X2665301Y-6122198D02*
X2646253Y-6131722D01*
X2646253Y-6131722D02*
X2636729Y-6141246D01*
X2636729Y-6141246D02*
X2627206Y-6160293D01*
X2627206Y-6160293D02*
X2627206Y-6198388D01*
X2627206Y-6198388D02*
X2636729Y-6217436D01*
X2636729Y-6217436D02*
X2646253Y-6226960D01*
X2646253Y-6226960D02*
X2665301Y-6236484D01*
X2665301Y-6236484D02*
X2703396Y-6236484D01*
X2703396Y-6236484D02*
X2722444Y-6226960D01*
X2722444Y-6226960D02*
X2731968Y-6217436D01*
X2731968Y-6217436D02*
X2741491Y-6198388D01*
X2741491Y-6198388D02*
X2741491Y-6160293D01*
X2741491Y-6160293D02*
X2731968Y-6141246D01*
X2731968Y-6141246D02*
X2722444Y-6131722D01*
X2722444Y-6131722D02*
X2703396Y-6122198D01*
X2912920Y-6036484D02*
X2874825Y-6036484D01*
X2874825Y-6036484D02*
X2855777Y-6046008D01*
X2855777Y-6046008D02*
X2846253Y-6055531D01*
X2846253Y-6055531D02*
X2827206Y-6084103D01*
X2827206Y-6084103D02*
X2817682Y-6122198D01*
X2817682Y-6122198D02*
X2817682Y-6198388D01*
X2817682Y-6198388D02*
X2827206Y-6217436D01*
X2827206Y-6217436D02*
X2836729Y-6226960D01*
X2836729Y-6226960D02*
X2855777Y-6236484D01*
X2855777Y-6236484D02*
X2893872Y-6236484D01*
X2893872Y-6236484D02*
X2912920Y-6226960D01*
X2912920Y-6226960D02*
X2922444Y-6217436D01*
X2922444Y-6217436D02*
X2931967Y-6198388D01*
X2931967Y-6198388D02*
X2931967Y-6150769D01*
X2931967Y-6150769D02*
X2922444Y-6131722D01*
X2922444Y-6131722D02*
X2912920Y-6122198D01*
X2912920Y-6122198D02*
X2893872Y-6112674D01*
X2893872Y-6112674D02*
X2855777Y-6112674D01*
X2855777Y-6112674D02*
X2836729Y-6122198D01*
X2836729Y-6122198D02*
X2827206Y-6131722D01*
X2827206Y-6131722D02*
X2817682Y-6150769D01*
X3103396Y-6036484D02*
X3065301Y-6036484D01*
X3065301Y-6036484D02*
X3046253Y-6046008D01*
X3046253Y-6046008D02*
X3036729Y-6055531D01*
X3036729Y-6055531D02*
X3017682Y-6084103D01*
X3017682Y-6084103D02*
X3008158Y-6122198D01*
X3008158Y-6122198D02*
X3008158Y-6198388D01*
X3008158Y-6198388D02*
X3017682Y-6217436D01*
X3017682Y-6217436D02*
X3027206Y-6226960D01*
X3027206Y-6226960D02*
X3046253Y-6236484D01*
X3046253Y-6236484D02*
X3084348Y-6236484D01*
X3084348Y-6236484D02*
X3103396Y-6226960D01*
X3103396Y-6226960D02*
X3112920Y-6217436D01*
X3112920Y-6217436D02*
X3122444Y-6198388D01*
X3122444Y-6198388D02*
X3122444Y-6150769D01*
X3122444Y-6150769D02*
X3112920Y-6131722D01*
X3112920Y-6131722D02*
X3103396Y-6122198D01*
X3103396Y-6122198D02*
X3084348Y-6112674D01*
X3084348Y-6112674D02*
X3046253Y-6112674D01*
X3046253Y-6112674D02*
X3027206Y-6122198D01*
X3027206Y-6122198D02*
X3017682Y-6131722D01*
X3017682Y-6131722D02*
X3008158Y-6150769D01*
X3198634Y-6036484D02*
X3198634Y-6074579D01*
X3274825Y-6036484D02*
X3274825Y-6074579D01*
X3570063Y-6312674D02*
X3560539Y-6303150D01*
X3560539Y-6303150D02*
X3541491Y-6274579D01*
X3541491Y-6274579D02*
X3531968Y-6255531D01*
X3531968Y-6255531D02*
X3522444Y-6226960D01*
X3522444Y-6226960D02*
X3512920Y-6179341D01*
X3512920Y-6179341D02*
X3512920Y-6141246D01*
X3512920Y-6141246D02*
X3522444Y-6093627D01*
X3522444Y-6093627D02*
X3531968Y-6065055D01*
X3531968Y-6065055D02*
X3541491Y-6046008D01*
X3541491Y-6046008D02*
X3560539Y-6017436D01*
X3560539Y-6017436D02*
X3570063Y-6007912D01*
X3731968Y-6103150D02*
X3731968Y-6236484D01*
X3684348Y-6026960D02*
X3636729Y-6169817D01*
X3636729Y-6169817D02*
X3760539Y-6169817D01*
X3989110Y-6236484D02*
X3989110Y-6036484D01*
X4074825Y-6236484D02*
X4074825Y-6131722D01*
X4074825Y-6131722D02*
X4065301Y-6112674D01*
X4065301Y-6112674D02*
X4046253Y-6103150D01*
X4046253Y-6103150D02*
X4017682Y-6103150D01*
X4017682Y-6103150D02*
X3998634Y-6112674D01*
X3998634Y-6112674D02*
X3989110Y-6122198D01*
X4198634Y-6236484D02*
X4179587Y-6226960D01*
X4179587Y-6226960D02*
X4170063Y-6217436D01*
X4170063Y-6217436D02*
X4160539Y-6198388D01*
X4160539Y-6198388D02*
X4160539Y-6141246D01*
X4160539Y-6141246D02*
X4170063Y-6122198D01*
X4170063Y-6122198D02*
X4179587Y-6112674D01*
X4179587Y-6112674D02*
X4198634Y-6103150D01*
X4198634Y-6103150D02*
X4227206Y-6103150D01*
X4227206Y-6103150D02*
X4246253Y-6112674D01*
X4246253Y-6112674D02*
X4255777Y-6122198D01*
X4255777Y-6122198D02*
X4265301Y-6141246D01*
X4265301Y-6141246D02*
X4265301Y-6198388D01*
X4265301Y-6198388D02*
X4255777Y-6217436D01*
X4255777Y-6217436D02*
X4246253Y-6226960D01*
X4246253Y-6226960D02*
X4227206Y-6236484D01*
X4227206Y-6236484D02*
X4198634Y-6236484D01*
X4379587Y-6236484D02*
X4360539Y-6226960D01*
X4360539Y-6226960D02*
X4351015Y-6207912D01*
X4351015Y-6207912D02*
X4351015Y-6036484D01*
X4531968Y-6226960D02*
X4512920Y-6236484D01*
X4512920Y-6236484D02*
X4474825Y-6236484D01*
X4474825Y-6236484D02*
X4455777Y-6226960D01*
X4455777Y-6226960D02*
X4446253Y-6207912D01*
X4446253Y-6207912D02*
X4446253Y-6131722D01*
X4446253Y-6131722D02*
X4455777Y-6112674D01*
X4455777Y-6112674D02*
X4474825Y-6103150D01*
X4474825Y-6103150D02*
X4512920Y-6103150D01*
X4512920Y-6103150D02*
X4531968Y-6112674D01*
X4531968Y-6112674D02*
X4541492Y-6131722D01*
X4541492Y-6131722D02*
X4541492Y-6150769D01*
X4541492Y-6150769D02*
X4446253Y-6169817D01*
X4617682Y-6226960D02*
X4636730Y-6236484D01*
X4636730Y-6236484D02*
X4674825Y-6236484D01*
X4674825Y-6236484D02*
X4693873Y-6226960D01*
X4693873Y-6226960D02*
X4703396Y-6207912D01*
X4703396Y-6207912D02*
X4703396Y-6198388D01*
X4703396Y-6198388D02*
X4693873Y-6179341D01*
X4693873Y-6179341D02*
X4674825Y-6169817D01*
X4674825Y-6169817D02*
X4646253Y-6169817D01*
X4646253Y-6169817D02*
X4627206Y-6160293D01*
X4627206Y-6160293D02*
X4617682Y-6141246D01*
X4617682Y-6141246D02*
X4617682Y-6131722D01*
X4617682Y-6131722D02*
X4627206Y-6112674D01*
X4627206Y-6112674D02*
X4646253Y-6103150D01*
X4646253Y-6103150D02*
X4674825Y-6103150D01*
X4674825Y-6103150D02*
X4693873Y-6112674D01*
X4770063Y-6312674D02*
X4779587Y-6303150D01*
X4779587Y-6303150D02*
X4798634Y-6274579D01*
X4798634Y-6274579D02*
X4808158Y-6255531D01*
X4808158Y-6255531D02*
X4817682Y-6226960D01*
X4817682Y-6226960D02*
X4827206Y-6179341D01*
X4827206Y-6179341D02*
X4827206Y-6141246D01*
X4827206Y-6141246D02*
X4817682Y-6093627D01*
X4817682Y-6093627D02*
X4808158Y-6065055D01*
X4808158Y-6065055D02*
X4798634Y-6046008D01*
X4798634Y-6046008D02*
X4779587Y-6017436D01*
X4779587Y-6017436D02*
X4770063Y-6007912D01*
X5131968Y-6312674D02*
X5122444Y-6303150D01*
X5122444Y-6303150D02*
X5103396Y-6274579D01*
X5103396Y-6274579D02*
X5093873Y-6255531D01*
X5093873Y-6255531D02*
X5084349Y-6226960D01*
X5084349Y-6226960D02*
X5074825Y-6179341D01*
X5074825Y-6179341D02*
X5074825Y-6141246D01*
X5074825Y-6141246D02*
X5084349Y-6093627D01*
X5084349Y-6093627D02*
X5093873Y-6065055D01*
X5093873Y-6065055D02*
X5103396Y-6046008D01*
X5103396Y-6046008D02*
X5122444Y-6017436D01*
X5122444Y-6017436D02*
X5131968Y-6007912D01*
X5208158Y-6103150D02*
X5208158Y-6236484D01*
X5208158Y-6122198D02*
X5217682Y-6112674D01*
X5217682Y-6112674D02*
X5236730Y-6103150D01*
X5236730Y-6103150D02*
X5265301Y-6103150D01*
X5265301Y-6103150D02*
X5284349Y-6112674D01*
X5284349Y-6112674D02*
X5293873Y-6131722D01*
X5293873Y-6131722D02*
X5293873Y-6236484D01*
X5417682Y-6236484D02*
X5398634Y-6226960D01*
X5398634Y-6226960D02*
X5389111Y-6217436D01*
X5389111Y-6217436D02*
X5379587Y-6198388D01*
X5379587Y-6198388D02*
X5379587Y-6141246D01*
X5379587Y-6141246D02*
X5389111Y-6122198D01*
X5389111Y-6122198D02*
X5398634Y-6112674D01*
X5398634Y-6112674D02*
X5417682Y-6103150D01*
X5417682Y-6103150D02*
X5446254Y-6103150D01*
X5446254Y-6103150D02*
X5465301Y-6112674D01*
X5465301Y-6112674D02*
X5474825Y-6122198D01*
X5474825Y-6122198D02*
X5484349Y-6141246D01*
X5484349Y-6141246D02*
X5484349Y-6198388D01*
X5484349Y-6198388D02*
X5474825Y-6217436D01*
X5474825Y-6217436D02*
X5465301Y-6226960D01*
X5465301Y-6226960D02*
X5446254Y-6236484D01*
X5446254Y-6236484D02*
X5417682Y-6236484D01*
X5541492Y-6103150D02*
X5617682Y-6103150D01*
X5570063Y-6036484D02*
X5570063Y-6207912D01*
X5570063Y-6207912D02*
X5579587Y-6226960D01*
X5579587Y-6226960D02*
X5598634Y-6236484D01*
X5598634Y-6236484D02*
X5617682Y-6236484D01*
X5836730Y-6103150D02*
X5836730Y-6303150D01*
X5836730Y-6112674D02*
X5855777Y-6103150D01*
X5855777Y-6103150D02*
X5893873Y-6103150D01*
X5893873Y-6103150D02*
X5912920Y-6112674D01*
X5912920Y-6112674D02*
X5922444Y-6122198D01*
X5922444Y-6122198D02*
X5931968Y-6141246D01*
X5931968Y-6141246D02*
X5931968Y-6198388D01*
X5931968Y-6198388D02*
X5922444Y-6217436D01*
X5922444Y-6217436D02*
X5912920Y-6226960D01*
X5912920Y-6226960D02*
X5893873Y-6236484D01*
X5893873Y-6236484D02*
X5855777Y-6236484D01*
X5855777Y-6236484D02*
X5836730Y-6226960D01*
X6046253Y-6236484D02*
X6027206Y-6226960D01*
X6027206Y-6226960D02*
X6017682Y-6207912D01*
X6017682Y-6207912D02*
X6017682Y-6036484D01*
X6208158Y-6236484D02*
X6208158Y-6131722D01*
X6208158Y-6131722D02*
X6198634Y-6112674D01*
X6198634Y-6112674D02*
X6179587Y-6103150D01*
X6179587Y-6103150D02*
X6141492Y-6103150D01*
X6141492Y-6103150D02*
X6122444Y-6112674D01*
X6208158Y-6226960D02*
X6189111Y-6236484D01*
X6189111Y-6236484D02*
X6141492Y-6236484D01*
X6141492Y-6236484D02*
X6122444Y-6226960D01*
X6122444Y-6226960D02*
X6112920Y-6207912D01*
X6112920Y-6207912D02*
X6112920Y-6188865D01*
X6112920Y-6188865D02*
X6122444Y-6169817D01*
X6122444Y-6169817D02*
X6141492Y-6160293D01*
X6141492Y-6160293D02*
X6189111Y-6160293D01*
X6189111Y-6160293D02*
X6208158Y-6150769D01*
X6274825Y-6103150D02*
X6351015Y-6103150D01*
X6303396Y-6036484D02*
X6303396Y-6207912D01*
X6303396Y-6207912D02*
X6312920Y-6226960D01*
X6312920Y-6226960D02*
X6331968Y-6236484D01*
X6331968Y-6236484D02*
X6351015Y-6236484D01*
X6493873Y-6226960D02*
X6474825Y-6236484D01*
X6474825Y-6236484D02*
X6436730Y-6236484D01*
X6436730Y-6236484D02*
X6417682Y-6226960D01*
X6417682Y-6226960D02*
X6408158Y-6207912D01*
X6408158Y-6207912D02*
X6408158Y-6131722D01*
X6408158Y-6131722D02*
X6417682Y-6112674D01*
X6417682Y-6112674D02*
X6436730Y-6103150D01*
X6436730Y-6103150D02*
X6474825Y-6103150D01*
X6474825Y-6103150D02*
X6493873Y-6112674D01*
X6493873Y-6112674D02*
X6503396Y-6131722D01*
X6503396Y-6131722D02*
X6503396Y-6150769D01*
X6503396Y-6150769D02*
X6408158Y-6169817D01*
X6674825Y-6236484D02*
X6674825Y-6036484D01*
X6674825Y-6226960D02*
X6655777Y-6236484D01*
X6655777Y-6236484D02*
X6617682Y-6236484D01*
X6617682Y-6236484D02*
X6598634Y-6226960D01*
X6598634Y-6226960D02*
X6589111Y-6217436D01*
X6589111Y-6217436D02*
X6579587Y-6198388D01*
X6579587Y-6198388D02*
X6579587Y-6141246D01*
X6579587Y-6141246D02*
X6589111Y-6122198D01*
X6589111Y-6122198D02*
X6598634Y-6112674D01*
X6598634Y-6112674D02*
X6617682Y-6103150D01*
X6617682Y-6103150D02*
X6655777Y-6103150D01*
X6655777Y-6103150D02*
X6674825Y-6112674D01*
X6751015Y-6312674D02*
X6760539Y-6303150D01*
X6760539Y-6303150D02*
X6779587Y-6274579D01*
X6779587Y-6274579D02*
X6789111Y-6255531D01*
X6789111Y-6255531D02*
X6798634Y-6226960D01*
X6798634Y-6226960D02*
X6808158Y-6179341D01*
X6808158Y-6179341D02*
X6808158Y-6141246D01*
X6808158Y-6141246D02*
X6798634Y-6093627D01*
X6798634Y-6093627D02*
X6789111Y-6065055D01*
X6789111Y-6065055D02*
X6779587Y-6046008D01*
X6779587Y-6046008D02*
X6760539Y-6017436D01*
X6760539Y-6017436D02*
X6751015Y-6007912D01*
M02*
