G04 #@! TF.GenerationSoftware,KiCad,Pcbnew,9.0.9-9.0.9~ubuntu24.04.1*
G04 #@! TF.CreationDate,2026-09-20T14:15:40+00:00*
G04 #@! TF.ProjectId,adv7280m-csi2,61647637-3238-4306-9d2d-637369322e6b,rev?*
G04 #@! TF.SameCoordinates,Original*
G04 #@! TF.FileFunction,Paste,Top*
G04 #@! TF.FilePolarity,Positive*
%FSLAX46Y46*%
G04 Gerber Fmt 4.6, Leading zero omitted, Abs format (unit mm)*
G04 Created by KiCad (PCBNEW 9.0.9-9.0.9~ubuntu24.04.1) date 2026-09-20 14:15:40*
%MOMM*%
%LPD*%
G01*
G04 APERTURE LIST*
G04 Aperture macros list*
%AMRoundRect*
0 Rectangle with rounded corners*
0 $1 Rounding radius*
0 $2 $3 $4 $5 $6 $7 $8 $9 X,Y pos of 4 corners*
0 Add a 4 corners polygon primitive as box body*
4,1,4,$2,$3,$4,$5,$6,$7,$8,$9,$2,$3,0*
0 Add four circle primitives for the rounded corners*
1,1,$1+$1,$2,$3*
1,1,$1+$1,$4,$5*
1,1,$1+$1,$6,$7*
1,1,$1+$1,$8,$9*
0 Add four rect primitives between the rounded corners*
20,1,$1+$1,$2,$3,$4,$5,0*
20,1,$1+$1,$4,$5,$6,$7,0*
20,1,$1+$1,$6,$7,$8,$9,0*
20,1,$1+$1,$8,$9,$2,$3,0*%
G04 Aperture macros list end*
%ADD10RoundRect,0.140000X0.170000X-0.140000X0.170000X0.140000X-0.170000X0.140000X-0.170000X-0.140000X0*%
%ADD11RoundRect,0.140000X0.140000X0.170000X-0.140000X0.170000X-0.140000X-0.170000X0.140000X-0.170000X0*%
%ADD12RoundRect,0.200000X-0.200000X-0.275000X0.200000X-0.275000X0.200000X0.275000X-0.200000X0.275000X0*%
%ADD13RoundRect,0.200000X-0.275000X0.200000X-0.275000X-0.200000X0.275000X-0.200000X0.275000X0.200000X0*%
%ADD14RoundRect,0.225000X-0.225000X-0.250000X0.225000X-0.250000X0.225000X0.250000X-0.225000X0.250000X0*%
%ADD15RoundRect,0.225000X-0.250000X0.225000X-0.250000X-0.225000X0.250000X-0.225000X0.250000X0.225000X0*%
%ADD16RoundRect,0.250000X0.750000X0.950000X-0.750000X0.950000X-0.750000X-0.950000X0.750000X-0.950000X0*%
%ADD17RoundRect,0.150000X-0.825000X-0.150000X0.825000X-0.150000X0.825000X0.150000X-0.825000X0.150000X0*%
%ADD18RoundRect,0.250000X0.475000X-0.250000X0.475000X0.250000X-0.475000X0.250000X-0.475000X-0.250000X0*%
%ADD19RoundRect,0.140000X-0.140000X-0.170000X0.140000X-0.170000X0.140000X0.170000X-0.140000X0.170000X0*%
%ADD20RoundRect,0.225000X0.225000X0.250000X-0.225000X0.250000X-0.225000X-0.250000X0.225000X-0.250000X0*%
%ADD21RoundRect,0.075000X-0.175000X0.075000X-0.175000X-0.075000X0.175000X-0.075000X0.175000X0.075000X0*%
%ADD22RoundRect,0.150000X-0.512500X-0.150000X0.512500X-0.150000X0.512500X0.150000X-0.512500X0.150000X0*%
%ADD23RoundRect,0.218750X-0.218750X-0.256250X0.218750X-0.256250X0.218750X0.256250X-0.218750X0.256250X0*%
%ADD24RoundRect,0.242500X-0.242500X-0.242500X0.242500X-0.242500X0.242500X0.242500X-0.242500X0.242500X0*%
%ADD25RoundRect,0.062500X-0.337500X-0.062500X0.337500X-0.062500X0.337500X0.062500X-0.337500X0.062500X0*%
%ADD26RoundRect,0.062500X-0.062500X-0.337500X0.062500X-0.337500X0.062500X0.337500X-0.062500X0.337500X0*%
%ADD27RoundRect,0.140000X-1.960000X0.210000X-1.960000X-0.210000X1.960000X-0.210000X1.960000X0.210000X0*%
%ADD28RoundRect,0.150000X-0.850000X0.150000X-0.850000X-0.150000X0.850000X-0.150000X0.850000X0.150000X0*%
%ADD29RoundRect,0.140000X-0.170000X0.140000X-0.170000X-0.140000X0.170000X-0.140000X0.170000X0.140000X0*%
%ADD30RoundRect,0.225000X0.250000X-0.225000X0.250000X0.225000X-0.250000X0.225000X-0.250000X-0.225000X0*%
%ADD31RoundRect,0.250000X1.000000X0.650000X-1.000000X0.650000X-1.000000X-0.650000X1.000000X-0.650000X0*%
%ADD32RoundRect,0.200000X0.200000X0.275000X-0.200000X0.275000X-0.200000X-0.275000X0.200000X-0.275000X0*%
%ADD33RoundRect,0.075000X0.175000X-0.075000X0.175000X0.075000X-0.175000X0.075000X-0.175000X-0.075000X0*%
G04 APERTURE END LIST*
D10*
X24000000Y-11480000D03*
X24000000Y-10520000D03*
D11*
X15880000Y-10500000D03*
X14920000Y-10500000D03*
D12*
X26675000Y-43400000D03*
X28325000Y-43400000D03*
D13*
X16300000Y-4675000D03*
X16300000Y-6325000D03*
D14*
X13825000Y-43000000D03*
X15375000Y-43000000D03*
D11*
X15880000Y-11800000D03*
X14920000Y-11800000D03*
D15*
X24800000Y-4725000D03*
X24800000Y-6275000D03*
D16*
X26650000Y-18600000D03*
X22950000Y-18600000D03*
D17*
X18725000Y-42095000D03*
X18725000Y-43365000D03*
X18725000Y-44635000D03*
X18725000Y-45905000D03*
X23675000Y-45905000D03*
X23675000Y-44635000D03*
X23675000Y-43365000D03*
X23675000Y-42095000D03*
D14*
X14525000Y-25800000D03*
X16075000Y-25800000D03*
D11*
X20480000Y-47400000D03*
X19520000Y-47400000D03*
D18*
X26000000Y-51550000D03*
X26000000Y-49650000D03*
D13*
X27800000Y-4675000D03*
X27800000Y-6325000D03*
D19*
X24320000Y-14400000D03*
X25280000Y-14400000D03*
D20*
X26975000Y-12900000D03*
X25425000Y-12900000D03*
D13*
X26300000Y-4675000D03*
X26300000Y-6325000D03*
D19*
X26420000Y-9000000D03*
X27380000Y-9000000D03*
D21*
X9700000Y-39650000D03*
X9700000Y-40350000D03*
D22*
X10362500Y-21050000D03*
X10362500Y-22000000D03*
X10362500Y-22950000D03*
X12637500Y-22950000D03*
X12637500Y-21050000D03*
D14*
X20625000Y-25800000D03*
X22175000Y-25800000D03*
D13*
X11500000Y-39175000D03*
X11500000Y-40825000D03*
X28600000Y-14175000D03*
X28600000Y-15825000D03*
D19*
X24420000Y-9000000D03*
X25380000Y-9000000D03*
D11*
X15880000Y-7900000D03*
X14920000Y-7900000D03*
D19*
X22420000Y-14400000D03*
X23380000Y-14400000D03*
D14*
X13825000Y-45000000D03*
X15375000Y-45000000D03*
D11*
X15880000Y-9200000D03*
X14920000Y-9200000D03*
D18*
X20300000Y-51550000D03*
X20300000Y-49650000D03*
D23*
X22212500Y-49000000D03*
X23787500Y-49000000D03*
D14*
X14525000Y-27600000D03*
X16075000Y-27600000D03*
D24*
X18800000Y-9300000D03*
X18800000Y-10500000D03*
X18800000Y-11700000D03*
X20000000Y-9300000D03*
X20000000Y-10500000D03*
X20000000Y-11700000D03*
X21200000Y-9300000D03*
X21200000Y-10500000D03*
X21200000Y-11700000D03*
D25*
X17550000Y-8750000D03*
X17550000Y-9250000D03*
X17550000Y-9750000D03*
X17550000Y-10250000D03*
X17550000Y-10750000D03*
X17550000Y-11250000D03*
X17550000Y-11750000D03*
X17550000Y-12250000D03*
D26*
X18250000Y-12950000D03*
X18750000Y-12950000D03*
X19250000Y-12950000D03*
X19750000Y-12950000D03*
X20250000Y-12950000D03*
X20750000Y-12950000D03*
X21250000Y-12950000D03*
X21750000Y-12950000D03*
D25*
X22450000Y-12250000D03*
X22450000Y-11750000D03*
X22450000Y-11250000D03*
X22450000Y-10750000D03*
X22450000Y-10250000D03*
X22450000Y-9750000D03*
X22450000Y-9250000D03*
X22450000Y-8750000D03*
D26*
X21750000Y-8050000D03*
X21250000Y-8050000D03*
X20750000Y-8050000D03*
X20250000Y-8050000D03*
X19750000Y-8050000D03*
X19250000Y-8050000D03*
X18750000Y-8050000D03*
X18250000Y-8050000D03*
D23*
X17612500Y-25800000D03*
X19187500Y-25800000D03*
D27*
X4150000Y-7000000D03*
X4150000Y-23000000D03*
D28*
X6250000Y-8000000D03*
X6250000Y-9000000D03*
X6250000Y-10000000D03*
X6250000Y-11000000D03*
X6250000Y-12000000D03*
X6250000Y-13000000D03*
X6250000Y-14000000D03*
X6250000Y-15000000D03*
X6250000Y-16000000D03*
X6250000Y-17000000D03*
X6250000Y-18000000D03*
X6250000Y-19000000D03*
X6250000Y-20000000D03*
X6250000Y-21000000D03*
X6250000Y-22000000D03*
D29*
X20000000Y-15520000D03*
X20000000Y-16480000D03*
D30*
X22950000Y-23175000D03*
X22950000Y-21625000D03*
D14*
X14525000Y-22600000D03*
X16075000Y-22600000D03*
D12*
X26675000Y-46400000D03*
X28325000Y-46400000D03*
D31*
X17500000Y-49600000D03*
X13500000Y-49600000D03*
D32*
X31775000Y-14900000D03*
X30125000Y-14900000D03*
D14*
X6825000Y-24900000D03*
X8375000Y-24900000D03*
D30*
X26650000Y-23175000D03*
X26650000Y-21625000D03*
D29*
X18800000Y-15520000D03*
X18800000Y-16480000D03*
D22*
X10362500Y-26050000D03*
X10362500Y-27000000D03*
X10362500Y-27950000D03*
X12637500Y-27950000D03*
X12637500Y-26050000D03*
D14*
X14525000Y-20800000D03*
X16075000Y-20800000D03*
X13825000Y-41000000D03*
X15375000Y-41000000D03*
D13*
X23300000Y-4675000D03*
X23300000Y-6325000D03*
D33*
X33200000Y-16749999D03*
X33200000Y-16049999D03*
D12*
X26675000Y-40400000D03*
X28325000Y-40400000D03*
D13*
X21800000Y-4675000D03*
X21800000Y-6325000D03*
M02*
