M48
; DRILL file {KiCad 9.0.9-9.0.9~ubuntu24.04.1} date 2026-09-20T10:20:26+0000
; FORMAT={-:-/ absolute / metric / decimal}
; #@! TF.CreationDate,2026-09-20T10:20:26+00:00
; #@! TF.GenerationSoftware,Kicad,Pcbnew,9.0.9-9.0.9~ubuntu24.04.1
; #@! TF.FileFunction,Plated,1,4,PTH
FMAT,2
METRIC
; #@! TA.AperFunction,Plated,PTH,ViaDrill
T1C0.200
; #@! TA.AperFunction,Plated,PTH,ViaDrill
T2C0.300
; #@! TA.AperFunction,Plated,PTH,ComponentDrill
T3C1.000
; #@! TA.AperFunction,Plated,PTH,ComponentDrill
T4C1.300
%
G90
G05
T1
X9.0Y-14.5
X10.1Y-15.43
X11.8Y-12.6
X13.2Y-13.98
T2
X4.6Y-8.0
X4.6Y-11.0
X4.6Y-14.0
X4.6Y-17.0
X7.8Y-22.8
X8.3Y-18.6
X8.3Y-20.0
X8.3Y-21.0
X8.375Y-25.8
X9.4Y-23.5
X9.4Y-25.5
X9.4Y-28.5
X11.4Y-19.4
X11.5Y-22.4
X11.5Y-27.4
X12.85Y-1.5
X13.5Y-8.55
X13.5Y-11.15
X13.5Y-25.0
X14.525Y-23.7
X15.88Y-12.8
X16.075Y-19.9
X16.075Y-23.5
X16.075Y-24.9
X16.075Y-28.5
X16.3Y-3.9
X17.6Y-25.0
X17.9Y-15.7
X18.2Y-2.2
X18.5Y-6.5
X18.6Y-22.9
X18.8Y-17.3
X19.0Y-9.5
X19.0Y-10.5
X19.0Y-11.5
X19.2Y-6.9
X20.0Y-9.5
X20.0Y-10.5
X20.0Y-11.5
X20.0Y-17.3
X20.0Y-24.8
X21.0Y-9.5
X21.0Y-10.5
X21.0Y-11.5
X21.8Y-3.9
X22.175Y-26.7
X22.42Y-15.4
X22.95Y-24.2
X23.3Y-3.9
X23.38Y-15.3
X23.95Y-1.5
X24.32Y-15.4
X24.42Y-8.1
X25.28Y-15.3
X25.38Y-10.0
X26.3Y-3.9
X26.3Y-7.6
X26.3Y-25.9
X27.0Y-10.6
X27.1Y-8.2
X27.1Y-24.3
X27.8Y-3.9
X27.8Y-7.6
X28.6Y-16.9
X28.9Y-25.9
X33.2Y-15.2
X36.5Y-20.7
T3
X33.95Y-3.0G85X32.45Y-3.0
G05
X33.95Y-13.0G85X32.45Y-13.0
G05
T4
X37.0Y-8.6G85X37.0Y-7.4
G05
M30
