G04 #@! TF.GenerationSoftware,KiCad,Pcbnew,9.0.9-9.0.9~ubuntu24.04.1*
G04 #@! TF.CreationDate,2026-09-20T10:20:26+00:00*
G04 #@! TF.ProjectId,adv7280m-csi2,61647637-3238-4306-9d2d-637369322e6b,rev?*
G04 #@! TF.SameCoordinates,Original*
G04 #@! TF.FileFunction,Copper,L1,Top*
G04 #@! TF.FilePolarity,Positive*
%FSLAX46Y46*%
G04 Gerber Fmt 4.6, Leading zero omitted, Abs format (unit mm)*
G04 Created by KiCad (PCBNEW 9.0.9-9.0.9~ubuntu24.04.1) date 2026-09-20 10:20:26*
%MOMM*%
%LPD*%
G01*
G04 APERTURE LIST*
G04 Aperture macros list*
%AMRoundRect*
0 Rectangle with rounded corners*
0 $1 Rounding radius*
0 $2 $3 $4 $5 $6 $7 $8 $9 X,Y pos of 4 corners*
0 Add a 4 corners polygon primitive as box body*
4,1,4,$2,$3,$4,$5,$6,$7,$8,$9,$2,$3,0*
0 Add four circle primitives for the rounded corners*
1,1,$1+$1,$2,$3*
1,1,$1+$1,$4,$5*
1,1,$1+$1,$6,$7*
1,1,$1+$1,$8,$9*
0 Add four rect primitives between the rounded corners*
20,1,$1+$1,$2,$3,$4,$5,0*
20,1,$1+$1,$4,$5,$6,$7,0*
20,1,$1+$1,$6,$7,$8,$9,0*
20,1,$1+$1,$8,$9,$2,$3,0*%
%AMFreePoly0*
4,1,23,0.500000,-0.750000,0.000000,-0.750000,0.000000,-0.745722,-0.065263,-0.745722,-0.191342,-0.711940,-0.304381,-0.646677,-0.396677,-0.554381,-0.461940,-0.441342,-0.495722,-0.315263,-0.495722,-0.250000,-0.500000,-0.250000,-0.500000,0.250000,-0.495722,0.250000,-0.495722,0.315263,-0.461940,0.441342,-0.396677,0.554381,-0.304381,0.646677,-0.191342,0.711940,-0.065263,0.745722,0.000000,0.745722,
0.000000,0.750000,0.500000,0.750000,0.500000,-0.750000,0.500000,-0.750000,$1*%
%AMFreePoly1*
4,1,23,0.000000,0.745722,0.065263,0.745722,0.191342,0.711940,0.304381,0.646677,0.396677,0.554381,0.461940,0.441342,0.495722,0.315263,0.495722,0.250000,0.500000,0.250000,0.500000,-0.250000,0.495722,-0.250000,0.495722,-0.315263,0.461940,-0.441342,0.396677,-0.554381,0.304381,-0.646677,0.191342,-0.711940,0.065263,-0.745722,0.000000,-0.745722,0.000000,-0.750000,-0.500000,-0.750000,
-0.500000,0.750000,0.000000,0.750000,0.000000,0.745722,0.000000,0.745722,$1*%
G04 Aperture macros list end*
G04 #@! TA.AperFunction,SMDPad,CuDef*
%ADD10RoundRect,0.200000X-0.275000X0.200000X-0.275000X-0.200000X0.275000X-0.200000X0.275000X0.200000X0*%
G04 #@! TD*
G04 #@! TA.AperFunction,SMDPad,CuDef*
%ADD11RoundRect,0.075000X0.175000X-0.075000X0.175000X0.075000X-0.175000X0.075000X-0.175000X-0.075000X0*%
G04 #@! TD*
G04 #@! TA.AperFunction,SMDPad,CuDef*
%ADD12RoundRect,0.140000X-1.960000X0.210000X-1.960000X-0.210000X1.960000X-0.210000X1.960000X0.210000X0*%
G04 #@! TD*
G04 #@! TA.AperFunction,SMDPad,CuDef*
%ADD13RoundRect,0.150000X-0.850000X0.150000X-0.850000X-0.150000X0.850000X-0.150000X0.850000X0.150000X0*%
G04 #@! TD*
G04 #@! TA.AperFunction,SMDPad,CuDef*
%ADD14RoundRect,0.218750X-0.218750X-0.256250X0.218750X-0.256250X0.218750X0.256250X-0.218750X0.256250X0*%
G04 #@! TD*
G04 #@! TA.AperFunction,SMDPad,CuDef*
%ADD15RoundRect,0.225000X-0.250000X0.225000X-0.250000X-0.225000X0.250000X-0.225000X0.250000X0.225000X0*%
G04 #@! TD*
G04 #@! TA.AperFunction,SMDPad,CuDef*
%ADD16RoundRect,0.140000X-0.170000X0.140000X-0.170000X-0.140000X0.170000X-0.140000X0.170000X0.140000X0*%
G04 #@! TD*
G04 #@! TA.AperFunction,SMDPad,CuDef*
%ADD17RoundRect,0.225000X-0.225000X-0.250000X0.225000X-0.250000X0.225000X0.250000X-0.225000X0.250000X0*%
G04 #@! TD*
G04 #@! TA.AperFunction,SMDPad,CuDef*
%ADD18RoundRect,0.140000X0.170000X-0.140000X0.170000X0.140000X-0.170000X0.140000X-0.170000X-0.140000X0*%
G04 #@! TD*
G04 #@! TA.AperFunction,SMDPad,CuDef*
%ADD19FreePoly0,0.000000*%
G04 #@! TD*
G04 #@! TA.AperFunction,SMDPad,CuDef*
%ADD20FreePoly1,0.000000*%
G04 #@! TD*
G04 #@! TA.AperFunction,SMDPad,CuDef*
%ADD21RoundRect,0.140000X0.140000X0.170000X-0.140000X0.170000X-0.140000X-0.170000X0.140000X-0.170000X0*%
G04 #@! TD*
G04 #@! TA.AperFunction,SMDPad,CuDef*
%ADD22RoundRect,0.062500X-0.337500X-0.062500X0.337500X-0.062500X0.337500X0.062500X-0.337500X0.062500X0*%
G04 #@! TD*
G04 #@! TA.AperFunction,SMDPad,CuDef*
%ADD23RoundRect,0.062500X-0.062500X-0.337500X0.062500X-0.337500X0.062500X0.337500X-0.062500X0.337500X0*%
G04 #@! TD*
G04 #@! TA.AperFunction,HeatsinkPad*
%ADD24R,3.600000X3.600000*%
G04 #@! TD*
G04 #@! TA.AperFunction,SMDPad,CuDef*
%ADD25RoundRect,0.225000X0.250000X-0.225000X0.250000X0.225000X-0.250000X0.225000X-0.250000X-0.225000X0*%
G04 #@! TD*
G04 #@! TA.AperFunction,SMDPad,CuDef*
%ADD26RoundRect,0.150000X-0.512500X-0.150000X0.512500X-0.150000X0.512500X0.150000X-0.512500X0.150000X0*%
G04 #@! TD*
G04 #@! TA.AperFunction,SMDPad,CuDef*
%ADD27C,1.500000*%
G04 #@! TD*
G04 #@! TA.AperFunction,SMDPad,CuDef*
%ADD28RoundRect,0.140000X-0.140000X-0.170000X0.140000X-0.170000X0.140000X0.170000X-0.140000X0.170000X0*%
G04 #@! TD*
G04 #@! TA.AperFunction,SMDPad,CuDef*
%ADD29RoundRect,0.200000X0.200000X0.275000X-0.200000X0.275000X-0.200000X-0.275000X0.200000X-0.275000X0*%
G04 #@! TD*
G04 #@! TA.AperFunction,SMDPad,CuDef*
%ADD30FreePoly0,180.000000*%
G04 #@! TD*
G04 #@! TA.AperFunction,SMDPad,CuDef*
%ADD31FreePoly1,180.000000*%
G04 #@! TD*
G04 #@! TA.AperFunction,SMDPad,CuDef*
%ADD32RoundRect,0.225000X0.225000X0.250000X-0.225000X0.250000X-0.225000X-0.250000X0.225000X-0.250000X0*%
G04 #@! TD*
G04 #@! TA.AperFunction,SMDPad,CuDef*
%ADD33RoundRect,0.250000X0.750000X0.950000X-0.750000X0.950000X-0.750000X-0.950000X0.750000X-0.950000X0*%
G04 #@! TD*
G04 #@! TA.AperFunction,ComponentPad*
%ADD34O,2.300000X3.500000*%
G04 #@! TD*
G04 #@! TA.AperFunction,ComponentPad*
%ADD35O,3.500000X2.000000*%
G04 #@! TD*
G04 #@! TA.AperFunction,ViaPad*
%ADD36C,0.500000*%
G04 #@! TD*
G04 #@! TA.AperFunction,ViaPad*
%ADD37C,0.450000*%
G04 #@! TD*
G04 #@! TA.AperFunction,Conductor*
%ADD38C,0.300000*%
G04 #@! TD*
G04 #@! TA.AperFunction,Conductor*
%ADD39C,0.200000*%
G04 #@! TD*
G04 #@! TA.AperFunction,Conductor*
%ADD40C,0.180000*%
G04 #@! TD*
G04 #@! TA.AperFunction,Conductor*
%ADD41C,0.150000*%
G04 #@! TD*
G04 APERTURE END LIST*
D10*
X21800000Y-4675000D03*
X21800000Y-6325000D03*
D11*
X33200000Y-16749999D03*
X33200000Y-16049999D03*
D12*
X4150000Y-7000000D03*
X4150000Y-23000000D03*
D13*
X6250000Y-8000000D03*
X6250000Y-9000000D03*
X6250000Y-10000000D03*
X6250000Y-11000000D03*
X6250000Y-12000000D03*
X6250000Y-13000000D03*
X6250000Y-14000000D03*
X6250000Y-15000000D03*
X6250000Y-16000000D03*
X6250000Y-17000000D03*
X6250000Y-18000000D03*
X6250000Y-19000000D03*
X6250000Y-20000000D03*
X6250000Y-21000000D03*
X6250000Y-22000000D03*
D14*
X17612500Y-25800000D03*
X19187500Y-25800000D03*
D15*
X24800000Y-4725000D03*
X24800000Y-6275000D03*
D16*
X20000000Y-15520000D03*
X20000000Y-16480000D03*
D10*
X16300000Y-4675000D03*
X16300000Y-6325000D03*
D17*
X6825000Y-24900000D03*
X8375000Y-24900000D03*
D18*
X24000000Y-11480000D03*
X24000000Y-10520000D03*
D17*
X20625000Y-25800000D03*
X22175000Y-25800000D03*
D19*
X18950000Y-2700000D03*
D20*
X20250000Y-2700000D03*
D21*
X15880000Y-10500000D03*
X14920000Y-10500000D03*
D10*
X28600000Y-14175000D03*
X28600000Y-15825000D03*
D22*
X17550000Y-8750000D03*
X17550000Y-9250000D03*
X17550000Y-9750000D03*
X17550000Y-10250000D03*
X17550000Y-10750000D03*
X17550000Y-11250000D03*
X17550000Y-11750000D03*
X17550000Y-12250000D03*
D23*
X18250000Y-12950000D03*
X18750000Y-12950000D03*
X19250000Y-12950000D03*
X19750000Y-12950000D03*
X20250000Y-12950000D03*
X20750000Y-12950000D03*
X21250000Y-12950000D03*
X21750000Y-12950000D03*
D22*
X22450000Y-12250000D03*
X22450000Y-11750000D03*
X22450000Y-11250000D03*
X22450000Y-10750000D03*
X22450000Y-10250000D03*
X22450000Y-9750000D03*
X22450000Y-9250000D03*
X22450000Y-8750000D03*
D23*
X21750000Y-8050000D03*
X21250000Y-8050000D03*
X20750000Y-8050000D03*
X20250000Y-8050000D03*
X19750000Y-8050000D03*
X19250000Y-8050000D03*
X18750000Y-8050000D03*
X18250000Y-8050000D03*
D24*
X20000000Y-10500000D03*
D21*
X15880000Y-9200000D03*
X14920000Y-9200000D03*
D25*
X22950000Y-23175000D03*
X22950000Y-21625000D03*
D26*
X10362500Y-26050000D03*
X10362500Y-27000000D03*
X10362500Y-27950000D03*
X12637500Y-27950000D03*
X12637500Y-26050000D03*
D27*
X30400000Y-17800000D03*
D25*
X26650000Y-23175000D03*
X26650000Y-21625000D03*
D17*
X14525000Y-25800000D03*
X16075000Y-25800000D03*
D28*
X24420000Y-9000000D03*
X25380000Y-9000000D03*
D27*
X36500000Y-22000000D03*
D29*
X31775000Y-14900000D03*
X30125000Y-14900000D03*
D27*
X18400000Y-28300000D03*
X28900000Y-27200000D03*
D28*
X26420000Y-9000000D03*
X27380000Y-9000000D03*
D10*
X23300000Y-4675000D03*
X23300000Y-6325000D03*
D30*
X14150000Y-2700000D03*
D31*
X12850000Y-2700000D03*
D26*
X10362500Y-21050000D03*
X10362500Y-22000000D03*
X10362500Y-22950000D03*
X12637500Y-22950000D03*
X12637500Y-21050000D03*
D16*
X18800000Y-15520000D03*
X18800000Y-16480000D03*
D27*
X28200000Y-2700000D03*
D30*
X25250000Y-2700000D03*
D31*
X23950000Y-2700000D03*
D27*
X11400000Y-18200000D03*
D28*
X22420000Y-14400000D03*
X23380000Y-14400000D03*
D32*
X26975000Y-12900000D03*
X25425000Y-12900000D03*
D17*
X14525000Y-22600000D03*
X16075000Y-22600000D03*
D21*
X15880000Y-7900000D03*
X14920000Y-7900000D03*
D17*
X14525000Y-20800000D03*
X16075000Y-20800000D03*
D27*
X26300000Y-27200000D03*
D17*
X14525000Y-27600000D03*
X16075000Y-27600000D03*
D28*
X24320000Y-14400000D03*
X25280000Y-14400000D03*
D10*
X27800000Y-4675000D03*
X27800000Y-6325000D03*
D33*
X26650000Y-18600000D03*
X22950000Y-18600000D03*
D10*
X26300000Y-4675000D03*
X26300000Y-6325000D03*
D21*
X15880000Y-11800000D03*
X14920000Y-11800000D03*
D34*
X37000000Y-8000000D03*
D35*
X33200000Y-13000000D03*
X33200000Y-3000000D03*
D27*
X18600000Y-21700000D03*
D36*
X24420000Y-8100000D03*
X17600000Y-25000000D03*
X27100000Y-8199999D03*
X13500000Y-25000000D03*
X14525000Y-23700000D03*
X18600000Y-22900000D03*
X15880000Y-12800000D03*
X17900000Y-15700000D03*
X11400000Y-19400000D03*
X7800000Y-22800000D03*
X27800000Y-3900000D03*
X23300000Y-3900000D03*
X21800000Y-3900000D03*
X16300000Y-3900000D03*
X26300000Y-3900000D03*
X9400000Y-25500000D03*
X9400000Y-28500000D03*
X9400000Y-23500000D03*
X8300000Y-18600000D03*
X23950000Y-1500000D03*
X12850000Y-1500000D03*
D37*
X9000000Y-14500000D03*
X10100000Y-15430000D03*
X13200000Y-13980000D03*
X11800000Y-12600000D03*
D36*
X8300000Y-20000000D03*
X28900000Y-25900000D03*
X18500000Y-6500000D03*
X27800000Y-7600000D03*
X26300000Y-7600000D03*
X19200000Y-6900000D03*
X8300000Y-21000000D03*
X26300000Y-25900000D03*
X13500000Y-8550000D03*
X16075000Y-24900000D03*
X11500000Y-27400000D03*
X20000000Y-11500000D03*
X21000000Y-10500000D03*
X20000000Y-17300000D03*
X18200000Y-2200000D03*
X21000000Y-9500000D03*
X33200000Y-15200000D03*
X16075000Y-28500000D03*
X19000000Y-9500000D03*
X19000000Y-10500000D03*
X27000000Y-10600000D03*
X4600000Y-14000000D03*
X8375000Y-25800000D03*
X16075000Y-23500000D03*
X25280000Y-15300000D03*
X19000000Y-11500000D03*
X4600000Y-11000000D03*
X28600000Y-16900000D03*
X11500000Y-22400000D03*
X25380000Y-10000000D03*
X13500000Y-11150000D03*
X16075000Y-19900000D03*
X4600000Y-8000000D03*
X4600000Y-17000000D03*
X23380000Y-15300000D03*
X20000000Y-9500000D03*
X21000000Y-11500000D03*
X22175000Y-26700000D03*
X18800000Y-17300000D03*
X27100000Y-24300000D03*
X36500000Y-20700000D03*
X20000000Y-10500000D03*
X22950000Y-24200000D03*
X20000000Y-24800000D03*
X22420000Y-15400000D03*
X24320000Y-15400000D03*
D38*
X14000000Y-26050000D02*
X14525000Y-25800000D01*
X17613000Y-26900000D02*
X18400000Y-27700000D01*
X23100000Y-10250000D02*
X23600000Y-9750000D01*
X22450000Y-10250000D02*
X23100000Y-10250000D01*
X12637500Y-26050000D02*
X14000000Y-26050000D01*
X18400000Y-27700000D02*
X18400000Y-28300000D01*
X13500000Y-25600000D02*
X13100000Y-26000000D01*
X13100000Y-26000000D02*
X12637500Y-26050000D01*
X17612500Y-25800000D02*
X17613000Y-26900000D01*
X14525000Y-25800000D02*
X14525000Y-27600000D01*
X24420000Y-9000000D02*
X24420000Y-8100000D01*
X26420000Y-9000000D02*
X27100000Y-8199999D01*
X17600000Y-25000000D02*
X17612500Y-25800000D01*
X13500000Y-25000000D02*
X13500000Y-25600000D01*
X23600000Y-9750000D02*
X24420000Y-9000000D01*
X15880000Y-11800000D02*
X15880000Y-12800000D01*
D39*
X20250000Y-15000000D02*
X20000000Y-15250000D01*
D38*
X16900000Y-9750000D02*
X16300000Y-10350000D01*
X12637500Y-21050000D02*
X14000000Y-21050000D01*
D39*
X20250000Y-12950000D02*
X20250000Y-15000000D01*
X20000000Y-15300000D02*
X18800000Y-15300000D01*
X20000000Y-15250000D02*
X20000000Y-15520000D01*
X18200000Y-15520000D02*
X17900000Y-15700000D01*
D38*
X16300000Y-10350000D02*
X15880000Y-10500000D01*
D39*
X18800000Y-15520000D02*
X18200000Y-15520000D01*
D38*
X14525000Y-20800000D02*
X14525000Y-22600000D01*
X14525000Y-22600000D02*
X14525000Y-23700000D01*
X18600000Y-22900000D02*
X18600000Y-21700000D01*
X14000000Y-21050000D02*
X14525000Y-20800000D01*
X17550000Y-9750000D02*
X16900000Y-9750000D01*
X15880000Y-10500000D02*
X15880000Y-11800000D01*
D39*
X18800000Y-15300000D02*
X18800000Y-15520000D01*
D38*
X9400000Y-23500000D02*
X9900000Y-23000000D01*
X9900000Y-28000000D02*
X10362500Y-27950000D01*
X9400000Y-28500000D02*
X9900000Y-28000000D01*
X9900000Y-26000000D02*
X10362500Y-26050000D01*
X15350000Y-5600000D02*
X15350000Y-7300000D01*
X23300000Y-4675000D02*
X23300000Y-3900000D01*
X7200000Y-24300000D02*
X6825000Y-24900000D01*
X11400000Y-19400000D02*
X11400000Y-19800000D01*
X26300000Y-4675000D02*
X26300000Y-3900000D01*
X15880000Y-7900000D02*
X15880000Y-9200000D01*
X11400000Y-19800000D02*
X10600000Y-20600000D01*
X9400000Y-25500000D02*
X9900000Y-26000000D01*
X7250000Y-22000000D02*
X7800000Y-22550000D01*
X11400000Y-18200000D02*
X11400000Y-19400000D01*
X6250000Y-22000000D02*
X7250000Y-22000000D01*
X16300000Y-4675000D02*
X15350000Y-5600000D01*
X9900000Y-23000000D02*
X10362500Y-22950000D01*
X27800000Y-4675000D02*
X27800000Y-3900000D01*
X7800000Y-23600000D02*
X7200000Y-24300000D01*
X15880000Y-9200000D02*
X16600000Y-9250000D01*
X15350000Y-7300000D02*
X15880000Y-7900000D01*
X7800000Y-22800000D02*
X7800000Y-23600000D01*
X16600000Y-9250000D02*
X17550000Y-9250000D01*
X10600000Y-20600000D02*
X10362500Y-21050000D01*
X21800000Y-4675000D02*
X21800000Y-3900000D01*
X16300000Y-4675000D02*
X16300000Y-3900000D01*
X7800000Y-22550000D02*
X7800000Y-22800000D01*
D39*
X21800000Y-6325000D02*
X21500000Y-6000000D01*
X19750000Y-8050000D02*
X19750000Y-3500000D01*
X20250000Y-3000000D02*
X20250000Y-2700000D01*
X19750000Y-3500000D02*
X20250000Y-3000000D01*
X21500000Y-6000000D02*
X19750000Y-6000000D01*
X8300000Y-18600000D02*
X8000000Y-18300000D01*
X8000000Y-18300000D02*
X7250000Y-18000000D01*
X12850000Y-2700000D02*
X12850000Y-1500000D01*
X7250000Y-18000000D02*
X6250000Y-18000000D01*
X23950000Y-2700000D02*
X23950000Y-1500000D01*
D40*
X19750000Y-13500000D02*
X18320000Y-14930000D01*
X19750000Y-12950000D02*
X19750000Y-13500000D01*
X8500000Y-15000000D02*
X6250000Y-15000000D01*
X18320000Y-14930000D02*
X10600000Y-14930000D01*
X10600000Y-14930000D02*
X10100000Y-15430000D01*
X9000000Y-14500000D02*
X8500000Y-15000000D01*
X9900000Y-14600000D02*
X9400000Y-15100000D01*
X18150000Y-14600000D02*
X9900000Y-14600000D01*
X7800000Y-16000000D02*
X6250000Y-16000000D01*
X7800000Y-17750000D02*
X7800000Y-16000000D01*
X9400000Y-17750000D02*
X7800000Y-17750000D01*
X19250000Y-13500000D02*
X18150000Y-14600000D01*
X19250000Y-12950000D02*
X19250000Y-13500000D01*
X9400000Y-15100000D02*
X9400000Y-17750000D01*
X18220000Y-13980000D02*
X13200000Y-13980000D01*
X11800000Y-12300000D02*
X8500000Y-9000000D01*
X8500000Y-9000000D02*
X6250000Y-9000000D01*
X18750000Y-13450000D02*
X18220000Y-13980000D01*
X18750000Y-12950000D02*
X18750000Y-13450000D01*
X11800000Y-12600000D02*
X11800000Y-12300000D01*
X18250000Y-12950000D02*
X18250000Y-13350000D01*
X18250000Y-13350000D02*
X17950000Y-13650000D01*
X13500000Y-13200000D02*
X9600000Y-13200000D01*
X17950000Y-13650000D02*
X13950000Y-13650000D01*
X8400000Y-10600000D02*
X8400000Y-11950000D01*
X9600000Y-10600000D02*
X8400000Y-10600000D01*
X13950000Y-13650000D02*
X13500000Y-13200000D01*
X9600000Y-13200000D02*
X9600000Y-10600000D01*
X7800000Y-10000000D02*
X6250000Y-10000000D01*
X8400000Y-11950000D02*
X7800000Y-11950000D01*
X7800000Y-11950000D02*
X7800000Y-10000000D01*
D41*
X35700000Y-15450000D02*
X35700000Y-9300000D01*
X35700000Y-9300000D02*
X37000000Y-8000000D01*
X33200000Y-16749998D02*
X34400000Y-16750000D01*
X31775000Y-14900000D02*
X31900000Y-15200000D01*
X31900000Y-16750000D02*
X33200000Y-16749998D01*
X31900000Y-15200000D02*
X31900000Y-16750000D01*
X34400000Y-16750000D02*
X35700000Y-15450000D01*
D39*
X17100000Y-6325000D02*
X18250000Y-7475000D01*
X14550000Y-3100000D02*
X14150000Y-2700000D01*
X17100000Y-6325000D02*
X17100000Y-3100000D01*
X16300000Y-6325000D02*
X17100000Y-6325000D01*
X17100000Y-3100000D02*
X14550000Y-3100000D01*
X18250000Y-7475000D02*
X18250000Y-8050000D01*
X28900000Y-25900000D02*
X28900000Y-27200000D01*
X18500000Y-7150000D02*
X18500000Y-6500000D01*
X8300000Y-20000000D02*
X6250000Y-20000000D01*
X27800000Y-6325000D02*
X27800000Y-7600000D01*
X18750000Y-7400000D02*
X18500000Y-7150000D01*
X18750000Y-8050000D02*
X18750000Y-7400000D01*
X26300000Y-25900000D02*
X26300000Y-27200000D01*
X8300000Y-21000000D02*
X6250000Y-21000000D01*
X19200000Y-7600000D02*
X19200000Y-6900000D01*
X26300000Y-6325000D02*
X26300000Y-7600000D01*
X19250000Y-8050000D02*
X19200000Y-7600000D01*
X27450000Y-2700000D02*
X28200000Y-2700000D01*
X25250000Y-2700000D02*
X27450000Y-2700000D01*
X20250000Y-7550000D02*
X20250000Y-8050000D01*
X24000000Y-5200000D02*
X24400000Y-4800000D01*
X24000000Y-6325000D02*
X24000000Y-5200000D01*
X23300000Y-6325000D02*
X24000000Y-6325000D01*
X20700000Y-7100000D02*
X20250000Y-7550000D01*
X23300000Y-6325000D02*
X22500000Y-7100000D01*
X22500000Y-7100000D02*
X20700000Y-7100000D01*
X25250000Y-4200000D02*
X25250000Y-2700000D01*
X24800000Y-4725000D02*
X25250000Y-4200000D01*
X24400000Y-4800000D02*
X24800000Y-4725000D01*
X18950000Y-2700000D02*
X18200000Y-2200000D01*
X22175000Y-25800000D02*
X22175000Y-26700000D01*
X14920000Y-10500000D02*
X13500000Y-11150000D01*
X26650000Y-23175000D02*
X27100000Y-24300000D01*
X17550000Y-10250000D02*
X18300000Y-10250000D01*
X6250000Y-8000000D02*
X4600000Y-8000000D01*
X24800000Y-6275000D02*
X24800000Y-7000000D01*
X27380000Y-9800000D02*
X27000000Y-10200000D01*
X23380000Y-14400000D02*
X23380000Y-15300000D01*
X8375000Y-24900000D02*
X8375000Y-25800000D01*
X24800000Y-7000000D02*
X25380000Y-7600000D01*
X6250000Y-17000000D02*
X4600000Y-17000000D01*
X36500000Y-22000000D02*
X36500000Y-20700000D01*
X6250000Y-11000000D02*
X4600000Y-11000000D01*
X27000000Y-10200000D02*
X27000000Y-10600000D01*
X10362500Y-27000000D02*
X11500000Y-27400000D01*
X6250000Y-14000000D02*
X4600000Y-14000000D01*
X16075000Y-22600000D02*
X16075000Y-23500000D01*
X16075000Y-20800000D02*
X16075000Y-19900000D01*
X16075000Y-25800000D02*
X16075000Y-24900000D01*
X18800000Y-16480000D02*
X18800000Y-17300000D01*
X14920000Y-7900000D02*
X13500000Y-8550000D01*
X22950000Y-23175000D02*
X22950000Y-24200000D01*
X33200000Y-16049999D02*
X33200000Y-15200000D01*
X27380000Y-9000000D02*
X27380000Y-9800000D01*
X13500000Y-11150000D02*
X14920000Y-11800000D01*
X13500000Y-8550000D02*
X14920000Y-9200000D01*
X16075000Y-27600000D02*
X16075000Y-28500000D01*
X25280000Y-14400000D02*
X25280000Y-15300000D01*
X25380000Y-9000000D02*
X25380000Y-10000000D01*
X10362500Y-22000000D02*
X11500000Y-22400000D01*
X17550000Y-8750000D02*
X18300000Y-8750000D01*
X20000000Y-16480000D02*
X20000000Y-17300000D01*
X25380000Y-7600000D02*
X25380000Y-9000000D01*
X28600000Y-15825000D02*
X28600000Y-16900000D01*
D41*
X30400000Y-16800000D02*
X30400000Y-17800000D01*
X29000000Y-14100000D02*
X29800000Y-14900000D01*
X29975000Y-16399999D02*
X30400000Y-16800000D01*
X26975000Y-12900000D02*
X27500000Y-13400000D01*
X29800000Y-14900000D02*
X30125000Y-14900000D01*
X27500000Y-13400000D02*
X28200000Y-14100000D01*
X30125000Y-14900000D02*
X29975000Y-16399999D01*
X28200000Y-14100000D02*
X29000000Y-14100000D01*
X28200000Y-14100000D02*
X28600000Y-14100000D01*
X28600000Y-14100000D02*
X28600000Y-14175000D01*
X22450000Y-12250000D02*
X23300000Y-12250000D01*
X23950000Y-12900000D02*
X25425000Y-12900000D01*
X23300000Y-12250000D02*
X23950000Y-12900000D01*
D39*
X23400000Y-10750000D02*
X23700000Y-10520000D01*
X23700000Y-10520000D02*
X24000000Y-10520000D01*
X22450000Y-10750000D02*
X23400000Y-10750000D01*
X23400000Y-11250000D02*
X23700000Y-11480000D01*
X23700000Y-11480000D02*
X24000000Y-11480000D01*
X22450000Y-11250000D02*
X23400000Y-11250000D01*
X26650000Y-18600000D02*
X26650000Y-21625000D01*
X21850000Y-16900000D02*
X26000000Y-16900000D01*
X26000000Y-16900000D02*
X26650000Y-17550000D01*
X21250000Y-16300000D02*
X21850000Y-16900000D01*
X21250000Y-12950000D02*
X21250000Y-16300000D01*
X26650000Y-17550000D02*
X26650000Y-18600000D01*
X20750000Y-17600000D02*
X21750000Y-18600000D01*
X21750000Y-18600000D02*
X22950000Y-18600000D01*
X20750000Y-12950000D02*
X20750000Y-17600000D01*
X22950000Y-18600000D02*
X22950000Y-21625000D01*
D38*
X20000000Y-24800000D02*
X19500000Y-25400000D01*
X22420000Y-14270000D02*
X22420000Y-14400000D01*
X21750000Y-12950000D02*
X21750000Y-13600000D01*
X19500000Y-25400000D02*
X19187500Y-25800000D01*
X20000000Y-24800000D02*
X20400000Y-25400000D01*
X21750000Y-13600000D02*
X22420000Y-14270000D01*
X20400000Y-25400000D02*
X20625000Y-25800000D01*
X24320000Y-15400000D02*
X24320000Y-14400000D01*
X22420000Y-14400000D02*
X22420000Y-15400000D01*
G04 #@! TA.AperFunction,Conductor*
G36*
X21518513Y-8715961D02*
G01*
X21520873Y-8715685D01*
X21554458Y-8726515D01*
X21582491Y-8740220D01*
X21645740Y-8749434D01*
X21709238Y-8778576D01*
X21746903Y-8837425D01*
X21750566Y-8854262D01*
X21759779Y-8917508D01*
X21773484Y-8945543D01*
X21785241Y-9014416D01*
X21773484Y-9054457D01*
X21759781Y-9082488D01*
X21759780Y-9082491D01*
X21749500Y-9153051D01*
X21749500Y-9153055D01*
X21749500Y-9153056D01*
X21749500Y-9346950D01*
X21759779Y-9417507D01*
X21759779Y-9417508D01*
X21773484Y-9445543D01*
X21785241Y-9514416D01*
X21773484Y-9554457D01*
X21759781Y-9582488D01*
X21759780Y-9582491D01*
X21749500Y-9653051D01*
X21749500Y-9653055D01*
X21749500Y-9653056D01*
X21749500Y-9846950D01*
X21759779Y-9917507D01*
X21759779Y-9917508D01*
X21773484Y-9945543D01*
X21785241Y-10014416D01*
X21773484Y-10054457D01*
X21768330Y-10065001D01*
X21759780Y-10082491D01*
X21749500Y-10153051D01*
X21749500Y-10153055D01*
X21749500Y-10153056D01*
X21749500Y-10346950D01*
X21759779Y-10417507D01*
X21759779Y-10417508D01*
X21773484Y-10445543D01*
X21785241Y-10514416D01*
X21773484Y-10554457D01*
X21759781Y-10582488D01*
X21759780Y-10582491D01*
X21749500Y-10653051D01*
X21749500Y-10653055D01*
X21749500Y-10653056D01*
X21749500Y-10846950D01*
X21759779Y-10917507D01*
X21759779Y-10917508D01*
X21773484Y-10945543D01*
X21785241Y-11014416D01*
X21773484Y-11054457D01*
X21759781Y-11082488D01*
X21759780Y-11082491D01*
X21749500Y-11153051D01*
X21749500Y-11153055D01*
X21749500Y-11153056D01*
X21749500Y-11346950D01*
X21759779Y-11417507D01*
X21759779Y-11417508D01*
X21773484Y-11445543D01*
X21785241Y-11514416D01*
X21773484Y-11554457D01*
X21759781Y-11582488D01*
X21759780Y-11582491D01*
X21749500Y-11653051D01*
X21749500Y-11653055D01*
X21749500Y-11653056D01*
X21749500Y-11846950D01*
X21759779Y-11917507D01*
X21759779Y-11917508D01*
X21773484Y-11945543D01*
X21785241Y-12014416D01*
X21781866Y-12032059D01*
X21778758Y-12043669D01*
X21759780Y-12082491D01*
X21749519Y-12152915D01*
X21747645Y-12159920D01*
X21733092Y-12183809D01*
X21721422Y-12209239D01*
X21715162Y-12213245D01*
X21711297Y-12219591D01*
X21686136Y-12231822D01*
X21662573Y-12246903D01*
X21649070Y-12249840D01*
X21648459Y-12250138D01*
X21647971Y-12250079D01*
X21645737Y-12250566D01*
X21582491Y-12259779D01*
X21554457Y-12273484D01*
X21485584Y-12285241D01*
X21445543Y-12273484D01*
X21417511Y-12259781D01*
X21417509Y-12259780D01*
X21407103Y-12258264D01*
X21346949Y-12249500D01*
X21346943Y-12249500D01*
X21153049Y-12249500D01*
X21082492Y-12259779D01*
X21082491Y-12259779D01*
X21054457Y-12273484D01*
X20985584Y-12285241D01*
X20945543Y-12273484D01*
X20917511Y-12259781D01*
X20917509Y-12259780D01*
X20907103Y-12258264D01*
X20846949Y-12249500D01*
X20846943Y-12249500D01*
X20653049Y-12249500D01*
X20582492Y-12259779D01*
X20582491Y-12259779D01*
X20554457Y-12273484D01*
X20485584Y-12285241D01*
X20445543Y-12273484D01*
X20417511Y-12259781D01*
X20417509Y-12259780D01*
X20407103Y-12258264D01*
X20346949Y-12249500D01*
X20346943Y-12249500D01*
X20153049Y-12249500D01*
X20082492Y-12259779D01*
X20082491Y-12259779D01*
X20054457Y-12273484D01*
X19985584Y-12285241D01*
X19945543Y-12273484D01*
X19917511Y-12259781D01*
X19917509Y-12259780D01*
X19907103Y-12258264D01*
X19846949Y-12249500D01*
X19846943Y-12249500D01*
X19653049Y-12249500D01*
X19582492Y-12259779D01*
X19582491Y-12259779D01*
X19554457Y-12273484D01*
X19485584Y-12285241D01*
X19445543Y-12273484D01*
X19417511Y-12259781D01*
X19417509Y-12259780D01*
X19407103Y-12258264D01*
X19346949Y-12249500D01*
X19346943Y-12249500D01*
X19153049Y-12249500D01*
X19082492Y-12259779D01*
X19082491Y-12259779D01*
X19054457Y-12273484D01*
X18985584Y-12285241D01*
X18945543Y-12273484D01*
X18917511Y-12259781D01*
X18917509Y-12259780D01*
X18907103Y-12258264D01*
X18846949Y-12249500D01*
X18846943Y-12249500D01*
X18653049Y-12249500D01*
X18582492Y-12259779D01*
X18582491Y-12259779D01*
X18554457Y-12273484D01*
X18485584Y-12285241D01*
X18467941Y-12281866D01*
X18456330Y-12278758D01*
X18417509Y-12259780D01*
X18347082Y-12249519D01*
X18340079Y-12247645D01*
X18316189Y-12233092D01*
X18290760Y-12221422D01*
X18286753Y-12215162D01*
X18280408Y-12211297D01*
X18268176Y-12186136D01*
X18253096Y-12162573D01*
X18250158Y-12149071D01*
X18249861Y-12148459D01*
X18249919Y-12147970D01*
X18249433Y-12145735D01*
X18240220Y-12082491D01*
X18226516Y-12054460D01*
X18214756Y-11985591D01*
X18226515Y-11945540D01*
X18240220Y-11917509D01*
X18250500Y-11846949D01*
X18250499Y-11653052D01*
X18250127Y-11650500D01*
X18240220Y-11582493D01*
X18240220Y-11582491D01*
X18226516Y-11554460D01*
X18214756Y-11485591D01*
X18226515Y-11445540D01*
X18240220Y-11417509D01*
X18250500Y-11346949D01*
X18250499Y-11153052D01*
X18250054Y-11150000D01*
X18242312Y-11096853D01*
X18240220Y-11082491D01*
X18226516Y-11054460D01*
X18214756Y-10985591D01*
X18226515Y-10945540D01*
X18240220Y-10917509D01*
X18250500Y-10846949D01*
X18250499Y-10653052D01*
X18250352Y-10652046D01*
X18240220Y-10582492D01*
X18240219Y-10582490D01*
X18197739Y-10495596D01*
X18185980Y-10426725D01*
X18192416Y-10404046D01*
X18191354Y-10403737D01*
X18194009Y-10394626D01*
X18196593Y-10375001D01*
X18196592Y-10375000D01*
X18103468Y-10375000D01*
X18094812Y-10372458D01*
X18085882Y-10373747D01*
X18048995Y-10362394D01*
X18046948Y-10361393D01*
X18042128Y-10356988D01*
X18036429Y-10355315D01*
X18021714Y-10338334D01*
X17995371Y-10314260D01*
X17992953Y-10305141D01*
X17990674Y-10302511D01*
X17983396Y-10269097D01*
X17977464Y-10246724D01*
X17998913Y-10180228D01*
X18047011Y-10138575D01*
X18049061Y-10137572D01*
X18050820Y-10137166D01*
X18051899Y-10136231D01*
X18059803Y-10135090D01*
X18103467Y-10125000D01*
X18196592Y-10125000D01*
X18196593Y-10124998D01*
X18194009Y-10105370D01*
X18191354Y-10096261D01*
X18194349Y-10095388D01*
X18186263Y-10042208D01*
X18197737Y-10004407D01*
X18240220Y-9917509D01*
X18250500Y-9846949D01*
X18250499Y-9653052D01*
X18248031Y-9636113D01*
X18243076Y-9602098D01*
X18240220Y-9582491D01*
X18226516Y-9554460D01*
X18214756Y-9485591D01*
X18226515Y-9445540D01*
X18240220Y-9417509D01*
X18250500Y-9346949D01*
X18250499Y-9153052D01*
X18250054Y-9150000D01*
X18240220Y-9082492D01*
X18240219Y-9082490D01*
X18197739Y-8995596D01*
X18185980Y-8926725D01*
X18187295Y-8918119D01*
X18199884Y-8851481D01*
X18214270Y-8823320D01*
X18227056Y-8794418D01*
X18230042Y-8792448D01*
X18231671Y-8789260D01*
X18258994Y-8773350D01*
X18285380Y-8755946D01*
X18290100Y-8755238D01*
X18292051Y-8754103D01*
X18296402Y-8754294D01*
X18321728Y-8750499D01*
X18346948Y-8750499D01*
X18346950Y-8750499D01*
X18384854Y-8744977D01*
X18417509Y-8740220D01*
X18445539Y-8726516D01*
X18514409Y-8714756D01*
X18554459Y-8726515D01*
X18582491Y-8740220D01*
X18653051Y-8750500D01*
X18846948Y-8750499D01*
X18846950Y-8750499D01*
X18884854Y-8744977D01*
X18917509Y-8740220D01*
X18945539Y-8726516D01*
X19014409Y-8714756D01*
X19054459Y-8726515D01*
X19082491Y-8740220D01*
X19153051Y-8750500D01*
X19346948Y-8750499D01*
X19346950Y-8750499D01*
X19384854Y-8744977D01*
X19417509Y-8740220D01*
X19445539Y-8726516D01*
X19514409Y-8714756D01*
X19554459Y-8726515D01*
X19582491Y-8740220D01*
X19653051Y-8750500D01*
X19846948Y-8750499D01*
X19846950Y-8750499D01*
X19884854Y-8744977D01*
X19917509Y-8740220D01*
X19945539Y-8726516D01*
X20014409Y-8714756D01*
X20054459Y-8726515D01*
X20082491Y-8740220D01*
X20153051Y-8750500D01*
X20346948Y-8750499D01*
X20346950Y-8750499D01*
X20384854Y-8744977D01*
X20417509Y-8740220D01*
X20445539Y-8726516D01*
X20514409Y-8714756D01*
X20554459Y-8726515D01*
X20582491Y-8740220D01*
X20653051Y-8750500D01*
X20846948Y-8750499D01*
X20846950Y-8750499D01*
X20884854Y-8744977D01*
X20917509Y-8740220D01*
X20945539Y-8726516D01*
X21014409Y-8714756D01*
X21054459Y-8726515D01*
X21082491Y-8740220D01*
X21153051Y-8750500D01*
X21346948Y-8750499D01*
X21346950Y-8750499D01*
X21384854Y-8744977D01*
X21417509Y-8740220D01*
X21445539Y-8726516D01*
X21448865Y-8725948D01*
X21451476Y-8723804D01*
X21483068Y-8720107D01*
X21514409Y-8714756D01*
X21518513Y-8715961D01*
G37*
G04 #@! TD.AperFunction*
G04 #@! TA.AperFunction,Conductor*
G36*
X17070973Y-6869469D02*
G01*
X17099228Y-6890621D01*
X17788607Y-7579999D01*
X17822092Y-7641322D01*
X17824384Y-7673564D01*
X17824500Y-7673564D01*
X17824500Y-7675199D01*
X17824602Y-7676634D01*
X17824500Y-7678042D01*
X17824500Y-8251000D01*
X17804815Y-8318039D01*
X17752011Y-8363794D01*
X17700500Y-8375000D01*
X17675000Y-8375000D01*
X17675000Y-8626000D01*
X17672449Y-8634685D01*
X17673738Y-8643647D01*
X17662759Y-8667687D01*
X17655315Y-8693039D01*
X17648474Y-8698966D01*
X17644713Y-8707203D01*
X17622478Y-8721492D01*
X17602511Y-8738794D01*
X17591996Y-8741081D01*
X17585935Y-8744977D01*
X17551000Y-8750000D01*
X17549000Y-8750000D01*
X17481961Y-8730315D01*
X17436206Y-8677511D01*
X17425000Y-8626000D01*
X17425000Y-8375000D01*
X17175885Y-8375000D01*
X17130369Y-8380992D01*
X17030490Y-8427567D01*
X16952566Y-8505491D01*
X16905991Y-8605370D01*
X16905990Y-8605375D01*
X16900552Y-8646682D01*
X16905396Y-8657123D01*
X16902914Y-8675143D01*
X16905503Y-8693147D01*
X16898247Y-8709035D01*
X16895864Y-8726340D01*
X16884033Y-8740157D01*
X16876478Y-8756703D01*
X16861784Y-8766146D01*
X16850424Y-8779415D01*
X16833001Y-8784643D01*
X16817700Y-8794477D01*
X16784167Y-8799298D01*
X16783502Y-8799498D01*
X16782765Y-8799500D01*
X16619924Y-8799500D01*
X16611334Y-8799202D01*
X16543294Y-8794477D01*
X16445909Y-8787714D01*
X16380395Y-8763432D01*
X16338408Y-8707585D01*
X16330500Y-8664012D01*
X16330500Y-8431898D01*
X16350185Y-8364859D01*
X16354730Y-8358264D01*
X16413852Y-8278157D01*
X16447679Y-8181486D01*
X16457708Y-8152826D01*
X16457708Y-8152823D01*
X16457710Y-8152819D01*
X16460500Y-8123066D01*
X16460500Y-7676934D01*
X16460337Y-7675199D01*
X16458950Y-7660404D01*
X16457710Y-7647181D01*
X16457708Y-7647177D01*
X16457708Y-7647173D01*
X16425033Y-7553796D01*
X16413852Y-7521843D01*
X16334999Y-7415001D01*
X16228157Y-7336148D01*
X16228155Y-7336147D01*
X16102826Y-7292291D01*
X16102814Y-7292289D01*
X16073070Y-7289500D01*
X16073066Y-7289500D01*
X15997730Y-7289500D01*
X15964754Y-7279817D01*
X15931687Y-7270449D01*
X15931073Y-7269927D01*
X15930691Y-7269815D01*
X15904795Y-7247592D01*
X15890661Y-7231591D01*
X15861032Y-7168314D01*
X15870316Y-7099064D01*
X15915566Y-7045827D01*
X15982415Y-7025505D01*
X15983401Y-7025499D01*
X16622872Y-7025499D01*
X16682483Y-7019091D01*
X16817331Y-6968796D01*
X16932546Y-6882546D01*
X16932546Y-6882545D01*
X16937236Y-6879035D01*
X17002700Y-6854618D01*
X17070973Y-6869469D01*
G37*
G04 #@! TD.AperFunction*
G04 #@! TA.AperFunction,Conductor*
G36*
X35271945Y-13470901D02*
G01*
X35315397Y-13525616D01*
X35324500Y-13572250D01*
X35324500Y-15243100D01*
X35304815Y-15310139D01*
X35288181Y-15330781D01*
X34280782Y-16338179D01*
X34219459Y-16371664D01*
X34193101Y-16374498D01*
X33811245Y-16374498D01*
X33744206Y-16354813D01*
X33698451Y-16302009D01*
X33688507Y-16232851D01*
X33692200Y-16215796D01*
X33693769Y-16210411D01*
X33695140Y-16199999D01*
X32704860Y-16199999D01*
X32706230Y-16210411D01*
X32707802Y-16215804D01*
X32707748Y-16242110D01*
X32711492Y-16268145D01*
X32707678Y-16276495D01*
X32707660Y-16285673D01*
X32693395Y-16307770D01*
X32682467Y-16331701D01*
X32674744Y-16336663D01*
X32669767Y-16344375D01*
X32645818Y-16355253D01*
X32623689Y-16369475D01*
X32610258Y-16371406D01*
X32606153Y-16373271D01*
X32588754Y-16374498D01*
X32399500Y-16374498D01*
X32332461Y-16354813D01*
X32286706Y-16302009D01*
X32275500Y-16250498D01*
X32275500Y-15899998D01*
X32704859Y-15899998D01*
X32704860Y-15899999D01*
X33050000Y-15899999D01*
X33350000Y-15899999D01*
X33695140Y-15899999D01*
X33695140Y-15899998D01*
X33693769Y-15889589D01*
X33693767Y-15889581D01*
X33645331Y-15785710D01*
X33564288Y-15704667D01*
X33460417Y-15656231D01*
X33460409Y-15656229D01*
X33413095Y-15650000D01*
X33413078Y-15649999D01*
X33350000Y-15649999D01*
X33350000Y-15899999D01*
X33050000Y-15899999D01*
X33050000Y-15649999D01*
X33049999Y-15649998D01*
X32986914Y-15649999D01*
X32939589Y-15656229D01*
X32939582Y-15656231D01*
X32835711Y-15704667D01*
X32754668Y-15785710D01*
X32706232Y-15889581D01*
X32706230Y-15889589D01*
X32704859Y-15899998D01*
X32275500Y-15899998D01*
X32275500Y-15637320D01*
X32295185Y-15570281D01*
X32325192Y-15538051D01*
X32332546Y-15532546D01*
X32418796Y-15417331D01*
X32469091Y-15282483D01*
X32475500Y-15222873D01*
X32475499Y-14577128D01*
X32469091Y-14517517D01*
X32468269Y-14515314D01*
X32431725Y-14417333D01*
X32426741Y-14347641D01*
X32460226Y-14286318D01*
X32521549Y-14252834D01*
X32547907Y-14250000D01*
X33050000Y-14250000D01*
X33050000Y-13500000D01*
X33350000Y-13500000D01*
X33350000Y-14250000D01*
X34048382Y-14250000D01*
X34242705Y-14219221D01*
X34429835Y-14158418D01*
X34605143Y-14069095D01*
X34764321Y-13953444D01*
X34903444Y-13814321D01*
X35019097Y-13655141D01*
X35090015Y-13515956D01*
X35137989Y-13465159D01*
X35205810Y-13448364D01*
X35271945Y-13470901D01*
G37*
G04 #@! TD.AperFunction*
G04 #@! TA.AperFunction,Conductor*
G36*
X40504853Y-300881D02*
G01*
X40677919Y-314502D01*
X40697131Y-317545D01*
X40861180Y-356929D01*
X40879675Y-362939D01*
X41005347Y-414993D01*
X41035547Y-427503D01*
X41052884Y-436337D01*
X41196726Y-524484D01*
X41212467Y-535920D01*
X41340753Y-645486D01*
X41354513Y-659246D01*
X41464079Y-787532D01*
X41475515Y-803273D01*
X41563662Y-947115D01*
X41572496Y-964452D01*
X41637058Y-1120317D01*
X41643071Y-1138824D01*
X41682453Y-1302867D01*
X41685497Y-1322084D01*
X41699118Y-1495145D01*
X41699500Y-1504874D01*
X41699500Y-30495124D01*
X41699118Y-30504853D01*
X41685497Y-30677915D01*
X41682453Y-30697133D01*
X41643070Y-30861176D01*
X41637057Y-30879682D01*
X41572497Y-31035541D01*
X41563664Y-31052877D01*
X41475513Y-31196729D01*
X41464075Y-31212472D01*
X41354511Y-31340753D01*
X41340753Y-31354511D01*
X41212472Y-31464075D01*
X41196729Y-31475513D01*
X41052877Y-31563664D01*
X41035541Y-31572497D01*
X40879682Y-31637057D01*
X40861176Y-31643070D01*
X40697133Y-31682453D01*
X40677915Y-31685497D01*
X40504854Y-31699118D01*
X40495125Y-31699500D01*
X1504875Y-31699500D01*
X1495146Y-31699118D01*
X1322084Y-31685497D01*
X1302867Y-31682453D01*
X1138824Y-31643071D01*
X1120317Y-31637058D01*
X964452Y-31572496D01*
X947115Y-31563662D01*
X803273Y-31475515D01*
X787532Y-31464079D01*
X659246Y-31354513D01*
X645486Y-31340753D01*
X535920Y-31212467D01*
X524484Y-31196726D01*
X436337Y-31052884D01*
X427503Y-31035547D01*
X414993Y-31005347D01*
X362939Y-30879675D01*
X356929Y-30861180D01*
X317545Y-30697131D01*
X314502Y-30677915D01*
X300882Y-30504853D01*
X300500Y-30495124D01*
X300500Y-28427525D01*
X8849500Y-28427525D01*
X8849500Y-28572475D01*
X8882456Y-28695466D01*
X8887017Y-28712488D01*
X8959488Y-28838011D01*
X8959490Y-28838013D01*
X8959491Y-28838015D01*
X9061985Y-28940509D01*
X9061986Y-28940510D01*
X9061988Y-28940511D01*
X9187511Y-29012982D01*
X9187512Y-29012982D01*
X9187515Y-29012984D01*
X9327525Y-29050500D01*
X9327528Y-29050500D01*
X9472472Y-29050500D01*
X9472475Y-29050500D01*
X9612485Y-29012984D01*
X9738015Y-28940509D01*
X9840509Y-28838015D01*
X9912984Y-28712485D01*
X9931761Y-28642404D01*
X9968126Y-28582746D01*
X10030973Y-28552217D01*
X10051536Y-28550500D01*
X10929270Y-28550500D01*
X10959699Y-28547646D01*
X10959701Y-28547646D01*
X11023790Y-28525219D01*
X11087882Y-28502793D01*
X11197150Y-28422150D01*
X11277793Y-28312882D01*
X11313747Y-28210131D01*
X11322646Y-28184701D01*
X11322646Y-28184699D01*
X11325500Y-28154269D01*
X11325500Y-27745730D01*
X11322646Y-27715300D01*
X11322646Y-27715298D01*
X11277793Y-27587119D01*
X11277792Y-27587117D01*
X11270863Y-27577728D01*
X11218828Y-27507224D01*
X11194859Y-27441598D01*
X11208116Y-27377297D01*
X11260165Y-27275146D01*
X11260166Y-27275144D01*
X11275000Y-27181486D01*
X11275000Y-27150000D01*
X9450001Y-27150000D01*
X9450001Y-27181479D01*
X9464835Y-27275149D01*
X9516883Y-27377298D01*
X9529779Y-27445967D01*
X9506169Y-27507226D01*
X9447207Y-27587117D01*
X9447206Y-27587119D01*
X9402353Y-27715298D01*
X9402353Y-27715300D01*
X9399500Y-27745730D01*
X9399500Y-27812034D01*
X9390854Y-27841476D01*
X9384331Y-27871463D01*
X9380577Y-27876477D01*
X9379815Y-27879073D01*
X9363184Y-27899711D01*
X9331718Y-27931178D01*
X9276133Y-27963269D01*
X9187518Y-27987014D01*
X9187511Y-27987017D01*
X9061988Y-28059488D01*
X9061982Y-28059493D01*
X8959493Y-28161982D01*
X8959488Y-28161988D01*
X8887017Y-28287511D01*
X8887016Y-28287515D01*
X8849500Y-28427525D01*
X300500Y-28427525D01*
X300500Y-22736929D01*
X1749500Y-22736929D01*
X1749500Y-23263070D01*
X1752289Y-23292814D01*
X1752291Y-23292826D01*
X1793557Y-23410753D01*
X1796148Y-23418157D01*
X1875001Y-23524999D01*
X1981843Y-23603852D01*
X2020003Y-23617204D01*
X2107173Y-23647708D01*
X2107177Y-23647708D01*
X2107181Y-23647710D01*
X2122057Y-23649105D01*
X2136930Y-23650500D01*
X2136934Y-23650500D01*
X6163070Y-23650500D01*
X6176289Y-23649260D01*
X6192819Y-23647710D01*
X6192823Y-23647708D01*
X6192826Y-23647708D01*
X6250504Y-23627525D01*
X6318157Y-23603852D01*
X6424999Y-23524999D01*
X6503852Y-23418157D01*
X6536450Y-23324998D01*
X6547708Y-23292826D01*
X6547708Y-23292823D01*
X6547710Y-23292819D01*
X6550500Y-23263066D01*
X6550500Y-22736934D01*
X6550420Y-22736077D01*
X6550452Y-22735909D01*
X6550365Y-22734038D01*
X6550820Y-22734016D01*
X6563759Y-22667493D01*
X6612060Y-22617008D01*
X6673878Y-22600500D01*
X7125500Y-22600500D01*
X7192539Y-22620185D01*
X7238294Y-22672989D01*
X7249500Y-22724500D01*
X7249500Y-22727525D01*
X7249500Y-22872475D01*
X7287016Y-23012485D01*
X7332887Y-23091936D01*
X7337037Y-23107423D01*
X7344477Y-23119000D01*
X7349500Y-23153935D01*
X7349500Y-23387477D01*
X7329815Y-23454516D01*
X7319648Y-23468175D01*
X6878866Y-23982420D01*
X6869280Y-23992415D01*
X6849414Y-24010937D01*
X6849406Y-24010946D01*
X6840855Y-24024628D01*
X6837146Y-24030220D01*
X6833727Y-24035082D01*
X6819357Y-24051849D01*
X6813829Y-24063383D01*
X6807900Y-24071818D01*
X6788306Y-24087417D01*
X6771559Y-24106038D01*
X6761246Y-24108962D01*
X6753239Y-24115338D01*
X6730692Y-24117627D01*
X6706461Y-24124500D01*
X6558856Y-24124500D01*
X6520841Y-24129065D01*
X6474411Y-24134640D01*
X6340023Y-24187636D01*
X6224921Y-24274921D01*
X6137636Y-24390023D01*
X6084640Y-24524411D01*
X6080428Y-24559491D01*
X6074500Y-24608856D01*
X6074500Y-25191144D01*
X6079825Y-25235494D01*
X6084640Y-25275588D01*
X6137636Y-25409976D01*
X6224921Y-25525078D01*
X6340023Y-25612363D01*
X6340024Y-25612363D01*
X6340025Y-25612364D01*
X6474410Y-25665359D01*
X6558856Y-25675500D01*
X6558862Y-25675500D01*
X7091138Y-25675500D01*
X7091144Y-25675500D01*
X7175590Y-25665359D01*
X7309975Y-25612364D01*
X7425078Y-25525078D01*
X7512364Y-25409975D01*
X7513297Y-25407610D01*
X7514729Y-25405768D01*
X7516522Y-25402581D01*
X7517000Y-25402849D01*
X7556201Y-25352465D01*
X7622109Y-25329271D01*
X7690093Y-25345390D01*
X7727919Y-25378787D01*
X7810670Y-25489329D01*
X7920015Y-25571184D01*
X7920016Y-25571185D01*
X8047991Y-25618917D01*
X8047994Y-25618918D01*
X8104555Y-25624999D01*
X8224999Y-25624999D01*
X8225000Y-25624998D01*
X8225000Y-25050000D01*
X8525000Y-25050000D01*
X8525000Y-25624999D01*
X8645433Y-25624999D01*
X8645439Y-25624998D01*
X8702006Y-25618918D01*
X8719604Y-25612354D01*
X8789296Y-25607367D01*
X8850620Y-25640850D01*
X8882716Y-25696439D01*
X8887015Y-25712483D01*
X8887017Y-25712488D01*
X8959488Y-25838011D01*
X8959490Y-25838013D01*
X8959491Y-25838015D01*
X9061985Y-25940509D01*
X9187515Y-26012984D01*
X9276132Y-26036728D01*
X9290018Y-26044745D01*
X9303465Y-26047671D01*
X9331719Y-26068822D01*
X9363181Y-26100284D01*
X9396666Y-26161607D01*
X9399500Y-26187965D01*
X9399500Y-26254269D01*
X9402353Y-26284699D01*
X9402353Y-26284701D01*
X9447206Y-26412880D01*
X9447207Y-26412882D01*
X9506169Y-26492774D01*
X9530139Y-26558404D01*
X9516883Y-26622701D01*
X9464834Y-26724852D01*
X9464833Y-26724855D01*
X9450000Y-26818513D01*
X9450000Y-26850000D01*
X11274999Y-26850000D01*
X11274999Y-26818520D01*
X11260164Y-26724850D01*
X11208116Y-26622701D01*
X11195220Y-26554032D01*
X11218830Y-26492774D01*
X11277793Y-26412882D01*
X11300974Y-26346635D01*
X11322646Y-26284701D01*
X11322646Y-26284699D01*
X11325500Y-26254269D01*
X11325500Y-25845730D01*
X11674500Y-25845730D01*
X11674500Y-26254269D01*
X11677353Y-26284699D01*
X11677353Y-26284701D01*
X11713965Y-26389328D01*
X11722207Y-26412882D01*
X11802850Y-26522150D01*
X11912118Y-26602793D01*
X11954845Y-26617744D01*
X12040299Y-26647646D01*
X12070730Y-26650500D01*
X12070734Y-26650500D01*
X13204270Y-26650500D01*
X13234699Y-26647646D01*
X13234701Y-26647646D01*
X13305988Y-26622701D01*
X13362882Y-26602793D01*
X13413604Y-26565359D01*
X13468655Y-26524730D01*
X13534284Y-26500759D01*
X13542288Y-26500500D01*
X13950500Y-26500500D01*
X13959185Y-26503050D01*
X13968147Y-26501762D01*
X13992187Y-26512740D01*
X14017539Y-26520185D01*
X14023466Y-26527025D01*
X14031703Y-26530787D01*
X14045992Y-26553021D01*
X14063294Y-26572989D01*
X14065581Y-26583503D01*
X14069477Y-26589565D01*
X14074500Y-26624500D01*
X14074500Y-26799903D01*
X14054815Y-26866942D01*
X14025426Y-26898707D01*
X13924920Y-26974923D01*
X13837636Y-27090023D01*
X13784640Y-27224411D01*
X13781951Y-27246810D01*
X13774500Y-27308856D01*
X13774500Y-27308862D01*
X13774500Y-27510689D01*
X13754815Y-27577728D01*
X13702011Y-27623483D01*
X13632853Y-27633427D01*
X13569297Y-27604402D01*
X13550730Y-27584323D01*
X13545863Y-27577728D01*
X13472150Y-27477850D01*
X13362882Y-27397207D01*
X13362880Y-27397206D01*
X13234700Y-27352353D01*
X13204270Y-27349500D01*
X13204266Y-27349500D01*
X12070734Y-27349500D01*
X12070730Y-27349500D01*
X12040300Y-27352353D01*
X12040298Y-27352353D01*
X11912119Y-27397206D01*
X11912117Y-27397207D01*
X11802850Y-27477850D01*
X11722207Y-27587117D01*
X11722206Y-27587119D01*
X11677353Y-27715298D01*
X11677353Y-27715300D01*
X11674500Y-27745730D01*
X11674500Y-28154269D01*
X11677353Y-28184699D01*
X11677353Y-28184701D01*
X11722206Y-28312880D01*
X11722207Y-28312882D01*
X11802850Y-28422150D01*
X11912118Y-28502793D01*
X11954845Y-28517744D01*
X12040299Y-28547646D01*
X12070730Y-28550500D01*
X12070734Y-28550500D01*
X13204270Y-28550500D01*
X13234699Y-28547646D01*
X13234701Y-28547646D01*
X13298790Y-28525219D01*
X13362882Y-28502793D01*
X13472150Y-28422150D01*
X13552793Y-28312882D01*
X13588747Y-28210131D01*
X13597646Y-28184701D01*
X13597646Y-28184699D01*
X13600771Y-28151380D01*
X13601661Y-28151463D01*
X13623243Y-28088867D01*
X13678113Y-28045612D01*
X13747658Y-28038888D01*
X13809799Y-28070831D01*
X13831827Y-28103509D01*
X13833478Y-28102581D01*
X13837634Y-28109973D01*
X13924921Y-28225078D01*
X14040023Y-28312363D01*
X14040024Y-28312363D01*
X14040025Y-28312364D01*
X14174410Y-28365359D01*
X14258856Y-28375500D01*
X14258862Y-28375500D01*
X14791138Y-28375500D01*
X14791144Y-28375500D01*
X14875590Y-28365359D01*
X15009975Y-28312364D01*
X15125078Y-28225078D01*
X15212364Y-28109975D01*
X15213297Y-28107610D01*
X15214729Y-28105768D01*
X15216522Y-28102581D01*
X15217000Y-28102849D01*
X15256201Y-28052465D01*
X15322109Y-28029271D01*
X15390093Y-28045390D01*
X15427919Y-28078787D01*
X15510670Y-28189329D01*
X15620015Y-28271184D01*
X15620016Y-28271185D01*
X15747991Y-28318917D01*
X15747994Y-28318918D01*
X15804555Y-28324999D01*
X15924999Y-28324999D01*
X16225000Y-28324999D01*
X16345433Y-28324999D01*
X16345439Y-28324998D01*
X16402007Y-28318918D01*
X16529981Y-28271186D01*
X16529984Y-28271184D01*
X16639329Y-28189329D01*
X16721184Y-28079984D01*
X16721185Y-28079983D01*
X16768916Y-27952010D01*
X16774999Y-27895428D01*
X16775000Y-27895427D01*
X16775000Y-27750000D01*
X16225000Y-27750000D01*
X16225000Y-28324999D01*
X15924999Y-28324999D01*
X15925000Y-28324998D01*
X15925000Y-27450000D01*
X16225000Y-27450000D01*
X16774999Y-27450000D01*
X16774999Y-27304566D01*
X16774998Y-27304560D01*
X16768918Y-27247992D01*
X16721186Y-27120018D01*
X16721184Y-27120015D01*
X16639329Y-27010670D01*
X16529984Y-26928815D01*
X16529983Y-26928814D01*
X16402010Y-26881083D01*
X16345428Y-26875000D01*
X16225000Y-26875000D01*
X16225000Y-27450000D01*
X15925000Y-27450000D01*
X15925000Y-26875000D01*
X15804566Y-26875000D01*
X15804559Y-26875001D01*
X15747992Y-26881081D01*
X15620018Y-26928813D01*
X15620015Y-26928815D01*
X15510670Y-27010670D01*
X15427919Y-27121212D01*
X15371985Y-27163083D01*
X15302293Y-27168067D01*
X15240970Y-27134582D01*
X15216575Y-27097389D01*
X15216522Y-27097419D01*
X15216086Y-27096643D01*
X15213298Y-27092393D01*
X15212364Y-27090024D01*
X15125079Y-26974923D01*
X15104759Y-26959514D01*
X15024573Y-26898706D01*
X15022093Y-26895349D01*
X15018297Y-26893616D01*
X15001509Y-26867493D01*
X14983051Y-26842514D01*
X14982135Y-26837346D01*
X14980523Y-26834838D01*
X14975500Y-26799903D01*
X14975500Y-26600096D01*
X14995185Y-26533057D01*
X15024573Y-26501293D01*
X15125078Y-26425078D01*
X15212364Y-26309975D01*
X15213297Y-26307610D01*
X15214729Y-26305768D01*
X15216522Y-26302581D01*
X15217000Y-26302849D01*
X15256201Y-26252465D01*
X15322109Y-26229271D01*
X15390093Y-26245390D01*
X15427919Y-26278787D01*
X15510670Y-26389329D01*
X15620015Y-26471184D01*
X15620016Y-26471185D01*
X15747991Y-26518917D01*
X15747994Y-26518918D01*
X15804555Y-26524999D01*
X15924999Y-26524999D01*
X15925000Y-26524998D01*
X15925000Y-25075000D01*
X16225000Y-25075000D01*
X16225000Y-26524999D01*
X16345433Y-26524999D01*
X16345439Y-26524998D01*
X16402007Y-26518918D01*
X16529981Y-26471186D01*
X16529984Y-26471184D01*
X16639331Y-26389328D01*
X16720773Y-26280534D01*
X16776706Y-26238662D01*
X16846398Y-26233678D01*
X16907721Y-26267162D01*
X16935392Y-26309348D01*
X16936882Y-26313127D01*
X16936886Y-26313134D01*
X17023132Y-26426867D01*
X17080135Y-26470093D01*
X17113285Y-26495232D01*
X17154808Y-26551423D01*
X17162360Y-26593979D01*
X17162498Y-26897806D01*
X17162498Y-26898446D01*
X17162030Y-26955617D01*
X17162525Y-26957527D01*
X17162526Y-26959510D01*
X17162526Y-26959513D01*
X17162527Y-26959514D01*
X17177412Y-27014968D01*
X17191791Y-27070442D01*
X17192766Y-27072164D01*
X17193280Y-27074077D01*
X17193281Y-27074079D01*
X17221701Y-27123253D01*
X17222231Y-27124180D01*
X17250256Y-27173651D01*
X17251669Y-27175524D01*
X17252546Y-27176686D01*
X17292768Y-27216871D01*
X17293484Y-27217592D01*
X17470179Y-27397206D01*
X17559971Y-27488481D01*
X17592953Y-27550076D01*
X17587398Y-27619725D01*
X17574678Y-27644331D01*
X17469058Y-27802403D01*
X17389870Y-27993579D01*
X17389868Y-27993587D01*
X17349500Y-28196530D01*
X17349500Y-28403469D01*
X17389868Y-28606412D01*
X17389870Y-28606420D01*
X17469058Y-28797596D01*
X17584024Y-28969657D01*
X17730342Y-29115975D01*
X17730345Y-29115977D01*
X17902402Y-29230941D01*
X18093580Y-29310130D01*
X18296530Y-29350499D01*
X18296534Y-29350500D01*
X18296535Y-29350500D01*
X18503466Y-29350500D01*
X18503467Y-29350499D01*
X18706420Y-29310130D01*
X18897598Y-29230941D01*
X19069655Y-29115977D01*
X19215977Y-28969655D01*
X19264090Y-28897648D01*
X34199500Y-28897648D01*
X34199500Y-29102351D01*
X34231522Y-29304534D01*
X34294781Y-29499223D01*
X34387715Y-29681613D01*
X34508028Y-29847213D01*
X34652786Y-29991971D01*
X34807749Y-30104556D01*
X34818390Y-30112287D01*
X34934607Y-30171503D01*
X35000776Y-30205218D01*
X35000778Y-30205218D01*
X35000781Y-30205220D01*
X35105137Y-30239127D01*
X35195465Y-30268477D01*
X35296557Y-30284488D01*
X35397648Y-30300500D01*
X35397649Y-30300500D01*
X35602351Y-30300500D01*
X35602352Y-30300500D01*
X35804534Y-30268477D01*
X35999219Y-30205220D01*
X36181610Y-30112287D01*
X36274590Y-30044732D01*
X36347213Y-29991971D01*
X36347215Y-29991968D01*
X36347219Y-29991966D01*
X36491966Y-29847219D01*
X36491968Y-29847215D01*
X36491971Y-29847213D01*
X36544732Y-29774590D01*
X36612287Y-29681610D01*
X36705220Y-29499219D01*
X36768477Y-29304534D01*
X36800500Y-29102352D01*
X36800500Y-28897648D01*
X36768477Y-28695466D01*
X36705220Y-28500781D01*
X36705218Y-28500778D01*
X36705218Y-28500776D01*
X36641386Y-28375500D01*
X36612287Y-28318390D01*
X36577990Y-28271184D01*
X36491971Y-28152786D01*
X36347213Y-28008028D01*
X36181613Y-27887715D01*
X36181612Y-27887714D01*
X36181610Y-27887713D01*
X36090865Y-27841476D01*
X35999223Y-27794781D01*
X35804534Y-27731522D01*
X35629995Y-27703878D01*
X35602352Y-27699500D01*
X35397648Y-27699500D01*
X35373329Y-27703351D01*
X35195465Y-27731522D01*
X35000776Y-27794781D01*
X34818386Y-27887715D01*
X34652786Y-28008028D01*
X34508028Y-28152786D01*
X34387715Y-28318386D01*
X34294781Y-28500776D01*
X34231522Y-28695465D01*
X34199500Y-28897648D01*
X19264090Y-28897648D01*
X19330941Y-28797598D01*
X19410130Y-28606420D01*
X19450500Y-28403465D01*
X19450500Y-28196535D01*
X19410130Y-27993580D01*
X19330941Y-27802402D01*
X19215977Y-27630345D01*
X19215975Y-27630342D01*
X19069657Y-27484024D01*
X18983626Y-27426541D01*
X18897598Y-27369059D01*
X18857266Y-27352353D01*
X18706420Y-27289870D01*
X18706414Y-27289868D01*
X18646956Y-27278041D01*
X18629760Y-27269046D01*
X18610832Y-27264766D01*
X18587251Y-27246810D01*
X18585045Y-27245656D01*
X18582752Y-27243384D01*
X18564086Y-27224410D01*
X18438284Y-27096530D01*
X25249500Y-27096530D01*
X25249500Y-27303469D01*
X25289868Y-27506412D01*
X25289870Y-27506420D01*
X25369058Y-27697596D01*
X25484024Y-27869657D01*
X25630342Y-28015975D01*
X25630345Y-28015977D01*
X25802402Y-28130941D01*
X25993580Y-28210130D01*
X26196530Y-28250499D01*
X26196534Y-28250500D01*
X26196535Y-28250500D01*
X26403466Y-28250500D01*
X26403467Y-28250499D01*
X26606420Y-28210130D01*
X26797598Y-28130941D01*
X26969655Y-28015977D01*
X27115977Y-27869655D01*
X27230941Y-27697598D01*
X27310130Y-27506420D01*
X27350500Y-27303465D01*
X27350500Y-27096535D01*
X27350499Y-27096530D01*
X27849500Y-27096530D01*
X27849500Y-27303469D01*
X27889868Y-27506412D01*
X27889870Y-27506420D01*
X27969058Y-27697596D01*
X28084024Y-27869657D01*
X28230342Y-28015975D01*
X28230345Y-28015977D01*
X28402402Y-28130941D01*
X28593580Y-28210130D01*
X28796530Y-28250499D01*
X28796534Y-28250500D01*
X28796535Y-28250500D01*
X29003466Y-28250500D01*
X29003467Y-28250499D01*
X29206420Y-28210130D01*
X29397598Y-28130941D01*
X29569655Y-28015977D01*
X29715977Y-27869655D01*
X29830941Y-27697598D01*
X29910130Y-27506420D01*
X29950500Y-27303465D01*
X29950500Y-27096535D01*
X29910130Y-26893580D01*
X29830941Y-26702402D01*
X29715977Y-26530345D01*
X29715975Y-26530342D01*
X29569657Y-26384024D01*
X29463551Y-26313127D01*
X29440032Y-26297412D01*
X29395228Y-26243802D01*
X29386521Y-26174477D01*
X29401539Y-26132308D01*
X29412982Y-26112488D01*
X29412981Y-26112488D01*
X29412984Y-26112485D01*
X29450500Y-25972475D01*
X29450500Y-25827525D01*
X29412984Y-25687515D01*
X29412755Y-25687119D01*
X29340511Y-25561988D01*
X29340506Y-25561982D01*
X29238017Y-25459493D01*
X29238011Y-25459488D01*
X29112488Y-25387017D01*
X29112489Y-25387017D01*
X29075146Y-25377011D01*
X28972475Y-25349500D01*
X28827525Y-25349500D01*
X28724854Y-25377011D01*
X28687511Y-25387017D01*
X28561988Y-25459488D01*
X28561982Y-25459493D01*
X28459493Y-25561982D01*
X28459488Y-25561988D01*
X28387017Y-25687511D01*
X28387016Y-25687515D01*
X28349500Y-25827525D01*
X28349500Y-25972475D01*
X28383747Y-26100284D01*
X28387017Y-26112487D01*
X28398461Y-26132308D01*
X28414935Y-26200208D01*
X28392084Y-26266235D01*
X28359966Y-26297412D01*
X28230345Y-26384022D01*
X28230341Y-26384025D01*
X28084024Y-26530342D01*
X27969058Y-26702403D01*
X27889870Y-26893579D01*
X27889868Y-26893587D01*
X27849500Y-27096530D01*
X27350499Y-27096530D01*
X27310130Y-26893580D01*
X27230941Y-26702402D01*
X27115977Y-26530345D01*
X27115975Y-26530342D01*
X26969657Y-26384024D01*
X26863551Y-26313127D01*
X26840032Y-26297412D01*
X26795228Y-26243802D01*
X26786521Y-26174477D01*
X26801539Y-26132308D01*
X26812982Y-26112488D01*
X26812981Y-26112488D01*
X26812984Y-26112485D01*
X26850500Y-25972475D01*
X26850500Y-25827525D01*
X26812984Y-25687515D01*
X26812755Y-25687119D01*
X26740511Y-25561988D01*
X26740506Y-25561982D01*
X26638017Y-25459493D01*
X26638011Y-25459488D01*
X26512488Y-25387017D01*
X26512489Y-25387017D01*
X26475146Y-25377011D01*
X26372475Y-25349500D01*
X26227525Y-25349500D01*
X26124854Y-25377011D01*
X26087511Y-25387017D01*
X25961988Y-25459488D01*
X25961982Y-25459493D01*
X25859493Y-25561982D01*
X25859488Y-25561988D01*
X25787017Y-25687511D01*
X25787016Y-25687515D01*
X25749500Y-25827525D01*
X25749500Y-25972475D01*
X25783747Y-26100284D01*
X25787017Y-26112487D01*
X25798461Y-26132308D01*
X25814935Y-26200208D01*
X25792084Y-26266235D01*
X25759966Y-26297412D01*
X25630345Y-26384022D01*
X25630341Y-26384025D01*
X25484024Y-26530342D01*
X25369058Y-26702403D01*
X25289870Y-26893579D01*
X25289868Y-26893587D01*
X25249500Y-27096530D01*
X18438284Y-27096530D01*
X18098995Y-26751637D01*
X18066014Y-26690043D01*
X18063392Y-26664741D01*
X18063360Y-26593544D01*
X18083014Y-26526496D01*
X18112433Y-26494686D01*
X18201867Y-26426867D01*
X18288115Y-26313132D01*
X18288117Y-26313126D01*
X18291912Y-26306378D01*
X18341925Y-26257589D01*
X18410376Y-26243583D01*
X18475534Y-26268808D01*
X18508088Y-26306378D01*
X18511886Y-26313134D01*
X18598132Y-26426867D01*
X18711373Y-26512740D01*
X18711868Y-26513115D01*
X18844654Y-26565479D01*
X18928098Y-26575500D01*
X19446902Y-26575500D01*
X19530346Y-26565479D01*
X19663132Y-26513115D01*
X19776867Y-26426867D01*
X19802768Y-26392711D01*
X19858959Y-26351188D01*
X19928680Y-26346635D01*
X19989795Y-26380500D01*
X20000375Y-26392709D01*
X20024922Y-26425079D01*
X20140023Y-26512363D01*
X20140024Y-26512363D01*
X20140025Y-26512364D01*
X20274410Y-26565359D01*
X20358856Y-26575500D01*
X20358862Y-26575500D01*
X20891138Y-26575500D01*
X20891144Y-26575500D01*
X20975590Y-26565359D01*
X21109975Y-26512364D01*
X21225078Y-26425078D01*
X21312364Y-26309975D01*
X21313297Y-26307610D01*
X21314729Y-26305768D01*
X21316522Y-26302581D01*
X21317000Y-26302849D01*
X21356201Y-26252465D01*
X21422109Y-26229271D01*
X21490093Y-26245390D01*
X21527919Y-26278787D01*
X21610670Y-26389329D01*
X21720015Y-26471184D01*
X21720016Y-26471185D01*
X21847991Y-26518917D01*
X21847994Y-26518918D01*
X21904555Y-26524999D01*
X22024999Y-26524999D01*
X22325000Y-26524999D01*
X22445433Y-26524999D01*
X22445439Y-26524998D01*
X22502007Y-26518918D01*
X22629981Y-26471186D01*
X22629984Y-26471184D01*
X22739329Y-26389329D01*
X22821184Y-26279984D01*
X22821185Y-26279983D01*
X22868916Y-26152010D01*
X22874999Y-26095428D01*
X22875000Y-26095427D01*
X22875000Y-25950000D01*
X22325000Y-25950000D01*
X22325000Y-26524999D01*
X22024999Y-26524999D01*
X22025000Y-26524998D01*
X22025000Y-25650000D01*
X22325000Y-25650000D01*
X22874999Y-25650000D01*
X22874999Y-25504566D01*
X22874998Y-25504560D01*
X22868918Y-25447992D01*
X22821186Y-25320018D01*
X22821184Y-25320015D01*
X22739329Y-25210670D01*
X22629984Y-25128815D01*
X22629983Y-25128814D01*
X22502010Y-25081083D01*
X22445428Y-25075000D01*
X22325000Y-25075000D01*
X22325000Y-25650000D01*
X22025000Y-25650000D01*
X22025000Y-25075000D01*
X21904566Y-25075000D01*
X21904559Y-25075001D01*
X21847992Y-25081081D01*
X21720018Y-25128813D01*
X21720015Y-25128815D01*
X21610670Y-25210670D01*
X21527919Y-25321212D01*
X21471985Y-25363083D01*
X21402293Y-25368067D01*
X21340970Y-25334582D01*
X21316575Y-25297389D01*
X21316522Y-25297419D01*
X21316086Y-25296643D01*
X21313298Y-25292393D01*
X21312364Y-25290024D01*
X21225078Y-25174921D01*
X21109976Y-25087636D01*
X20975588Y-25034640D01*
X20932242Y-25029435D01*
X20891144Y-25024500D01*
X20891138Y-25024500D01*
X20757463Y-25024500D01*
X20749783Y-25022244D01*
X20741881Y-25023517D01*
X20716740Y-25012542D01*
X20690424Y-25004815D01*
X20683546Y-24998052D01*
X20677846Y-24995564D01*
X20654289Y-24969283D01*
X20571326Y-24844838D01*
X20550518Y-24778138D01*
X20550500Y-24776055D01*
X20550500Y-24727527D01*
X20550500Y-24727525D01*
X20512984Y-24587515D01*
X20496805Y-24559493D01*
X20440511Y-24461988D01*
X20440506Y-24461982D01*
X20338017Y-24359493D01*
X20338011Y-24359488D01*
X20212488Y-24287017D01*
X20212489Y-24287017D01*
X20201006Y-24283940D01*
X20072475Y-24249500D01*
X19927525Y-24249500D01*
X19798993Y-24283940D01*
X19787511Y-24287017D01*
X19661988Y-24359488D01*
X19661982Y-24359493D01*
X19559493Y-24461982D01*
X19559488Y-24461988D01*
X19487017Y-24587511D01*
X19487016Y-24587515D01*
X19449500Y-24727525D01*
X19449500Y-24727527D01*
X19447397Y-24735376D01*
X19446005Y-24735003D01*
X19442534Y-24742926D01*
X19440422Y-24759943D01*
X19421916Y-24789996D01*
X19376215Y-24844838D01*
X19268181Y-24974480D01*
X19263679Y-24979882D01*
X19205639Y-25018782D01*
X19168419Y-25024500D01*
X18928098Y-25024500D01*
X18844656Y-25034520D01*
X18844655Y-25034520D01*
X18711865Y-25086886D01*
X18598132Y-25173132D01*
X18511884Y-25286868D01*
X18508086Y-25293624D01*
X18458072Y-25342412D01*
X18389620Y-25356416D01*
X18324463Y-25331188D01*
X18302373Y-25309303D01*
X18291473Y-25295384D01*
X18288115Y-25286868D01*
X18201867Y-25173133D01*
X18186778Y-25161690D01*
X18176873Y-25149042D01*
X18169654Y-25130902D01*
X18158050Y-25115198D01*
X18153752Y-25090944D01*
X18151038Y-25084124D01*
X18151826Y-25080076D01*
X18150500Y-25072590D01*
X18150500Y-24927527D01*
X18150500Y-24927525D01*
X18112984Y-24787515D01*
X18097065Y-24759943D01*
X18040511Y-24661988D01*
X18040506Y-24661982D01*
X17938017Y-24559493D01*
X17938011Y-24559488D01*
X17812488Y-24487017D01*
X17812489Y-24487017D01*
X17801006Y-24483940D01*
X17672475Y-24449500D01*
X17527525Y-24449500D01*
X17398993Y-24483940D01*
X17387511Y-24487017D01*
X17261988Y-24559488D01*
X17261982Y-24559493D01*
X17159493Y-24661982D01*
X17159488Y-24661988D01*
X17087017Y-24787511D01*
X17087016Y-24787515D01*
X17049500Y-24927525D01*
X17049500Y-25072475D01*
X17049501Y-25072478D01*
X17050241Y-25078099D01*
X17045848Y-25106271D01*
X17044513Y-25134755D01*
X17040126Y-25142965D01*
X17039477Y-25147134D01*
X17028363Y-25166138D01*
X17023690Y-25172710D01*
X17023133Y-25173133D01*
X16936885Y-25286868D01*
X16929856Y-25304691D01*
X16921101Y-25317006D01*
X16905038Y-25329657D01*
X16892480Y-25345795D01*
X16878148Y-25350837D01*
X16866213Y-25360238D01*
X16845859Y-25362197D01*
X16826571Y-25368983D01*
X16811788Y-25365476D01*
X16796664Y-25366932D01*
X16778481Y-25357575D01*
X16758587Y-25352856D01*
X16743608Y-25339629D01*
X16734538Y-25334962D01*
X16730587Y-25328131D01*
X16720773Y-25319465D01*
X16639331Y-25210671D01*
X16529984Y-25128815D01*
X16529983Y-25128814D01*
X16402010Y-25081083D01*
X16345428Y-25075000D01*
X16225000Y-25075000D01*
X15925000Y-25075000D01*
X15804566Y-25075000D01*
X15804559Y-25075001D01*
X15747992Y-25081081D01*
X15620018Y-25128813D01*
X15620015Y-25128815D01*
X15510670Y-25210670D01*
X15427919Y-25321212D01*
X15371985Y-25363083D01*
X15302293Y-25368067D01*
X15240970Y-25334582D01*
X15216575Y-25297389D01*
X15216522Y-25297419D01*
X15216086Y-25296643D01*
X15213298Y-25292393D01*
X15212364Y-25290024D01*
X15125078Y-25174921D01*
X15009976Y-25087636D01*
X14875588Y-25034640D01*
X14832242Y-25029435D01*
X14791144Y-25024500D01*
X14258856Y-25024500D01*
X14216075Y-25029637D01*
X14188030Y-25033005D01*
X14119122Y-25021453D01*
X14067398Y-24974480D01*
X14053509Y-24935133D01*
X14052603Y-24935376D01*
X14050500Y-24927527D01*
X14050500Y-24927525D01*
X14012984Y-24787515D01*
X13997065Y-24759943D01*
X13940511Y-24661988D01*
X13940506Y-24661982D01*
X13838017Y-24559493D01*
X13838011Y-24559488D01*
X13712488Y-24487017D01*
X13712489Y-24487017D01*
X13701006Y-24483940D01*
X13572475Y-24449500D01*
X13427525Y-24449500D01*
X13298993Y-24483940D01*
X13287511Y-24487017D01*
X13161988Y-24559488D01*
X13161982Y-24559493D01*
X13059493Y-24661982D01*
X13059488Y-24661988D01*
X12987017Y-24787511D01*
X12987016Y-24787515D01*
X12949500Y-24927525D01*
X12949500Y-25072475D01*
X12976472Y-25173133D01*
X12987017Y-25212488D01*
X13016469Y-25263500D01*
X13032942Y-25331400D01*
X13010089Y-25397427D01*
X12955168Y-25440618D01*
X12909082Y-25449500D01*
X12070730Y-25449500D01*
X12040300Y-25452353D01*
X12040298Y-25452353D01*
X11912119Y-25497206D01*
X11912117Y-25497207D01*
X11802850Y-25577850D01*
X11722207Y-25687117D01*
X11722206Y-25687119D01*
X11677353Y-25815298D01*
X11677353Y-25815300D01*
X11674500Y-25845730D01*
X11325500Y-25845730D01*
X11322646Y-25815300D01*
X11322646Y-25815298D01*
X11286669Y-25712485D01*
X11277793Y-25687118D01*
X11197150Y-25577850D01*
X11087882Y-25497207D01*
X11087880Y-25497206D01*
X10959700Y-25452353D01*
X10929270Y-25449500D01*
X10929266Y-25449500D01*
X10051536Y-25449500D01*
X9984497Y-25429815D01*
X9938742Y-25377011D01*
X9931763Y-25357599D01*
X9912984Y-25287515D01*
X9912610Y-25286868D01*
X9840511Y-25161988D01*
X9840506Y-25161982D01*
X9738017Y-25059493D01*
X9738011Y-25059488D01*
X9612488Y-24987017D01*
X9612489Y-24987017D01*
X9585861Y-24979882D01*
X9472475Y-24949500D01*
X9327525Y-24949500D01*
X9222517Y-24977637D01*
X9187514Y-24987016D01*
X9107195Y-25033388D01*
X9045196Y-25050000D01*
X8525000Y-25050000D01*
X8225000Y-25050000D01*
X8225000Y-24750000D01*
X8525000Y-24750000D01*
X9074999Y-24750000D01*
X9074999Y-24604566D01*
X9074998Y-24604560D01*
X9068918Y-24547992D01*
X9021186Y-24420018D01*
X9021184Y-24420015D01*
X8939329Y-24310670D01*
X8829984Y-24228815D01*
X8829983Y-24228814D01*
X8702010Y-24181083D01*
X8645428Y-24175000D01*
X8525000Y-24175000D01*
X8525000Y-24750000D01*
X8225000Y-24750000D01*
X8225000Y-24175000D01*
X8170088Y-24175000D01*
X8153295Y-24170069D01*
X8135793Y-24170163D01*
X8120467Y-24160429D01*
X8103049Y-24155315D01*
X8091588Y-24142088D01*
X8076813Y-24132705D01*
X8069182Y-24116230D01*
X8057294Y-24102511D01*
X8054803Y-24085187D01*
X8047447Y-24069306D01*
X8049933Y-24051323D01*
X8047350Y-24033353D01*
X8054644Y-24017266D01*
X8057019Y-24000095D01*
X8075937Y-23970306D01*
X8127704Y-23909911D01*
X8134146Y-23902955D01*
X8160489Y-23876613D01*
X8163489Y-23871415D01*
X8176733Y-23852711D01*
X8180643Y-23848151D01*
X8198797Y-23810261D01*
X8219799Y-23773886D01*
X8224331Y-23756968D01*
X8231898Y-23741178D01*
X8238750Y-23704563D01*
X8240854Y-23695301D01*
X8250500Y-23659309D01*
X8250500Y-23641792D01*
X8253721Y-23624583D01*
X8250500Y-23582711D01*
X8250500Y-23427525D01*
X8849500Y-23427525D01*
X8849500Y-23572475D01*
X8887016Y-23712485D01*
X8887017Y-23712488D01*
X8959488Y-23838011D01*
X8959490Y-23838013D01*
X8959491Y-23838015D01*
X9061985Y-23940509D01*
X9061986Y-23940510D01*
X9061988Y-23940511D01*
X9187511Y-24012982D01*
X9187512Y-24012982D01*
X9187515Y-24012984D01*
X9327525Y-24050500D01*
X9327528Y-24050500D01*
X9472472Y-24050500D01*
X9472475Y-24050500D01*
X9612485Y-24012984D01*
X9738015Y-23940509D01*
X9840509Y-23838015D01*
X9912984Y-23712485D01*
X9931761Y-23642404D01*
X9968126Y-23582746D01*
X10030973Y-23552217D01*
X10051536Y-23550500D01*
X10929270Y-23550500D01*
X10959699Y-23547646D01*
X10959701Y-23547646D01*
X11024421Y-23524999D01*
X11087882Y-23502793D01*
X11197150Y-23422150D01*
X11277793Y-23312882D01*
X11303990Y-23238014D01*
X11322646Y-23184701D01*
X11322646Y-23184699D01*
X11325500Y-23154269D01*
X11325500Y-22745730D01*
X11322646Y-22715300D01*
X11322646Y-22715298D01*
X11283841Y-22604402D01*
X11277793Y-22587118D01*
X11218828Y-22507224D01*
X11194859Y-22441598D01*
X11208116Y-22377297D01*
X11260165Y-22275146D01*
X11260166Y-22275144D01*
X11275000Y-22181486D01*
X11275000Y-22150000D01*
X9450001Y-22150000D01*
X9450001Y-22181479D01*
X9464835Y-22275149D01*
X9516883Y-22377298D01*
X9529779Y-22445967D01*
X9506169Y-22507226D01*
X9447207Y-22587117D01*
X9447206Y-22587119D01*
X9402353Y-22715298D01*
X9402353Y-22715300D01*
X9399500Y-22745730D01*
X9399500Y-22812034D01*
X9390854Y-22841476D01*
X9384331Y-22871463D01*
X9380577Y-22876477D01*
X9379815Y-22879073D01*
X9363184Y-22899711D01*
X9331718Y-22931178D01*
X9276133Y-22963269D01*
X9187518Y-22987014D01*
X9187511Y-22987017D01*
X9061988Y-23059488D01*
X9061982Y-23059493D01*
X8959493Y-23161982D01*
X8959488Y-23161988D01*
X8887017Y-23287511D01*
X8887016Y-23287515D01*
X8849500Y-23427525D01*
X8250500Y-23427525D01*
X8250500Y-23153935D01*
X8267112Y-23091936D01*
X8312984Y-23012485D01*
X8350500Y-22872475D01*
X8350500Y-22727525D01*
X8312984Y-22587515D01*
X8252956Y-22483545D01*
X8246452Y-22470581D01*
X8242900Y-22462330D01*
X8219799Y-22376114D01*
X8168358Y-22287016D01*
X8160489Y-22273386D01*
X8160488Y-22273385D01*
X8160485Y-22273381D01*
X7526615Y-21639512D01*
X7526613Y-21639510D01*
X7513410Y-21631888D01*
X7465194Y-21581321D01*
X7451970Y-21512714D01*
X7477938Y-21447849D01*
X7534851Y-21407320D01*
X7575409Y-21400500D01*
X7870614Y-21400500D01*
X7937653Y-21420185D01*
X7958295Y-21436819D01*
X7961985Y-21440509D01*
X7961986Y-21440510D01*
X7961988Y-21440511D01*
X8087511Y-21512982D01*
X8087512Y-21512982D01*
X8087515Y-21512984D01*
X8227525Y-21550500D01*
X8227528Y-21550500D01*
X8372472Y-21550500D01*
X8372475Y-21550500D01*
X8512485Y-21512984D01*
X8638015Y-21440509D01*
X8740509Y-21338015D01*
X8812984Y-21212485D01*
X8850500Y-21072475D01*
X8850500Y-20927525D01*
X8828583Y-20845730D01*
X9399500Y-20845730D01*
X9399500Y-21254269D01*
X9402353Y-21284699D01*
X9402353Y-21284701D01*
X9447206Y-21412880D01*
X9447207Y-21412882D01*
X9506169Y-21492774D01*
X9530139Y-21558404D01*
X9516883Y-21622701D01*
X9464834Y-21724852D01*
X9464833Y-21724855D01*
X9450000Y-21818513D01*
X9450000Y-21850000D01*
X11274999Y-21850000D01*
X11274999Y-21818520D01*
X11260164Y-21724850D01*
X11208116Y-21622701D01*
X11195220Y-21554032D01*
X11218830Y-21492774D01*
X11277793Y-21412882D01*
X11303990Y-21338015D01*
X11322646Y-21284701D01*
X11322646Y-21284699D01*
X11325500Y-21254269D01*
X11325500Y-20845730D01*
X11674500Y-20845730D01*
X11674500Y-21254269D01*
X11677353Y-21284699D01*
X11677353Y-21284701D01*
X11722206Y-21412880D01*
X11722207Y-21412882D01*
X11802850Y-21522150D01*
X11912118Y-21602793D01*
X11953643Y-21617323D01*
X12040299Y-21647646D01*
X12070730Y-21650500D01*
X12070734Y-21650500D01*
X13204270Y-21650500D01*
X13234699Y-21647646D01*
X13234701Y-21647646D01*
X13321357Y-21617323D01*
X13362882Y-21602793D01*
X13420640Y-21560166D01*
X13468655Y-21524730D01*
X13534284Y-21500759D01*
X13542288Y-21500500D01*
X13950500Y-21500500D01*
X13959185Y-21503050D01*
X13968147Y-21501762D01*
X13992187Y-21512740D01*
X14017539Y-21520185D01*
X14023466Y-21527025D01*
X14031703Y-21530787D01*
X14045992Y-21553021D01*
X14063294Y-21572989D01*
X14065581Y-21583503D01*
X14069477Y-21589565D01*
X14074500Y-21624500D01*
X14074500Y-21799903D01*
X14054815Y-21866942D01*
X14025426Y-21898706D01*
X14021732Y-21901508D01*
X13924920Y-21974923D01*
X13837636Y-22090023D01*
X13784640Y-22224411D01*
X13783405Y-22234699D01*
X13774500Y-22308856D01*
X13774500Y-22308862D01*
X13774500Y-22510689D01*
X13754815Y-22577728D01*
X13702011Y-22623483D01*
X13632853Y-22633427D01*
X13569297Y-22604402D01*
X13550730Y-22584323D01*
X13472150Y-22477850D01*
X13362882Y-22397207D01*
X13362880Y-22397206D01*
X13234700Y-22352353D01*
X13204270Y-22349500D01*
X13204266Y-22349500D01*
X12070734Y-22349500D01*
X12070730Y-22349500D01*
X12040300Y-22352353D01*
X12040298Y-22352353D01*
X11912119Y-22397206D01*
X11912117Y-22397207D01*
X11802850Y-22477850D01*
X11722207Y-22587117D01*
X11722206Y-22587119D01*
X11677353Y-22715298D01*
X11677353Y-22715300D01*
X11674500Y-22745730D01*
X11674500Y-23154269D01*
X11677353Y-23184699D01*
X11677353Y-23184701D01*
X11722206Y-23312880D01*
X11722207Y-23312882D01*
X11802850Y-23422150D01*
X11912118Y-23502793D01*
X11954845Y-23517744D01*
X12040299Y-23547646D01*
X12070730Y-23550500D01*
X12070734Y-23550500D01*
X13204270Y-23550500D01*
X13234699Y-23547646D01*
X13234701Y-23547646D01*
X13299421Y-23524999D01*
X13362882Y-23502793D01*
X13472150Y-23422150D01*
X13552793Y-23312882D01*
X13578990Y-23238014D01*
X13597646Y-23184701D01*
X13597646Y-23184699D01*
X13600771Y-23151380D01*
X13601661Y-23151463D01*
X13623243Y-23088867D01*
X13678113Y-23045612D01*
X13747658Y-23038888D01*
X13809799Y-23070831D01*
X13831827Y-23103509D01*
X13833478Y-23102581D01*
X13837634Y-23109973D01*
X13924921Y-23225078D01*
X14003728Y-23284839D01*
X14045252Y-23341032D01*
X14049803Y-23410753D01*
X14036191Y-23445642D01*
X14012016Y-23487514D01*
X14012016Y-23487515D01*
X13974500Y-23627525D01*
X13974500Y-23772475D01*
X14012016Y-23912485D01*
X14012017Y-23912488D01*
X14084488Y-24038011D01*
X14084490Y-24038013D01*
X14084491Y-24038015D01*
X14186985Y-24140509D01*
X14186986Y-24140510D01*
X14186988Y-24140511D01*
X14312511Y-24212982D01*
X14312512Y-24212982D01*
X14312515Y-24212984D01*
X14452525Y-24250500D01*
X14452528Y-24250500D01*
X14597472Y-24250500D01*
X14597475Y-24250500D01*
X14737485Y-24212984D01*
X14863015Y-24140509D01*
X14965509Y-24038015D01*
X15037984Y-23912485D01*
X15075500Y-23772475D01*
X15075500Y-23627525D01*
X15037984Y-23487515D01*
X15013808Y-23445642D01*
X14997336Y-23377743D01*
X15020188Y-23311716D01*
X15046268Y-23284841D01*
X15125078Y-23225078D01*
X15212364Y-23109975D01*
X15213297Y-23107610D01*
X15214729Y-23105768D01*
X15216522Y-23102581D01*
X15217000Y-23102849D01*
X15256201Y-23052465D01*
X15322109Y-23029271D01*
X15390093Y-23045390D01*
X15427919Y-23078787D01*
X15510670Y-23189329D01*
X15620015Y-23271184D01*
X15620016Y-23271185D01*
X15747991Y-23318917D01*
X15747994Y-23318918D01*
X15804555Y-23324999D01*
X15924999Y-23324999D01*
X16225000Y-23324999D01*
X16345433Y-23324999D01*
X16345439Y-23324998D01*
X16402007Y-23318918D01*
X16529981Y-23271186D01*
X16529984Y-23271184D01*
X16639329Y-23189329D01*
X16721184Y-23079984D01*
X16721185Y-23079983D01*
X16768916Y-22952010D01*
X16774999Y-22895428D01*
X16775000Y-22895427D01*
X16775000Y-22750000D01*
X16225000Y-22750000D01*
X16225000Y-23324999D01*
X15924999Y-23324999D01*
X15925000Y-23324998D01*
X15925000Y-22450000D01*
X16225000Y-22450000D01*
X16774999Y-22450000D01*
X16774999Y-22304566D01*
X16774998Y-22304560D01*
X16768918Y-22247992D01*
X16721186Y-22120018D01*
X16721184Y-22120015D01*
X16639329Y-22010670D01*
X16529984Y-21928815D01*
X16529983Y-21928814D01*
X16402010Y-21881083D01*
X16345428Y-21875000D01*
X16225000Y-21875000D01*
X16225000Y-22450000D01*
X15925000Y-22450000D01*
X15925000Y-21875000D01*
X15804566Y-21875000D01*
X15804559Y-21875001D01*
X15747992Y-21881081D01*
X15620018Y-21928813D01*
X15620015Y-21928815D01*
X15510670Y-22010670D01*
X15427919Y-22121212D01*
X15371985Y-22163083D01*
X15302293Y-22168067D01*
X15240970Y-22134582D01*
X15216575Y-22097389D01*
X15216522Y-22097419D01*
X15216086Y-22096643D01*
X15213298Y-22092393D01*
X15212364Y-22090024D01*
X15125079Y-21974923D01*
X15064274Y-21928813D01*
X15024573Y-21898706D01*
X15022093Y-21895349D01*
X15018297Y-21893616D01*
X15001509Y-21867493D01*
X14983051Y-21842514D01*
X14982135Y-21837346D01*
X14980523Y-21834838D01*
X14975500Y-21799903D01*
X14975500Y-21600096D01*
X14976547Y-21596530D01*
X17549500Y-21596530D01*
X17549500Y-21803469D01*
X17589868Y-22006412D01*
X17589870Y-22006420D01*
X17632764Y-22109976D01*
X17669059Y-22197598D01*
X17693849Y-22234699D01*
X17784024Y-22369657D01*
X17930342Y-22515975D01*
X17930345Y-22515977D01*
X18028326Y-22581445D01*
X18073132Y-22635057D01*
X18081839Y-22704382D01*
X18079211Y-22716641D01*
X18073775Y-22736929D01*
X18049500Y-22827525D01*
X18049500Y-22972475D01*
X18087016Y-23112485D01*
X18087017Y-23112488D01*
X18159488Y-23238011D01*
X18159490Y-23238013D01*
X18159491Y-23238015D01*
X18261985Y-23340509D01*
X18261986Y-23340510D01*
X18261988Y-23340511D01*
X18387511Y-23412982D01*
X18387512Y-23412982D01*
X18387515Y-23412984D01*
X18527525Y-23450500D01*
X18527528Y-23450500D01*
X18672472Y-23450500D01*
X18672475Y-23450500D01*
X18691363Y-23445439D01*
X22225001Y-23445439D01*
X22231081Y-23502007D01*
X22278813Y-23629981D01*
X22278815Y-23629984D01*
X22360670Y-23739329D01*
X22470015Y-23821184D01*
X22470016Y-23821185D01*
X22597991Y-23868917D01*
X22597994Y-23868918D01*
X22654555Y-23874999D01*
X22799999Y-23874999D01*
X23100000Y-23874999D01*
X23245433Y-23874999D01*
X23245439Y-23874998D01*
X23302007Y-23868918D01*
X23429981Y-23821186D01*
X23429984Y-23821184D01*
X23539329Y-23739329D01*
X23621184Y-23629984D01*
X23621185Y-23629983D01*
X23668916Y-23502010D01*
X23674998Y-23445439D01*
X25925001Y-23445439D01*
X25931081Y-23502007D01*
X25978813Y-23629981D01*
X25978815Y-23629984D01*
X26060670Y-23739329D01*
X26170015Y-23821184D01*
X26170016Y-23821185D01*
X26297991Y-23868917D01*
X26297994Y-23868918D01*
X26354555Y-23874999D01*
X26499999Y-23874999D01*
X26800000Y-23874999D01*
X26945433Y-23874999D01*
X26945439Y-23874998D01*
X27002007Y-23868918D01*
X27129981Y-23821186D01*
X27129984Y-23821184D01*
X27239329Y-23739329D01*
X27321184Y-23629984D01*
X27321185Y-23629983D01*
X27368916Y-23502010D01*
X27374999Y-23445428D01*
X27375000Y-23445427D01*
X27375000Y-23325000D01*
X26800000Y-23325000D01*
X26800000Y-23874999D01*
X26499999Y-23874999D01*
X26500000Y-23874998D01*
X26500000Y-23325000D01*
X25925001Y-23325000D01*
X25925001Y-23445439D01*
X23674998Y-23445439D01*
X23674999Y-23445428D01*
X23675000Y-23445427D01*
X23675000Y-23325000D01*
X23100000Y-23325000D01*
X23100000Y-23874999D01*
X22799999Y-23874999D01*
X22800000Y-23874998D01*
X22800000Y-23325000D01*
X22225001Y-23325000D01*
X22225001Y-23445439D01*
X18691363Y-23445439D01*
X18812485Y-23412984D01*
X18938015Y-23340509D01*
X19040509Y-23238015D01*
X19112984Y-23112485D01*
X19150500Y-22972475D01*
X19150500Y-22827525D01*
X19120788Y-22716639D01*
X19122451Y-22646792D01*
X19161613Y-22588929D01*
X19171659Y-22581454D01*
X19269655Y-22515977D01*
X19415977Y-22369655D01*
X19530941Y-22197598D01*
X19610130Y-22006420D01*
X19650500Y-21803465D01*
X19650500Y-21596535D01*
X19610130Y-21393580D01*
X19530941Y-21202402D01*
X19415977Y-21030345D01*
X19415975Y-21030342D01*
X19269657Y-20884024D01*
X19168764Y-20816610D01*
X19097598Y-20769059D01*
X19088525Y-20765301D01*
X18906420Y-20689870D01*
X18906412Y-20689868D01*
X18703469Y-20649500D01*
X18703465Y-20649500D01*
X18496535Y-20649500D01*
X18496530Y-20649500D01*
X18293587Y-20689868D01*
X18293579Y-20689870D01*
X18102403Y-20769058D01*
X17930342Y-20884024D01*
X17784024Y-21030342D01*
X17669058Y-21202403D01*
X17589870Y-21393579D01*
X17589868Y-21393587D01*
X17549500Y-21596530D01*
X14976547Y-21596530D01*
X14995185Y-21533057D01*
X15024573Y-21501293D01*
X15125078Y-21425078D01*
X15212364Y-21309975D01*
X15213297Y-21307610D01*
X15214729Y-21305768D01*
X15216522Y-21302581D01*
X15217000Y-21302849D01*
X15256201Y-21252465D01*
X15322109Y-21229271D01*
X15390093Y-21245390D01*
X15427919Y-21278787D01*
X15510670Y-21389329D01*
X15620015Y-21471184D01*
X15620016Y-21471185D01*
X15747991Y-21518917D01*
X15747994Y-21518918D01*
X15804555Y-21524999D01*
X15924999Y-21524999D01*
X16225000Y-21524999D01*
X16345433Y-21524999D01*
X16345439Y-21524998D01*
X16402007Y-21518918D01*
X16521738Y-21474261D01*
X16529981Y-21471186D01*
X16529984Y-21471184D01*
X16639329Y-21389329D01*
X16721184Y-21279984D01*
X16721185Y-21279983D01*
X16768916Y-21152010D01*
X16774999Y-21095428D01*
X16775000Y-21095427D01*
X16775000Y-20950000D01*
X16225000Y-20950000D01*
X16225000Y-21524999D01*
X15924999Y-21524999D01*
X15925000Y-21524998D01*
X15925000Y-20650000D01*
X16225000Y-20650000D01*
X16774999Y-20650000D01*
X16774999Y-20504566D01*
X16774998Y-20504560D01*
X16768918Y-20447992D01*
X16721186Y-20320018D01*
X16721184Y-20320015D01*
X16639329Y-20210670D01*
X16529984Y-20128815D01*
X16529983Y-20128814D01*
X16402010Y-20081083D01*
X16345428Y-20075000D01*
X16225000Y-20075000D01*
X16225000Y-20650000D01*
X15925000Y-20650000D01*
X15925000Y-20075000D01*
X15804566Y-20075000D01*
X15804559Y-20075001D01*
X15747992Y-20081081D01*
X15620018Y-20128813D01*
X15620015Y-20128815D01*
X15510670Y-20210670D01*
X15427919Y-20321212D01*
X15371985Y-20363083D01*
X15302293Y-20368067D01*
X15240970Y-20334582D01*
X15216575Y-20297389D01*
X15216522Y-20297419D01*
X15216086Y-20296643D01*
X15213298Y-20292393D01*
X15212364Y-20290024D01*
X15125078Y-20174921D01*
X15009976Y-20087636D01*
X14875588Y-20034640D01*
X14832242Y-20029435D01*
X14791144Y-20024500D01*
X14258856Y-20024500D01*
X14220841Y-20029065D01*
X14174411Y-20034640D01*
X14040023Y-20087636D01*
X13924921Y-20174921D01*
X13837636Y-20290023D01*
X13784640Y-20424411D01*
X13781809Y-20447992D01*
X13776730Y-20490286D01*
X13776139Y-20491663D01*
X13776353Y-20493147D01*
X13762419Y-20523656D01*
X13749194Y-20554498D01*
X13747951Y-20555338D01*
X13747328Y-20556703D01*
X13719093Y-20574847D01*
X13691311Y-20593631D01*
X13689404Y-20593927D01*
X13688550Y-20594477D01*
X13653615Y-20599500D01*
X13542288Y-20599500D01*
X13475249Y-20579815D01*
X13468655Y-20575270D01*
X13362886Y-20497209D01*
X13362880Y-20497206D01*
X13234700Y-20452353D01*
X13204270Y-20449500D01*
X13204266Y-20449500D01*
X12070734Y-20449500D01*
X12070730Y-20449500D01*
X12040300Y-20452353D01*
X12040298Y-20452353D01*
X11912119Y-20497206D01*
X11912117Y-20497207D01*
X11802850Y-20577850D01*
X11722207Y-20687117D01*
X11722206Y-20687119D01*
X11677353Y-20815298D01*
X11677353Y-20815300D01*
X11674500Y-20845730D01*
X11325500Y-20845730D01*
X11322646Y-20815300D01*
X11322646Y-20815298D01*
X11277794Y-20687120D01*
X11276363Y-20684413D01*
X11275692Y-20681113D01*
X11274724Y-20678347D01*
X11275102Y-20678214D01*
X11262441Y-20615944D01*
X11287745Y-20550818D01*
X11298303Y-20538799D01*
X11760490Y-20076614D01*
X11819799Y-19973887D01*
X11832221Y-19927525D01*
X11850500Y-19859309D01*
X11850500Y-19747174D01*
X11851236Y-19740448D01*
X11859307Y-19721064D01*
X11867112Y-19691936D01*
X11912984Y-19612485D01*
X11950500Y-19472475D01*
X11950500Y-19327525D01*
X11920788Y-19216639D01*
X11922451Y-19146792D01*
X11961613Y-19088929D01*
X11971659Y-19081454D01*
X12069655Y-19015977D01*
X12215977Y-18869655D01*
X12330941Y-18697598D01*
X12410130Y-18506420D01*
X12450500Y-18303465D01*
X12450500Y-18096535D01*
X12410130Y-17893580D01*
X12330941Y-17702402D01*
X12215977Y-17530345D01*
X12215975Y-17530342D01*
X12069657Y-17384024D01*
X11947501Y-17302403D01*
X11897598Y-17269059D01*
X11868673Y-17257078D01*
X11706420Y-17189870D01*
X11706412Y-17189868D01*
X11503469Y-17149500D01*
X11503465Y-17149500D01*
X11296535Y-17149500D01*
X11296530Y-17149500D01*
X11093587Y-17189868D01*
X11093579Y-17189870D01*
X10902403Y-17269058D01*
X10730342Y-17384024D01*
X10584024Y-17530342D01*
X10469058Y-17702403D01*
X10389870Y-17893579D01*
X10389868Y-17893587D01*
X10349500Y-18096530D01*
X10349500Y-18303469D01*
X10389868Y-18506412D01*
X10389870Y-18506420D01*
X10469058Y-18697596D01*
X10584024Y-18869657D01*
X10730342Y-19015975D01*
X10730345Y-19015977D01*
X10828326Y-19081445D01*
X10873132Y-19135057D01*
X10881839Y-19204382D01*
X10879211Y-19216641D01*
X10849500Y-19327525D01*
X10849500Y-19472474D01*
X10881883Y-19593331D01*
X10880220Y-19663181D01*
X10849789Y-19713105D01*
X10327096Y-20235799D01*
X10317243Y-20245651D01*
X10309899Y-20250273D01*
X10275418Y-20287476D01*
X10239512Y-20323383D01*
X10239507Y-20323390D01*
X10235165Y-20330909D01*
X10229268Y-20337274D01*
X10205588Y-20382138D01*
X10204411Y-20384178D01*
X10202498Y-20387492D01*
X10151935Y-20435711D01*
X10095106Y-20449500D01*
X9795730Y-20449500D01*
X9765300Y-20452353D01*
X9765298Y-20452353D01*
X9637119Y-20497206D01*
X9637117Y-20497207D01*
X9527850Y-20577850D01*
X9447207Y-20687117D01*
X9447206Y-20687119D01*
X9402353Y-20815298D01*
X9402353Y-20815300D01*
X9399500Y-20845730D01*
X8828583Y-20845730D01*
X8812984Y-20787515D01*
X8802328Y-20769059D01*
X8740511Y-20661988D01*
X8740506Y-20661982D01*
X8666205Y-20587681D01*
X8632720Y-20526358D01*
X8637704Y-20456666D01*
X8666205Y-20412319D01*
X8696377Y-20382147D01*
X8740509Y-20338015D01*
X8812984Y-20212485D01*
X8850500Y-20072475D01*
X8850500Y-19927525D01*
X8812984Y-19787515D01*
X8774618Y-19721064D01*
X8740511Y-19661988D01*
X8740506Y-19661982D01*
X8638017Y-19559493D01*
X8638011Y-19559488D01*
X8512488Y-19487017D01*
X8512489Y-19487017D01*
X8501006Y-19483940D01*
X8372475Y-19449500D01*
X8227525Y-19449500D01*
X8098993Y-19483940D01*
X8087511Y-19487017D01*
X7961988Y-19559488D01*
X7961982Y-19559493D01*
X7958295Y-19563181D01*
X7896972Y-19596666D01*
X7870614Y-19599500D01*
X7573791Y-19599500D01*
X7506752Y-19579815D01*
X7460997Y-19527011D01*
X7451053Y-19457853D01*
X7474020Y-19401868D01*
X7502793Y-19362882D01*
X7525219Y-19298790D01*
X7547646Y-19234701D01*
X7547646Y-19234699D01*
X7550500Y-19204269D01*
X7550500Y-18864875D01*
X7570185Y-18797836D01*
X7622989Y-18752081D01*
X7692147Y-18742137D01*
X7755703Y-18771162D01*
X7781166Y-18806478D01*
X7782952Y-18805447D01*
X7859488Y-18938011D01*
X7859490Y-18938013D01*
X7859491Y-18938015D01*
X7961985Y-19040509D01*
X7961986Y-19040510D01*
X7961988Y-19040511D01*
X8087511Y-19112982D01*
X8087512Y-19112982D01*
X8087515Y-19112984D01*
X8227525Y-19150500D01*
X8227528Y-19150500D01*
X8372472Y-19150500D01*
X8372475Y-19150500D01*
X8512485Y-19112984D01*
X8638015Y-19040509D01*
X8740509Y-18938015D01*
X8812984Y-18812485D01*
X8850500Y-18672475D01*
X8850500Y-18527525D01*
X8812984Y-18387515D01*
X8777756Y-18326499D01*
X8761284Y-18258601D01*
X8784136Y-18192574D01*
X8839057Y-18149383D01*
X8885144Y-18140500D01*
X9451408Y-18140500D01*
X9451410Y-18140500D01*
X9550728Y-18113888D01*
X9639773Y-18062478D01*
X9712478Y-17989773D01*
X9763888Y-17900728D01*
X9790500Y-17801410D01*
X9790500Y-16650689D01*
X18240001Y-16650689D01*
X18254465Y-16742017D01*
X18310552Y-16852093D01*
X18310555Y-16852098D01*
X18397901Y-16939444D01*
X18397906Y-16939448D01*
X18507984Y-16995536D01*
X18507983Y-16995536D01*
X18599304Y-17009999D01*
X18950000Y-17009999D01*
X19000689Y-17009999D01*
X19092017Y-16995534D01*
X19202093Y-16939447D01*
X19202098Y-16939444D01*
X19289444Y-16852098D01*
X19289449Y-16852091D01*
X19289515Y-16851963D01*
X19289636Y-16851834D01*
X19295182Y-16844201D01*
X19296168Y-16844917D01*
X19337489Y-16801167D01*
X19405310Y-16784371D01*
X19471445Y-16806908D01*
X19504168Y-16844673D01*
X19504818Y-16844201D01*
X19510311Y-16851763D01*
X19510485Y-16851963D01*
X19510550Y-16852091D01*
X19510555Y-16852098D01*
X19597901Y-16939444D01*
X19597906Y-16939448D01*
X19707984Y-16995536D01*
X19707983Y-16995536D01*
X19799304Y-17009999D01*
X19849999Y-17009998D01*
X19850000Y-17009998D01*
X19850000Y-16630000D01*
X18950000Y-16630000D01*
X18950000Y-17009999D01*
X18599304Y-17009999D01*
X18649999Y-17009998D01*
X18650000Y-17009998D01*
X18650000Y-16630000D01*
X18240001Y-16630000D01*
X18240001Y-16650689D01*
X9790500Y-16650689D01*
X9790500Y-16052707D01*
X9810185Y-15985668D01*
X9862989Y-15939913D01*
X9932147Y-15929969D01*
X9946586Y-15932930D01*
X10030817Y-15955500D01*
X10030819Y-15955500D01*
X10169181Y-15955500D01*
X10169183Y-15955500D01*
X10302836Y-15919688D01*
X10422665Y-15850505D01*
X10520505Y-15752665D01*
X10589688Y-15632836D01*
X10625500Y-15499183D01*
X10625500Y-15499181D01*
X10626439Y-15492049D01*
X10635686Y-15471144D01*
X10640546Y-15448806D01*
X10652824Y-15432404D01*
X10654705Y-15428153D01*
X10661674Y-15420576D01*
X10725434Y-15356816D01*
X10786756Y-15323334D01*
X10813113Y-15320500D01*
X17270617Y-15320500D01*
X17337656Y-15340185D01*
X17383411Y-15392989D01*
X17393355Y-15462147D01*
X17388588Y-15479522D01*
X17389120Y-15479665D01*
X17387018Y-15487511D01*
X17387016Y-15487515D01*
X17349500Y-15627525D01*
X17349500Y-15772475D01*
X17387016Y-15912485D01*
X17387017Y-15912488D01*
X17459488Y-16038011D01*
X17459490Y-16038013D01*
X17459491Y-16038015D01*
X17561985Y-16140509D01*
X17561986Y-16140510D01*
X17561988Y-16140511D01*
X17687511Y-16212982D01*
X17687512Y-16212982D01*
X17687515Y-16212984D01*
X17827525Y-16250500D01*
X17827528Y-16250500D01*
X17972472Y-16250500D01*
X17972475Y-16250500D01*
X18083908Y-16220641D01*
X18108901Y-16221236D01*
X18133647Y-16217678D01*
X18143227Y-16222053D01*
X18153756Y-16222304D01*
X18174461Y-16236317D01*
X18197202Y-16246703D01*
X18202895Y-16255561D01*
X18211619Y-16261466D01*
X18221462Y-16284451D01*
X18234977Y-16305481D01*
X18237256Y-16321335D01*
X18239123Y-16325694D01*
X18239340Y-16329340D01*
X18240000Y-16330000D01*
X19876000Y-16330000D01*
X19884685Y-16332550D01*
X19893647Y-16331262D01*
X19917687Y-16342240D01*
X19943039Y-16349685D01*
X19948966Y-16356525D01*
X19957203Y-16360287D01*
X19971492Y-16382521D01*
X19988794Y-16402489D01*
X19991081Y-16413003D01*
X19994977Y-16419065D01*
X20000000Y-16454000D01*
X20000000Y-16480000D01*
X20026000Y-16480000D01*
X20093039Y-16499685D01*
X20138794Y-16552489D01*
X20150000Y-16604000D01*
X20150000Y-17009999D01*
X20200693Y-17009999D01*
X20206096Y-17009143D01*
X20275390Y-17018094D01*
X20328844Y-17063088D01*
X20349487Y-17129838D01*
X20349500Y-17131615D01*
X20349500Y-17652726D01*
X20376793Y-17754589D01*
X20382978Y-17765301D01*
X20429520Y-17845913D01*
X21429518Y-18845910D01*
X21429520Y-18845913D01*
X21504087Y-18920480D01*
X21571656Y-18959491D01*
X21594990Y-18972962D01*
X21601806Y-18978284D01*
X21617332Y-18999924D01*
X21635714Y-19019202D01*
X21638039Y-19028786D01*
X21642536Y-19035054D01*
X21643331Y-19050600D01*
X21649500Y-19076025D01*
X21649500Y-19593102D01*
X21651828Y-19612485D01*
X21660122Y-19681561D01*
X21660122Y-19681563D01*
X21660123Y-19681564D01*
X21672561Y-19713105D01*
X21715639Y-19822343D01*
X21807077Y-19942922D01*
X21927656Y-20034360D01*
X21927657Y-20034360D01*
X21927658Y-20034361D01*
X22068436Y-20089877D01*
X22156898Y-20100500D01*
X22425500Y-20100500D01*
X22492539Y-20120185D01*
X22538294Y-20172989D01*
X22549500Y-20224500D01*
X22549500Y-20810070D01*
X22529815Y-20877109D01*
X22477011Y-20922864D01*
X22470990Y-20925424D01*
X22440027Y-20937634D01*
X22440026Y-20937634D01*
X22324921Y-21024921D01*
X22237636Y-21140023D01*
X22184640Y-21274411D01*
X22180875Y-21305768D01*
X22174500Y-21358856D01*
X22174500Y-21891144D01*
X22175745Y-21901508D01*
X22184640Y-21975588D01*
X22237636Y-22109976D01*
X22324921Y-22225078D01*
X22440024Y-22312364D01*
X22442393Y-22313298D01*
X22444236Y-22314732D01*
X22447419Y-22316522D01*
X22447150Y-22316999D01*
X22497536Y-22356205D01*
X22520728Y-22422113D01*
X22504607Y-22490097D01*
X22471212Y-22527919D01*
X22360670Y-22610670D01*
X22278815Y-22720015D01*
X22278814Y-22720016D01*
X22231083Y-22847989D01*
X22225000Y-22904571D01*
X22225000Y-23025000D01*
X23674999Y-23025000D01*
X23674999Y-22904566D01*
X23674998Y-22904560D01*
X23668918Y-22847992D01*
X23621186Y-22720018D01*
X23621184Y-22720015D01*
X23539329Y-22610670D01*
X23428787Y-22527919D01*
X23386916Y-22471985D01*
X23381932Y-22402294D01*
X23415417Y-22340971D01*
X23452611Y-22316575D01*
X23452581Y-22316522D01*
X23453365Y-22316080D01*
X23457610Y-22313297D01*
X23458733Y-22312853D01*
X23459975Y-22312364D01*
X23575078Y-22225078D01*
X23662364Y-22109975D01*
X23715359Y-21975590D01*
X23725500Y-21891144D01*
X23725500Y-21358856D01*
X23715359Y-21274410D01*
X23662364Y-21140025D01*
X23662363Y-21140024D01*
X23662363Y-21140023D01*
X23575078Y-21024921D01*
X23459973Y-20937634D01*
X23429010Y-20925424D01*
X23373866Y-20882518D01*
X23350673Y-20816610D01*
X23350500Y-20810070D01*
X23350500Y-20224500D01*
X23370185Y-20157461D01*
X23422989Y-20111706D01*
X23474500Y-20100500D01*
X23743097Y-20100500D01*
X23743102Y-20100500D01*
X23831564Y-20089877D01*
X23972342Y-20034361D01*
X24092922Y-19942922D01*
X24184361Y-19822342D01*
X24239877Y-19681564D01*
X24250500Y-19593102D01*
X24250500Y-17606898D01*
X24239877Y-17518436D01*
X24220771Y-17469989D01*
X24214491Y-17400403D01*
X24246828Y-17338467D01*
X24307517Y-17303846D01*
X24336127Y-17300500D01*
X25263873Y-17300500D01*
X25330912Y-17320185D01*
X25376667Y-17372989D01*
X25386611Y-17442147D01*
X25379228Y-17469990D01*
X25360122Y-17518438D01*
X25356660Y-17547273D01*
X25349500Y-17606898D01*
X25349500Y-19593102D01*
X25351828Y-19612485D01*
X25360122Y-19681561D01*
X25360122Y-19681563D01*
X25360123Y-19681564D01*
X25372561Y-19713105D01*
X25415639Y-19822343D01*
X25507077Y-19942922D01*
X25627656Y-20034360D01*
X25627657Y-20034360D01*
X25627658Y-20034361D01*
X25768436Y-20089877D01*
X25856898Y-20100500D01*
X26125500Y-20100500D01*
X26192539Y-20120185D01*
X26238294Y-20172989D01*
X26249500Y-20224500D01*
X26249500Y-20810070D01*
X26229815Y-20877109D01*
X26177011Y-20922864D01*
X26170990Y-20925424D01*
X26140027Y-20937634D01*
X26140026Y-20937634D01*
X26024921Y-21024921D01*
X25937636Y-21140023D01*
X25884640Y-21274411D01*
X25880875Y-21305768D01*
X25874500Y-21358856D01*
X25874500Y-21891144D01*
X25875745Y-21901508D01*
X25884640Y-21975588D01*
X25937636Y-22109976D01*
X26024921Y-22225078D01*
X26140024Y-22312364D01*
X26142393Y-22313298D01*
X26144236Y-22314732D01*
X26147419Y-22316522D01*
X26147150Y-22316999D01*
X26197536Y-22356205D01*
X26220728Y-22422113D01*
X26204607Y-22490097D01*
X26171212Y-22527919D01*
X26060670Y-22610670D01*
X25978815Y-22720015D01*
X25978814Y-22720016D01*
X25931083Y-22847989D01*
X25925000Y-22904571D01*
X25925000Y-23025000D01*
X27374999Y-23025000D01*
X27374999Y-22904566D01*
X27374998Y-22904560D01*
X27368918Y-22847994D01*
X27353228Y-22805927D01*
X35906203Y-22805927D01*
X35906203Y-22805928D01*
X36026316Y-22886185D01*
X36026328Y-22886192D01*
X36208306Y-22961569D01*
X36208318Y-22961572D01*
X36401504Y-22999999D01*
X36401508Y-23000000D01*
X36598492Y-23000000D01*
X36598495Y-22999999D01*
X36791681Y-22961572D01*
X36791693Y-22961569D01*
X36973673Y-22886191D01*
X36973675Y-22886190D01*
X37093796Y-22805928D01*
X36500001Y-22212132D01*
X36500000Y-22212132D01*
X35906203Y-22805927D01*
X27353228Y-22805927D01*
X27352155Y-22803051D01*
X27352154Y-22803049D01*
X27321186Y-22720018D01*
X27321184Y-22720015D01*
X27239329Y-22610670D01*
X27128787Y-22527919D01*
X27086916Y-22471985D01*
X27081932Y-22402294D01*
X27115417Y-22340971D01*
X27152611Y-22316575D01*
X27152581Y-22316522D01*
X27153365Y-22316080D01*
X27157610Y-22313297D01*
X27158733Y-22312853D01*
X27159975Y-22312364D01*
X27275078Y-22225078D01*
X27362364Y-22109975D01*
X27415359Y-21975590D01*
X27424256Y-21901504D01*
X35500000Y-21901504D01*
X35500000Y-22098495D01*
X35538427Y-22291681D01*
X35538430Y-22291693D01*
X35613809Y-22473676D01*
X35613811Y-22473679D01*
X35694069Y-22593795D01*
X35694071Y-22593795D01*
X36287868Y-22000000D01*
X36287868Y-21999999D01*
X36712132Y-21999999D01*
X36712132Y-22000000D01*
X37305928Y-22593796D01*
X37386190Y-22473675D01*
X37386191Y-22473673D01*
X37461569Y-22291693D01*
X37461572Y-22291681D01*
X37499999Y-22098495D01*
X37500000Y-22098492D01*
X37500000Y-21901508D01*
X37499999Y-21901504D01*
X37461572Y-21708318D01*
X37461569Y-21708306D01*
X37386192Y-21526328D01*
X37386185Y-21526316D01*
X37305927Y-21406203D01*
X36712132Y-21999999D01*
X36287868Y-21999999D01*
X35694071Y-21406202D01*
X35694071Y-21406203D01*
X35613813Y-21526318D01*
X35613809Y-21526325D01*
X35538429Y-21708310D01*
X35538427Y-21708318D01*
X35500000Y-21901504D01*
X27424256Y-21901504D01*
X27425500Y-21891144D01*
X27425500Y-21358856D01*
X27415359Y-21274410D01*
X27383677Y-21194071D01*
X35906202Y-21194071D01*
X36500000Y-21787868D01*
X36500001Y-21787868D01*
X37093795Y-21194071D01*
X37093795Y-21194069D01*
X36973679Y-21113811D01*
X36973676Y-21113809D01*
X36791693Y-21038430D01*
X36791681Y-21038427D01*
X36598495Y-21000000D01*
X36401504Y-21000000D01*
X36208318Y-21038427D01*
X36208310Y-21038429D01*
X36026325Y-21113809D01*
X36026318Y-21113813D01*
X35906203Y-21194071D01*
X35906202Y-21194071D01*
X27383677Y-21194071D01*
X27362364Y-21140025D01*
X27362363Y-21140024D01*
X27362363Y-21140023D01*
X27275078Y-21024921D01*
X27159973Y-20937634D01*
X27129010Y-20925424D01*
X27073866Y-20882518D01*
X27050673Y-20816610D01*
X27050500Y-20810070D01*
X27050500Y-20224500D01*
X27070185Y-20157461D01*
X27122989Y-20111706D01*
X27174500Y-20100500D01*
X27443097Y-20100500D01*
X27443102Y-20100500D01*
X27531564Y-20089877D01*
X27672342Y-20034361D01*
X27792922Y-19942922D01*
X27884361Y-19822342D01*
X27939877Y-19681564D01*
X27950500Y-19593102D01*
X27950500Y-17606898D01*
X27939877Y-17518436D01*
X27884361Y-17377658D01*
X27884360Y-17377657D01*
X27884360Y-17377656D01*
X27792922Y-17257077D01*
X27672343Y-17165639D01*
X27531561Y-17110122D01*
X27485926Y-17104642D01*
X27443102Y-17099500D01*
X27443097Y-17099500D01*
X26817255Y-17099500D01*
X26750216Y-17079815D01*
X26729574Y-17063181D01*
X26245915Y-16579522D01*
X26245913Y-16579520D01*
X26176923Y-16539688D01*
X26154589Y-16526793D01*
X26089675Y-16509400D01*
X26052727Y-16499500D01*
X26052726Y-16499500D01*
X22067255Y-16499500D01*
X22000216Y-16479815D01*
X21979574Y-16463181D01*
X21686819Y-16170426D01*
X21653334Y-16109103D01*
X21650500Y-16082745D01*
X21650500Y-16079196D01*
X27875001Y-16079196D01*
X27877851Y-16109606D01*
X27922653Y-16237645D01*
X28003207Y-16346792D01*
X28112354Y-16427346D01*
X28240397Y-16472149D01*
X28270792Y-16474999D01*
X28449999Y-16474999D01*
X28750000Y-16474999D01*
X28929196Y-16474999D01*
X28959606Y-16472148D01*
X29087645Y-16427346D01*
X29196792Y-16346792D01*
X29277346Y-16237645D01*
X29322149Y-16109604D01*
X29322149Y-16109600D01*
X29325000Y-16079206D01*
X29325000Y-15975000D01*
X28750000Y-15975000D01*
X28750000Y-16474999D01*
X28449999Y-16474999D01*
X28450000Y-16474998D01*
X28450000Y-15975000D01*
X27875001Y-15975000D01*
X27875001Y-16079196D01*
X21650500Y-16079196D01*
X21650500Y-15597027D01*
X21670185Y-15529988D01*
X21722989Y-15484233D01*
X21792147Y-15474289D01*
X21855703Y-15503314D01*
X21893477Y-15562092D01*
X21894260Y-15564881D01*
X21895845Y-15570793D01*
X21907017Y-15612488D01*
X21979488Y-15738011D01*
X21979490Y-15738013D01*
X21979491Y-15738015D01*
X22081985Y-15840509D01*
X22081986Y-15840510D01*
X22081988Y-15840511D01*
X22207511Y-15912982D01*
X22207512Y-15912982D01*
X22207515Y-15912984D01*
X22347525Y-15950500D01*
X22347528Y-15950500D01*
X22492472Y-15950500D01*
X22492475Y-15950500D01*
X22632485Y-15912984D01*
X22758015Y-15840509D01*
X22860509Y-15738015D01*
X22932984Y-15612485D01*
X22970500Y-15472475D01*
X22970500Y-15327525D01*
X22932984Y-15187515D01*
X22927404Y-15177850D01*
X22887113Y-15108062D01*
X22882963Y-15092575D01*
X22875523Y-15080998D01*
X22870500Y-15046063D01*
X22870500Y-15021786D01*
X22890185Y-14954747D01*
X22942989Y-14908992D01*
X23012147Y-14899048D01*
X23050796Y-14911302D01*
X23117981Y-14945535D01*
X23117983Y-14945536D01*
X23209304Y-14959999D01*
X23229999Y-14959999D01*
X23230000Y-14959998D01*
X23230000Y-13840001D01*
X23229999Y-13840000D01*
X23209315Y-13840000D01*
X23117982Y-13854465D01*
X22999212Y-13914982D01*
X22998090Y-13912780D01*
X22945540Y-13931527D01*
X22877487Y-13915698D01*
X22864834Y-13907499D01*
X22863510Y-13906522D01*
X22768157Y-13836148D01*
X22768155Y-13836147D01*
X22642826Y-13792291D01*
X22642814Y-13792289D01*
X22617328Y-13789899D01*
X22552419Y-13764041D01*
X22541225Y-13754122D01*
X22236819Y-13449716D01*
X22203334Y-13388393D01*
X22200500Y-13362035D01*
X22200500Y-12890693D01*
X22200500Y-12890691D01*
X22184664Y-12831591D01*
X22186327Y-12761743D01*
X22225489Y-12703880D01*
X22289718Y-12676376D01*
X22304439Y-12675499D01*
X22821950Y-12675499D01*
X22863554Y-12669438D01*
X22892509Y-12665220D01*
X22947983Y-12638099D01*
X22960070Y-12635303D01*
X22967509Y-12630523D01*
X23002444Y-12625500D01*
X23093101Y-12625500D01*
X23160140Y-12645185D01*
X23180781Y-12661818D01*
X23719437Y-13200475D01*
X23719438Y-13200476D01*
X23719440Y-13200477D01*
X23758765Y-13223181D01*
X23805063Y-13249911D01*
X23900564Y-13275500D01*
X23900565Y-13275500D01*
X24600211Y-13275500D01*
X24667250Y-13295185D01*
X24713005Y-13347989D01*
X24715565Y-13354009D01*
X24737635Y-13409974D01*
X24824921Y-13525078D01*
X24940023Y-13612363D01*
X24940024Y-13612363D01*
X24940025Y-13612364D01*
X24995871Y-13634387D01*
X25010090Y-13645450D01*
X25026830Y-13652112D01*
X25037091Y-13666459D01*
X25051014Y-13677292D01*
X25056994Y-13694287D01*
X25067476Y-13708942D01*
X25068351Y-13726561D01*
X25074207Y-13743200D01*
X25070050Y-13760729D01*
X25070945Y-13778726D01*
X25062156Y-13794020D01*
X25058087Y-13811184D01*
X25045111Y-13823685D01*
X25036135Y-13839307D01*
X25008609Y-13858851D01*
X25007770Y-13859661D01*
X25007428Y-13859839D01*
X24895516Y-13917827D01*
X24870010Y-13922797D01*
X24845540Y-13931527D01*
X24836275Y-13929371D01*
X24826936Y-13931192D01*
X24802791Y-13921583D01*
X24777487Y-13915698D01*
X24764834Y-13907499D01*
X24763510Y-13906522D01*
X24668157Y-13836148D01*
X24668155Y-13836147D01*
X24542826Y-13792291D01*
X24542814Y-13792289D01*
X24513070Y-13789500D01*
X24513066Y-13789500D01*
X24126934Y-13789500D01*
X24126930Y-13789500D01*
X24097185Y-13792289D01*
X24097173Y-13792291D01*
X23971842Y-13836147D01*
X23971841Y-13836148D01*
X23884107Y-13900899D01*
X23818478Y-13924870D01*
X23754179Y-13911614D01*
X23642015Y-13854463D01*
X23550691Y-13840000D01*
X23530000Y-13840000D01*
X23530000Y-14959999D01*
X23550689Y-14959999D01*
X23642018Y-14945534D01*
X23689204Y-14921492D01*
X23691909Y-14920983D01*
X23693989Y-14919182D01*
X23726044Y-14914572D01*
X23757873Y-14908595D01*
X23760422Y-14909629D01*
X23763147Y-14909238D01*
X23792613Y-14922695D01*
X23822614Y-14934871D01*
X23824199Y-14937119D01*
X23826703Y-14938263D01*
X23844217Y-14965516D01*
X23862871Y-14991977D01*
X23863443Y-14995433D01*
X23864477Y-14997041D01*
X23869500Y-15031976D01*
X23869500Y-15046063D01*
X23852887Y-15108062D01*
X23807019Y-15187508D01*
X23807016Y-15187513D01*
X23793013Y-15239773D01*
X23769500Y-15327525D01*
X23769500Y-15472475D01*
X23795845Y-15570793D01*
X23807017Y-15612488D01*
X23879488Y-15738011D01*
X23879490Y-15738013D01*
X23879491Y-15738015D01*
X23981985Y-15840509D01*
X23981986Y-15840510D01*
X23981988Y-15840511D01*
X24107511Y-15912982D01*
X24107512Y-15912982D01*
X24107515Y-15912984D01*
X24247525Y-15950500D01*
X24247528Y-15950500D01*
X24392472Y-15950500D01*
X24392475Y-15950500D01*
X24532485Y-15912984D01*
X24658015Y-15840509D01*
X24760509Y-15738015D01*
X24832984Y-15612485D01*
X24844155Y-15570793D01*
X27875000Y-15570793D01*
X27875000Y-15675000D01*
X28450000Y-15675000D01*
X28450000Y-15175000D01*
X28270804Y-15175000D01*
X28240393Y-15177851D01*
X28112354Y-15222653D01*
X28003207Y-15303207D01*
X27922653Y-15412354D01*
X27877850Y-15540395D01*
X27877850Y-15540399D01*
X27875000Y-15570793D01*
X24844155Y-15570793D01*
X24870500Y-15472475D01*
X24870500Y-15327525D01*
X24832984Y-15187515D01*
X24827404Y-15177850D01*
X24787113Y-15108062D01*
X24782963Y-15092575D01*
X24775523Y-15080998D01*
X24770500Y-15046063D01*
X24770500Y-15021786D01*
X24790185Y-14954747D01*
X24842989Y-14908992D01*
X24912147Y-14899048D01*
X24950796Y-14911302D01*
X25017981Y-14945535D01*
X25017983Y-14945536D01*
X25109304Y-14959999D01*
X25129999Y-14959999D01*
X25430000Y-14959999D01*
X25450689Y-14959999D01*
X25542017Y-14945534D01*
X25652093Y-14889447D01*
X25652098Y-14889444D01*
X25739444Y-14802098D01*
X25739448Y-14802093D01*
X25795536Y-14692015D01*
X25810000Y-14600691D01*
X25810000Y-14550000D01*
X25430000Y-14550000D01*
X25430000Y-14959999D01*
X25129999Y-14959999D01*
X25130000Y-14959998D01*
X25130000Y-14524000D01*
X25132550Y-14515314D01*
X25131262Y-14506353D01*
X25142240Y-14482312D01*
X25149685Y-14456961D01*
X25156525Y-14451033D01*
X25160287Y-14442797D01*
X25182521Y-14428507D01*
X25202489Y-14411206D01*
X25213003Y-14408918D01*
X25219065Y-14405023D01*
X25254000Y-14400000D01*
X25280000Y-14400000D01*
X25280000Y-14374000D01*
X25299685Y-14306961D01*
X25352489Y-14261206D01*
X25404000Y-14250000D01*
X25809999Y-14250000D01*
X25809999Y-14199310D01*
X25795534Y-14107982D01*
X25739447Y-13997906D01*
X25739444Y-13997901D01*
X25652098Y-13910555D01*
X25652091Y-13910550D01*
X25649312Y-13909134D01*
X25646547Y-13906522D01*
X25644201Y-13904818D01*
X25644421Y-13904514D01*
X25598519Y-13861157D01*
X25581727Y-13793335D01*
X25604268Y-13727201D01*
X25658985Y-13683753D01*
X25690831Y-13675536D01*
X25691131Y-13675500D01*
X25691144Y-13675500D01*
X25775590Y-13665359D01*
X25909975Y-13612364D01*
X26025078Y-13525078D01*
X26101196Y-13424701D01*
X26157389Y-13383178D01*
X26227110Y-13378627D01*
X26288224Y-13412492D01*
X26298804Y-13424702D01*
X26374921Y-13525078D01*
X26490023Y-13612363D01*
X26490024Y-13612363D01*
X26490025Y-13612364D01*
X26624410Y-13665359D01*
X26708856Y-13675500D01*
X26708862Y-13675500D01*
X27193101Y-13675500D01*
X27260140Y-13695185D01*
X27280782Y-13711819D01*
X27788181Y-14219218D01*
X27821666Y-14280541D01*
X27824500Y-14306898D01*
X27824500Y-14422869D01*
X27824501Y-14422876D01*
X27830908Y-14482483D01*
X27881202Y-14617328D01*
X27881206Y-14617335D01*
X27967452Y-14732544D01*
X27967455Y-14732547D01*
X28082664Y-14818793D01*
X28082671Y-14818797D01*
X28123720Y-14834107D01*
X28217517Y-14869091D01*
X28277127Y-14875500D01*
X28922872Y-14875499D01*
X28982483Y-14869091D01*
X29093962Y-14827511D01*
X29111744Y-14826240D01*
X29128448Y-14820010D01*
X29145869Y-14823799D01*
X29163652Y-14822528D01*
X29179299Y-14831072D01*
X29196721Y-14834862D01*
X29224975Y-14856013D01*
X29388181Y-15019219D01*
X29421666Y-15080542D01*
X29424500Y-15106899D01*
X29424500Y-15222869D01*
X29424679Y-15226195D01*
X29423807Y-15226241D01*
X29412062Y-15291336D01*
X29364450Y-15342472D01*
X29296750Y-15359750D01*
X29230457Y-15337684D01*
X29201410Y-15309464D01*
X29196793Y-15303208D01*
X29087645Y-15222653D01*
X28959602Y-15177850D01*
X28929207Y-15175000D01*
X28750000Y-15175000D01*
X28750000Y-15675000D01*
X29324999Y-15675000D01*
X29324999Y-15581224D01*
X29344684Y-15514185D01*
X29397488Y-15468430D01*
X29466646Y-15458486D01*
X29530202Y-15487511D01*
X29533429Y-15490408D01*
X29541587Y-15497992D01*
X29567454Y-15532546D01*
X29625473Y-15575979D01*
X29630308Y-15580474D01*
X29644920Y-15605061D01*
X29662060Y-15627957D01*
X29663043Y-15635554D01*
X29666004Y-15640537D01*
X29665510Y-15654629D01*
X29669263Y-15683628D01*
X29604644Y-16329824D01*
X29601953Y-16345930D01*
X29598174Y-16361961D01*
X29598687Y-16378884D01*
X29598931Y-16386955D01*
X29596445Y-16411825D01*
X29600421Y-16436135D01*
X29600669Y-16444319D01*
X29600670Y-16444323D01*
X29601169Y-16460780D01*
X29601169Y-16460782D01*
X29604586Y-16472148D01*
X29608369Y-16484728D01*
X29612405Y-16509400D01*
X29622539Y-16531857D01*
X29624894Y-16539688D01*
X29624897Y-16539695D01*
X29629640Y-16555469D01*
X29629641Y-16555470D01*
X29638544Y-16569865D01*
X29646108Y-16584083D01*
X29653073Y-16599517D01*
X29653074Y-16599518D01*
X29654325Y-16601047D01*
X29663499Y-16612261D01*
X29668686Y-16618600D01*
X29681647Y-16639557D01*
X29699850Y-16656689D01*
X29704962Y-16662937D01*
X29715679Y-16676036D01*
X29715681Y-16676038D01*
X29715684Y-16676041D01*
X29729048Y-16685647D01*
X29741655Y-16696034D01*
X29746470Y-16700566D01*
X29802416Y-16753222D01*
X29837743Y-16813503D01*
X29834871Y-16883314D01*
X29794712Y-16940489D01*
X29786322Y-16946620D01*
X29730341Y-16984025D01*
X29584024Y-17130342D01*
X29469058Y-17302403D01*
X29389870Y-17493579D01*
X29389868Y-17493587D01*
X29349500Y-17696530D01*
X29349500Y-17903469D01*
X29389868Y-18106412D01*
X29389870Y-18106420D01*
X29469058Y-18297596D01*
X29584024Y-18469657D01*
X29730342Y-18615975D01*
X29730345Y-18615977D01*
X29902402Y-18730941D01*
X30093580Y-18810130D01*
X30296530Y-18850499D01*
X30296534Y-18850500D01*
X30296535Y-18850500D01*
X30503466Y-18850500D01*
X30503467Y-18850499D01*
X30706420Y-18810130D01*
X30897598Y-18730941D01*
X31069655Y-18615977D01*
X31215977Y-18469655D01*
X31330941Y-18297598D01*
X31410130Y-18106420D01*
X31450500Y-17903465D01*
X31450500Y-17696535D01*
X31410130Y-17493580D01*
X31330941Y-17302402D01*
X31215977Y-17130345D01*
X31215975Y-17130342D01*
X31069657Y-16984024D01*
X30897595Y-16869057D01*
X30851099Y-16849798D01*
X30841759Y-16842271D01*
X30830292Y-16838758D01*
X30815059Y-16820755D01*
X30796695Y-16805957D01*
X30791778Y-16793241D01*
X30785161Y-16785421D01*
X30775615Y-16751442D01*
X30775500Y-16750569D01*
X30775500Y-16750565D01*
X30775498Y-16750560D01*
X30774747Y-16744857D01*
X30773831Y-16739221D01*
X30773831Y-16739214D01*
X30761229Y-16697307D01*
X30749910Y-16655062D01*
X30747022Y-16650060D01*
X30745360Y-16644532D01*
X30736373Y-16630000D01*
X30723333Y-16608915D01*
X30723333Y-16608916D01*
X30722349Y-16607326D01*
X30700475Y-16569438D01*
X30696394Y-16565357D01*
X30693357Y-16560446D01*
X30693354Y-16560443D01*
X30662853Y-16531736D01*
X30661492Y-16530455D01*
X30630562Y-16499525D01*
X30625561Y-16496637D01*
X30551939Y-16427346D01*
X30411516Y-16295183D01*
X30376189Y-16234902D01*
X30373116Y-16192550D01*
X30417505Y-15748661D01*
X30443762Y-15683916D01*
X30497557Y-15644820D01*
X30567326Y-15618798D01*
X30567326Y-15618797D01*
X30567331Y-15618796D01*
X30682546Y-15532546D01*
X30768796Y-15417331D01*
X30819091Y-15282483D01*
X30825500Y-15222873D01*
X30825499Y-14577128D01*
X30825499Y-14577127D01*
X31074500Y-14577127D01*
X31074500Y-14577134D01*
X31074500Y-14577135D01*
X31074500Y-15222870D01*
X31074501Y-15222876D01*
X31080908Y-15282483D01*
X31131202Y-15417328D01*
X31131206Y-15417335D01*
X31217452Y-15532544D01*
X31217455Y-15532547D01*
X31332664Y-15618793D01*
X31332673Y-15618798D01*
X31443832Y-15660257D01*
X31499766Y-15702127D01*
X31524184Y-15767592D01*
X31524500Y-15776439D01*
X31524500Y-16700566D01*
X31524500Y-16799436D01*
X31543323Y-16869685D01*
X31550091Y-16894943D01*
X31550092Y-16894944D01*
X31572424Y-16933623D01*
X31572425Y-16933624D01*
X31599525Y-16980562D01*
X31669438Y-17050475D01*
X31755062Y-17099910D01*
X31850565Y-17125500D01*
X31850566Y-17125500D01*
X31850567Y-17125500D01*
X32000791Y-17125500D01*
X32000794Y-17125498D01*
X32756022Y-17125498D01*
X32810481Y-17138096D01*
X32916375Y-17189865D01*
X32989364Y-17200499D01*
X32989370Y-17200499D01*
X33410630Y-17200499D01*
X33410636Y-17200499D01*
X33483625Y-17189865D01*
X33589516Y-17138098D01*
X33643976Y-17125498D01*
X34325899Y-17125498D01*
X34325903Y-17125500D01*
X34350564Y-17125500D01*
X34449434Y-17125500D01*
X34449436Y-17125500D01*
X34544937Y-17099910D01*
X34630563Y-17050474D01*
X34666433Y-17014603D01*
X34700475Y-16980563D01*
X34700476Y-16980560D01*
X36000475Y-15680563D01*
X36049911Y-15594937D01*
X36075500Y-15499436D01*
X36075500Y-15400564D01*
X36075500Y-9959227D01*
X36095185Y-9892188D01*
X36147989Y-9846433D01*
X36217147Y-9836489D01*
X36255789Y-9848740D01*
X36359360Y-9901512D01*
X36443196Y-9944229D01*
X36443198Y-9944229D01*
X36443201Y-9944231D01*
X36559592Y-9982049D01*
X36660339Y-10014784D01*
X36885838Y-10050500D01*
X36885843Y-10050500D01*
X37114162Y-10050500D01*
X37339660Y-10014784D01*
X37352688Y-10010551D01*
X37556799Y-9944231D01*
X37760228Y-9840579D01*
X37944937Y-9706379D01*
X38106379Y-9544937D01*
X38240579Y-9360228D01*
X38344231Y-9156799D01*
X38414784Y-8939660D01*
X38419963Y-8906961D01*
X38450500Y-8714162D01*
X38450500Y-7285837D01*
X38414784Y-7060339D01*
X38359639Y-6890621D01*
X38344231Y-6843201D01*
X38344229Y-6843198D01*
X38344229Y-6843196D01*
X38284259Y-6725500D01*
X38240579Y-6639772D01*
X38106379Y-6455063D01*
X37944937Y-6293621D01*
X37760228Y-6159421D01*
X37710539Y-6134103D01*
X37556803Y-6055770D01*
X37339660Y-5985215D01*
X37114162Y-5949500D01*
X37114157Y-5949500D01*
X36885843Y-5949500D01*
X36885838Y-5949500D01*
X36660339Y-5985215D01*
X36443196Y-6055770D01*
X36239771Y-6159421D01*
X36055061Y-6293622D01*
X35893622Y-6455061D01*
X35759421Y-6639771D01*
X35655770Y-6843196D01*
X35585215Y-7060339D01*
X35549500Y-7285837D01*
X35549500Y-8714163D01*
X35567686Y-8828988D01*
X35566985Y-8834411D01*
X35568897Y-8839537D01*
X35562554Y-8868694D01*
X35558731Y-8898281D01*
X35554900Y-8903883D01*
X35554046Y-8907810D01*
X35532896Y-8936065D01*
X35469439Y-8999524D01*
X35399525Y-9069438D01*
X35350091Y-9155059D01*
X35350091Y-9155060D01*
X35350090Y-9155062D01*
X35324500Y-9250565D01*
X35324500Y-9250567D01*
X35324500Y-12427749D01*
X35304815Y-12494788D01*
X35252011Y-12540543D01*
X35182853Y-12550487D01*
X35119297Y-12521462D01*
X35090015Y-12484044D01*
X35019095Y-12344856D01*
X34903444Y-12185678D01*
X34764321Y-12046555D01*
X34605143Y-11930904D01*
X34429835Y-11841581D01*
X34242705Y-11780778D01*
X34048382Y-11750000D01*
X33350000Y-11750000D01*
X33350000Y-12500000D01*
X33050000Y-12500000D01*
X33050000Y-11750000D01*
X32351618Y-11750000D01*
X32157294Y-11780778D01*
X31970164Y-11841581D01*
X31794856Y-11930904D01*
X31635678Y-12046555D01*
X31496555Y-12185678D01*
X31380904Y-12344856D01*
X31291581Y-12520164D01*
X31230778Y-12707294D01*
X31208176Y-12850000D01*
X31972555Y-12850000D01*
X31950000Y-12934174D01*
X31950000Y-13065826D01*
X31972555Y-13150000D01*
X31208176Y-13150000D01*
X31230778Y-13292705D01*
X31291581Y-13479835D01*
X31380904Y-13655143D01*
X31496555Y-13814321D01*
X31596326Y-13914092D01*
X31629811Y-13975415D01*
X31624827Y-14045107D01*
X31582955Y-14101040D01*
X31521898Y-14125063D01*
X31467516Y-14130908D01*
X31332671Y-14181202D01*
X31332664Y-14181206D01*
X31217455Y-14267452D01*
X31217452Y-14267455D01*
X31131206Y-14382664D01*
X31131202Y-14382671D01*
X31080910Y-14517513D01*
X31080909Y-14517517D01*
X31074500Y-14577127D01*
X30825499Y-14577127D01*
X30819091Y-14517517D01*
X30818269Y-14515314D01*
X30768797Y-14382671D01*
X30768793Y-14382664D01*
X30682547Y-14267455D01*
X30682544Y-14267452D01*
X30567335Y-14181206D01*
X30567328Y-14181202D01*
X30432486Y-14130910D01*
X30432485Y-14130909D01*
X30432483Y-14130909D01*
X30372873Y-14124500D01*
X30372863Y-14124500D01*
X29877129Y-14124500D01*
X29877123Y-14124501D01*
X29817515Y-14130909D01*
X29706036Y-14172487D01*
X29688254Y-14173758D01*
X29671550Y-14179989D01*
X29654128Y-14176199D01*
X29636344Y-14177471D01*
X29620695Y-14168926D01*
X29603277Y-14165137D01*
X29575026Y-14143989D01*
X29408517Y-13977480D01*
X29375035Y-13916159D01*
X29372911Y-13903054D01*
X29369091Y-13867516D01*
X29318797Y-13732671D01*
X29318793Y-13732664D01*
X29232547Y-13617455D01*
X29232544Y-13617452D01*
X29117335Y-13531206D01*
X29117328Y-13531202D01*
X28982486Y-13480910D01*
X28982485Y-13480909D01*
X28982483Y-13480909D01*
X28922873Y-13474500D01*
X28922863Y-13474500D01*
X28277129Y-13474500D01*
X28277123Y-13474501D01*
X28217516Y-13480908D01*
X28215277Y-13481744D01*
X28213422Y-13481876D01*
X28209971Y-13482692D01*
X28209838Y-13482132D01*
X28145584Y-13486720D01*
X28084275Y-13453238D01*
X27805872Y-13174835D01*
X27797176Y-13166133D01*
X27794763Y-13162179D01*
X27762889Y-13131823D01*
X27761789Y-13130722D01*
X27745759Y-13101343D01*
X27729013Y-13072376D01*
X27728747Y-13070162D01*
X27728325Y-13069388D01*
X27728448Y-13067667D01*
X27725500Y-13043071D01*
X27725500Y-12608862D01*
X27725500Y-12608856D01*
X27715359Y-12524410D01*
X27662364Y-12390025D01*
X27662363Y-12390024D01*
X27662363Y-12390023D01*
X27575078Y-12274921D01*
X27459976Y-12187636D01*
X27325588Y-12134640D01*
X27282242Y-12129435D01*
X27241144Y-12124500D01*
X26708856Y-12124500D01*
X26670841Y-12129065D01*
X26624411Y-12134640D01*
X26490023Y-12187636D01*
X26374923Y-12274920D01*
X26298804Y-12375298D01*
X26242611Y-12416821D01*
X26172890Y-12421372D01*
X26111776Y-12387507D01*
X26101196Y-12375298D01*
X26089594Y-12359999D01*
X26025078Y-12274922D01*
X26025076Y-12274921D01*
X26025076Y-12274920D01*
X25909976Y-12187636D01*
X25775588Y-12134640D01*
X25732242Y-12129435D01*
X25691144Y-12124500D01*
X25158856Y-12124500D01*
X25120841Y-12129065D01*
X25074411Y-12134640D01*
X24940023Y-12187636D01*
X24824921Y-12274921D01*
X24737635Y-12390025D01*
X24715565Y-12445991D01*
X24672659Y-12501134D01*
X24606751Y-12524327D01*
X24600211Y-12524500D01*
X24156900Y-12524500D01*
X24089861Y-12504815D01*
X24069219Y-12488181D01*
X23853219Y-12272181D01*
X23819734Y-12210858D01*
X23824718Y-12141166D01*
X23866590Y-12085233D01*
X23932054Y-12060816D01*
X23940900Y-12060500D01*
X24223070Y-12060500D01*
X24236289Y-12059260D01*
X24252819Y-12057710D01*
X24252823Y-12057708D01*
X24252826Y-12057708D01*
X24301836Y-12040557D01*
X24378157Y-12013852D01*
X24484999Y-11934999D01*
X24563852Y-11828157D01*
X24607710Y-11702819D01*
X24610500Y-11673066D01*
X24610500Y-11286934D01*
X24609395Y-11275155D01*
X24607710Y-11257185D01*
X24607710Y-11257181D01*
X24607708Y-11257177D01*
X24607708Y-11257173D01*
X24566284Y-11138794D01*
X24563852Y-11131843D01*
X24520890Y-11073631D01*
X24496920Y-11008005D01*
X24512235Y-10939835D01*
X24520885Y-10926374D01*
X24563852Y-10868157D01*
X24601511Y-10760536D01*
X24607708Y-10742826D01*
X24607708Y-10742823D01*
X24607710Y-10742819D01*
X24610500Y-10713066D01*
X24610500Y-10326934D01*
X24607710Y-10297181D01*
X24607708Y-10297177D01*
X24607708Y-10297173D01*
X24563852Y-10171844D01*
X24563852Y-10171843D01*
X24484999Y-10065001D01*
X24378157Y-9986148D01*
X24378156Y-9986147D01*
X24307194Y-9961316D01*
X24303814Y-9958892D01*
X24299683Y-9958411D01*
X24275667Y-9938703D01*
X24250418Y-9920594D01*
X24248884Y-9916726D01*
X24245671Y-9914089D01*
X24236123Y-9884531D01*
X24224672Y-9855641D01*
X24225473Y-9851559D01*
X24224195Y-9847602D01*
X24232144Y-9817567D01*
X24238129Y-9787079D01*
X24241312Y-9782931D01*
X24242073Y-9780059D01*
X24264456Y-9752781D01*
X24373489Y-9653056D01*
X24384485Y-9642999D01*
X24447239Y-9612280D01*
X24468173Y-9610500D01*
X24613070Y-9610500D01*
X24626289Y-9609260D01*
X24642819Y-9607710D01*
X24642823Y-9607708D01*
X24642826Y-9607708D01*
X24727276Y-9578157D01*
X24768157Y-9563852D01*
X24864836Y-9492499D01*
X24930461Y-9468529D01*
X24998631Y-9483844D01*
X25005500Y-9488222D01*
X25117984Y-9545536D01*
X25117983Y-9545536D01*
X25209304Y-9559999D01*
X25229999Y-9559999D01*
X25230000Y-9559998D01*
X25230000Y-8440001D01*
X25229999Y-8440000D01*
X25209315Y-8440000D01*
X25117980Y-8454465D01*
X25107824Y-8459640D01*
X25039155Y-8472535D01*
X24974415Y-8446257D01*
X24934159Y-8389149D01*
X24931169Y-8319344D01*
X24931757Y-8317060D01*
X24932983Y-8312486D01*
X24932984Y-8312485D01*
X24970500Y-8172475D01*
X24970500Y-8027525D01*
X24932984Y-7887515D01*
X24905011Y-7839065D01*
X24860511Y-7761988D01*
X24860506Y-7761982D01*
X24758017Y-7659493D01*
X24758011Y-7659488D01*
X24632488Y-7587017D01*
X24632489Y-7587017D01*
X24621006Y-7583940D01*
X24492475Y-7549500D01*
X24347525Y-7549500D01*
X24218993Y-7583940D01*
X24207511Y-7587017D01*
X24081988Y-7659488D01*
X24081982Y-7659493D01*
X23979493Y-7761982D01*
X23979488Y-7761988D01*
X23907017Y-7887511D01*
X23907016Y-7887515D01*
X23869500Y-8027525D01*
X23869500Y-8172475D01*
X23907016Y-8312485D01*
X23952887Y-8391936D01*
X23957037Y-8407423D01*
X23964477Y-8419000D01*
X23969500Y-8453935D01*
X23969500Y-8468101D01*
X23949815Y-8535140D01*
X23945270Y-8541734D01*
X23886148Y-8621841D01*
X23886147Y-8621842D01*
X23842291Y-8747173D01*
X23842289Y-8747185D01*
X23839500Y-8776929D01*
X23839500Y-8865798D01*
X23819815Y-8932837D01*
X23799189Y-8957298D01*
X23358188Y-9360651D01*
X23295434Y-9391371D01*
X23226033Y-9383287D01*
X23172020Y-9338966D01*
X23150544Y-9272479D01*
X23150499Y-9269195D01*
X23150499Y-9153052D01*
X23150054Y-9150000D01*
X23140220Y-9082493D01*
X23140220Y-9082492D01*
X23140220Y-9082491D01*
X23126516Y-9054460D01*
X23114756Y-8985591D01*
X23126515Y-8945540D01*
X23140220Y-8917509D01*
X23150500Y-8846949D01*
X23150499Y-8653052D01*
X23148597Y-8639999D01*
X23142529Y-8598344D01*
X23140220Y-8582491D01*
X23087012Y-8473653D01*
X23087010Y-8473651D01*
X23087010Y-8473650D01*
X23001348Y-8387988D01*
X22892511Y-8334780D01*
X22874869Y-8332210D01*
X22821949Y-8324500D01*
X22821943Y-8324500D01*
X22299499Y-8324500D01*
X22232460Y-8304815D01*
X22186705Y-8252011D01*
X22175499Y-8200500D01*
X22175499Y-7678049D01*
X22170302Y-7642375D01*
X22172822Y-7624611D01*
X22170269Y-7606853D01*
X22177628Y-7590738D01*
X22180117Y-7573198D01*
X22191840Y-7559617D01*
X22199294Y-7543297D01*
X22214197Y-7533719D01*
X22225774Y-7520309D01*
X22242979Y-7515222D01*
X22258072Y-7505523D01*
X22292557Y-7500564D01*
X22292776Y-7500500D01*
X22495833Y-7500500D01*
X22497800Y-7500515D01*
X22546364Y-7501287D01*
X22546366Y-7501286D01*
X22546589Y-7501290D01*
X22546817Y-7501277D01*
X22548543Y-7501050D01*
X22550530Y-7500805D01*
X22552272Y-7500603D01*
X22552501Y-7500560D01*
X22552725Y-7500500D01*
X22552727Y-7500500D01*
X22599753Y-7487898D01*
X22601413Y-7487468D01*
X22648645Y-7475613D01*
X22648651Y-7475609D01*
X22652530Y-7474075D01*
X22652530Y-7474074D01*
X22652570Y-7474059D01*
X22654192Y-7473417D01*
X22654380Y-7473326D01*
X22654585Y-7473207D01*
X22654587Y-7473207D01*
X22697522Y-7448418D01*
X22740795Y-7424342D01*
X22743105Y-7422102D01*
X22745907Y-7420485D01*
X22745910Y-7420481D01*
X22745913Y-7420480D01*
X22780319Y-7386072D01*
X22781659Y-7384754D01*
X23116439Y-7060437D01*
X23178285Y-7027930D01*
X23202717Y-7025499D01*
X23622871Y-7025499D01*
X23622872Y-7025499D01*
X23682483Y-7019091D01*
X23817331Y-6968796D01*
X23932546Y-6882546D01*
X23988519Y-6807775D01*
X24044451Y-6765906D01*
X24114142Y-6760922D01*
X24175466Y-6794407D01*
X24187052Y-6807778D01*
X24210671Y-6839330D01*
X24320015Y-6921184D01*
X24320016Y-6921185D01*
X24447991Y-6968917D01*
X24447994Y-6968918D01*
X24504555Y-6974999D01*
X24649999Y-6974999D01*
X24650000Y-6974998D01*
X24650000Y-6399000D01*
X24652550Y-6390314D01*
X24651262Y-6381353D01*
X24662240Y-6357312D01*
X24669685Y-6331961D01*
X24676525Y-6326033D01*
X24680287Y-6317797D01*
X24702521Y-6303507D01*
X24722489Y-6286206D01*
X24733003Y-6283918D01*
X24739065Y-6280023D01*
X24774000Y-6275000D01*
X24826000Y-6275000D01*
X24893039Y-6294685D01*
X24938794Y-6347489D01*
X24950000Y-6399000D01*
X24950000Y-6974999D01*
X25095433Y-6974999D01*
X25095439Y-6974998D01*
X25152007Y-6968918D01*
X25279981Y-6921186D01*
X25279984Y-6921184D01*
X25389329Y-6839329D01*
X25412946Y-6807780D01*
X25468879Y-6765907D01*
X25538570Y-6760921D01*
X25599894Y-6794405D01*
X25611481Y-6807776D01*
X25611484Y-6807780D01*
X25635102Y-6839330D01*
X25667455Y-6882547D01*
X25782664Y-6968793D01*
X25782669Y-6968796D01*
X25818832Y-6982284D01*
X25836558Y-6995553D01*
X25856703Y-7004753D01*
X25863984Y-7016083D01*
X25874766Y-7024154D01*
X25882504Y-7044902D01*
X25894477Y-7063531D01*
X25897628Y-7085446D01*
X25899184Y-7089618D01*
X25899500Y-7098466D01*
X25899500Y-7170614D01*
X25879815Y-7237653D01*
X25863181Y-7258295D01*
X25859493Y-7261982D01*
X25859488Y-7261988D01*
X25787017Y-7387511D01*
X25787016Y-7387515D01*
X25749500Y-7527525D01*
X25749500Y-7672475D01*
X25782036Y-7793899D01*
X25787017Y-7812488D01*
X25859488Y-7938011D01*
X25859490Y-7938013D01*
X25859491Y-7938015D01*
X25961985Y-8040509D01*
X25961986Y-8040510D01*
X25961988Y-8040511D01*
X26087511Y-8112982D01*
X26087512Y-8112982D01*
X26087515Y-8112984D01*
X26220992Y-8148749D01*
X26280649Y-8185112D01*
X26311178Y-8247959D01*
X26302883Y-8317334D01*
X26258398Y-8371212D01*
X26204516Y-8390532D01*
X26204549Y-8390681D01*
X26203407Y-8390930D01*
X26200483Y-8391979D01*
X26197190Y-8392288D01*
X26197173Y-8392291D01*
X26071844Y-8436147D01*
X25965001Y-8515000D01*
X25963324Y-8517272D01*
X25962043Y-8519007D01*
X25906396Y-8561256D01*
X25836740Y-8566713D01*
X25775191Y-8533645D01*
X25774595Y-8533052D01*
X25752098Y-8510555D01*
X25752093Y-8510551D01*
X25642015Y-8454463D01*
X25550691Y-8440000D01*
X25530000Y-8440000D01*
X25530000Y-9559999D01*
X25550689Y-9559999D01*
X25642017Y-9545534D01*
X25752093Y-9489447D01*
X25774593Y-9466948D01*
X25835916Y-9433462D01*
X25905608Y-9438445D01*
X25961542Y-9480316D01*
X25961883Y-9480774D01*
X25965001Y-9484999D01*
X26071843Y-9563852D01*
X26106268Y-9575898D01*
X26197173Y-9607708D01*
X26197177Y-9607708D01*
X26197181Y-9607710D01*
X26212057Y-9609105D01*
X26226930Y-9610500D01*
X26226934Y-9610500D01*
X26613070Y-9610500D01*
X26626289Y-9609260D01*
X26642819Y-9607710D01*
X26642823Y-9607708D01*
X26642826Y-9607708D01*
X26727276Y-9578157D01*
X26768157Y-9563852D01*
X26864836Y-9492499D01*
X26930461Y-9468529D01*
X26998631Y-9483844D01*
X27005500Y-9488222D01*
X27117984Y-9545536D01*
X27117983Y-9545536D01*
X27209304Y-9559999D01*
X27229999Y-9559999D01*
X27530000Y-9559999D01*
X27550689Y-9559999D01*
X27642017Y-9545534D01*
X27752093Y-9489447D01*
X27752098Y-9489444D01*
X27839444Y-9402098D01*
X27839448Y-9402093D01*
X27895536Y-9292015D01*
X27910000Y-9200691D01*
X27910000Y-9150000D01*
X27530000Y-9150000D01*
X27530000Y-9559999D01*
X27229999Y-9559999D01*
X27230000Y-9559998D01*
X27230000Y-9124000D01*
X27232550Y-9115314D01*
X27231262Y-9106353D01*
X27242240Y-9082312D01*
X27249685Y-9056961D01*
X27256525Y-9051033D01*
X27260287Y-9042797D01*
X27282521Y-9028507D01*
X27302489Y-9011206D01*
X27313003Y-9008918D01*
X27319065Y-9005023D01*
X27354000Y-9000000D01*
X27380000Y-9000000D01*
X27380000Y-8974000D01*
X27399685Y-8906961D01*
X27452489Y-8861206D01*
X27504000Y-8850000D01*
X27909999Y-8850000D01*
X27909999Y-8799310D01*
X27895534Y-8707982D01*
X27839447Y-8597906D01*
X27839444Y-8597901D01*
X27752098Y-8510555D01*
X27752093Y-8510552D01*
X27696042Y-8481992D01*
X27675139Y-8462250D01*
X27652301Y-8444780D01*
X27650053Y-8438557D01*
X27645246Y-8434017D01*
X27638334Y-8406108D01*
X27628568Y-8379065D01*
X27629455Y-8370253D01*
X27628451Y-8366196D01*
X27631452Y-8343889D01*
X27631960Y-8341665D01*
X27650500Y-8272474D01*
X27650500Y-8260516D01*
X27653615Y-8246882D01*
X27664123Y-8228105D01*
X27670185Y-8207461D01*
X27680846Y-8198222D01*
X27687737Y-8185910D01*
X27706730Y-8175794D01*
X27722989Y-8161706D01*
X27740221Y-8157957D01*
X27749405Y-8153066D01*
X27759064Y-8153858D01*
X27774500Y-8150500D01*
X27872472Y-8150500D01*
X27872475Y-8150500D01*
X28012485Y-8112984D01*
X28138015Y-8040509D01*
X28240509Y-7938015D01*
X28312984Y-7812485D01*
X28350500Y-7672475D01*
X28350500Y-7527525D01*
X28312984Y-7387515D01*
X28312188Y-7386137D01*
X28240511Y-7261988D01*
X28240506Y-7261982D01*
X28236819Y-7258295D01*
X28222115Y-7231367D01*
X28205523Y-7205549D01*
X28204631Y-7199348D01*
X28203334Y-7196972D01*
X28200500Y-7170614D01*
X28200500Y-7098466D01*
X28220185Y-7031427D01*
X28272989Y-6985672D01*
X28281156Y-6982288D01*
X28317331Y-6968796D01*
X28432546Y-6882546D01*
X28518796Y-6767331D01*
X28569091Y-6632483D01*
X28575500Y-6572873D01*
X28575499Y-6077128D01*
X28569091Y-6017517D01*
X28557715Y-5987017D01*
X28518797Y-5882671D01*
X28518793Y-5882664D01*
X28432547Y-5767455D01*
X28432544Y-5767452D01*
X28317335Y-5681206D01*
X28317328Y-5681202D01*
X28182486Y-5630910D01*
X28182485Y-5630909D01*
X28182483Y-5630909D01*
X28122873Y-5624500D01*
X28122863Y-5624500D01*
X27477129Y-5624500D01*
X27477123Y-5624501D01*
X27417516Y-5630908D01*
X27282671Y-5681202D01*
X27282664Y-5681206D01*
X27167455Y-5767452D01*
X27149266Y-5791750D01*
X27093332Y-5833620D01*
X27023640Y-5838604D01*
X26962317Y-5805118D01*
X26950734Y-5791750D01*
X26950603Y-5791575D01*
X26932546Y-5767454D01*
X26932544Y-5767453D01*
X26932544Y-5767452D01*
X26817335Y-5681206D01*
X26817328Y-5681202D01*
X26682486Y-5630910D01*
X26682485Y-5630909D01*
X26682483Y-5630909D01*
X26622873Y-5624500D01*
X26622863Y-5624500D01*
X25977129Y-5624500D01*
X25977123Y-5624501D01*
X25917516Y-5630908D01*
X25782671Y-5681202D01*
X25782664Y-5681206D01*
X25667456Y-5767452D01*
X25667455Y-5767453D01*
X25667454Y-5767454D01*
X25657333Y-5780972D01*
X25648910Y-5792225D01*
X25592975Y-5834094D01*
X25523283Y-5839076D01*
X25461961Y-5805589D01*
X25450378Y-5792221D01*
X25389331Y-5710671D01*
X25278787Y-5627919D01*
X25236916Y-5571985D01*
X25231932Y-5502294D01*
X25265417Y-5440971D01*
X25302611Y-5416575D01*
X25302581Y-5416522D01*
X25303365Y-5416080D01*
X25307610Y-5413297D01*
X25308733Y-5412853D01*
X25309975Y-5412364D01*
X25425078Y-5325078D01*
X25483588Y-5247920D01*
X25539780Y-5206398D01*
X25609501Y-5201846D01*
X25658983Y-5229064D01*
X25660355Y-5227232D01*
X25782664Y-5318793D01*
X25782671Y-5318797D01*
X25794297Y-5323133D01*
X25917517Y-5369091D01*
X25977127Y-5375500D01*
X26622872Y-5375499D01*
X26682483Y-5369091D01*
X26817331Y-5318796D01*
X26932546Y-5232546D01*
X26950733Y-5208250D01*
X27006666Y-5166379D01*
X27076358Y-5161395D01*
X27137681Y-5194880D01*
X27149265Y-5208248D01*
X27163476Y-5227232D01*
X27167454Y-5232546D01*
X27167455Y-5232547D01*
X27282664Y-5318793D01*
X27282671Y-5318797D01*
X27294297Y-5323133D01*
X27417517Y-5369091D01*
X27477127Y-5375500D01*
X28122872Y-5375499D01*
X28182483Y-5369091D01*
X28317331Y-5318796D01*
X28432546Y-5232546D01*
X28518796Y-5117331D01*
X28569091Y-4982483D01*
X28575500Y-4922873D01*
X28575499Y-4427128D01*
X28569091Y-4367517D01*
X28548490Y-4312284D01*
X28518797Y-4232671D01*
X28518793Y-4232664D01*
X28450734Y-4141750D01*
X28432546Y-4117454D01*
X28398585Y-4092031D01*
X28395444Y-4087835D01*
X28390698Y-4085606D01*
X28374722Y-4060152D01*
X28356716Y-4036099D01*
X28355592Y-4029674D01*
X28353554Y-4026427D01*
X28352523Y-4012126D01*
X28348905Y-3991441D01*
X28349049Y-3977886D01*
X28350500Y-3972475D01*
X28350500Y-3842237D01*
X28350507Y-3841583D01*
X28360531Y-3808746D01*
X28370185Y-3775869D01*
X28370705Y-3775418D01*
X28370907Y-3774757D01*
X28397137Y-3752514D01*
X28422989Y-3730114D01*
X28423902Y-3729819D01*
X28424197Y-3729569D01*
X28425011Y-3729460D01*
X28450303Y-3721292D01*
X28506420Y-3710130D01*
X28697598Y-3630941D01*
X28869655Y-3515977D01*
X29015977Y-3369655D01*
X29130941Y-3197598D01*
X29132849Y-3192993D01*
X29157805Y-3132742D01*
X29210130Y-3006420D01*
X29241244Y-2850000D01*
X31208176Y-2850000D01*
X31972555Y-2850000D01*
X31950000Y-2934174D01*
X31950000Y-3065826D01*
X31972555Y-3150000D01*
X31208176Y-3150000D01*
X31230778Y-3292705D01*
X31291581Y-3479835D01*
X31380904Y-3655143D01*
X31496555Y-3814321D01*
X31635678Y-3953444D01*
X31794856Y-4069095D01*
X31970164Y-4158418D01*
X32157294Y-4219221D01*
X32351618Y-4250000D01*
X33050000Y-4250000D01*
X33050000Y-3500000D01*
X33350000Y-3500000D01*
X33350000Y-4250000D01*
X34048382Y-4250000D01*
X34242705Y-4219221D01*
X34429835Y-4158418D01*
X34605143Y-4069095D01*
X34764321Y-3953444D01*
X34903444Y-3814321D01*
X35019095Y-3655143D01*
X35108418Y-3479835D01*
X35169221Y-3292705D01*
X35191824Y-3150000D01*
X34427445Y-3150000D01*
X34450000Y-3065826D01*
X34450000Y-2934174D01*
X34427445Y-2850000D01*
X35191824Y-2850000D01*
X35169221Y-2707294D01*
X35108418Y-2520164D01*
X35019095Y-2344856D01*
X34903444Y-2185678D01*
X34764321Y-2046555D01*
X34605143Y-1930904D01*
X34429835Y-1841581D01*
X34242705Y-1780778D01*
X34048382Y-1750000D01*
X33350000Y-1750000D01*
X33350000Y-2500000D01*
X33050000Y-2500000D01*
X33050000Y-1750000D01*
X32351618Y-1750000D01*
X32157294Y-1780778D01*
X31970164Y-1841581D01*
X31794856Y-1930904D01*
X31635678Y-2046555D01*
X31496555Y-2185678D01*
X31380904Y-2344856D01*
X31291581Y-2520164D01*
X31230778Y-2707294D01*
X31208176Y-2850000D01*
X29241244Y-2850000D01*
X29250500Y-2803465D01*
X29250500Y-2596535D01*
X29210130Y-2393580D01*
X29130941Y-2202402D01*
X29015977Y-2030345D01*
X29015976Y-2030344D01*
X29015975Y-2030342D01*
X28869657Y-1884024D01*
X28720191Y-1784155D01*
X28697598Y-1769059D01*
X28577962Y-1719504D01*
X28506420Y-1689870D01*
X28506412Y-1689868D01*
X28303469Y-1649500D01*
X28303465Y-1649500D01*
X28096535Y-1649500D01*
X28096530Y-1649500D01*
X27893587Y-1689868D01*
X27893579Y-1689870D01*
X27702403Y-1769058D01*
X27530342Y-1884024D01*
X27384022Y-2030344D01*
X27269062Y-2202395D01*
X27269059Y-2202402D01*
X27260546Y-2222954D01*
X27216704Y-2277357D01*
X27150410Y-2299421D01*
X27145985Y-2299500D01*
X26138737Y-2299500D01*
X26071698Y-2279815D01*
X26025943Y-2227011D01*
X26018963Y-2207595D01*
X26011017Y-2177942D01*
X26011014Y-2177933D01*
X25980500Y-2104265D01*
X25980492Y-2104249D01*
X25914674Y-1990250D01*
X25914670Y-1990243D01*
X25866120Y-1926972D01*
X25866119Y-1926971D01*
X25866112Y-1926963D01*
X25773037Y-1833888D01*
X25773028Y-1833880D01*
X25709767Y-1785337D01*
X25709749Y-1785325D01*
X25595750Y-1719507D01*
X25595734Y-1719499D01*
X25522067Y-1688986D01*
X25522065Y-1688985D01*
X25522064Y-1688985D01*
X25394897Y-1654910D01*
X25394896Y-1654909D01*
X25394893Y-1654909D01*
X25315833Y-1644500D01*
X25315826Y-1644500D01*
X24750000Y-1644500D01*
X24747130Y-1644632D01*
X24721816Y-1645802D01*
X24721814Y-1645802D01*
X24663971Y-1662260D01*
X24660501Y-1663248D01*
X24658434Y-1663836D01*
X24588566Y-1663248D01*
X24530108Y-1624981D01*
X24501618Y-1561184D01*
X24500500Y-1544569D01*
X24500500Y-1427527D01*
X24500500Y-1427525D01*
X24462984Y-1287515D01*
X24390509Y-1161985D01*
X24288015Y-1059491D01*
X24288013Y-1059490D01*
X24288011Y-1059488D01*
X24162488Y-987017D01*
X24162489Y-987017D01*
X24151006Y-983940D01*
X24022475Y-949500D01*
X23877525Y-949500D01*
X23748993Y-983940D01*
X23737511Y-987017D01*
X23611988Y-1059488D01*
X23611982Y-1059493D01*
X23509493Y-1161982D01*
X23509488Y-1161988D01*
X23437017Y-1287511D01*
X23437016Y-1287515D01*
X23399500Y-1427525D01*
X23399500Y-1572475D01*
X23430956Y-1689868D01*
X23437019Y-1712496D01*
X23437926Y-1714685D01*
X23438140Y-1716678D01*
X23439120Y-1720335D01*
X23438549Y-1720487D01*
X23445389Y-1784155D01*
X23414108Y-1846631D01*
X23411043Y-1849808D01*
X23333880Y-1926971D01*
X23285337Y-1990232D01*
X23285325Y-1990250D01*
X23219507Y-2104249D01*
X23219499Y-2104265D01*
X23188986Y-2177932D01*
X23154909Y-2305106D01*
X23144500Y-2384166D01*
X23144500Y-3015833D01*
X23152040Y-3073099D01*
X23154910Y-3094897D01*
X23186930Y-3214396D01*
X23188986Y-3222067D01*
X23189297Y-3222983D01*
X23189309Y-3223271D01*
X23190036Y-3225985D01*
X23189428Y-3226147D01*
X23192200Y-3292792D01*
X23156901Y-3353089D01*
X23103972Y-3382606D01*
X23093901Y-3385304D01*
X23087515Y-3387016D01*
X23087514Y-3387016D01*
X23087512Y-3387017D01*
X23087511Y-3387017D01*
X22961988Y-3459488D01*
X22961982Y-3459493D01*
X22859493Y-3561982D01*
X22859488Y-3561988D01*
X22787017Y-3687511D01*
X22787016Y-3687515D01*
X22749500Y-3827525D01*
X22749500Y-3827527D01*
X22749500Y-3972478D01*
X22750040Y-3976581D01*
X22749500Y-3980043D01*
X22749500Y-3980603D01*
X22749413Y-3980603D01*
X22749296Y-3981348D01*
X22750911Y-3985898D01*
X22743964Y-4015541D01*
X22739274Y-4045616D01*
X22735767Y-4050519D01*
X22734969Y-4053925D01*
X22726251Y-4063824D01*
X22713369Y-4081838D01*
X22707713Y-4087315D01*
X22667454Y-4117454D01*
X22643351Y-4149650D01*
X22636268Y-4156511D01*
X22613718Y-4168359D01*
X22593332Y-4183620D01*
X22583311Y-4184336D01*
X22574417Y-4189010D01*
X22549045Y-4186787D01*
X22523640Y-4188604D01*
X22514821Y-4183788D01*
X22504814Y-4182912D01*
X22484672Y-4167325D01*
X22462317Y-4155118D01*
X22450734Y-4141750D01*
X22449500Y-4140101D01*
X22432546Y-4117454D01*
X22398585Y-4092031D01*
X22356716Y-4036099D01*
X22349960Y-3976574D01*
X22350500Y-3972474D01*
X22350500Y-3827527D01*
X22350500Y-3827525D01*
X22312984Y-3687515D01*
X22312979Y-3687507D01*
X22240511Y-3561988D01*
X22240506Y-3561982D01*
X22138017Y-3459493D01*
X22138011Y-3459488D01*
X22012488Y-3387017D01*
X22012489Y-3387017D01*
X21996027Y-3382606D01*
X21872475Y-3349500D01*
X21727525Y-3349500D01*
X21603973Y-3382606D01*
X21587511Y-3387017D01*
X21461988Y-3459488D01*
X21461982Y-3459493D01*
X21359493Y-3561982D01*
X21359488Y-3561988D01*
X21287017Y-3687511D01*
X21287016Y-3687515D01*
X21249500Y-3827525D01*
X21249500Y-3827527D01*
X21249500Y-3972478D01*
X21250040Y-3976581D01*
X21249500Y-3980043D01*
X21249500Y-3980603D01*
X21249413Y-3980603D01*
X21239274Y-4045616D01*
X21201414Y-4092031D01*
X21167454Y-4117453D01*
X21167451Y-4117457D01*
X21081206Y-4232664D01*
X21081202Y-4232671D01*
X21030910Y-4367513D01*
X21030909Y-4367517D01*
X21024500Y-4427127D01*
X21024500Y-4427134D01*
X21024500Y-4427135D01*
X21024500Y-4922870D01*
X21024501Y-4922876D01*
X21030908Y-4982483D01*
X21081202Y-5117328D01*
X21081206Y-5117335D01*
X21167452Y-5232544D01*
X21167455Y-5232547D01*
X21282664Y-5318793D01*
X21282671Y-5318797D01*
X21391314Y-5359318D01*
X21447248Y-5401189D01*
X21471665Y-5466653D01*
X21456814Y-5534926D01*
X21407409Y-5584332D01*
X21347981Y-5599500D01*
X20274500Y-5599500D01*
X20207461Y-5579815D01*
X20161706Y-5527011D01*
X20150500Y-5475500D01*
X20150500Y-3879500D01*
X20170185Y-3812461D01*
X20222989Y-3766706D01*
X20274500Y-3755500D01*
X20315819Y-3755500D01*
X20315826Y-3755500D01*
X20394897Y-3745090D01*
X20522064Y-3711015D01*
X20581258Y-3686496D01*
X20595734Y-3680500D01*
X20595737Y-3680498D01*
X20595743Y-3680496D01*
X20709757Y-3614670D01*
X20773028Y-3566120D01*
X20773032Y-3566115D01*
X20773037Y-3566112D01*
X20866112Y-3473037D01*
X20866115Y-3473032D01*
X20866120Y-3473028D01*
X20914670Y-3409757D01*
X20980496Y-3295743D01*
X20981719Y-3292792D01*
X20994797Y-3261217D01*
X21011015Y-3222064D01*
X21045090Y-3094897D01*
X21055500Y-3015826D01*
X21055500Y-2384174D01*
X21045090Y-2305103D01*
X21011015Y-2177936D01*
X21000842Y-2153376D01*
X20980500Y-2104265D01*
X20980492Y-2104249D01*
X20914674Y-1990250D01*
X20914670Y-1990243D01*
X20866120Y-1926972D01*
X20866119Y-1926971D01*
X20866112Y-1926963D01*
X20773037Y-1833888D01*
X20773028Y-1833880D01*
X20709767Y-1785337D01*
X20709749Y-1785325D01*
X20595750Y-1719507D01*
X20595734Y-1719499D01*
X20522067Y-1688986D01*
X20522065Y-1688985D01*
X20522064Y-1688985D01*
X20394897Y-1654910D01*
X20394896Y-1654909D01*
X20394893Y-1654909D01*
X20315833Y-1644500D01*
X20315826Y-1644500D01*
X19750000Y-1644500D01*
X19747130Y-1644632D01*
X19721816Y-1645802D01*
X19721807Y-1645804D01*
X19613830Y-1676526D01*
X19613825Y-1676529D01*
X19524232Y-1744186D01*
X19465130Y-1839639D01*
X19465130Y-1839641D01*
X19448807Y-1926963D01*
X19444500Y-1950002D01*
X19444500Y-3194915D01*
X19442302Y-3205133D01*
X19443320Y-3211982D01*
X19436659Y-3231374D01*
X19433537Y-3245893D01*
X19430105Y-3253501D01*
X19429520Y-3254087D01*
X19376793Y-3345412D01*
X19362033Y-3400500D01*
X19359429Y-3410215D01*
X19359429Y-3410217D01*
X19349500Y-3447273D01*
X19349500Y-6225500D01*
X19346949Y-6234185D01*
X19348238Y-6243147D01*
X19337259Y-6267187D01*
X19329815Y-6292539D01*
X19322974Y-6298466D01*
X19319213Y-6306703D01*
X19296978Y-6320992D01*
X19277011Y-6338294D01*
X19266496Y-6340581D01*
X19260435Y-6344477D01*
X19225500Y-6349500D01*
X19120363Y-6349500D01*
X19053324Y-6329815D01*
X19012976Y-6287501D01*
X19005758Y-6275000D01*
X18940509Y-6161985D01*
X18838015Y-6059491D01*
X18838013Y-6059490D01*
X18838011Y-6059488D01*
X18712488Y-5987017D01*
X18712489Y-5987017D01*
X18701006Y-5983940D01*
X18572475Y-5949500D01*
X18427525Y-5949500D01*
X18298993Y-5983940D01*
X18287511Y-5987017D01*
X18161988Y-6059488D01*
X18161982Y-6059493D01*
X18059493Y-6161982D01*
X18059488Y-6161988D01*
X17987017Y-6287511D01*
X17987015Y-6287515D01*
X17966925Y-6362492D01*
X17930560Y-6422152D01*
X17867713Y-6452680D01*
X17798337Y-6444385D01*
X17759470Y-6418078D01*
X17722745Y-6381353D01*
X17536819Y-6195426D01*
X17503334Y-6134103D01*
X17500500Y-6107745D01*
X17500500Y-3047275D01*
X17500500Y-3047273D01*
X17473207Y-2945413D01*
X17420480Y-2854087D01*
X17345913Y-2779520D01*
X17254587Y-2726793D01*
X17152727Y-2699500D01*
X17152726Y-2699500D01*
X15079500Y-2699500D01*
X15012461Y-2679815D01*
X14966706Y-2627011D01*
X14955500Y-2575500D01*
X14955500Y-2384180D01*
X14955499Y-2384166D01*
X14951367Y-2352781D01*
X14945090Y-2305103D01*
X14911015Y-2177936D01*
X14900842Y-2153376D01*
X14880500Y-2104265D01*
X14880492Y-2104249D01*
X14814674Y-1990250D01*
X14814670Y-1990243D01*
X14766120Y-1926972D01*
X14766119Y-1926971D01*
X14766112Y-1926963D01*
X14673037Y-1833888D01*
X14673028Y-1833880D01*
X14609767Y-1785337D01*
X14609749Y-1785325D01*
X14495750Y-1719507D01*
X14495734Y-1719499D01*
X14422067Y-1688986D01*
X14422065Y-1688985D01*
X14422064Y-1688985D01*
X14294897Y-1654910D01*
X14294896Y-1654909D01*
X14294893Y-1654909D01*
X14215833Y-1644500D01*
X14215826Y-1644500D01*
X13650000Y-1644500D01*
X13647130Y-1644632D01*
X13621816Y-1645802D01*
X13621814Y-1645802D01*
X13563971Y-1662260D01*
X13560501Y-1663248D01*
X13558434Y-1663836D01*
X13488566Y-1663248D01*
X13430108Y-1624981D01*
X13401618Y-1561184D01*
X13400500Y-1544569D01*
X13400500Y-1427527D01*
X13400500Y-1427525D01*
X13362984Y-1287515D01*
X13290509Y-1161985D01*
X13188015Y-1059491D01*
X13188013Y-1059490D01*
X13188011Y-1059488D01*
X13062488Y-987017D01*
X13062489Y-987017D01*
X13051006Y-983940D01*
X12922475Y-949500D01*
X12777525Y-949500D01*
X12648993Y-983940D01*
X12637511Y-987017D01*
X12511988Y-1059488D01*
X12511982Y-1059493D01*
X12409493Y-1161982D01*
X12409488Y-1161988D01*
X12337017Y-1287511D01*
X12337016Y-1287515D01*
X12299500Y-1427525D01*
X12299500Y-1572475D01*
X12330956Y-1689868D01*
X12337019Y-1712496D01*
X12337926Y-1714685D01*
X12338140Y-1716678D01*
X12339120Y-1720335D01*
X12338549Y-1720487D01*
X12345389Y-1784155D01*
X12314108Y-1846631D01*
X12311043Y-1849808D01*
X12233880Y-1926971D01*
X12185337Y-1990232D01*
X12185325Y-1990250D01*
X12119507Y-2104249D01*
X12119499Y-2104265D01*
X12088986Y-2177932D01*
X12054909Y-2305106D01*
X12044500Y-2384166D01*
X12044500Y-3015833D01*
X12052040Y-3073099D01*
X12054910Y-3094897D01*
X12086930Y-3214396D01*
X12088986Y-3222067D01*
X12119499Y-3295734D01*
X12119507Y-3295750D01*
X12185325Y-3409749D01*
X12185337Y-3409767D01*
X12233880Y-3473028D01*
X12233888Y-3473037D01*
X12326963Y-3566112D01*
X12326971Y-3566119D01*
X12390232Y-3614662D01*
X12390236Y-3614664D01*
X12390243Y-3614670D01*
X12390250Y-3614674D01*
X12504249Y-3680492D01*
X12504265Y-3680500D01*
X12549458Y-3699219D01*
X12577936Y-3711015D01*
X12705103Y-3745090D01*
X12784174Y-3755500D01*
X12784181Y-3755500D01*
X13349998Y-3755500D01*
X13350000Y-3755500D01*
X13378188Y-3754197D01*
X13460063Y-3730901D01*
X13529929Y-3731487D01*
X13538792Y-3734541D01*
X13539638Y-3734869D01*
X13539639Y-3734869D01*
X13539641Y-3734870D01*
X13650000Y-3755500D01*
X13650002Y-3755500D01*
X14215819Y-3755500D01*
X14215826Y-3755500D01*
X14294897Y-3745090D01*
X14422064Y-3711015D01*
X14481258Y-3686496D01*
X14495734Y-3680500D01*
X14495737Y-3680498D01*
X14495743Y-3680496D01*
X14609757Y-3614670D01*
X14673028Y-3566120D01*
X14673032Y-3566115D01*
X14673037Y-3566112D01*
X14702330Y-3536819D01*
X14763653Y-3503334D01*
X14790011Y-3500500D01*
X15680214Y-3500500D01*
X15747253Y-3520185D01*
X15793008Y-3572989D01*
X15802952Y-3642147D01*
X15789885Y-3679900D01*
X15790128Y-3680001D01*
X15788442Y-3684071D01*
X15787603Y-3686496D01*
X15787018Y-3687507D01*
X15787017Y-3687510D01*
X15775391Y-3730901D01*
X15749500Y-3827525D01*
X15749500Y-3827527D01*
X15749500Y-3972478D01*
X15750040Y-3976581D01*
X15749500Y-3980043D01*
X15749500Y-3980603D01*
X15749413Y-3980603D01*
X15739274Y-4045616D01*
X15701414Y-4092031D01*
X15667454Y-4117453D01*
X15667451Y-4117457D01*
X15581206Y-4232664D01*
X15581202Y-4232671D01*
X15530908Y-4367517D01*
X15526855Y-4405220D01*
X15524501Y-4427123D01*
X15524500Y-4427135D01*
X15524500Y-4748982D01*
X15504815Y-4816021D01*
X15487006Y-4837821D01*
X15285867Y-5033668D01*
X15083684Y-5230530D01*
X15081616Y-5232544D01*
X15076027Y-5237986D01*
X15073387Y-5239511D01*
X15033623Y-5279273D01*
X15033053Y-5279829D01*
X14993032Y-5318797D01*
X14991899Y-5320274D01*
X14990903Y-5321553D01*
X14989656Y-5323133D01*
X14961768Y-5371433D01*
X14960937Y-5372850D01*
X14932556Y-5420531D01*
X14931026Y-5424091D01*
X14931024Y-5424093D01*
X14930274Y-5425837D01*
X14915826Y-5479752D01*
X14915827Y-5479753D01*
X14915593Y-5480626D01*
X14900332Y-5534690D01*
X14900291Y-5537737D01*
X14899500Y-5540691D01*
X14899500Y-5597067D01*
X14898750Y-5653298D01*
X14899500Y-5656254D01*
X14899500Y-7216000D01*
X14879815Y-7283039D01*
X14827011Y-7328794D01*
X14775504Y-7340000D01*
X14749311Y-7340000D01*
X14657982Y-7354465D01*
X14547906Y-7410552D01*
X14547901Y-7410555D01*
X14460555Y-7497901D01*
X14460551Y-7497906D01*
X14404463Y-7607984D01*
X14390000Y-7699308D01*
X14390000Y-7750000D01*
X14796000Y-7750000D01*
X14804685Y-7752550D01*
X14813647Y-7751262D01*
X14837687Y-7762240D01*
X14863039Y-7769685D01*
X14868966Y-7776525D01*
X14877203Y-7780287D01*
X14891492Y-7802521D01*
X14908794Y-7822489D01*
X14911081Y-7833003D01*
X14914977Y-7839065D01*
X14920000Y-7874000D01*
X14920000Y-7900000D01*
X14946000Y-7900000D01*
X15013039Y-7919685D01*
X15058794Y-7972489D01*
X15070000Y-8024000D01*
X15070000Y-8459999D01*
X15072319Y-8462318D01*
X15082930Y-8481751D01*
X15097432Y-8498487D01*
X15099349Y-8511819D01*
X15105804Y-8523641D01*
X15104224Y-8545727D01*
X15107376Y-8567645D01*
X15101780Y-8579897D01*
X15100820Y-8593333D01*
X15082940Y-8621154D01*
X15078352Y-8631201D01*
X15075168Y-8633247D01*
X15072320Y-8637679D01*
X15070000Y-8639999D01*
X15070000Y-9759999D01*
X15072319Y-9762318D01*
X15082930Y-9781751D01*
X15097432Y-9798487D01*
X15099349Y-9811819D01*
X15105804Y-9823641D01*
X15104224Y-9845727D01*
X15107376Y-9867645D01*
X15101780Y-9879897D01*
X15100820Y-9893333D01*
X15087550Y-9911058D01*
X15078352Y-9931201D01*
X15072320Y-9937679D01*
X15070000Y-9939999D01*
X15070000Y-11059999D01*
X15072319Y-11062318D01*
X15082930Y-11081751D01*
X15097432Y-11098487D01*
X15099349Y-11111819D01*
X15105804Y-11123641D01*
X15104224Y-11145727D01*
X15107376Y-11167645D01*
X15101780Y-11179897D01*
X15100820Y-11193333D01*
X15087550Y-11211058D01*
X15078352Y-11231201D01*
X15072320Y-11237679D01*
X15070000Y-11239999D01*
X15070000Y-12359999D01*
X15090689Y-12359999D01*
X15182017Y-12345534D01*
X15249205Y-12311301D01*
X15251910Y-12310792D01*
X15253989Y-12308992D01*
X15286038Y-12304383D01*
X15317874Y-12298405D01*
X15320423Y-12299439D01*
X15323147Y-12299048D01*
X15352605Y-12312501D01*
X15382615Y-12324681D01*
X15384200Y-12326930D01*
X15386703Y-12328073D01*
X15404211Y-12355316D01*
X15422872Y-12381788D01*
X15423444Y-12385244D01*
X15424477Y-12386851D01*
X15429500Y-12421786D01*
X15429500Y-12446063D01*
X15412887Y-12508062D01*
X15367019Y-12587508D01*
X15367016Y-12587513D01*
X15351563Y-12645185D01*
X15329500Y-12727525D01*
X15329500Y-12872475D01*
X15367016Y-13012485D01*
X15401594Y-13072376D01*
X15402243Y-13073499D01*
X15418716Y-13141399D01*
X15395864Y-13207426D01*
X15340943Y-13250617D01*
X15294856Y-13259500D01*
X14163112Y-13259500D01*
X14096073Y-13239815D01*
X14075431Y-13223181D01*
X13925749Y-13073499D01*
X13739773Y-12887522D01*
X13739772Y-12887521D01*
X13739769Y-12887519D01*
X13650730Y-12836113D01*
X13650729Y-12836112D01*
X13650728Y-12836112D01*
X13551410Y-12809500D01*
X13551409Y-12809500D01*
X12448422Y-12809500D01*
X12381383Y-12789815D01*
X12335628Y-12737011D01*
X12326680Y-12677310D01*
X12325500Y-12677310D01*
X12325500Y-12669438D01*
X12325482Y-12669318D01*
X12325500Y-12669181D01*
X12325500Y-12530819D01*
X12325500Y-12530817D01*
X12289688Y-12397164D01*
X12252007Y-12331898D01*
X12220507Y-12277338D01*
X12220503Y-12277333D01*
X12213534Y-12270364D01*
X12181440Y-12214776D01*
X12180508Y-12211297D01*
X12163889Y-12149273D01*
X12163772Y-12149071D01*
X12149586Y-12124500D01*
X12112478Y-12060227D01*
X12052940Y-12000689D01*
X14390001Y-12000689D01*
X14404465Y-12092017D01*
X14460552Y-12202093D01*
X14460555Y-12202098D01*
X14547901Y-12289444D01*
X14547906Y-12289448D01*
X14657984Y-12345536D01*
X14657983Y-12345536D01*
X14749304Y-12359999D01*
X14769999Y-12359999D01*
X14770000Y-12359998D01*
X14770000Y-11950000D01*
X14390001Y-11950000D01*
X14390001Y-12000689D01*
X12052940Y-12000689D01*
X11651559Y-11599308D01*
X14390000Y-11599308D01*
X14390000Y-11650000D01*
X14770000Y-11650000D01*
X14770000Y-11240000D01*
X14767683Y-11237684D01*
X14757068Y-11218246D01*
X14742568Y-11201512D01*
X14740651Y-11188182D01*
X14734196Y-11176361D01*
X14735775Y-11154271D01*
X14732624Y-11132354D01*
X14738218Y-11120103D01*
X14739179Y-11106669D01*
X14757061Y-11078842D01*
X14761648Y-11068798D01*
X14764829Y-11066753D01*
X14767678Y-11062321D01*
X14770000Y-11059998D01*
X14770000Y-10650000D01*
X14390001Y-10650000D01*
X14390001Y-10700689D01*
X14404465Y-10792017D01*
X14460552Y-10902093D01*
X14460555Y-10902098D01*
X14547901Y-10989444D01*
X14547906Y-10989448D01*
X14646167Y-11039515D01*
X14696963Y-11087490D01*
X14713758Y-11155311D01*
X14691220Y-11221446D01*
X14646167Y-11260485D01*
X14547906Y-11310551D01*
X14547901Y-11310555D01*
X14460555Y-11397901D01*
X14460551Y-11397906D01*
X14404463Y-11507984D01*
X14390000Y-11599308D01*
X11651559Y-11599308D01*
X10351559Y-10299308D01*
X14390000Y-10299308D01*
X14390000Y-10350000D01*
X14770000Y-10350000D01*
X14770000Y-9940000D01*
X14767683Y-9937684D01*
X14757068Y-9918246D01*
X14742568Y-9901512D01*
X14740651Y-9888182D01*
X14734196Y-9876361D01*
X14735775Y-9854271D01*
X14732624Y-9832354D01*
X14738218Y-9820103D01*
X14739179Y-9806669D01*
X14757061Y-9778842D01*
X14761648Y-9768798D01*
X14764829Y-9766753D01*
X14767678Y-9762321D01*
X14770000Y-9759998D01*
X14770000Y-9350000D01*
X14390001Y-9350000D01*
X14390001Y-9400689D01*
X14404465Y-9492017D01*
X14460552Y-9602093D01*
X14460555Y-9602098D01*
X14547901Y-9689444D01*
X14547906Y-9689448D01*
X14646167Y-9739515D01*
X14696963Y-9787490D01*
X14713758Y-9855311D01*
X14691220Y-9921446D01*
X14646167Y-9960485D01*
X14547906Y-10010551D01*
X14547901Y-10010555D01*
X14460555Y-10097901D01*
X14460551Y-10097906D01*
X14404463Y-10207984D01*
X14390000Y-10299308D01*
X10351559Y-10299308D01*
X9051559Y-8999308D01*
X14390000Y-8999308D01*
X14390000Y-9050000D01*
X14770000Y-9050000D01*
X14770000Y-8640000D01*
X14767683Y-8637684D01*
X14757068Y-8618246D01*
X14742568Y-8601512D01*
X14740651Y-8588182D01*
X14734196Y-8576361D01*
X14735775Y-8554271D01*
X14732624Y-8532354D01*
X14738218Y-8520103D01*
X14739179Y-8506669D01*
X14752449Y-8488941D01*
X14761648Y-8468798D01*
X14767678Y-8462321D01*
X14770000Y-8459998D01*
X14770000Y-8050000D01*
X14390001Y-8050000D01*
X14390001Y-8100689D01*
X14404465Y-8192017D01*
X14460552Y-8302093D01*
X14460555Y-8302098D01*
X14547901Y-8389444D01*
X14547906Y-8389448D01*
X14646167Y-8439515D01*
X14696963Y-8487490D01*
X14713758Y-8555311D01*
X14691220Y-8621446D01*
X14646167Y-8660485D01*
X14547906Y-8710551D01*
X14547901Y-8710555D01*
X14460555Y-8797901D01*
X14460551Y-8797906D01*
X14404463Y-8907984D01*
X14390000Y-8999308D01*
X9051559Y-8999308D01*
X8739773Y-8687522D01*
X8739770Y-8687519D01*
X8738899Y-8687016D01*
X8738899Y-8687017D01*
X8650730Y-8636113D01*
X8650729Y-8636112D01*
X8650728Y-8636112D01*
X8551410Y-8609500D01*
X8551409Y-8609500D01*
X7545008Y-8609500D01*
X7540211Y-8608091D01*
X7535320Y-8609121D01*
X7507016Y-8598344D01*
X7477969Y-8589815D01*
X7473422Y-8585553D01*
X7470023Y-8584259D01*
X7445239Y-8559135D01*
X7427649Y-8535301D01*
X7403680Y-8469674D01*
X7418996Y-8401503D01*
X7427105Y-8388782D01*
X7427639Y-8388045D01*
X7485166Y-8275144D01*
X7500000Y-8181486D01*
X7500000Y-8150000D01*
X5000001Y-8150000D01*
X5000001Y-8181479D01*
X5014835Y-8275149D01*
X5014837Y-8275155D01*
X5072358Y-8388044D01*
X5072900Y-8388790D01*
X5073277Y-8389848D01*
X5076789Y-8396740D01*
X5075897Y-8397193D01*
X5096376Y-8454598D01*
X5080547Y-8522651D01*
X5072349Y-8535303D01*
X4997207Y-8637118D01*
X4997206Y-8637119D01*
X4952353Y-8765298D01*
X4952353Y-8765300D01*
X4949500Y-8795730D01*
X4949500Y-9204269D01*
X4952353Y-9234699D01*
X4952353Y-9234701D01*
X4991632Y-9346950D01*
X4997207Y-9362882D01*
X5037524Y-9417510D01*
X5044061Y-9426367D01*
X5068031Y-9491996D01*
X5052715Y-9560166D01*
X5044062Y-9573630D01*
X5018911Y-9607710D01*
X4997207Y-9637118D01*
X4997206Y-9637119D01*
X4952353Y-9765298D01*
X4952353Y-9765300D01*
X4949500Y-9795730D01*
X4949500Y-10204269D01*
X4952353Y-10234699D01*
X4952353Y-10234701D01*
X4997206Y-10362880D01*
X4997209Y-10362886D01*
X5072348Y-10464696D01*
X5096319Y-10530325D01*
X5081003Y-10598495D01*
X5072904Y-10611204D01*
X5072362Y-10611949D01*
X5014833Y-10724855D01*
X5000000Y-10818513D01*
X5000000Y-10850000D01*
X6126000Y-10850000D01*
X6134685Y-10852550D01*
X6143647Y-10851262D01*
X6167687Y-10862240D01*
X6193039Y-10869685D01*
X6198966Y-10876525D01*
X6207203Y-10880287D01*
X6221492Y-10902521D01*
X6238794Y-10922489D01*
X6241081Y-10933003D01*
X6244977Y-10939065D01*
X6250000Y-10974000D01*
X6250000Y-11026000D01*
X6230315Y-11093039D01*
X6177511Y-11138794D01*
X6126000Y-11150000D01*
X5000001Y-11150000D01*
X5000001Y-11181479D01*
X5014835Y-11275149D01*
X5014837Y-11275155D01*
X5072358Y-11388044D01*
X5072900Y-11388790D01*
X5073277Y-11389848D01*
X5076789Y-11396740D01*
X5075897Y-11397193D01*
X5096376Y-11454598D01*
X5080547Y-11522651D01*
X5072349Y-11535303D01*
X4997207Y-11637118D01*
X4997206Y-11637119D01*
X4952353Y-11765298D01*
X4952353Y-11765300D01*
X4949500Y-11795730D01*
X4949500Y-12204269D01*
X4952353Y-12234699D01*
X4952353Y-12234701D01*
X4996198Y-12359998D01*
X4997207Y-12362882D01*
X5040680Y-12421786D01*
X5044061Y-12426367D01*
X5068031Y-12491996D01*
X5052715Y-12560166D01*
X5044062Y-12573630D01*
X5024674Y-12599901D01*
X4997207Y-12637118D01*
X4997206Y-12637119D01*
X4952353Y-12765298D01*
X4952353Y-12765300D01*
X4949500Y-12795730D01*
X4949500Y-13204269D01*
X4952353Y-13234699D01*
X4952353Y-13234701D01*
X4997206Y-13362880D01*
X4997209Y-13362886D01*
X5072348Y-13464696D01*
X5096319Y-13530325D01*
X5081003Y-13598495D01*
X5072904Y-13611204D01*
X5072362Y-13611949D01*
X5014833Y-13724855D01*
X5000000Y-13818513D01*
X5000000Y-13850000D01*
X7499999Y-13850000D01*
X7499999Y-13818520D01*
X7485164Y-13724850D01*
X7485162Y-13724844D01*
X7427641Y-13611954D01*
X7427101Y-13611211D01*
X7426724Y-13610155D01*
X7423211Y-13603260D01*
X7424102Y-13602805D01*
X7403623Y-13545404D01*
X7419450Y-13477351D01*
X7427643Y-13464706D01*
X7502793Y-13362882D01*
X7541799Y-13251409D01*
X7547646Y-13234701D01*
X7547646Y-13234699D01*
X7550500Y-13204269D01*
X7550500Y-12795730D01*
X7547646Y-12765300D01*
X7547646Y-12765298D01*
X7511436Y-12661819D01*
X7502793Y-12637118D01*
X7455938Y-12573631D01*
X7447152Y-12549578D01*
X7434725Y-12527182D01*
X7435364Y-12517302D01*
X7431968Y-12508005D01*
X7437581Y-12483017D01*
X7439235Y-12457458D01*
X7446262Y-12444378D01*
X7447283Y-12439835D01*
X7455939Y-12426367D01*
X7459320Y-12421786D01*
X7502793Y-12362882D01*
X7502794Y-12362880D01*
X7507178Y-12356940D01*
X7562825Y-12314689D01*
X7632481Y-12309230D01*
X7641368Y-12311980D01*
X7641421Y-12311784D01*
X7649270Y-12313887D01*
X7649272Y-12313888D01*
X7748590Y-12340500D01*
X7748592Y-12340500D01*
X8451408Y-12340500D01*
X8451410Y-12340500D01*
X8550728Y-12313888D01*
X8639773Y-12262478D01*
X8712478Y-12189773D01*
X8763888Y-12100728D01*
X8790500Y-12001410D01*
X8790500Y-11114500D01*
X8793050Y-11105814D01*
X8791762Y-11096853D01*
X8802740Y-11072812D01*
X8810185Y-11047461D01*
X8817025Y-11041533D01*
X8820787Y-11033297D01*
X8843021Y-11019007D01*
X8862989Y-11001706D01*
X8873503Y-10999418D01*
X8879565Y-10995523D01*
X8914500Y-10990500D01*
X9085500Y-10990500D01*
X9152539Y-11010185D01*
X9198294Y-11062989D01*
X9209500Y-11114500D01*
X9209500Y-13148590D01*
X9209500Y-13251410D01*
X9221230Y-13295185D01*
X9236112Y-13350727D01*
X9236113Y-13350730D01*
X9287519Y-13439769D01*
X9287521Y-13439772D01*
X9287522Y-13439773D01*
X9360227Y-13512478D01*
X9449272Y-13563888D01*
X9548590Y-13590500D01*
X12603308Y-13590500D01*
X12670347Y-13610185D01*
X12716102Y-13662989D01*
X12726046Y-13732147D01*
X12713110Y-13769524D01*
X12713423Y-13769654D01*
X12711247Y-13774906D01*
X12710697Y-13776497D01*
X12710313Y-13777161D01*
X12710312Y-13777164D01*
X12674500Y-13910817D01*
X12674500Y-14049184D01*
X12675632Y-14053408D01*
X12675543Y-14057108D01*
X12675561Y-14057239D01*
X12675540Y-14057241D01*
X12673968Y-14123258D01*
X12634805Y-14181120D01*
X12570576Y-14208623D01*
X12555857Y-14209500D01*
X9959022Y-14209500D01*
X9959006Y-14209499D01*
X9951410Y-14209499D01*
X9848590Y-14209499D01*
X9749273Y-14236111D01*
X9749271Y-14236111D01*
X9749271Y-14236112D01*
X9660227Y-14287522D01*
X9653781Y-14292469D01*
X9652367Y-14290626D01*
X9601506Y-14318389D01*
X9531815Y-14313394D01*
X9475888Y-14271514D01*
X9467786Y-14259229D01*
X9420505Y-14177335D01*
X9322665Y-14079495D01*
X9322664Y-14079494D01*
X9322661Y-14079492D01*
X9202838Y-14010313D01*
X9202837Y-14010312D01*
X9202836Y-14010312D01*
X9069183Y-13974500D01*
X8930817Y-13974500D01*
X8797164Y-14010312D01*
X8797161Y-14010313D01*
X8677338Y-14079492D01*
X8677333Y-14079496D01*
X8579496Y-14177333D01*
X8579492Y-14177338D01*
X8510313Y-14297161D01*
X8510312Y-14297164D01*
X8483510Y-14397193D01*
X8474499Y-14430821D01*
X8473559Y-14437959D01*
X8464312Y-14458857D01*
X8459454Y-14481191D01*
X8447168Y-14497602D01*
X8445288Y-14501853D01*
X8438303Y-14509446D01*
X8374566Y-14573182D01*
X8313246Y-14606666D01*
X8286887Y-14609500D01*
X7545008Y-14609500D01*
X7477969Y-14589815D01*
X7445239Y-14559135D01*
X7427649Y-14535301D01*
X7403680Y-14469674D01*
X7418996Y-14401503D01*
X7427105Y-14388782D01*
X7427639Y-14388045D01*
X7485166Y-14275144D01*
X7500000Y-14181486D01*
X7500000Y-14150000D01*
X5000001Y-14150000D01*
X5000001Y-14181479D01*
X5014835Y-14275149D01*
X5014837Y-14275155D01*
X5072358Y-14388044D01*
X5072900Y-14388790D01*
X5073277Y-14389848D01*
X5076789Y-14396740D01*
X5075897Y-14397193D01*
X5096376Y-14454598D01*
X5080547Y-14522651D01*
X5072349Y-14535303D01*
X4997207Y-14637118D01*
X4997206Y-14637119D01*
X4952353Y-14765298D01*
X4952353Y-14765300D01*
X4949500Y-14795730D01*
X4949500Y-15204269D01*
X4952353Y-15234699D01*
X4952353Y-15234701D01*
X4990065Y-15342472D01*
X4997207Y-15362882D01*
X5037392Y-15417331D01*
X5044061Y-15426367D01*
X5068031Y-15491996D01*
X5052715Y-15560166D01*
X5044062Y-15573630D01*
X5028339Y-15594936D01*
X4997207Y-15637118D01*
X4997206Y-15637119D01*
X4952353Y-15765298D01*
X4952353Y-15765300D01*
X4949500Y-15795730D01*
X4949500Y-16204269D01*
X4952353Y-16234699D01*
X4952353Y-16234701D01*
X4997206Y-16362880D01*
X4997209Y-16362886D01*
X5072348Y-16464696D01*
X5096319Y-16530325D01*
X5081003Y-16598495D01*
X5072904Y-16611204D01*
X5072362Y-16611949D01*
X5014833Y-16724855D01*
X5000000Y-16818513D01*
X5000000Y-16850000D01*
X6126000Y-16850000D01*
X6134685Y-16852550D01*
X6143647Y-16851262D01*
X6167687Y-16862240D01*
X6193039Y-16869685D01*
X6198966Y-16876525D01*
X6207203Y-16880287D01*
X6221492Y-16902521D01*
X6238794Y-16922489D01*
X6241081Y-16933003D01*
X6244977Y-16939065D01*
X6250000Y-16974000D01*
X6250000Y-17026000D01*
X6230315Y-17093039D01*
X6177511Y-17138794D01*
X6126000Y-17150000D01*
X5000001Y-17150000D01*
X5000001Y-17181479D01*
X5014835Y-17275149D01*
X5014837Y-17275155D01*
X5072358Y-17388044D01*
X5072900Y-17388790D01*
X5073277Y-17389848D01*
X5076789Y-17396740D01*
X5075897Y-17397193D01*
X5096376Y-17454598D01*
X5080547Y-17522651D01*
X5072349Y-17535303D01*
X4997207Y-17637118D01*
X4997206Y-17637119D01*
X4952353Y-17765298D01*
X4952353Y-17765300D01*
X4949500Y-17795730D01*
X4949500Y-18204269D01*
X4952353Y-18234699D01*
X4952353Y-18234701D01*
X4997206Y-18362880D01*
X4997207Y-18362882D01*
X5015387Y-18387515D01*
X5044061Y-18426367D01*
X5068031Y-18491996D01*
X5052715Y-18560166D01*
X5044061Y-18573633D01*
X4997207Y-18637118D01*
X4997206Y-18637119D01*
X4952353Y-18765298D01*
X4952353Y-18765300D01*
X4949500Y-18795730D01*
X4949500Y-19204269D01*
X4952353Y-19234699D01*
X4952353Y-19234701D01*
X4997206Y-19362880D01*
X4997207Y-19362882D01*
X5044061Y-19426367D01*
X5068031Y-19491996D01*
X5052715Y-19560166D01*
X5044061Y-19573633D01*
X4997207Y-19637118D01*
X4997206Y-19637119D01*
X4952353Y-19765298D01*
X4952353Y-19765300D01*
X4949500Y-19795730D01*
X4949500Y-20204269D01*
X4952353Y-20234699D01*
X4952353Y-20234701D01*
X4988506Y-20338017D01*
X4997207Y-20362882D01*
X5044061Y-20426367D01*
X5068031Y-20491996D01*
X5052715Y-20560166D01*
X5044061Y-20573633D01*
X4997207Y-20637118D01*
X4997206Y-20637119D01*
X4952353Y-20765298D01*
X4952353Y-20765300D01*
X4949500Y-20795730D01*
X4949500Y-21204269D01*
X4952353Y-21234699D01*
X4952353Y-21234701D01*
X4988506Y-21338017D01*
X4997207Y-21362882D01*
X5044061Y-21426367D01*
X5068031Y-21491996D01*
X5052715Y-21560166D01*
X5044062Y-21573630D01*
X5024530Y-21600096D01*
X4997207Y-21637118D01*
X4997206Y-21637119D01*
X4952353Y-21765298D01*
X4952353Y-21765300D01*
X4949500Y-21795730D01*
X4949500Y-22204261D01*
X4950406Y-22213925D01*
X4937065Y-22282509D01*
X4888763Y-22332993D01*
X4826947Y-22349500D01*
X2136930Y-22349500D01*
X2107185Y-22352289D01*
X2107173Y-22352291D01*
X1981844Y-22396147D01*
X1875001Y-22475001D01*
X1796147Y-22581844D01*
X1752291Y-22707173D01*
X1752289Y-22707185D01*
X1749500Y-22736929D01*
X300500Y-22736929D01*
X300500Y-6736929D01*
X1749500Y-6736929D01*
X1749500Y-7263070D01*
X1752289Y-7292814D01*
X1752291Y-7292826D01*
X1796147Y-7418155D01*
X1796148Y-7418157D01*
X1875001Y-7524999D01*
X1981843Y-7603852D01*
X2011650Y-7614282D01*
X2107173Y-7647708D01*
X2107177Y-7647708D01*
X2107181Y-7647710D01*
X2122057Y-7649105D01*
X2136930Y-7650500D01*
X4881426Y-7650500D01*
X4948465Y-7670185D01*
X4994220Y-7722989D01*
X5004164Y-7792147D01*
X5003899Y-7793899D01*
X5000000Y-7818514D01*
X5000000Y-7850000D01*
X7499999Y-7850000D01*
X7499999Y-7818520D01*
X7485164Y-7724850D01*
X7485162Y-7724844D01*
X7427643Y-7611958D01*
X7427636Y-7611949D01*
X7338050Y-7522363D01*
X7338046Y-7522360D01*
X7225144Y-7464833D01*
X7131486Y-7450000D01*
X6667386Y-7450000D01*
X6600347Y-7430315D01*
X6554592Y-7377511D01*
X6544648Y-7308353D01*
X6546242Y-7299540D01*
X6547707Y-7292825D01*
X6547710Y-7292819D01*
X6550500Y-7263066D01*
X6550500Y-6736934D01*
X6547710Y-6707181D01*
X6547708Y-6707177D01*
X6547708Y-6707173D01*
X6503852Y-6581844D01*
X6503852Y-6581843D01*
X6424999Y-6475001D01*
X6318157Y-6396148D01*
X6318155Y-6396147D01*
X6192826Y-6352291D01*
X6192814Y-6352289D01*
X6163070Y-6349500D01*
X6163066Y-6349500D01*
X2136934Y-6349500D01*
X2136930Y-6349500D01*
X2107185Y-6352289D01*
X2107173Y-6352291D01*
X1981844Y-6396147D01*
X1875001Y-6475001D01*
X1796147Y-6581844D01*
X1752291Y-6707173D01*
X1752289Y-6707185D01*
X1749500Y-6736929D01*
X300500Y-6736929D01*
X300500Y-3097648D01*
X6699500Y-3097648D01*
X6699500Y-3302351D01*
X6731522Y-3504534D01*
X6794781Y-3699223D01*
X6887715Y-3881613D01*
X7008028Y-4047213D01*
X7152786Y-4191971D01*
X7307749Y-4304556D01*
X7318390Y-4312287D01*
X7426777Y-4367513D01*
X7500776Y-4405218D01*
X7500778Y-4405218D01*
X7500781Y-4405220D01*
X7605137Y-4439127D01*
X7695465Y-4468477D01*
X7796557Y-4484488D01*
X7897648Y-4500500D01*
X7897649Y-4500500D01*
X8102351Y-4500500D01*
X8102352Y-4500500D01*
X8304534Y-4468477D01*
X8499219Y-4405220D01*
X8681610Y-4312287D01*
X8791203Y-4232664D01*
X8847213Y-4191971D01*
X8847215Y-4191968D01*
X8847219Y-4191966D01*
X8991966Y-4047219D01*
X8991968Y-4047215D01*
X8991971Y-4047213D01*
X9060097Y-3953444D01*
X9112287Y-3881610D01*
X9205220Y-3699219D01*
X9268477Y-3504534D01*
X9300500Y-3302352D01*
X9300500Y-3097648D01*
X9287542Y-3015833D01*
X9268477Y-2895465D01*
X9205218Y-2700776D01*
X9141386Y-2575500D01*
X9112287Y-2518390D01*
X9098926Y-2500000D01*
X8991971Y-2352786D01*
X8847213Y-2208028D01*
X8681613Y-2087715D01*
X8681612Y-2087714D01*
X8681610Y-2087713D01*
X8600833Y-2046555D01*
X8499223Y-1994781D01*
X8304534Y-1931522D01*
X8129995Y-1903878D01*
X8102352Y-1899500D01*
X7897648Y-1899500D01*
X7873329Y-1903351D01*
X7695465Y-1931522D01*
X7500776Y-1994781D01*
X7318386Y-2087715D01*
X7152786Y-2208028D01*
X7008028Y-2352786D01*
X6887715Y-2518386D01*
X6794781Y-2700776D01*
X6731522Y-2895465D01*
X6699500Y-3097648D01*
X300500Y-3097648D01*
X300500Y-1504874D01*
X300882Y-1495145D01*
X314502Y-1322077D01*
X317546Y-1302866D01*
X356930Y-1138814D01*
X362937Y-1120326D01*
X427502Y-964454D01*
X436334Y-947121D01*
X524483Y-803273D01*
X524489Y-803262D01*
X535919Y-787532D01*
X645491Y-659240D01*
X659240Y-645491D01*
X787538Y-535913D01*
X803262Y-524489D01*
X947116Y-436337D01*
X947121Y-436334D01*
X964457Y-427501D01*
X1120326Y-362937D01*
X1138814Y-356930D01*
X1302869Y-317545D01*
X1322077Y-314502D01*
X1495145Y-300881D01*
X1504874Y-300500D01*
X1547594Y-300500D01*
X40452406Y-300500D01*
X40495125Y-300500D01*
X40504853Y-300881D01*
G37*
G04 #@! TD.AperFunction*
M02*
