  0
SECTION
  2
HEADER
  9
$ANGBASE
  50
0.0
  9
$ANGDIR
  70
1
  9
$MEASUREMENT
  70
1
  9
$INSUNITS
  70
4
  0
ENDSEC
  0
SECTION
  2
TABLES
  0
TABLE
  2
LTYPE
  70
4
  0
LTYPE
  5
40F
  2
CONTINUOUS
  70
0
  3
Solid line
  72
65
  73
0
  40
0.0
  0
LTYPE
  5
410
  2
DASHDOT
 70
0
  3
Dash Dot ____ _ ____ _
 72
65
 73
4
 40
2.0
 49
1.25
 49
-0.25
 49
0.25
 49
-0.25
  0
LTYPE
  5
411
  2
DASHED
 70
0
  3
Dashed __ __ __ __ __
 72
65
 73
2
 40
0.75
 49
0.5
 49
-0.25
  0
LTYPE
  5
43B
  2
DOTTED
 70
0
  3
Dotted .  .  .  .
 72
65
 73
2
 40
0.2
 49
0.0
 49
-0.2
  0
ENDTAB
  0
TABLE
  2
STYLE
  70
4
  0
STYLE
  2
KICAD
  70
0
  40
0
  41
1
  42
1
  50
0
  71
0
  3
isocp.shx
  0
STYLE
  2
KICADB
  70
0
  40
0
  41
1
  42
1
  50
0
  71
0
  3
isocp.shx
  0
STYLE
  2
KICADI
  70
0
  40
0
  41
1
  42
1
  50
15
  71
0
  3
isocp.shx
  0
STYLE
  2
KICADBI
  70
0
  40
0
  41
1
  42
1
  50
15
  71
0
  3
isocp.shx
  0
ENDTAB
  0
TABLE
  2
LAYER
  70
35
  0
LAYER
  2
BLACK
  70
0
  62
7
  6
CONTINUOUS
  0
LAYER
  2
GRAY1
  70
0
  62
251
  6
CONTINUOUS
  0
LAYER
  2
GRAY2
  70
0
  62
8
  6
CONTINUOUS
  0
LAYER
  2
GRAY3
  70
0
  62
9
  6
CONTINUOUS
  0
LAYER
  2
WHITE
  70
0
  62
7
  6
CONTINUOUS
  0
LAYER
  2
LYELLOW
  70
0
  62
51
  6
CONTINUOUS
  0
LAYER
  2
LORANGE
  70
0
  62
41
  6
CONTINUOUS
  0
LAYER
  2
BLUE1
  70
0
  62
178
  6
CONTINUOUS
  0
LAYER
  2
GREEN1
  70
0
  62
98
  6
CONTINUOUS
  0
LAYER
  2
CYAN1
  70
0
  62
138
  6
CONTINUOUS
  0
LAYER
  2
RED1
  70
0
  62
18
  6
CONTINUOUS
  0
LAYER
  2
MAGENTA1
  70
0
  62
228
  6
CONTINUOUS
  0
LAYER
  2
BROWN1
  70
0
  62
58
  6
CONTINUOUS
  0
LAYER
  2
ORANGE1
  70
0
  62
34
  6
CONTINUOUS
  0
LAYER
  2
BLUE2
  70
0
  62
5
  6
CONTINUOUS
  0
LAYER
  2
GREEN2
  70
0
  62
3
  6
CONTINUOUS
  0
LAYER
  2
CYAN2
  70
0
  62
4
  6
CONTINUOUS
  0
LAYER
  2
RED2
  70
0
  62
1
  6
CONTINUOUS
  0
LAYER
  2
MAGENTA2
  70
0
  62
6
  6
CONTINUOUS
  0
LAYER
  2
BROWN2
  70
0
  62
54
  6
CONTINUOUS
  0
LAYER
  2
ORANGE2
  70
0
  62
42
  6
CONTINUOUS
  0
LAYER
  2
BLUE3
  70
0
  62
171
  6
CONTINUOUS
  0
LAYER
  2
GREEN3
  70
0
  62
91
  6
CONTINUOUS
  0
LAYER
  2
CYAN3
  70
0
  62
131
  6
CONTINUOUS
  0
LAYER
  2
RED3
  70
0
  62
11
  6
CONTINUOUS
  0
LAYER
  2
MAGENTA3
  70
0
  62
221
  6
CONTINUOUS
  0
LAYER
  2
YELLOW3
  70
0
  62
2
  6
CONTINUOUS
  0
LAYER
  2
ORANGE3
  70
0
  62
32
  6
CONTINUOUS
  0
LAYER
  2
BLUE4
  70
0
  62
5
  6
CONTINUOUS
  0
LAYER
  2
GREEN4
  70
0
  62
3
  6
CONTINUOUS
  0
LAYER
  2
CYAN4
  70
0
  62
4
  6
CONTINUOUS
  0
LAYER
  2
RED4
  70
0
  62
1
  6
CONTINUOUS
  0
LAYER
  2
MAGENTA4
  70
0
  62
6
  6
CONTINUOUS
  0
LAYER
  2
YELLOW4
  70
0
  62
2
  6
CONTINUOUS
  0
LAYER
  2
ORANGE4
  70
0
  62
40
  6
CONTINUOUS
  0
ENDTAB
  0
ENDSEC
  0
SECTION
  2
ENTITIES
0
LINE
8
WHITE
6
CONTINUOUS
10
0.
20
-1.5
11
0.
21
-32.
0
ARC
8
WHITE
10
1.499997
20
-1.499997
40
1.4999970000029998
50
-270.00011459
51
-179.99988541
0
LINE
8
WHITE
6
CONTINUOUS
10
0.
20
-32.
11
7.
21
-32.
0
LINE
8
WHITE
6
CONTINUOUS
10
0.
20
-34.
11
0.
21
-53.5
0
LINE
8
WHITE
6
CONTINUOUS
10
0.
20
-34.
11
7.
21
-34.
0
LINE
8
WHITE
6
CONTINUOUS
10
1.5
20
0.
11
40.5
21
0.
0
ARC
8
WHITE
10
1.5
20
-53.5
40
1.5
50
-180.00000000
51
-90.00000000
0
LINE
8
WHITE
6
CONTINUOUS
10
7.
20
-32.
11
7.
21
-34.
0
LINE
8
WHITE
6
CONTINUOUS
10
9.5
20
-32.
11
9.5
21
-34.
0
LINE
8
WHITE
6
CONTINUOUS
10
9.5
20
-32.
11
30.5
21
-32.
0
LINE
8
WHITE
6
CONTINUOUS
10
9.5
20
-34.
11
30.5
21
-34.
0
LINE
8
WHITE
6
CONTINUOUS
10
30.5
20
-32.
11
30.5
21
-34.
0
LINE
8
WHITE
6
CONTINUOUS
10
33.
20
-32.
11
33.
21
-34.
0
LINE
8
WHITE
6
CONTINUOUS
10
33.
20
-32.
11
42.
21
-32.
0
LINE
8
WHITE
6
CONTINUOUS
10
33.
20
-34.
11
42.
21
-34.
0
ARC
8
WHITE
10
40.5
20
-1.5
40
1.5
50
0.00000000
51
90.00000000
0
LINE
8
WHITE
6
CONTINUOUS
10
40.5
20
-55.
11
1.5
21
-55.
0
LINE
8
WHITE
6
CONTINUOUS
10
42.
20
-1.5
11
42.
21
-32.
0
LINE
8
WHITE
6
CONTINUOUS
10
42.
20
-34.
11
42.
21
-53.5
0
ARC
8
WHITE
10
40.5
20
-53.5
40
1.5
50
-90.00000000
51
-0.00000000
0
LINE
8
BLACK
6
CONTINUOUS
10
37.6499999999999986
20
-8.5999999999999996
11
37.6499999999999986
21
-7.3999999999999995
0
ARC
8
BLACK
10
37.
20
-7.3999999999999995
40
0.65
50
0.00000000
51
180.00000000
0
LINE
8
BLACK
6
CONTINUOUS
10
36.3500000000000014
20
-7.3999999999999995
11
36.3500000000000014
21
-8.5999999999999996
0
ARC
8
BLACK
10
37.
20
-8.5999999999999996
40
0.65
50
180.00000000
51
360.00000000
0
LINE
8
BLACK
6
CONTINUOUS
10
33.9499999999999957
20
-12.5
11
32.4499999999999957
21
-12.5
0
ARC
8
BLACK
10
32.4499999999999957
20
-13.
40
0.5
50
90.00000000
51
270.00000000
0
LINE
8
BLACK
6
CONTINUOUS
10
32.4499999999999957
20
-13.5
11
33.9499999999999957
21
-13.5
0
ARC
8
BLACK
10
33.9499999999999957
20
-13.
40
0.5
50
270.00000000
51
450.00000000
0
LINE
8
BLACK
6
CONTINUOUS
10
33.9499999999999957
20
-2.5
11
32.4499999999999957
21
-2.5
0
ARC
8
BLACK
10
32.4499999999999957
20
-3.
40
0.5
50
90.00000000
51
270.00000000
0
LINE
8
BLACK
6
CONTINUOUS
10
32.4499999999999957
20
-3.5
11
33.9499999999999957
21
-3.5
0
ARC
8
BLACK
10
33.9499999999999957
20
-3.
40
0.5
50
270.00000000
51
450.00000000
0
CIRCLE
8
BLACK
10
39.3999999999999986
20
-44.5
40
1.0999989999999999
0
CIRCLE
8
BLACK
10
37.
20
-36.6999999999999957
40
0.5
0
CIRCLE
8
BLACK
10
39.5399999999999991
20
-36.6999999999999957
40
0.5
0
CIRCLE
8
BLACK
10
35.5
20
-29.
40
1.0999989999999999
0
CIRCLE
8
BLACK
10
2.6000000000000001
20
-37.
40
1.0999989999999999
0
CIRCLE
8
BLACK
10
37.
20
-52.
40
0.5
0
CIRCLE
8
BLACK
10
39.5399999999999991
20
-52.
40
0.5
0
CIRCLE
8
BLACK
10
6.
20
-46.5
40
0.65
0
CIRCLE
8
BLACK
10
6.
20
-51.5799999999999983
40
0.65
0
CIRCLE
8
BLACK
10
7.
20
-38.2999999999999972
40
0.5
0
CIRCLE
8
BLACK
10
7.
20
-40.8399999999999963
40
0.5
0
CIRCLE
8
BLACK
10
8.
20
-3.1999999999999997
40
1.0999989999999999
0
CIRCLE
8
BLACK
10
30.
20
-52.2999999999999972
40
0.5
0
CIRCLE
8
BLACK
10
32.5399999999999991
20
-52.2999999999999972
40
0.5
  0
ENDSEC
  0
EOF
