  0
SECTION
  2
HEADER
  9
$ANGBASE
  50
0.0
  9
$ANGDIR
  70
1
  9
$MEASUREMENT
  70
1
  9
$INSUNITS
  70
4
  0
ENDSEC
  0
SECTION
  2
TABLES
  0
TABLE
  2
LTYPE
  70
4
  0
LTYPE
  5
40F
  2
CONTINUOUS
  70
0
  3
Solid line
  72
65
  73
0
  40
0.0
  0
LTYPE
  5
410
  2
DASHDOT
 70
0
  3
Dash Dot ____ _ ____ _
 72
65
 73
4
 40
2.0
 49
1.25
 49
-0.25
 49
0.25
 49
-0.25
  0
LTYPE
  5
411
  2
DASHED
 70
0
  3
Dashed __ __ __ __ __
 72
65
 73
2
 40
0.75
 49
0.5
 49
-0.25
  0
LTYPE
  5
43B
  2
DOTTED
 70
0
  3
Dotted .  .  .  .
 72
65
 73
2
 40
0.2
 49
0.0
 49
-0.2
  0
ENDTAB
  0
TABLE
  2
STYLE
  70
4
  0
STYLE
  2
KICAD
  70
0
  40
0
  41
1
  42
1
  50
0
  71
0
  3
isocp.shx
  0
STYLE
  2
KICADB
  70
0
  40
0
  41
1
  42
1
  50
0
  71
0
  3
isocp.shx
  0
STYLE
  2
KICADI
  70
0
  40
0
  41
1
  42
1
  50
15
  71
0
  3
isocp.shx
  0
STYLE
  2
KICADBI
  70
0
  40
0
  41
1
  42
1
  50
15
  71
0
  3
isocp.shx
  0
ENDTAB
  0
TABLE
  2
LAYER
  70
35
  0
LAYER
  2
BLACK
  70
0
  62
7
  6
CONTINUOUS
  0
LAYER
  2
GRAY1
  70
0
  62
251
  6
CONTINUOUS
  0
LAYER
  2
GRAY2
  70
0
  62
8
  6
CONTINUOUS
  0
LAYER
  2
GRAY3
  70
0
  62
9
  6
CONTINUOUS
  0
LAYER
  2
WHITE
  70
0
  62
7
  6
CONTINUOUS
  0
LAYER
  2
LYELLOW
  70
0
  62
51
  6
CONTINUOUS
  0
LAYER
  2
LORANGE
  70
0
  62
41
  6
CONTINUOUS
  0
LAYER
  2
BLUE1
  70
0
  62
178
  6
CONTINUOUS
  0
LAYER
  2
GREEN1
  70
0
  62
98
  6
CONTINUOUS
  0
LAYER
  2
CYAN1
  70
0
  62
138
  6
CONTINUOUS
  0
LAYER
  2
RED1
  70
0
  62
18
  6
CONTINUOUS
  0
LAYER
  2
MAGENTA1
  70
0
  62
228
  6
CONTINUOUS
  0
LAYER
  2
BROWN1
  70
0
  62
58
  6
CONTINUOUS
  0
LAYER
  2
ORANGE1
  70
0
  62
34
  6
CONTINUOUS
  0
LAYER
  2
BLUE2
  70
0
  62
5
  6
CONTINUOUS
  0
LAYER
  2
GREEN2
  70
0
  62
3
  6
CONTINUOUS
  0
LAYER
  2
CYAN2
  70
0
  62
4
  6
CONTINUOUS
  0
LAYER
  2
RED2
  70
0
  62
1
  6
CONTINUOUS
  0
LAYER
  2
MAGENTA2
  70
0
  62
6
  6
CONTINUOUS
  0
LAYER
  2
BROWN2
  70
0
  62
54
  6
CONTINUOUS
  0
LAYER
  2
ORANGE2
  70
0
  62
42
  6
CONTINUOUS
  0
LAYER
  2
BLUE3
  70
0
  62
171
  6
CONTINUOUS
  0
LAYER
  2
GREEN3
  70
0
  62
91
  6
CONTINUOUS
  0
LAYER
  2
CYAN3
  70
0
  62
131
  6
CONTINUOUS
  0
LAYER
  2
RED3
  70
0
  62
11
  6
CONTINUOUS
  0
LAYER
  2
MAGENTA3
  70
0
  62
221
  6
CONTINUOUS
  0
LAYER
  2
YELLOW3
  70
0
  62
2
  6
CONTINUOUS
  0
LAYER
  2
ORANGE3
  70
0
  62
32
  6
CONTINUOUS
  0
LAYER
  2
BLUE4
  70
0
  62
5
  6
CONTINUOUS
  0
LAYER
  2
GREEN4
  70
0
  62
3
  6
CONTINUOUS
  0
LAYER
  2
CYAN4
  70
0
  62
4
  6
CONTINUOUS
  0
LAYER
  2
RED4
  70
0
  62
1
  6
CONTINUOUS
  0
LAYER
  2
MAGENTA4
  70
0
  62
6
  6
CONTINUOUS
  0
LAYER
  2
YELLOW4
  70
0
  62
2
  6
CONTINUOUS
  0
LAYER
  2
ORANGE4
  70
0
  62
40
  6
CONTINUOUS
  0
ENDTAB
  0
ENDSEC
  0
SECTION
  2
ENTITIES
0
LINE
8
WHITE
6
CONTINUOUS
10
0.
20
-1.5
11
0.
21
-32.
0
ARC
8
WHITE
10
1.499997
20
-1.499997
40
1.4999970000029998
50
-270.00011459
51
-179.99988541
0
LINE
8
WHITE
6
CONTINUOUS
10
0.
20
-32.
11
7.
21
-32.
0
LINE
8
WHITE
6
CONTINUOUS
10
0.
20
-34.
11
0.
21
-53.5
0
LINE
8
WHITE
6
CONTINUOUS
10
0.
20
-34.
11
7.
21
-34.
0
LINE
8
WHITE
6
CONTINUOUS
10
1.5
20
0.
11
40.5
21
0.
0
ARC
8
WHITE
10
1.5
20
-53.5
40
1.5
50
-180.00000000
51
-90.00000000
0
LINE
8
WHITE
6
CONTINUOUS
10
7.
20
-32.
11
7.
21
-34.
0
LINE
8
WHITE
6
CONTINUOUS
10
9.5
20
-32.
11
9.5
21
-34.
0
LINE
8
WHITE
6
CONTINUOUS
10
9.5
20
-32.
11
30.5
21
-32.
0
LINE
8
WHITE
6
CONTINUOUS
10
9.5
20
-34.
11
30.5
21
-34.
0
LINE
8
WHITE
6
CONTINUOUS
10
30.5
20
-32.
11
30.5
21
-34.
0
LINE
8
WHITE
6
CONTINUOUS
10
33.
20
-32.
11
33.
21
-34.
0
LINE
8
WHITE
6
CONTINUOUS
10
33.
20
-32.
11
42.
21
-32.
0
LINE
8
WHITE
6
CONTINUOUS
10
33.
20
-34.
11
42.
21
-34.
0
ARC
8
WHITE
10
40.5
20
-1.5
40
1.5
50
0.00000000
51
90.00000000
0
LINE
8
WHITE
6
CONTINUOUS
10
40.5
20
-55.
11
1.5
21
-55.
0
LINE
8
WHITE
6
CONTINUOUS
10
42.
20
-1.5
11
42.
21
-32.
0
LINE
8
WHITE
6
CONTINUOUS
10
42.
20
-34.
11
42.
21
-53.5
0
ARC
8
WHITE
10
40.5
20
-53.5
40
1.5
50
-90.00000000
51
-0.00000000
0
LINE
8
GRAY3
6
CONTINUOUS
10
23.75
20
-11.5
11
24.25
21
-11.5
0
LINE
8
GRAY3
6
CONTINUOUS
10
24.25
20
-11.5
11
24.25
21
-10.5
0
LINE
8
GRAY3
6
CONTINUOUS
10
24.25
20
-10.5
11
23.75
21
-10.5
0
LINE
8
GRAY3
6
CONTINUOUS
10
23.75
20
-10.5
11
23.75
21
-11.5
0
LINE
8
GRAY3
6
CONTINUOUS
10
42.
20
-12.8499999999999996
11
30.
21
-12.8499999999999996
0
LINE
8
GRAY3
6
CONTINUOUS
10
30.
20
-12.8499999999999996
11
30.
21
-3.1499999999999999
0
LINE
8
GRAY3
6
CONTINUOUS
10
30.
20
-3.1499999999999999
11
42.
21
-3.1499999999999999
0
LINE
8
GRAY3
6
CONTINUOUS
10
42.
20
-3.1499999999999999
11
42.
21
-12.8499999999999996
0
LINE
8
GRAY3
6
CONTINUOUS
10
51.
20
-12.1499999999999986
11
42.
21
-12.1499999999999986
0
LINE
8
GRAY3
6
CONTINUOUS
10
42.
20
-12.1499999999999986
11
42.
21
-3.8499999999999996
0
LINE
8
GRAY3
6
CONTINUOUS
10
42.
20
-3.8499999999999996
11
51.
21
-3.8499999999999996
0
LINE
8
GRAY3
6
CONTINUOUS
10
51.
20
-3.8499999999999996
11
51.
21
-12.1499999999999986
0
LINE
8
GRAY3
6
CONTINUOUS
10
15.8999999999999986
20
-10.75
11
14.8999999999999986
21
-10.75
0
LINE
8
GRAY3
6
CONTINUOUS
10
14.8999999999999986
20
-10.75
11
14.8999999999999986
21
-10.25
0
LINE
8
GRAY3
6
CONTINUOUS
10
14.8999999999999986
20
-10.25
11
15.8999999999999986
21
-10.25
0
LINE
8
GRAY3
6
CONTINUOUS
10
15.8999999999999986
20
-10.25
11
15.8999999999999986
21
-10.75
0
LINE
8
GRAY3
6
CONTINUOUS
10
26.6999999999999993
20
-42.9874999999999972
11
28.2999999999999972
21
-42.9874999999999972
0
LINE
8
GRAY3
6
CONTINUOUS
10
28.2999999999999972
20
-42.9874999999999972
11
28.2999999999999972
21
-43.8125
0
LINE
8
GRAY3
6
CONTINUOUS
10
28.2999999999999972
20
-43.8125
11
26.6999999999999993
21
-43.8125
0
LINE
8
GRAY3
6
CONTINUOUS
10
26.6999999999999993
20
-43.8125
11
26.6999999999999993
21
-42.9874999999999972
0
LINE
8
GRAY3
6
CONTINUOUS
10
16.7124999999999986
20
-4.7000000000000002
11
15.8874999999999993
21
-4.7000000000000002
0
LINE
8
GRAY3
6
CONTINUOUS
10
15.8874999999999993
20
-4.7000000000000002
11
15.8874999999999993
21
-6.2999999999999998
0
LINE
8
GRAY3
6
CONTINUOUS
10
15.8874999999999993
20
-6.2999999999999998
11
16.7124999999999986
21
-6.2999999999999998
0
LINE
8
GRAY3
6
CONTINUOUS
10
16.7124999999999986
20
-6.2999999999999998
11
16.7124999999999986
21
-4.7000000000000002
0
LINE
8
GRAY3
6
CONTINUOUS
10
13.7999999999999989
20
-42.6000000000000014
11
15.3999999999999986
21
-42.6000000000000014
0
LINE
8
GRAY3
6
CONTINUOUS
10
15.3999999999999986
20
-42.6000000000000014
11
15.3999999999999986
21
-43.3999999999999986
0
LINE
8
GRAY3
6
CONTINUOUS
10
15.3999999999999986
20
-43.3999999999999986
11
13.7999999999999989
21
-43.3999999999999986
0
LINE
8
GRAY3
6
CONTINUOUS
10
13.7999999999999989
20
-43.3999999999999986
11
13.7999999999999989
21
-42.6000000000000014
0
LINE
8
GRAY3
6
CONTINUOUS
10
15.8999999999999986
20
-12.0499999999999989
11
14.8999999999999986
21
-12.0499999999999989
0
LINE
8
GRAY3
6
CONTINUOUS
10
14.8999999999999986
20
-12.0499999999999989
11
14.8999999999999986
21
-11.5499999999999989
0
LINE
8
GRAY3
6
CONTINUOUS
10
14.8999999999999986
20
-11.5499999999999989
11
15.8999999999999986
21
-11.5499999999999989
0
LINE
8
GRAY3
6
CONTINUOUS
10
15.8999999999999986
20
-11.5499999999999989
11
15.8999999999999986
21
-12.0499999999999989
0
LINE
8
GRAY3
6
CONTINUOUS
10
25.1999999999999993
20
-4.7000000000000002
11
24.3999999999999986
21
-4.7000000000000002
0
LINE
8
GRAY3
6
CONTINUOUS
10
24.3999999999999986
20
-4.7000000000000002
11
24.3999999999999986
21
-6.2999999999999998
0
LINE
8
GRAY3
6
CONTINUOUS
10
24.3999999999999986
20
-6.2999999999999998
11
25.1999999999999993
21
-6.2999999999999998
0
LINE
8
GRAY3
6
CONTINUOUS
10
25.1999999999999993
20
-6.2999999999999998
11
25.1999999999999993
21
-4.7000000000000002
0
LINE
8
GRAY3
6
CONTINUOUS
10
27.2999999999999972
20
-17.8000000000000007
11
27.2999999999999972
21
-20.1999999999999993
0
LINE
8
GRAY3
6
CONTINUOUS
10
27.2999999999999972
20
-20.1999999999999993
11
22.3000000000000007
21
-20.1999999999999993
0
LINE
8
GRAY3
6
CONTINUOUS
10
22.3000000000000007
20
-20.1999999999999993
11
22.3000000000000007
21
-17.
0
LINE
8
GRAY3
6
CONTINUOUS
10
22.3000000000000007
20
-17.
11
26.5
21
-17.
0
LINE
8
GRAY3
6
CONTINUOUS
10
26.5
20
-17.
11
27.2999999999999972
21
-17.8000000000000007
0
LINE
8
GRAY3
6
CONTINUOUS
10
23.1499999999999986
20
-46.4499999999999957
11
19.25
21
-46.4499999999999957
0
LINE
8
GRAY3
6
CONTINUOUS
10
19.25
20
-46.4499999999999957
11
19.25
21
-42.5249999999999986
0
LINE
8
GRAY3
6
CONTINUOUS
10
19.25
20
-42.5249999999999986
11
20.2249999999999979
21
-41.5499999999999972
0
LINE
8
GRAY3
6
CONTINUOUS
10
20.2249999999999979
20
-41.5499999999999972
11
23.1499999999999986
21
-41.5499999999999972
0
LINE
8
GRAY3
6
CONTINUOUS
10
23.1499999999999986
20
-41.5499999999999972
11
23.1499999999999986
21
-46.4499999999999957
0
LINE
8
GRAY3
6
CONTINUOUS
10
14.5
20
-25.3999999999999986
11
16.0999999999999979
21
-25.3999999999999986
0
LINE
8
GRAY3
6
CONTINUOUS
10
16.0999999999999979
20
-25.3999999999999986
11
16.0999999999999979
21
-26.1999999999999993
0
LINE
8
GRAY3
6
CONTINUOUS
10
16.0999999999999979
20
-26.1999999999999993
11
14.5
21
-26.1999999999999993
0
LINE
8
GRAY3
6
CONTINUOUS
10
14.5
20
-26.1999999999999993
11
14.5
21
-25.3999999999999986
0
LINE
8
GRAY3
6
CONTINUOUS
10
20.5
20
-47.6499999999999986
11
19.5
21
-47.6499999999999986
0
LINE
8
GRAY3
6
CONTINUOUS
10
19.5
20
-47.6499999999999986
11
19.5
21
-47.1499999999999986
0
LINE
8
GRAY3
6
CONTINUOUS
10
19.5
20
-47.1499999999999986
11
20.5
21
-47.1499999999999986
0
LINE
8
GRAY3
6
CONTINUOUS
10
20.5
20
-47.1499999999999986
11
20.5
21
-47.6499999999999986
0
LINE
8
GRAY3
6
CONTINUOUS
10
25.375
20
-51.5999999999999943
11
26.625
21
-51.5999999999999943
0
LINE
8
GRAY3
6
CONTINUOUS
10
26.625
20
-51.5999999999999943
11
26.625
21
-49.5999999999999943
0
LINE
8
GRAY3
6
CONTINUOUS
10
26.625
20
-49.5999999999999943
11
25.375
21
-49.5999999999999943
0
LINE
8
GRAY3
6
CONTINUOUS
10
25.375
20
-49.5999999999999943
11
25.375
21
-51.5999999999999943
0
LINE
8
GRAY3
6
CONTINUOUS
10
28.2124999999999986
20
-4.7000000000000002
11
27.3874999999999993
21
-4.7000000000000002
0
LINE
8
GRAY3
6
CONTINUOUS
10
27.3874999999999993
20
-4.7000000000000002
11
27.3874999999999993
21
-6.2999999999999998
0
LINE
8
GRAY3
6
CONTINUOUS
10
27.3874999999999993
20
-6.2999999999999998
11
28.2124999999999986
21
-6.2999999999999998
0
LINE
8
GRAY3
6
CONTINUOUS
10
28.2124999999999986
20
-6.2999999999999998
11
28.2124999999999986
21
-4.7000000000000002
0
LINE
8
GRAY3
6
CONTINUOUS
10
24.2999999999999972
20
-14.1499999999999986
11
25.2999999999999972
21
-14.1499999999999986
0
LINE
8
GRAY3
6
CONTINUOUS
10
25.2999999999999972
20
-14.1499999999999986
11
25.2999999999999972
21
-14.6499999999999986
0
LINE
8
GRAY3
6
CONTINUOUS
10
25.2999999999999972
20
-14.6499999999999986
11
24.2999999999999972
21
-14.6499999999999986
0
LINE
8
GRAY3
6
CONTINUOUS
10
24.2999999999999972
20
-14.6499999999999986
11
24.2999999999999972
21
-14.1499999999999986
0
LINE
8
GRAY3
6
CONTINUOUS
10
27.
20
-13.2999999999999989
11
25.3999999999999986
21
-13.2999999999999989
0
LINE
8
GRAY3
6
CONTINUOUS
10
25.3999999999999986
20
-13.2999999999999989
11
25.3999999999999986
21
-12.5
0
LINE
8
GRAY3
6
CONTINUOUS
10
25.3999999999999986
20
-12.5
11
27.
21
-12.5
0
LINE
8
GRAY3
6
CONTINUOUS
10
27.
20
-12.5
11
27.
21
-13.2999999999999989
0
LINE
8
GRAY3
6
CONTINUOUS
10
26.7124999999999986
20
-4.7000000000000002
11
25.8874999999999993
21
-4.7000000000000002
0
LINE
8
GRAY3
6
CONTINUOUS
10
25.8874999999999993
20
-4.7000000000000002
11
25.8874999999999993
21
-6.2999999999999998
0
LINE
8
GRAY3
6
CONTINUOUS
10
25.8874999999999993
20
-6.2999999999999998
11
26.7124999999999986
21
-6.2999999999999998
0
LINE
8
GRAY3
6
CONTINUOUS
10
26.7124999999999986
20
-6.2999999999999998
11
26.7124999999999986
21
-4.7000000000000002
0
LINE
8
GRAY3
6
CONTINUOUS
10
26.3999999999999986
20
-8.75
11
27.3999999999999986
21
-8.75
0
LINE
8
GRAY3
6
CONTINUOUS
10
27.3999999999999986
20
-8.75
11
27.3999999999999986
21
-9.25
0
LINE
8
GRAY3
6
CONTINUOUS
10
27.3999999999999986
20
-9.25
11
26.3999999999999986
21
-9.25
0
LINE
8
GRAY3
6
CONTINUOUS
10
26.3999999999999986
20
-9.25
11
26.3999999999999986
21
-8.75
0
LINE
8
GRAY3
6
CONTINUOUS
10
10.
20
-39.5
11
9.4000000000000004
21
-39.5
0
LINE
8
GRAY3
6
CONTINUOUS
10
9.4000000000000004
20
-39.5
11
9.4000000000000004
21
-40.5
0
LINE
8
GRAY3
6
CONTINUOUS
10
9.4000000000000004
20
-40.5
11
10.
21
-40.5
0
LINE
8
GRAY3
6
CONTINUOUS
10
10.
20
-40.5
11
10.
21
-39.5
0
LINE
8
GRAY3
6
CONTINUOUS
10
12.2999999999999989
20
-23.4499999999999993
11
10.6999999999999993
21
-23.4499999999999993
0
LINE
8
GRAY3
6
CONTINUOUS
10
10.6999999999999993
20
-23.4499999999999993
11
10.6999999999999993
21
-20.9499999999999993
0
LINE
8
GRAY3
6
CONTINUOUS
10
10.6999999999999993
20
-20.9499999999999993
11
11.0999999999999996
21
-20.5500000000000007
0
LINE
8
GRAY3
6
CONTINUOUS
10
11.0999999999999996
20
-20.5500000000000007
11
12.2999999999999989
21
-20.5500000000000007
0
LINE
8
GRAY3
6
CONTINUOUS
10
12.2999999999999989
20
-20.5500000000000007
11
12.2999999999999989
21
-23.4499999999999993
0
LINE
8
GRAY3
6
CONTINUOUS
10
35.7299999999999969
20
-35.4299999999999997
11
40.8099999999999952
21
-35.4299999999999997
0
LINE
8
GRAY3
6
CONTINUOUS
10
35.7299999999999969
20
-37.3350000000000009
11
35.7299999999999969
21
-35.4299999999999997
0
LINE
8
GRAY3
6
CONTINUOUS
10
36.3649999999999949
20
-37.9699999999999989
11
35.7299999999999969
21
-37.3350000000000009
0
LINE
8
GRAY3
6
CONTINUOUS
10
40.8099999999999952
20
-35.4299999999999997
11
40.8099999999999952
21
-37.9699999999999989
0
LINE
8
GRAY3
6
CONTINUOUS
10
40.8099999999999952
20
-37.9699999999999989
11
36.3649999999999949
21
-37.9699999999999989
0
LINE
8
GRAY3
6
CONTINUOUS
10
20.5999999999999979
20
-25.3999999999999986
11
22.1999999999999993
21
-25.3999999999999986
0
LINE
8
GRAY3
6
CONTINUOUS
10
22.1999999999999993
20
-25.3999999999999986
11
22.1999999999999993
21
-26.1999999999999993
0
LINE
8
GRAY3
6
CONTINUOUS
10
22.1999999999999993
20
-26.1999999999999993
11
20.5999999999999979
21
-26.1999999999999993
0
LINE
8
GRAY3
6
CONTINUOUS
10
20.5999999999999979
20
-26.1999999999999993
11
20.5999999999999979
21
-25.3999999999999986
0
LINE
8
GRAY3
6
CONTINUOUS
10
11.9124999999999996
20
-39.1999999999999957
11
11.0875000000000004
21
-39.1999999999999957
0
LINE
8
GRAY3
6
CONTINUOUS
10
11.0875000000000004
20
-39.1999999999999957
11
11.0875000000000004
21
-40.7999999999999972
0
LINE
8
GRAY3
6
CONTINUOUS
10
11.0875000000000004
20
-40.7999999999999972
11
11.9124999999999996
21
-40.7999999999999972
0
LINE
8
GRAY3
6
CONTINUOUS
10
11.9124999999999996
20
-40.7999999999999972
11
11.9124999999999996
21
-39.1999999999999957
0
LINE
8
GRAY3
6
CONTINUOUS
10
29.0124999999999993
20
-14.1999999999999993
11
28.1875
21
-14.1999999999999993
0
LINE
8
GRAY3
6
CONTINUOUS
10
28.1875
20
-14.1999999999999993
11
28.1875
21
-15.7999999999999989
0
LINE
8
GRAY3
6
CONTINUOUS
10
28.1875
20
-15.7999999999999989
11
29.0124999999999993
21
-15.7999999999999989
0
LINE
8
GRAY3
6
CONTINUOUS
10
29.0124999999999993
20
-15.7999999999999989
11
29.0124999999999993
21
-14.1999999999999993
0
LINE
8
GRAY3
6
CONTINUOUS
10
24.3999999999999986
20
-8.75
11
25.3999999999999986
21
-8.75
0
LINE
8
GRAY3
6
CONTINUOUS
10
25.3999999999999986
20
-8.75
11
25.3999999999999986
21
-9.25
0
LINE
8
GRAY3
6
CONTINUOUS
10
25.3999999999999986
20
-9.25
11
24.3999999999999986
21
-9.25
0
LINE
8
GRAY3
6
CONTINUOUS
10
24.3999999999999986
20
-9.25
11
24.3999999999999986
21
-8.75
0
LINE
8
GRAY3
6
CONTINUOUS
10
15.8999999999999986
20
-8.1500000000000004
11
14.8999999999999986
21
-8.1500000000000004
0
LINE
8
GRAY3
6
CONTINUOUS
10
14.8999999999999986
20
-8.1500000000000004
11
14.8999999999999986
21
-7.6499999999999995
0
LINE
8
GRAY3
6
CONTINUOUS
10
14.8999999999999986
20
-7.6499999999999995
11
15.8999999999999986
21
-7.6499999999999995
0
LINE
8
GRAY3
6
CONTINUOUS
10
15.8999999999999986
20
-7.6499999999999995
11
15.8999999999999986
21
-8.1500000000000004
0
LINE
8
GRAY3
6
CONTINUOUS
10
22.3999999999999986
20
-14.1499999999999986
11
23.3999999999999986
21
-14.1499999999999986
0
LINE
8
GRAY3
6
CONTINUOUS
10
23.3999999999999986
20
-14.1499999999999986
11
23.3999999999999986
21
-14.6499999999999986
0
LINE
8
GRAY3
6
CONTINUOUS
10
23.3999999999999986
20
-14.6499999999999986
11
22.3999999999999986
21
-14.6499999999999986
0
LINE
8
GRAY3
6
CONTINUOUS
10
22.3999999999999986
20
-14.6499999999999986
11
22.3999999999999986
21
-14.1499999999999986
0
LINE
8
GRAY3
6
CONTINUOUS
10
13.7999999999999989
20
-44.6000000000000014
11
15.3999999999999986
21
-44.6000000000000014
0
LINE
8
GRAY3
6
CONTINUOUS
10
15.3999999999999986
20
-44.6000000000000014
11
15.3999999999999986
21
-45.3999999999999986
0
LINE
8
GRAY3
6
CONTINUOUS
10
15.3999999999999986
20
-45.3999999999999986
11
13.7999999999999989
21
-45.3999999999999986
0
LINE
8
GRAY3
6
CONTINUOUS
10
13.7999999999999989
20
-45.3999999999999986
11
13.7999999999999989
21
-44.6000000000000014
0
LINE
8
GRAY3
6
CONTINUOUS
10
15.8999999999999986
20
-9.4499999999999993
11
14.8999999999999986
21
-9.4499999999999993
0
LINE
8
GRAY3
6
CONTINUOUS
10
14.8999999999999986
20
-9.4499999999999993
11
14.8999999999999986
21
-8.9499999999999993
0
LINE
8
GRAY3
6
CONTINUOUS
10
14.8999999999999986
20
-8.9499999999999993
11
15.8999999999999986
21
-8.9499999999999993
0
LINE
8
GRAY3
6
CONTINUOUS
10
15.8999999999999986
20
-8.9499999999999993
11
15.8999999999999986
21
-9.4499999999999993
0
LINE
8
GRAY3
6
CONTINUOUS
10
19.6750000000000007
20
-51.5999999999999943
11
20.9250000000000007
21
-51.5999999999999943
0
LINE
8
GRAY3
6
CONTINUOUS
10
20.9250000000000007
20
-51.5999999999999943
11
20.9250000000000007
21
-49.5999999999999943
0
LINE
8
GRAY3
6
CONTINUOUS
10
20.9250000000000007
20
-49.5999999999999943
11
19.6750000000000007
21
-49.5999999999999943
0
LINE
8
GRAY3
6
CONTINUOUS
10
19.6750000000000007
20
-49.5999999999999943
11
19.6750000000000007
21
-51.5999999999999943
0
LINE
8
GRAY3
6
CONTINUOUS
10
22.1999999999999993
20
-48.5999999999999943
11
23.7999999999999972
21
-48.5999999999999943
0
LINE
8
GRAY3
6
CONTINUOUS
10
23.7999999999999972
20
-48.5999999999999943
11
23.7999999999999972
21
-49.3999999999999986
0
LINE
8
GRAY3
6
CONTINUOUS
10
23.7999999999999972
20
-49.3999999999999986
11
22.1999999999999993
21
-49.3999999999999986
0
LINE
8
GRAY3
6
CONTINUOUS
10
22.1999999999999993
20
-49.3999999999999986
11
22.1999999999999993
21
-48.5999999999999943
0
LINE
8
GRAY3
6
CONTINUOUS
10
14.5
20
-27.1999999999999993
11
16.0999999999999979
21
-27.1999999999999993
0
LINE
8
GRAY3
6
CONTINUOUS
10
16.0999999999999979
20
-27.1999999999999993
11
16.0999999999999979
21
-28.
0
LINE
8
GRAY3
6
CONTINUOUS
10
16.0999999999999979
20
-28.
11
14.5
21
-28.
0
LINE
8
GRAY3
6
CONTINUOUS
10
14.5
20
-28.
11
14.5
21
-27.1999999999999993
0
LINE
8
GRAY3
6
CONTINUOUS
10
22.5
20
-13.
11
17.5
21
-13.
0
LINE
8
GRAY3
6
CONTINUOUS
10
17.5
20
-13.
11
17.5
21
-9.
0
LINE
8
GRAY3
6
CONTINUOUS
10
17.5
20
-9.
11
18.5
21
-8.
0
LINE
8
GRAY3
6
CONTINUOUS
10
18.5
20
-8.
11
22.5
21
-8.
0
LINE
8
GRAY3
6
CONTINUOUS
10
22.5
20
-8.
11
22.5
21
-13.
0
LINE
8
GRAY3
6
CONTINUOUS
10
17.5999999999999979
20
-25.3999999999999986
11
19.1999999999999993
21
-25.3999999999999986
0
LINE
8
GRAY3
6
CONTINUOUS
10
19.1999999999999993
20
-25.3999999999999986
11
19.1999999999999993
21
-26.1999999999999993
0
LINE
8
GRAY3
6
CONTINUOUS
10
19.1999999999999993
20
-26.1999999999999993
11
17.5999999999999979
21
-26.1999999999999993
0
LINE
8
GRAY3
6
CONTINUOUS
10
17.5999999999999979
20
-26.1999999999999993
11
17.5999999999999979
21
-25.3999999999999986
0
LINE
8
GRAY3
6
CONTINUOUS
10
5.75
20
-4.5999999999999996
11
0.25
21
-4.5999999999999996
0
LINE
8
GRAY3
6
CONTINUOUS
10
0.25
20
-4.5999999999999996
11
0.25
21
-25.3999999999999986
0
LINE
8
GRAY3
6
CONTINUOUS
10
0.25
20
-25.3999999999999986
11
5.75
21
-25.3999999999999986
0
LINE
8
GRAY3
6
CONTINUOUS
10
5.75
20
-25.3999999999999986
11
5.75
21
-4.5999999999999996
0
LINE
8
GRAY3
6
CONTINUOUS
10
5.7556849999999997
20
-4.5538059999999998
11
5.7691339999999993
21
-4.5538059999999998
0
LINE
8
GRAY3
6
CONTINUOUS
10
5.7691339999999993
20
-4.5538059999999998
11
5.7736159999999996
21
-4.5582880000000001
0
LINE
8
GRAY3
6
CONTINUOUS
10
5.7736159999999996
20
-4.5582880000000001
11
5.7797659999999995
21
-4.5598260000000002
0
LINE
8
GRAY3
6
CONTINUOUS
10
5.7797659999999995
20
-4.5598260000000002
11
5.7866840000000002
21
-4.5713559999999998
0
LINE
8
GRAY3
6
CONTINUOUS
10
5.7866840000000002
20
-4.5713559999999998
11
5.7961939999999998
21
-4.5808659999999994
0
LINE
8
GRAY3
6
CONTINUOUS
10
5.7961939999999998
20
-4.5808659999999994
11
5.7980799999999997
21
-4.5903499999999999
0
LINE
8
GRAY3
6
CONTINUOUS
10
5.7980799999999997
20
-4.5903499999999999
11
5.799455
21
-4.5926409999999995
0
LINE
8
GRAY3
6
CONTINUOUS
10
5.799455
20
-4.5926409999999995
11
5.7989429999999995
21
-4.5946869999999995
0
LINE
8
GRAY3
6
CONTINUOUS
10
5.7989429999999995
20
-4.5946869999999995
11
5.7999999999999998
21
-4.5999999999999996
0
LINE
8
GRAY3
6
CONTINUOUS
10
5.7999999999999998
20
-4.5999999999999996
11
5.7999999999999998
21
-5.7999999999999998
0
LINE
8
GRAY3
6
CONTINUOUS
10
5.7999999999999998
20
-5.7999999999999998
11
5.7989429999999995
21
-5.8053119999999998
0
LINE
8
GRAY3
6
CONTINUOUS
10
5.7989429999999995
20
-5.8053119999999998
11
5.799455
21
-5.8073589999999999
0
LINE
8
GRAY3
6
CONTINUOUS
10
5.799455
20
-5.8073589999999999
11
5.7980799999999997
21
-5.8096489999999994
0
LINE
8
GRAY3
6
CONTINUOUS
10
5.7980799999999997
20
-5.8096489999999994
11
5.7961939999999998
21
-5.819134
0
LINE
8
GRAY3
6
CONTINUOUS
10
5.7961939999999998
20
-5.819134
11
5.7866840000000002
21
-5.8286439999999997
0
LINE
8
GRAY3
6
CONTINUOUS
10
5.7866840000000002
20
-5.8286439999999997
11
5.7797659999999995
21
-5.8401739999999993
0
LINE
8
GRAY3
6
CONTINUOUS
10
5.7797659999999995
20
-5.8401739999999993
11
5.7736159999999996
21
-5.8417110000000001
0
LINE
8
GRAY3
6
CONTINUOUS
10
5.7736159999999996
20
-5.8417110000000001
11
5.7691339999999993
21
-5.8461939999999997
0
LINE
8
GRAY3
6
CONTINUOUS
10
5.7691339999999993
20
-5.8461939999999997
11
5.7556849999999997
21
-5.8461939999999997
0
LINE
8
GRAY3
6
CONTINUOUS
10
5.7556849999999997
20
-5.8461939999999997
11
5.7426399999999997
21
-5.8494549999999998
0
LINE
8
GRAY3
6
CONTINUOUS
10
5.7426399999999997
20
-5.8494549999999998
11
5.7335399999999996
21
-5.8461939999999997
0
LINE
8
GRAY3
6
CONTINUOUS
10
5.7335399999999996
20
-5.8461939999999997
11
5.7308659999999998
21
-5.8461939999999997
0
LINE
8
GRAY3
6
CONTINUOUS
10
5.7308659999999998
20
-5.8461939999999997
11
5.7293719999999997
21
-5.8446999999999996
0
LINE
8
GRAY3
6
CONTINUOUS
10
5.7293719999999997
20
-5.8446999999999996
11
5.7242749999999996
21
-5.8428740000000001
0
LINE
8
GRAY3
6
CONTINUOUS
10
5.7242749999999996
20
-5.8428740000000001
11
4.7242749999999996
21
-5.2428749999999997
0
LINE
8
GRAY3
6
CONTINUOUS
10
4.7242749999999996
20
-5.2428749999999997
11
4.7217019999999996
21
-5.2405409999999994
0
LINE
8
GRAY3
6
CONTINUOUS
10
4.7217019999999996
20
-5.2405409999999994
11
4.7202329999999995
21
-5.2401739999999997
0
LINE
8
GRAY3
6
CONTINUOUS
10
4.7202329999999995
20
-5.2401739999999997
11
4.7189610000000002
21
-5.238054
0
LINE
8
GRAY3
6
CONTINUOUS
10
4.7189610000000002
20
-5.238054
11
4.7098259999999996
21
-5.2297669999999998
0
LINE
8
GRAY3
6
CONTINUOUS
10
4.7098259999999996
20
-5.2297669999999998
11
4.7068519999999996
21
-5.2178709999999997
0
LINE
8
GRAY3
6
CONTINUOUS
10
4.7068519999999996
20
-5.2178709999999997
11
4.700545
21
-5.2073589999999994
0
LINE
8
GRAY3
6
CONTINUOUS
10
4.700545
20
-5.2073589999999994
11
4.7023839999999995
21
-5.2000000000000002
0
LINE
8
GRAY3
6
CONTINUOUS
10
4.7023839999999995
20
-5.2000000000000002
11
4.700545
21
-5.1926410000000001
0
LINE
8
GRAY3
6
CONTINUOUS
10
4.700545
20
-5.1926410000000001
11
4.7068519999999996
21
-5.1821279999999996
0
LINE
8
GRAY3
6
CONTINUOUS
10
4.7068519999999996
20
-5.1821279999999996
11
4.7098259999999996
21
-5.1702329999999996
0
LINE
8
GRAY3
6
CONTINUOUS
10
4.7098259999999996
20
-5.1702329999999996
11
4.7189610000000002
21
-5.1619449999999993
0
LINE
8
GRAY3
6
CONTINUOUS
10
4.7189610000000002
20
-5.1619449999999993
11
4.7202329999999995
21
-5.1598259999999998
0
LINE
8
GRAY3
6
CONTINUOUS
10
4.7202329999999995
20
-5.1598259999999998
11
4.7217019999999996
21
-5.1594579999999999
0
LINE
8
GRAY3
6
CONTINUOUS
10
4.7217019999999996
20
-5.1594579999999999
11
4.7242749999999996
21
-5.1571249999999997
0
LINE
8
GRAY3
6
CONTINUOUS
10
4.7242749999999996
20
-5.1571249999999997
11
5.7242749999999996
21
-4.5571260000000002
0
LINE
8
GRAY3
6
CONTINUOUS
10
5.7242749999999996
20
-4.5571260000000002
11
5.7293719999999997
21
-4.5552989999999998
0
LINE
8
GRAY3
6
CONTINUOUS
10
5.7293719999999997
20
-4.5552989999999998
11
5.7308659999999998
21
-4.5538059999999998
0
LINE
8
GRAY3
6
CONTINUOUS
10
5.7308659999999998
20
-4.5538059999999998
11
5.7335399999999996
21
-4.5538059999999998
0
LINE
8
GRAY3
6
CONTINUOUS
10
5.7335399999999996
20
-4.5538059999999998
11
5.7426399999999997
21
-4.5505449999999996
0
LINE
8
GRAY3
6
CONTINUOUS
10
5.7426399999999997
20
-4.5505449999999996
11
5.7556849999999997
21
-4.5538059999999998
0
LINE
8
GRAY3
6
CONTINUOUS
10
20.25
20
-15.5
11
19.75
21
-15.5
0
LINE
8
GRAY3
6
CONTINUOUS
10
19.75
20
-15.5
11
19.75
21
-16.5
0
LINE
8
GRAY3
6
CONTINUOUS
10
19.75
20
-16.5
11
20.25
21
-16.5
0
LINE
8
GRAY3
6
CONTINUOUS
10
20.25
20
-16.5
11
20.25
21
-15.5
0
LINE
8
GRAY3
6
CONTINUOUS
10
22.5500000000000007
20
-23.1999999999999993
11
23.3499999999999979
21
-23.1999999999999993
0
LINE
8
GRAY3
6
CONTINUOUS
10
23.3499999999999979
20
-23.1999999999999993
11
23.3499999999999979
21
-21.5999999999999979
0
LINE
8
GRAY3
6
CONTINUOUS
10
23.3499999999999979
20
-21.5999999999999979
11
22.5500000000000007
21
-21.5999999999999979
0
LINE
8
GRAY3
6
CONTINUOUS
10
22.5500000000000007
20
-21.5999999999999979
11
22.5500000000000007
21
-23.1999999999999993
0
LINE
8
GRAY3
6
CONTINUOUS
10
14.5
20
-22.1999999999999993
11
16.0999999999999979
21
-22.1999999999999993
0
LINE
8
GRAY3
6
CONTINUOUS
10
16.0999999999999979
20
-22.1999999999999993
11
16.0999999999999979
21
-23.
0
LINE
8
GRAY3
6
CONTINUOUS
10
16.0999999999999979
20
-23.
11
14.5
21
-23.
0
LINE
8
GRAY3
6
CONTINUOUS
10
14.5
20
-23.
11
14.5
21
-22.1999999999999993
0
LINE
8
GRAY3
6
CONTINUOUS
10
35.7299999999999969
20
-50.7299999999999969
11
40.8099999999999952
21
-50.7299999999999969
0
LINE
8
GRAY3
6
CONTINUOUS
10
35.7299999999999969
20
-52.634999999999998
11
35.7299999999999969
21
-50.7299999999999969
0
LINE
8
GRAY3
6
CONTINUOUS
10
36.3649999999999949
20
-53.269999999999996
11
35.7299999999999969
21
-52.634999999999998
0
LINE
8
GRAY3
6
CONTINUOUS
10
40.8099999999999952
20
-50.7299999999999969
11
40.8099999999999952
21
-53.269999999999996
0
LINE
8
GRAY3
6
CONTINUOUS
10
40.8099999999999952
20
-53.269999999999996
11
36.3649999999999949
21
-53.269999999999996
0
LINE
8
GRAY3
6
CONTINUOUS
10
26.6999999999999993
20
-45.9874999999999972
11
28.2999999999999972
21
-45.9874999999999972
0
LINE
8
GRAY3
6
CONTINUOUS
10
28.2999999999999972
20
-45.9874999999999972
11
28.2999999999999972
21
-46.8125
0
LINE
8
GRAY3
6
CONTINUOUS
10
28.2999999999999972
20
-46.8125
11
26.6999999999999993
21
-46.8125
0
LINE
8
GRAY3
6
CONTINUOUS
10
26.6999999999999993
20
-46.8125
11
26.6999999999999993
21
-45.9874999999999972
0
LINE
8
GRAY3
6
CONTINUOUS
10
13.1999999999999993
20
-48.0999999999999943
11
17.8000000000000007
21
-48.0999999999999943
0
LINE
8
GRAY3
6
CONTINUOUS
10
13.1999999999999993
20
-51.0999999999999943
11
13.1999999999999993
21
-48.0999999999999943
0
LINE
8
GRAY3
6
CONTINUOUS
10
13.1999999999999993
20
-51.0999999999999943
11
17.8000000000000007
21
-51.0999999999999943
0
LINE
8
GRAY3
6
CONTINUOUS
10
14.9988199999999985
20
-48.8496799999999993
11
14.9988199999999985
21
-50.3990799999999979
0
LINE
8
GRAY3
6
CONTINUOUS
10
14.9988199999999985
20
-49.5989799999999974
11
14.0005999999999986
21
-49.5989799999999974
0
LINE
8
GRAY3
6
CONTINUOUS
10
16.1494399999999985
20
-49.5989799999999974
11
14.9988199999999985
21
-48.8496799999999993
0
LINE
8
GRAY3
6
CONTINUOUS
10
16.1494399999999985
20
-49.5989799999999974
11
14.9988199999999985
21
-50.3990799999999979
0
LINE
8
GRAY3
6
CONTINUOUS
10
16.1494399999999985
20
-49.5989799999999974
11
17.0511400000000002
21
-49.5989799999999974
0
LINE
8
GRAY3
6
CONTINUOUS
10
16.1494399999999985
20
-50.3990799999999979
11
16.1494399999999985
21
-48.7988799999999969
0
LINE
8
GRAY3
6
CONTINUOUS
10
17.8000000000000007
20
-48.0999999999999943
11
17.8000000000000007
21
-51.0999999999999943
0
LINE
8
GRAY3
6
CONTINUOUS
10
31.75
20
-15.3125
11
30.1499999999999986
21
-15.3125
0
LINE
8
GRAY3
6
CONTINUOUS
10
30.1499999999999986
20
-15.3125
11
30.1499999999999986
21
-14.4874999999999989
0
LINE
8
GRAY3
6
CONTINUOUS
10
30.1499999999999986
20
-14.4874999999999989
11
31.75
21
-14.4874999999999989
0
LINE
8
GRAY3
6
CONTINUOUS
10
31.75
20
-14.4874999999999989
11
31.75
21
-15.3125
0
LINE
8
GRAY3
6
CONTINUOUS
10
6.7999999999999998
20
-24.5
11
8.4000000000000004
21
-24.5
0
LINE
8
GRAY3
6
CONTINUOUS
10
8.4000000000000004
20
-24.5
11
8.4000000000000004
21
-25.2999999999999972
0
LINE
8
GRAY3
6
CONTINUOUS
10
8.4000000000000004
20
-25.2999999999999972
11
6.7999999999999998
21
-25.2999999999999972
0
LINE
8
GRAY3
6
CONTINUOUS
10
6.7999999999999998
20
-25.2999999999999972
11
6.7999999999999998
21
-24.5
0
LINE
8
GRAY3
6
CONTINUOUS
10
26.25
20
-23.1999999999999993
11
27.0499999999999972
21
-23.1999999999999993
0
LINE
8
GRAY3
6
CONTINUOUS
10
27.0499999999999972
20
-23.1999999999999993
11
27.0499999999999972
21
-21.5999999999999979
0
LINE
8
GRAY3
6
CONTINUOUS
10
27.0499999999999972
20
-21.5999999999999979
11
26.25
21
-21.5999999999999979
0
LINE
8
GRAY3
6
CONTINUOUS
10
26.25
20
-21.5999999999999979
11
26.25
21
-23.1999999999999993
0
LINE
8
GRAY3
6
CONTINUOUS
10
1.3999999999999999
20
-44.4600000000000009
11
1.8999999999999999
21
-43.9600000000000009
0
LINE
8
GRAY3
6
CONTINUOUS
10
1.3999999999999999
20
-54.1199999999999974
11
1.3999999999999999
21
-44.4600000000000009
0
LINE
8
GRAY3
6
CONTINUOUS
10
1.8999999999999999
20
-43.9600000000000009
11
1.8999999999999999
21
-54.1199999999999974
0
LINE
8
GRAY3
6
CONTINUOUS
10
1.8999999999999999
20
-43.9600000000000009
11
11.1999999999999993
21
-43.9600000000000009
0
LINE
8
GRAY3
6
CONTINUOUS
10
3.3999999999999999
20
-43.9600000000000009
11
3.3999999999999999
21
-54.1199999999999974
0
LINE
8
GRAY3
6
CONTINUOUS
10
6.9550000000000001
20
-47.6379999999999981
11
4.8620000000000001
21
-45.5449999999999946
0
LINE
8
GRAY3
6
CONTINUOUS
10
6.9550000000000001
20
-52.7179999999999964
11
4.8620000000000001
21
-50.625
0
LINE
8
GRAY3
6
CONTINUOUS
10
7.1379999999999999
20
-47.4549999999999983
11
5.0449999999999999
21
-45.3619999999999948
0
LINE
8
GRAY3
6
CONTINUOUS
10
7.1379999999999999
20
-52.5349999999999966
11
5.0449999999999999
21
-50.4420000000000002
0
LINE
8
GRAY3
6
CONTINUOUS
10
8.2999999999999989
20
-43.9600000000000009
11
8.2999999999999989
21
-54.1199999999999974
0
LINE
8
GRAY3
6
CONTINUOUS
10
11.1999999999999993
20
-43.9600000000000009
11
11.1999999999999993
21
-54.1199999999999974
0
LINE
8
GRAY3
6
CONTINUOUS
10
11.1999999999999993
20
-54.1199999999999974
11
1.3999999999999999
21
-54.1199999999999974
0
CIRCLE
8
GRAY3
10
6.
20
-46.5
40
1.5
0
CIRCLE
8
GRAY3
10
6.
20
-51.5799999999999983
40
1.5
0
LINE
8
GRAY3
6
CONTINUOUS
10
19.0500000000000007
20
-15.5
11
18.5500000000000007
21
-15.5
0
LINE
8
GRAY3
6
CONTINUOUS
10
18.5500000000000007
20
-15.5
11
18.5500000000000007
21
-16.5
0
LINE
8
GRAY3
6
CONTINUOUS
10
18.5500000000000007
20
-16.5
11
19.0500000000000007
21
-16.5
0
LINE
8
GRAY3
6
CONTINUOUS
10
19.0500000000000007
20
-16.5
11
19.0500000000000007
21
-15.5
0
LINE
8
GRAY3
6
CONTINUOUS
10
12.2999999999999989
20
-28.4499999999999993
11
10.6999999999999993
21
-28.4499999999999993
0
LINE
8
GRAY3
6
CONTINUOUS
10
10.6999999999999993
20
-28.4499999999999993
11
10.6999999999999993
21
-25.9499999999999993
0
LINE
8
GRAY3
6
CONTINUOUS
10
10.6999999999999993
20
-25.9499999999999993
11
11.0999999999999996
21
-25.5499999999999972
0
LINE
8
GRAY3
6
CONTINUOUS
10
11.0999999999999996
20
-25.5499999999999972
11
12.2999999999999989
21
-25.5499999999999972
0
LINE
8
GRAY3
6
CONTINUOUS
10
12.2999999999999989
20
-25.5499999999999972
11
12.2999999999999989
21
-28.4499999999999993
0
LINE
8
GRAY3
6
CONTINUOUS
10
14.5
20
-20.3999999999999986
11
16.0999999999999979
21
-20.3999999999999986
0
LINE
8
GRAY3
6
CONTINUOUS
10
16.0999999999999979
20
-20.3999999999999986
11
16.0999999999999979
21
-21.1999999999999993
0
LINE
8
GRAY3
6
CONTINUOUS
10
16.0999999999999979
20
-21.1999999999999993
11
14.5
21
-21.1999999999999993
0
LINE
8
GRAY3
6
CONTINUOUS
10
14.5
20
-21.1999999999999993
11
14.5
21
-20.3999999999999986
0
LINE
8
GRAY3
6
CONTINUOUS
10
13.7999999999999989
20
-40.6000000000000014
11
15.3999999999999986
21
-40.6000000000000014
0
LINE
8
GRAY3
6
CONTINUOUS
10
15.3999999999999986
20
-40.6000000000000014
11
15.3999999999999986
21
-41.3999999999999986
0
LINE
8
GRAY3
6
CONTINUOUS
10
15.3999999999999986
20
-41.3999999999999986
11
13.7999999999999989
21
-41.3999999999999986
0
LINE
8
GRAY3
6
CONTINUOUS
10
13.7999999999999989
20
-41.3999999999999986
11
13.7999999999999989
21
-40.6000000000000014
0
LINE
8
GRAY3
6
CONTINUOUS
10
23.7124999999999986
20
-4.7000000000000002
11
22.8874999999999993
21
-4.7000000000000002
0
LINE
8
GRAY3
6
CONTINUOUS
10
22.8874999999999993
20
-4.7000000000000002
11
22.8874999999999993
21
-6.2999999999999998
0
LINE
8
GRAY3
6
CONTINUOUS
10
22.8874999999999993
20
-6.2999999999999998
11
23.7124999999999986
21
-6.2999999999999998
0
LINE
8
GRAY3
6
CONTINUOUS
10
23.7124999999999986
20
-6.2999999999999998
11
23.7124999999999986
21
-4.7000000000000002
0
LINE
8
GRAY3
6
CONTINUOUS
10
32.8999999999999986
20
-16.8999989999999976
11
33.5
21
-16.8999989999999976
0
LINE
8
GRAY3
6
CONTINUOUS
10
33.5
20
-16.8999989999999976
11
33.5
21
-15.8999989999999993
0
LINE
8
GRAY3
6
CONTINUOUS
10
33.5
20
-15.8999989999999993
11
32.8999999999999986
21
-15.8999989999999993
0
LINE
8
GRAY3
6
CONTINUOUS
10
32.8999999999999986
20
-15.8999989999999993
11
32.8999999999999986
21
-16.8999989999999976
0
LINE
8
GRAY3
6
CONTINUOUS
10
26.6999999999999993
20
-39.9874999999999972
11
28.2999999999999972
21
-39.9874999999999972
0
LINE
8
GRAY3
6
CONTINUOUS
10
28.2999999999999972
20
-39.9874999999999972
11
28.2999999999999972
21
-40.8125
0
LINE
8
GRAY3
6
CONTINUOUS
10
28.2999999999999972
20
-40.8125
11
26.6999999999999993
21
-40.8125
0
LINE
8
GRAY3
6
CONTINUOUS
10
26.6999999999999993
20
-40.8125
11
26.6999999999999993
21
-39.9874999999999972
0
LINE
8
GRAY3
6
CONTINUOUS
10
5.7299999999999995
20
-37.6649999999999991
11
6.3649999999999993
21
-37.0300000000000011
0
LINE
8
GRAY3
6
CONTINUOUS
10
5.7299999999999995
20
-42.1099999999999994
11
5.7299999999999995
21
-37.6649999999999991
0
LINE
8
GRAY3
6
CONTINUOUS
10
6.3649999999999993
20
-37.0300000000000011
11
8.2699999999999996
21
-37.0300000000000011
0
LINE
8
GRAY3
6
CONTINUOUS
10
8.2699999999999996
20
-37.0300000000000011
11
8.2699999999999996
21
-42.1099999999999994
0
LINE
8
GRAY3
6
CONTINUOUS
10
8.2699999999999996
20
-42.1099999999999994
11
5.7299999999999995
21
-42.1099999999999994
0
LINE
8
GRAY3
6
CONTINUOUS
10
22.2124999999999986
20
-4.7000000000000002
11
21.3874999999999993
21
-4.7000000000000002
0
LINE
8
GRAY3
6
CONTINUOUS
10
21.3874999999999993
20
-4.7000000000000002
11
21.3874999999999993
21
-6.2999999999999998
0
LINE
8
GRAY3
6
CONTINUOUS
10
21.3874999999999993
20
-6.2999999999999998
11
22.2124999999999986
21
-6.2999999999999998
0
LINE
8
GRAY3
6
CONTINUOUS
10
22.2124999999999986
20
-6.2999999999999998
11
22.2124999999999986
21
-4.7000000000000002
0
LINE
8
GRAY3
6
CONTINUOUS
10
28.7300000000000004
20
-51.0300000000000011
11
33.8099999999999952
21
-51.0300000000000011
0
LINE
8
GRAY3
6
CONTINUOUS
10
28.7300000000000004
20
-52.9349999999999952
11
28.7300000000000004
21
-51.0300000000000011
0
LINE
8
GRAY3
6
CONTINUOUS
10
29.3649999999999984
20
-53.5700000000000003
11
28.7300000000000004
21
-52.9349999999999952
0
LINE
8
GRAY3
6
CONTINUOUS
10
33.8099999999999952
20
-51.0300000000000011
11
33.8099999999999952
21
-53.5700000000000003
0
LINE
8
GRAY3
6
CONTINUOUS
10
33.8099999999999952
20
-53.5700000000000003
11
29.3649999999999984
21
-53.5700000000000003
0
LINE
8
WHITE
6
CONTINUOUS
10
23.5399999999999991
20
-11.9100000000000001
11
24.4599999999999973
21
-11.9100000000000001
0
LINE
8
WHITE
6
CONTINUOUS
10
24.4599999999999973
20
-11.9100000000000001
11
24.4599999999999973
21
-10.0899999999999999
0
LINE
8
WHITE
6
CONTINUOUS
10
24.4599999999999973
20
-10.0899999999999999
11
23.5399999999999991
21
-10.0899999999999999
0
LINE
8
WHITE
6
CONTINUOUS
10
23.5399999999999991
20
-10.0899999999999999
11
23.5399999999999991
21
-11.9100000000000001
0
LINE
8
WHITE
6
CONTINUOUS
10
51.5
20
-13.3499999999999996
11
29.5
21
-13.3499999999999996
0
LINE
8
WHITE
6
CONTINUOUS
10
29.5
20
-13.3499999999999996
11
29.5
21
-2.6499999999999999
0
LINE
8
WHITE
6
CONTINUOUS
10
29.5
20
-2.6499999999999999
11
51.5
21
-2.6499999999999999
0
LINE
8
WHITE
6
CONTINUOUS
10
51.5
20
-2.6499999999999999
11
51.5
21
-13.3499999999999996
0
LINE
8
WHITE
6
CONTINUOUS
10
16.3099999999999987
20
-10.9599999999999991
11
14.4900000000000002
21
-10.9599999999999991
0
LINE
8
WHITE
6
CONTINUOUS
10
14.4900000000000002
20
-10.9599999999999991
11
14.4900000000000002
21
-10.0399999999999991
0
LINE
8
WHITE
6
CONTINUOUS
10
14.4900000000000002
20
-10.0399999999999991
11
16.3099999999999987
21
-10.0399999999999991
0
LINE
8
WHITE
6
CONTINUOUS
10
16.3099999999999987
20
-10.0399999999999991
11
16.3099999999999987
21
-10.9599999999999991
0
LINE
8
WHITE
6
CONTINUOUS
10
26.0199999999999996
20
-42.6699999999999946
11
28.9800000000000004
21
-42.6699999999999946
0
LINE
8
WHITE
6
CONTINUOUS
10
28.9800000000000004
20
-42.6699999999999946
11
28.9800000000000004
21
-44.1299999999999955
0
LINE
8
WHITE
6
CONTINUOUS
10
28.9800000000000004
20
-44.1299999999999955
11
26.0199999999999996
21
-44.1299999999999955
0
LINE
8
WHITE
6
CONTINUOUS
10
26.0199999999999996
20
-44.1299999999999955
11
26.0199999999999996
21
-42.6699999999999946
0
CIRCLE
8
WHITE
10
28.5999999999999979
20
-48.8999999999999986
40
1.25
0
LINE
8
WHITE
6
CONTINUOUS
10
17.0299999999999976
20
-4.0199999999999996
11
15.5699999999999985
21
-4.0199999999999996
0
LINE
8
WHITE
6
CONTINUOUS
10
15.5699999999999985
20
-4.0199999999999996
11
15.5699999999999985
21
-6.9799999999999995
0
LINE
8
WHITE
6
CONTINUOUS
10
15.5699999999999985
20
-6.9799999999999995
11
17.0299999999999976
21
-6.9799999999999995
0
LINE
8
WHITE
6
CONTINUOUS
10
17.0299999999999976
20
-6.9799999999999995
11
17.0299999999999976
21
-4.0199999999999996
0
LINE
8
WHITE
6
CONTINUOUS
10
13.1199999999999992
20
-42.269999999999996
11
16.0799999999999983
21
-42.269999999999996
0
LINE
8
WHITE
6
CONTINUOUS
10
16.0799999999999983
20
-42.269999999999996
11
16.0799999999999983
21
-43.7299999999999969
0
LINE
8
WHITE
6
CONTINUOUS
10
16.0799999999999983
20
-43.7299999999999969
11
13.1199999999999992
21
-43.7299999999999969
0
LINE
8
WHITE
6
CONTINUOUS
10
13.1199999999999992
20
-43.7299999999999969
11
13.1199999999999992
21
-42.269999999999996
0
CIRCLE
8
WHITE
10
28.1999999999999993
20
-2.6999999999999997
40
1.25
0
LINE
8
WHITE
6
CONTINUOUS
10
16.3099999999999987
20
-12.2599999999999998
11
14.4900000000000002
21
-12.2599999999999998
0
LINE
8
WHITE
6
CONTINUOUS
10
14.4900000000000002
20
-12.2599999999999998
11
14.4900000000000002
21
-11.3399999999999999
0
LINE
8
WHITE
6
CONTINUOUS
10
14.4900000000000002
20
-11.3399999999999999
11
16.3099999999999987
21
-11.3399999999999999
0
LINE
8
WHITE
6
CONTINUOUS
10
16.3099999999999987
20
-11.3399999999999999
11
16.3099999999999987
21
-12.2599999999999998
0
LINE
8
WHITE
6
CONTINUOUS
10
22.9499999999999993
20
-1.45
11
22.9499999999999993
21
-3.9499999999999997
0
LINE
8
WHITE
6
CONTINUOUS
10
22.9499999999999993
20
-1.45
11
26.25
21
-1.45
0
LINE
8
WHITE
6
CONTINUOUS
10
26.25
20
-3.9499999999999997
11
22.9499999999999993
21
-3.9499999999999997
0
LINE
8
WHITE
6
CONTINUOUS
10
26.25
20
-3.9499999999999997
11
26.25
21
-1.45
0
CIRCLE
8
WHITE
10
39.3999999999999986
20
-44.5
40
2.4499999999999997
0
LINE
8
WHITE
6
CONTINUOUS
10
25.5299999999999976
20
-4.0199999999999996
11
24.0700000000000003
21
-4.0199999999999996
0
LINE
8
WHITE
6
CONTINUOUS
10
24.0700000000000003
20
-4.0199999999999996
11
24.0700000000000003
21
-6.9799999999999995
0
LINE
8
WHITE
6
CONTINUOUS
10
24.0700000000000003
20
-6.9799999999999995
11
25.5299999999999976
21
-6.9799999999999995
0
LINE
8
WHITE
6
CONTINUOUS
10
25.5299999999999976
20
-6.9799999999999995
11
25.5299999999999976
21
-4.0199999999999996
0
LINE
8
WHITE
6
CONTINUOUS
10
27.8999999999999986
20
-20.6999999999999993
11
21.6999999999999993
21
-20.6999999999999993
0
LINE
8
WHITE
6
CONTINUOUS
10
21.6999999999999993
20
-20.6999999999999993
11
21.6999999999999993
21
-16.5
0
LINE
8
WHITE
6
CONTINUOUS
10
21.6999999999999993
20
-16.5
11
27.8999999999999986
21
-16.5
0
LINE
8
WHITE
6
CONTINUOUS
10
27.8999999999999986
20
-16.5
11
27.8999999999999986
21
-20.6999999999999993
0
LINE
8
WHITE
6
CONTINUOUS
10
30.8499999999999979
20
-35.5499999999999972
11
30.8499999999999979
21
-38.0499999999999972
0
LINE
8
WHITE
6
CONTINUOUS
10
30.8499999999999979
20
-35.5499999999999972
11
34.1499999999999986
21
-35.5499999999999972
0
LINE
8
WHITE
6
CONTINUOUS
10
34.1499999999999986
20
-38.0499999999999972
11
30.8499999999999979
21
-38.0499999999999972
0
LINE
8
WHITE
6
CONTINUOUS
10
34.1499999999999986
20
-38.0499999999999972
11
34.1499999999999986
21
-35.5499999999999972
0
LINE
8
WHITE
6
CONTINUOUS
10
17.5
20
-41.5399999999999991
11
19.
21
-41.5399999999999991
0
LINE
8
WHITE
6
CONTINUOUS
10
17.5
20
-46.4600000000000009
11
17.5
21
-41.5399999999999991
0
LINE
8
WHITE
6
CONTINUOUS
10
19.
20
-41.2999999999999972
11
23.3999999999999986
21
-41.2999999999999972
0
LINE
8
WHITE
6
CONTINUOUS
10
19.
20
-41.5399999999999991
11
19.
21
-41.2999999999999972
0
LINE
8
WHITE
6
CONTINUOUS
10
19.
20
-46.4600000000000009
11
17.5
21
-46.4600000000000009
0
LINE
8
WHITE
6
CONTINUOUS
10
19.
20
-46.6999999999999957
11
19.
21
-46.4600000000000009
0
LINE
8
WHITE
6
CONTINUOUS
10
23.3999999999999986
20
-41.2999999999999972
11
23.3999999999999986
21
-41.5399999999999991
0
LINE
8
WHITE
6
CONTINUOUS
10
23.3999999999999986
20
-41.5399999999999991
11
24.8999999999999986
21
-41.5399999999999991
0
LINE
8
WHITE
6
CONTINUOUS
10
23.3999999999999986
20
-46.4600000000000009
11
23.3999999999999986
21
-46.6999999999999957
0
LINE
8
WHITE
6
CONTINUOUS
10
23.3999999999999986
20
-46.6999999999999957
11
19.
21
-46.6999999999999957
0
LINE
8
WHITE
6
CONTINUOUS
10
24.8999999999999986
20
-41.5399999999999991
11
24.8999999999999986
21
-46.4600000000000009
0
LINE
8
WHITE
6
CONTINUOUS
10
24.8999999999999986
20
-46.4600000000000009
11
23.3999999999999986
21
-46.4600000000000009
0
LINE
8
WHITE
6
CONTINUOUS
10
13.8199999999999985
20
-25.0700000000000003
11
16.7799999999999976
21
-25.0700000000000003
0
LINE
8
WHITE
6
CONTINUOUS
10
16.7799999999999976
20
-25.0700000000000003
11
16.7799999999999976
21
-26.5299999999999976
0
LINE
8
WHITE
6
CONTINUOUS
10
16.7799999999999976
20
-26.5299999999999976
11
13.8199999999999985
21
-26.5299999999999976
0
LINE
8
WHITE
6
CONTINUOUS
10
13.8199999999999985
20
-26.5299999999999976
11
13.8199999999999985
21
-25.0700000000000003
0
LINE
8
WHITE
6
CONTINUOUS
10
20.9100000000000001
20
-47.8599999999999994
11
19.0899999999999999
21
-47.8599999999999994
0
LINE
8
WHITE
6
CONTINUOUS
10
19.0899999999999999
20
-47.8599999999999994
11
19.0899999999999999
21
-46.9399999999999977
0
LINE
8
WHITE
6
CONTINUOUS
10
19.0899999999999999
20
-46.9399999999999977
11
20.9100000000000001
21
-46.9399999999999977
0
LINE
8
WHITE
6
CONTINUOUS
10
20.9100000000000001
20
-46.9399999999999977
11
20.9100000000000001
21
-47.8599999999999994
0
LINE
8
WHITE
6
CONTINUOUS
10
25.0199999999999996
20
-52.2999999999999972
11
26.9800000000000004
21
-52.2999999999999972
0
LINE
8
WHITE
6
CONTINUOUS
10
26.9800000000000004
20
-52.2999999999999972
11
26.9800000000000004
21
-48.8999999999999986
0
LINE
8
WHITE
6
CONTINUOUS
10
26.9800000000000004
20
-48.8999999999999986
11
25.0199999999999996
21
-48.8999999999999986
0
LINE
8
WHITE
6
CONTINUOUS
10
25.0199999999999996
20
-48.8999999999999986
11
25.0199999999999996
21
-52.2999999999999972
0
LINE
8
WHITE
6
CONTINUOUS
10
28.5299999999999976
20
-4.0199999999999996
11
27.0700000000000003
21
-4.0199999999999996
0
LINE
8
WHITE
6
CONTINUOUS
10
27.0700000000000003
20
-4.0199999999999996
11
27.0700000000000003
21
-6.9799999999999995
0
LINE
8
WHITE
6
CONTINUOUS
10
27.0700000000000003
20
-6.9799999999999995
11
28.5299999999999976
21
-6.9799999999999995
0
LINE
8
WHITE
6
CONTINUOUS
10
28.5299999999999976
20
-6.9799999999999995
11
28.5299999999999976
21
-4.0199999999999996
0
LINE
8
WHITE
6
CONTINUOUS
10
23.8900000000000006
20
-13.9399999999999995
11
25.7099999999999973
21
-13.9399999999999995
0
LINE
8
WHITE
6
CONTINUOUS
10
25.7099999999999973
20
-13.9399999999999995
11
25.7099999999999973
21
-14.8599999999999994
0
LINE
8
WHITE
6
CONTINUOUS
10
25.7099999999999973
20
-14.8599999999999994
11
23.8900000000000006
21
-14.8599999999999994
0
LINE
8
WHITE
6
CONTINUOUS
10
23.8900000000000006
20
-14.8599999999999994
11
23.8900000000000006
21
-13.9399999999999995
0
LINE
8
WHITE
6
CONTINUOUS
10
27.6799999999999997
20
-13.629999999999999
11
24.7199999999999989
21
-13.629999999999999
0
LINE
8
WHITE
6
CONTINUOUS
10
24.7199999999999989
20
-13.629999999999999
11
24.7199999999999989
21
-12.1699999999999999
0
LINE
8
WHITE
6
CONTINUOUS
10
24.7199999999999989
20
-12.1699999999999999
11
27.6799999999999997
21
-12.1699999999999999
0
LINE
8
WHITE
6
CONTINUOUS
10
27.6799999999999997
20
-12.1699999999999999
11
27.6799999999999997
21
-13.629999999999999
0
CIRCLE
8
WHITE
10
28.8999999999999986
20
-27.1999999999999993
40
1.25
0
LINE
8
WHITE
6
CONTINUOUS
10
27.0299999999999976
20
-4.0199999999999996
11
25.5700000000000003
21
-4.0199999999999996
0
LINE
8
WHITE
6
CONTINUOUS
10
25.5700000000000003
20
-4.0199999999999996
11
25.5700000000000003
21
-6.9799999999999995
0
LINE
8
WHITE
6
CONTINUOUS
10
25.5700000000000003
20
-6.9799999999999995
11
27.0299999999999976
21
-6.9799999999999995
0
LINE
8
WHITE
6
CONTINUOUS
10
27.0299999999999976
20
-6.9799999999999995
11
27.0299999999999976
21
-4.0199999999999996
0
CIRCLE
8
WHITE
10
26.2999999999999972
20
-27.1999999999999993
40
1.25
0
CIRCLE
8
WHITE
10
36.5
20
-22.
40
1.25
0
LINE
8
WHITE
6
CONTINUOUS
10
25.9899999999999984
20
-8.5399999999999991
11
27.8099999999999987
21
-8.5399999999999991
0
LINE
8
WHITE
6
CONTINUOUS
10
27.8099999999999987
20
-8.5399999999999991
11
27.8099999999999987
21
-9.4599999999999991
0
LINE
8
WHITE
6
CONTINUOUS
10
27.8099999999999987
20
-9.4599999999999991
11
25.9899999999999984
21
-9.4599999999999991
0
LINE
8
WHITE
6
CONTINUOUS
10
25.9899999999999984
20
-9.4599999999999991
11
25.9899999999999984
21
-8.5399999999999991
0
LINE
8
WHITE
6
CONTINUOUS
10
10.25
20
-39.25
11
9.1500000000000004
21
-39.25
0
LINE
8
WHITE
6
CONTINUOUS
10
9.1500000000000004
20
-39.25
11
9.1500000000000004
21
-40.75
0
LINE
8
WHITE
6
CONTINUOUS
10
9.1500000000000004
20
-40.75
11
10.25
21
-40.75
0
LINE
8
WHITE
6
CONTINUOUS
10
10.25
20
-40.75
11
10.25
21
-39.25
0
LINE
8
WHITE
6
CONTINUOUS
10
9.4499999999999993
20
-20.5
11
10.4499999999999993
21
-20.5
0
LINE
8
WHITE
6
CONTINUOUS
10
9.4499999999999993
20
-23.5
11
9.4499999999999993
21
-20.5
0
LINE
8
WHITE
6
CONTINUOUS
10
10.4499999999999993
20
-20.3000000000000007
11
12.5499999999999989
21
-20.3000000000000007
0
LINE
8
WHITE
6
CONTINUOUS
10
10.4499999999999993
20
-20.5
11
10.4499999999999993
21
-20.3000000000000007
0
LINE
8
WHITE
6
CONTINUOUS
10
10.4499999999999993
20
-23.5
11
9.4499999999999993
21
-23.5
0
LINE
8
WHITE
6
CONTINUOUS
10
10.4499999999999993
20
-23.6999999999999993
11
10.4499999999999993
21
-23.5
0
LINE
8
WHITE
6
CONTINUOUS
10
12.5499999999999989
20
-20.3000000000000007
11
12.5499999999999989
21
-20.5
0
LINE
8
WHITE
6
CONTINUOUS
10
12.5499999999999989
20
-20.5
11
13.5499999999999989
21
-20.5
0
LINE
8
WHITE
6
CONTINUOUS
10
12.5499999999999989
20
-21.6099999999999994
11
12.5499999999999989
21
-22.3900000000000006
0
LINE
8
WHITE
6
CONTINUOUS
10
12.5499999999999989
20
-22.3900000000000006
11
13.5499999999999989
21
-22.3900000000000006
0
LINE
8
WHITE
6
CONTINUOUS
10
12.5499999999999989
20
-23.5
11
12.5499999999999989
21
-23.6999999999999993
0
LINE
8
WHITE
6
CONTINUOUS
10
12.5499999999999989
20
-23.6999999999999993
11
10.4499999999999993
21
-23.6999999999999993
0
LINE
8
WHITE
6
CONTINUOUS
10
13.5499999999999989
20
-20.5
11
13.5499999999999989
21
-21.6099999999999994
0
LINE
8
WHITE
6
CONTINUOUS
10
13.5499999999999989
20
-21.6099999999999994
11
12.5499999999999989
21
-21.6099999999999994
0
LINE
8
WHITE
6
CONTINUOUS
10
13.5499999999999989
20
-22.3900000000000006
11
13.5499999999999989
21
-23.5
0
LINE
8
WHITE
6
CONTINUOUS
10
13.5499999999999989
20
-23.5
11
12.5499999999999989
21
-23.5
0
LINE
8
WHITE
6
CONTINUOUS
10
35.2299999999999969
20
-38.4699999999999989
11
41.3200000000000003
21
-38.4699999999999989
0
LINE
8
WHITE
6
CONTINUOUS
10
41.3200000000000003
20
-38.4699999999999989
11
41.3200000000000003
21
-34.9299999999999997
0
LINE
8
WHITE
6
CONTINUOUS
10
41.3200000000000003
20
-34.9299999999999997
11
35.2299999999999969
21
-34.9299999999999997
0
LINE
8
WHITE
6
CONTINUOUS
10
35.2299999999999969
20
-34.9299999999999997
11
35.2299999999999969
21
-38.4699999999999989
0
LINE
8
WHITE
6
CONTINUOUS
10
19.9199999999999982
20
-25.0700000000000003
11
22.879999999999999
21
-25.0700000000000003
0
LINE
8
WHITE
6
CONTINUOUS
10
22.879999999999999
20
-25.0700000000000003
11
22.879999999999999
21
-26.5299999999999976
0
LINE
8
WHITE
6
CONTINUOUS
10
22.879999999999999
20
-26.5299999999999976
11
19.9199999999999982
21
-26.5299999999999976
0
LINE
8
WHITE
6
CONTINUOUS
10
19.9199999999999982
20
-26.5299999999999976
11
19.9199999999999982
21
-25.0700000000000003
0
LINE
8
WHITE
6
CONTINUOUS
10
12.2299999999999986
20
-38.519999999999996
11
10.7699999999999996
21
-38.519999999999996
0
LINE
8
WHITE
6
CONTINUOUS
10
10.7699999999999996
20
-38.519999999999996
11
10.7699999999999996
21
-41.4799999999999969
0
LINE
8
WHITE
6
CONTINUOUS
10
10.7699999999999996
20
-41.4799999999999969
11
12.2299999999999986
21
-41.4799999999999969
0
LINE
8
WHITE
6
CONTINUOUS
10
12.2299999999999986
20
-41.4799999999999969
11
12.2299999999999986
21
-38.519999999999996
0
CIRCLE
8
WHITE
10
35.5
20
-29.
40
2.4499999999999997
0
LINE
8
WHITE
6
CONTINUOUS
10
29.3299999999999983
20
-13.5199999999999996
11
27.8699999999999974
21
-13.5199999999999996
0
LINE
8
WHITE
6
CONTINUOUS
10
27.8699999999999974
20
-13.5199999999999996
11
27.8699999999999974
21
-16.4800000000000004
0
LINE
8
WHITE
6
CONTINUOUS
10
27.8699999999999974
20
-16.4800000000000004
11
29.3299999999999983
21
-16.4800000000000004
0
LINE
8
WHITE
6
CONTINUOUS
10
29.3299999999999983
20
-16.4800000000000004
11
29.3299999999999983
21
-13.5199999999999996
0
LINE
8
WHITE
6
CONTINUOUS
10
23.9899999999999984
20
-8.5399999999999991
11
25.8099999999999987
21
-8.5399999999999991
0
LINE
8
WHITE
6
CONTINUOUS
10
25.8099999999999987
20
-8.5399999999999991
11
25.8099999999999987
21
-9.4599999999999991
0
LINE
8
WHITE
6
CONTINUOUS
10
25.8099999999999987
20
-9.4599999999999991
11
23.9899999999999984
21
-9.4599999999999991
0
LINE
8
WHITE
6
CONTINUOUS
10
23.9899999999999984
20
-9.4599999999999991
11
23.9899999999999984
21
-8.5399999999999991
0
LINE
8
WHITE
6
CONTINUOUS
10
16.3099999999999987
20
-8.3599999999999994
11
14.4900000000000002
21
-8.3599999999999994
0
LINE
8
WHITE
6
CONTINUOUS
10
14.4900000000000002
20
-8.3599999999999994
11
14.4900000000000002
21
-7.4399999999999995
0
LINE
8
WHITE
6
CONTINUOUS
10
14.4900000000000002
20
-7.4399999999999995
11
16.3099999999999987
21
-7.4399999999999995
0
LINE
8
WHITE
6
CONTINUOUS
10
16.3099999999999987
20
-7.4399999999999995
11
16.3099999999999987
21
-8.3599999999999994
0
LINE
8
WHITE
6
CONTINUOUS
10
21.9899999999999984
20
-13.9399999999999995
11
23.8099999999999987
21
-13.9399999999999995
0
LINE
8
WHITE
6
CONTINUOUS
10
23.8099999999999987
20
-13.9399999999999995
11
23.8099999999999987
21
-14.8599999999999994
0
LINE
8
WHITE
6
CONTINUOUS
10
23.8099999999999987
20
-14.8599999999999994
11
21.9899999999999984
21
-14.8599999999999994
0
LINE
8
WHITE
6
CONTINUOUS
10
21.9899999999999984
20
-14.8599999999999994
11
21.9899999999999984
21
-13.9399999999999995
0
LINE
8
WHITE
6
CONTINUOUS
10
13.1199999999999992
20
-44.269999999999996
11
16.0799999999999983
21
-44.269999999999996
0
LINE
8
WHITE
6
CONTINUOUS
10
16.0799999999999983
20
-44.269999999999996
11
16.0799999999999983
21
-45.7299999999999969
0
LINE
8
WHITE
6
CONTINUOUS
10
16.0799999999999983
20
-45.7299999999999969
11
13.1199999999999992
21
-45.7299999999999969
0
LINE
8
WHITE
6
CONTINUOUS
10
13.1199999999999992
20
-45.7299999999999969
11
13.1199999999999992
21
-44.269999999999996
0
LINE
8
WHITE
6
CONTINUOUS
10
16.3099999999999987
20
-9.6600000000000001
11
14.4900000000000002
21
-9.6600000000000001
0
LINE
8
WHITE
6
CONTINUOUS
10
14.4900000000000002
20
-9.6600000000000001
11
14.4900000000000002
21
-8.7400000000000002
0
LINE
8
WHITE
6
CONTINUOUS
10
14.4900000000000002
20
-8.7400000000000002
11
16.3099999999999987
21
-8.7400000000000002
0
LINE
8
WHITE
6
CONTINUOUS
10
16.3099999999999987
20
-8.7400000000000002
11
16.3099999999999987
21
-9.6600000000000001
0
LINE
8
WHITE
6
CONTINUOUS
10
19.3200000000000003
20
-52.2999999999999972
11
21.2799999999999976
21
-52.2999999999999972
0
LINE
8
WHITE
6
CONTINUOUS
10
21.2799999999999976
20
-52.2999999999999972
11
21.2799999999999976
21
-48.8999999999999986
0
LINE
8
WHITE
6
CONTINUOUS
10
21.2799999999999976
20
-48.8999999999999986
11
19.3200000000000003
21
-48.8999999999999986
0
LINE
8
WHITE
6
CONTINUOUS
10
19.3200000000000003
20
-48.8999999999999986
11
19.3200000000000003
21
-52.2999999999999972
0
LINE
8
WHITE
6
CONTINUOUS
10
21.5199999999999996
20
-48.269999999999996
11
24.4800000000000004
21
-48.269999999999996
0
LINE
8
WHITE
6
CONTINUOUS
10
24.4800000000000004
20
-48.269999999999996
11
24.4800000000000004
21
-49.7299999999999969
0
LINE
8
WHITE
6
CONTINUOUS
10
24.4800000000000004
20
-49.7299999999999969
11
21.5199999999999996
21
-49.7299999999999969
0
LINE
8
WHITE
6
CONTINUOUS
10
21.5199999999999996
20
-49.7299999999999969
11
21.5199999999999996
21
-48.269999999999996
0
CIRCLE
8
WHITE
10
2.6000000000000001
20
-37.
40
2.4499999999999997
0
LINE
8
WHITE
6
CONTINUOUS
10
13.8199999999999985
20
-26.8699999999999974
11
16.7799999999999976
21
-26.8699999999999974
0
LINE
8
WHITE
6
CONTINUOUS
10
16.7799999999999976
20
-26.8699999999999974
11
16.7799999999999976
21
-28.3299999999999983
0
LINE
8
WHITE
6
CONTINUOUS
10
16.7799999999999976
20
-28.3299999999999983
11
13.8199999999999985
21
-28.3299999999999983
0
LINE
8
WHITE
6
CONTINUOUS
10
13.8199999999999985
20
-28.3299999999999983
11
13.8199999999999985
21
-26.8699999999999974
0
CIRCLE
8
WHITE
10
11.4000000000000004
20
-18.1999999999999993
40
1.25
0
LINE
8
WHITE
6
CONTINUOUS
10
11.8499999999999996
20
-1.45
11
11.8499999999999996
21
-3.9499999999999997
0
LINE
8
WHITE
6
CONTINUOUS
10
11.8499999999999996
20
-1.45
11
15.1499999999999986
21
-1.45
0
LINE
8
WHITE
6
CONTINUOUS
10
15.1499999999999986
20
-3.9499999999999997
11
11.8499999999999996
21
-3.9499999999999997
0
LINE
8
WHITE
6
CONTINUOUS
10
15.1499999999999986
20
-3.9499999999999997
11
15.1499999999999986
21
-1.45
0
LINE
8
WHITE
6
CONTINUOUS
10
16.8999999999999986
20
-8.3699999999999992
11
17.25
21
-8.3699999999999992
0
LINE
8
WHITE
6
CONTINUOUS
10
16.8999999999999986
20
-12.629999999999999
11
16.8999999999999986
21
-8.3699999999999992
0
LINE
8
WHITE
6
CONTINUOUS
10
17.25
20
-7.75
11
17.8699999999999974
21
-7.75
0
LINE
8
WHITE
6
CONTINUOUS
10
17.25
20
-8.3699999999999992
11
17.25
21
-7.75
0
LINE
8
WHITE
6
CONTINUOUS
10
17.25
20
-12.629999999999999
11
16.8999999999999986
21
-12.629999999999999
0
LINE
8
WHITE
6
CONTINUOUS
10
17.25
20
-13.25
11
17.25
21
-12.629999999999999
0
LINE
8
WHITE
6
CONTINUOUS
10
17.8699999999999974
20
-7.3999999999999995
11
22.129999999999999
21
-7.3999999999999995
0
LINE
8
WHITE
6
CONTINUOUS
10
17.8699999999999974
20
-7.75
11
17.8699999999999974
21
-7.3999999999999995
0
LINE
8
WHITE
6
CONTINUOUS
10
17.8699999999999974
20
-13.25
11
17.25
21
-13.25
0
LINE
8
WHITE
6
CONTINUOUS
10
17.8699999999999974
20
-13.5999999999999996
11
17.8699999999999974
21
-13.25
0
LINE
8
WHITE
6
CONTINUOUS
10
22.129999999999999
20
-7.3999999999999995
11
22.129999999999999
21
-7.75
0
LINE
8
WHITE
6
CONTINUOUS
10
22.129999999999999
20
-7.75
11
22.75
21
-7.75
0
LINE
8
WHITE
6
CONTINUOUS
10
22.129999999999999
20
-13.25
11
22.129999999999999
21
-13.5999999999999996
0
LINE
8
WHITE
6
CONTINUOUS
10
22.129999999999999
20
-13.5999999999999996
11
17.8699999999999974
21
-13.5999999999999996
0
LINE
8
WHITE
6
CONTINUOUS
10
22.75
20
-7.75
11
22.75
21
-8.3699999999999992
0
LINE
8
WHITE
6
CONTINUOUS
10
22.75
20
-8.3699999999999992
11
23.0999999999999979
21
-8.3699999999999992
0
LINE
8
WHITE
6
CONTINUOUS
10
22.75
20
-12.629999999999999
11
22.75
21
-13.25
0
LINE
8
WHITE
6
CONTINUOUS
10
22.75
20
-13.25
11
22.129999999999999
21
-13.25
0
LINE
8
WHITE
6
CONTINUOUS
10
23.0999999999999979
20
-8.3699999999999992
11
23.0999999999999979
21
-12.629999999999999
0
LINE
8
WHITE
6
CONTINUOUS
10
23.0999999999999979
20
-12.629999999999999
11
22.75
21
-12.629999999999999
0
LINE
8
WHITE
6
CONTINUOUS
10
16.9199999999999982
20
-25.0700000000000003
11
19.879999999999999
21
-25.0700000000000003
0
LINE
8
WHITE
6
CONTINUOUS
10
19.879999999999999
20
-25.0700000000000003
11
19.879999999999999
21
-26.5299999999999976
0
LINE
8
WHITE
6
CONTINUOUS
10
19.879999999999999
20
-26.5299999999999976
11
16.9199999999999982
21
-26.5299999999999976
0
LINE
8
WHITE
6
CONTINUOUS
10
16.9199999999999982
20
-26.5299999999999976
11
16.9199999999999982
21
-25.0700000000000003
0
LINE
8
WHITE
6
CONTINUOUS
10
7.75
20
-6.1499999999999995
11
-0.25
21
-6.1499999999999995
0
LINE
8
WHITE
6
CONTINUOUS
10
-0.25
20
-6.1499999999999995
11
-0.25
21
-23.8499999999999979
0
LINE
8
WHITE
6
CONTINUOUS
10
-0.25
20
-23.8499999999999979
11
7.75
21
-23.8499999999999979
0
LINE
8
WHITE
6
CONTINUOUS
10
7.75
20
-23.8499999999999979
11
7.75
21
-6.1499999999999995
0
LINE
8
WHITE
6
CONTINUOUS
10
20.4599999999999973
20
-15.0899999999999999
11
19.5399999999999991
21
-15.0899999999999999
0
LINE
8
WHITE
6
CONTINUOUS
10
19.5399999999999991
20
-15.0899999999999999
11
19.5399999999999991
21
-16.9100000000000001
0
LINE
8
WHITE
6
CONTINUOUS
10
19.5399999999999991
20
-16.9100000000000001
11
20.4599999999999973
21
-16.9100000000000001
0
LINE
8
WHITE
6
CONTINUOUS
10
20.4599999999999973
20
-16.9100000000000001
11
20.4599999999999973
21
-15.0899999999999999
0
LINE
8
WHITE
6
CONTINUOUS
10
22.2199999999999989
20
-23.879999999999999
11
23.6799999999999997
21
-23.879999999999999
0
LINE
8
WHITE
6
CONTINUOUS
10
23.6799999999999997
20
-23.879999999999999
11
23.6799999999999997
21
-20.9199999999999982
0
LINE
8
WHITE
6
CONTINUOUS
10
23.6799999999999997
20
-20.9199999999999982
11
22.2199999999999989
21
-20.9199999999999982
0
LINE
8
WHITE
6
CONTINUOUS
10
22.2199999999999989
20
-20.9199999999999982
11
22.2199999999999989
21
-23.879999999999999
0
LINE
8
WHITE
6
CONTINUOUS
10
13.8199999999999985
20
-21.8699999999999974
11
16.7799999999999976
21
-21.8699999999999974
0
LINE
8
WHITE
6
CONTINUOUS
10
16.7799999999999976
20
-21.8699999999999974
11
16.7799999999999976
21
-23.3299999999999983
0
LINE
8
WHITE
6
CONTINUOUS
10
16.7799999999999976
20
-23.3299999999999983
11
13.8199999999999985
21
-23.3299999999999983
0
LINE
8
WHITE
6
CONTINUOUS
10
13.8199999999999985
20
-23.3299999999999983
11
13.8199999999999985
21
-21.8699999999999974
0
LINE
8
WHITE
6
CONTINUOUS
10
35.2299999999999969
20
-53.769999999999996
11
41.3200000000000003
21
-53.769999999999996
0
LINE
8
WHITE
6
CONTINUOUS
10
41.3200000000000003
20
-53.769999999999996
11
41.3200000000000003
21
-50.2299999999999969
0
LINE
8
WHITE
6
CONTINUOUS
10
41.3200000000000003
20
-50.2299999999999969
11
35.2299999999999969
21
-50.2299999999999969
0
LINE
8
WHITE
6
CONTINUOUS
10
35.2299999999999969
20
-50.2299999999999969
11
35.2299999999999969
21
-53.769999999999996
0
LINE
8
WHITE
6
CONTINUOUS
10
26.0199999999999996
20
-45.6699999999999946
11
28.9800000000000004
21
-45.6699999999999946
0
LINE
8
WHITE
6
CONTINUOUS
10
28.9800000000000004
20
-45.6699999999999946
11
28.9800000000000004
21
-47.1299999999999955
0
LINE
8
WHITE
6
CONTINUOUS
10
28.9800000000000004
20
-47.1299999999999955
11
26.0199999999999996
21
-47.1299999999999955
0
LINE
8
WHITE
6
CONTINUOUS
10
26.0199999999999996
20
-47.1299999999999955
11
26.0199999999999996
21
-45.6699999999999946
0
LINE
8
WHITE
6
CONTINUOUS
10
12.
20
-47.8499999999999943
11
19.
21
-47.8499999999999943
0
LINE
8
WHITE
6
CONTINUOUS
10
12.
20
-51.3499999999999943
11
12.
21
-47.8499999999999943
0
LINE
8
WHITE
6
CONTINUOUS
10
19.
20
-47.8499999999999943
11
19.
21
-51.3499999999999943
0
LINE
8
WHITE
6
CONTINUOUS
10
19.
20
-51.3499999999999943
11
12.
21
-51.3499999999999943
0
LINE
8
WHITE
6
CONTINUOUS
10
32.4299999999999997
20
-15.629999999999999
11
29.4699999999999989
21
-15.629999999999999
0
LINE
8
WHITE
6
CONTINUOUS
10
29.4699999999999989
20
-15.629999999999999
11
29.4699999999999989
21
-14.1699999999999999
0
LINE
8
WHITE
6
CONTINUOUS
10
29.4699999999999989
20
-14.1699999999999999
11
32.4299999999999997
21
-14.1699999999999999
0
LINE
8
WHITE
6
CONTINUOUS
10
32.4299999999999997
20
-14.1699999999999999
11
32.4299999999999997
21
-15.629999999999999
0
LINE
8
WHITE
6
CONTINUOUS
10
6.1200000000000001
20
-24.1699999999999982
11
9.0800000000000001
21
-24.1699999999999982
0
LINE
8
WHITE
6
CONTINUOUS
10
9.0800000000000001
20
-24.1699999999999982
11
9.0800000000000001
21
-25.629999999999999
0
LINE
8
WHITE
6
CONTINUOUS
10
9.0800000000000001
20
-25.629999999999999
11
6.1200000000000001
21
-25.629999999999999
0
LINE
8
WHITE
6
CONTINUOUS
10
6.1200000000000001
20
-25.629999999999999
11
6.1200000000000001
21
-24.1699999999999982
0
LINE
8
WHITE
6
CONTINUOUS
10
25.9199999999999982
20
-23.879999999999999
11
27.379999999999999
21
-23.879999999999999
0
LINE
8
WHITE
6
CONTINUOUS
10
27.379999999999999
20
-23.879999999999999
11
27.379999999999999
21
-20.9199999999999982
0
LINE
8
WHITE
6
CONTINUOUS
10
27.379999999999999
20
-20.9199999999999982
11
25.9199999999999982
21
-20.9199999999999982
0
LINE
8
WHITE
6
CONTINUOUS
10
25.9199999999999982
20
-20.9199999999999982
11
25.9199999999999982
21
-23.879999999999999
0
LINE
8
WHITE
6
CONTINUOUS
10
11.7099999999999991
20
-43.4600000000000009
11
0.8999999999999999
21
-43.4600000000000009
0
LINE
8
WHITE
6
CONTINUOUS
10
0.8999999999999999
20
-43.4600000000000009
11
0.8999999999999999
21
-54.6299999999999955
0
LINE
8
WHITE
6
CONTINUOUS
10
0.8999999999999999
20
-54.6299999999999955
11
11.7099999999999991
21
-54.6299999999999955
0
LINE
8
WHITE
6
CONTINUOUS
10
11.7099999999999991
20
-54.6299999999999955
11
11.7099999999999991
21
-43.4600000000000009
0
LINE
8
WHITE
6
CONTINUOUS
10
19.259999999999998
20
-15.0899999999999999
11
18.3399999999999999
21
-15.0899999999999999
0
LINE
8
WHITE
6
CONTINUOUS
10
18.3399999999999999
20
-15.0899999999999999
11
18.3399999999999999
21
-16.9100000000000001
0
LINE
8
WHITE
6
CONTINUOUS
10
18.3399999999999999
20
-16.9100000000000001
11
19.259999999999998
21
-16.9100000000000001
0
LINE
8
WHITE
6
CONTINUOUS
10
19.259999999999998
20
-16.9100000000000001
11
19.259999999999998
21
-15.0899999999999999
0
CIRCLE
8
WHITE
10
18.3999999999999986
20
-28.2999999999999972
40
1.25
0
CIRCLE
8
WHITE
10
18.5999999999999979
20
-21.6999999999999993
40
1.25
0
LINE
8
WHITE
6
CONTINUOUS
10
9.4499999999999993
20
-25.5
11
10.4499999999999993
21
-25.5
0
LINE
8
WHITE
6
CONTINUOUS
10
9.4499999999999993
20
-28.5
11
9.4499999999999993
21
-25.5
0
LINE
8
WHITE
6
CONTINUOUS
10
10.4499999999999993
20
-25.2999999999999972
11
12.5499999999999989
21
-25.2999999999999972
0
LINE
8
WHITE
6
CONTINUOUS
10
10.4499999999999993
20
-25.5
11
10.4499999999999993
21
-25.2999999999999972
0
LINE
8
WHITE
6
CONTINUOUS
10
10.4499999999999993
20
-28.5
11
9.4499999999999993
21
-28.5
0
LINE
8
WHITE
6
CONTINUOUS
10
10.4499999999999993
20
-28.6999999999999993
11
10.4499999999999993
21
-28.5
0
LINE
8
WHITE
6
CONTINUOUS
10
12.5499999999999989
20
-25.2999999999999972
11
12.5499999999999989
21
-25.5
0
LINE
8
WHITE
6
CONTINUOUS
10
12.5499999999999989
20
-25.5
11
13.5499999999999989
21
-25.5
0
LINE
8
WHITE
6
CONTINUOUS
10
12.5499999999999989
20
-26.6099999999999994
11
12.5499999999999989
21
-27.389999999999997
0
LINE
8
WHITE
6
CONTINUOUS
10
12.5499999999999989
20
-27.389999999999997
11
13.5499999999999989
21
-27.389999999999997
0
LINE
8
WHITE
6
CONTINUOUS
10
12.5499999999999989
20
-28.5
11
12.5499999999999989
21
-28.6999999999999993
0
LINE
8
WHITE
6
CONTINUOUS
10
12.5499999999999989
20
-28.6999999999999993
11
10.4499999999999993
21
-28.6999999999999993
0
LINE
8
WHITE
6
CONTINUOUS
10
13.5499999999999989
20
-25.5
11
13.5499999999999989
21
-26.6099999999999994
0
LINE
8
WHITE
6
CONTINUOUS
10
13.5499999999999989
20
-26.6099999999999994
11
12.5499999999999989
21
-26.6099999999999994
0
LINE
8
WHITE
6
CONTINUOUS
10
13.5499999999999989
20
-27.389999999999997
11
13.5499999999999989
21
-28.5
0
LINE
8
WHITE
6
CONTINUOUS
10
13.5499999999999989
20
-28.5
11
12.5499999999999989
21
-28.5
0
LINE
8
WHITE
6
CONTINUOUS
10
13.8199999999999985
20
-20.0700000000000003
11
16.7799999999999976
21
-20.0700000000000003
0
LINE
8
WHITE
6
CONTINUOUS
10
16.7799999999999976
20
-20.0700000000000003
11
16.7799999999999976
21
-21.5299999999999976
0
LINE
8
WHITE
6
CONTINUOUS
10
16.7799999999999976
20
-21.5299999999999976
11
13.8199999999999985
21
-21.5299999999999976
0
LINE
8
WHITE
6
CONTINUOUS
10
13.8199999999999985
20
-21.5299999999999976
11
13.8199999999999985
21
-20.0700000000000003
0
LINE
8
WHITE
6
CONTINUOUS
10
13.1199999999999992
20
-40.269999999999996
11
16.0799999999999983
21
-40.269999999999996
0
LINE
8
WHITE
6
CONTINUOUS
10
16.0799999999999983
20
-40.269999999999996
11
16.0799999999999983
21
-41.7299999999999969
0
LINE
8
WHITE
6
CONTINUOUS
10
16.0799999999999983
20
-41.7299999999999969
11
13.1199999999999992
21
-41.7299999999999969
0
LINE
8
WHITE
6
CONTINUOUS
10
13.1199999999999992
20
-41.7299999999999969
11
13.1199999999999992
21
-40.269999999999996
0
LINE
8
WHITE
6
CONTINUOUS
10
24.0299999999999976
20
-4.0199999999999996
11
22.5700000000000003
21
-4.0199999999999996
0
LINE
8
WHITE
6
CONTINUOUS
10
22.5700000000000003
20
-4.0199999999999996
11
22.5700000000000003
21
-6.9799999999999995
0
LINE
8
WHITE
6
CONTINUOUS
10
22.5700000000000003
20
-6.9799999999999995
11
24.0299999999999976
21
-6.9799999999999995
0
LINE
8
WHITE
6
CONTINUOUS
10
24.0299999999999976
20
-6.9799999999999995
11
24.0299999999999976
21
-4.0199999999999996
0
LINE
8
WHITE
6
CONTINUOUS
10
32.6499999999999986
20
-17.1499989999999976
11
33.75
21
-17.1499989999999976
0
LINE
8
WHITE
6
CONTINUOUS
10
33.75
20
-17.1499989999999976
11
33.75
21
-15.6499989999999993
0
LINE
8
WHITE
6
CONTINUOUS
10
33.75
20
-15.6499989999999993
11
32.6499999999999986
21
-15.6499989999999993
0
LINE
8
WHITE
6
CONTINUOUS
10
32.6499999999999986
20
-15.6499989999999993
11
32.6499999999999986
21
-17.1499989999999976
0
CIRCLE
8
WHITE
10
30.3999999999999986
20
-17.8000000000000007
40
1.25
0
LINE
8
WHITE
6
CONTINUOUS
10
26.0199999999999996
20
-39.6700000000000017
11
28.9800000000000004
21
-39.6700000000000017
0
LINE
8
WHITE
6
CONTINUOUS
10
28.9800000000000004
20
-39.6700000000000017
11
28.9800000000000004
21
-41.1299999999999955
0
LINE
8
WHITE
6
CONTINUOUS
10
28.9800000000000004
20
-41.1299999999999955
11
26.0199999999999996
21
-41.1299999999999955
0
LINE
8
WHITE
6
CONTINUOUS
10
26.0199999999999996
20
-41.1299999999999955
11
26.0199999999999996
21
-39.6700000000000017
0
LINE
8
WHITE
6
CONTINUOUS
10
17.9499999999999993
20
-1.45
11
17.9499999999999993
21
-3.9499999999999997
0
LINE
8
WHITE
6
CONTINUOUS
10
17.9499999999999993
20
-1.45
11
21.25
21
-1.45
0
LINE
8
WHITE
6
CONTINUOUS
10
21.25
20
-3.9499999999999997
11
17.9499999999999993
21
-3.9499999999999997
0
LINE
8
WHITE
6
CONTINUOUS
10
21.25
20
-3.9499999999999997
11
21.25
21
-1.45
0
LINE
8
WHITE
6
CONTINUOUS
10
5.2299999999999995
20
-36.5300000000000011
11
8.7699999999999996
21
-36.5300000000000011
0
LINE
8
WHITE
6
CONTINUOUS
10
8.7699999999999996
20
-36.5300000000000011
11
8.7699999999999996
21
-42.6199999999999974
0
LINE
8
WHITE
6
CONTINUOUS
10
8.7699999999999996
20
-42.6199999999999974
11
5.2299999999999995
21
-42.6199999999999974
0
LINE
8
WHITE
6
CONTINUOUS
10
5.2299999999999995
20
-42.6199999999999974
11
5.2299999999999995
21
-36.5300000000000011
0
CIRCLE
8
WHITE
10
8.
20
-3.1999999999999997
40
2.4499999999999997
0
LINE
8
WHITE
6
CONTINUOUS
10
22.5299999999999976
20
-4.0199999999999996
11
21.0700000000000003
21
-4.0199999999999996
0
LINE
8
WHITE
6
CONTINUOUS
10
21.0700000000000003
20
-4.0199999999999996
11
21.0700000000000003
21
-6.9799999999999995
0
LINE
8
WHITE
6
CONTINUOUS
10
21.0700000000000003
20
-6.9799999999999995
11
22.5299999999999976
21
-6.9799999999999995
0
LINE
8
WHITE
6
CONTINUOUS
10
22.5299999999999976
20
-6.9799999999999995
11
22.5299999999999976
21
-4.0199999999999996
0
LINE
8
WHITE
6
CONTINUOUS
10
28.2300000000000004
20
-54.0700000000000003
11
34.3200000000000003
21
-54.0700000000000003
0
LINE
8
WHITE
6
CONTINUOUS
10
34.3200000000000003
20
-54.0700000000000003
11
34.3200000000000003
21
-50.5300000000000011
0
LINE
8
WHITE
6
CONTINUOUS
10
34.3200000000000003
20
-50.5300000000000011
11
28.2300000000000004
21
-50.5300000000000011
0
LINE
8
WHITE
6
CONTINUOUS
10
28.2300000000000004
20
-50.5300000000000011
11
28.2300000000000004
21
-54.0700000000000003
0
LINE
8
BLACK
6
CONTINUOUS
10
37.6499999999999986
20
-8.5999999999999996
11
37.6499999999999986
21
-7.3999999999999995
0
ARC
8
BLACK
10
37.
20
-7.3999999999999995
40
0.65
50
0.00000000
51
180.00000000
0
LINE
8
BLACK
6
CONTINUOUS
10
36.3500000000000014
20
-7.3999999999999995
11
36.3500000000000014
21
-8.5999999999999996
0
ARC
8
BLACK
10
37.
20
-8.5999999999999996
40
0.65
50
180.00000000
51
360.00000000
0
LINE
8
BLACK
6
CONTINUOUS
10
33.9499999999999957
20
-12.5
11
32.4499999999999957
21
-12.5
0
ARC
8
BLACK
10
32.4499999999999957
20
-13.
40
0.5
50
90.00000000
51
270.00000000
0
LINE
8
BLACK
6
CONTINUOUS
10
32.4499999999999957
20
-13.5
11
33.9499999999999957
21
-13.5
0
ARC
8
BLACK
10
33.9499999999999957
20
-13.
40
0.5
50
270.00000000
51
450.00000000
0
LINE
8
BLACK
6
CONTINUOUS
10
33.9499999999999957
20
-2.5
11
32.4499999999999957
21
-2.5
0
ARC
8
BLACK
10
32.4499999999999957
20
-3.
40
0.5
50
90.00000000
51
270.00000000
0
LINE
8
BLACK
6
CONTINUOUS
10
32.4499999999999957
20
-3.5
11
33.9499999999999957
21
-3.5
0
ARC
8
BLACK
10
33.9499999999999957
20
-3.
40
0.5
50
270.00000000
51
450.00000000
0
CIRCLE
8
BLACK
10
39.3999999999999986
20
-44.5
40
1.0999989999999999
0
CIRCLE
8
BLACK
10
37.
20
-36.6999999999999957
40
0.5
0
CIRCLE
8
BLACK
10
39.5399999999999991
20
-36.6999999999999957
40
0.5
0
CIRCLE
8
BLACK
10
35.5
20
-29.
40
1.0999989999999999
0
CIRCLE
8
BLACK
10
2.6000000000000001
20
-37.
40
1.0999989999999999
0
CIRCLE
8
BLACK
10
37.
20
-52.
40
0.5
0
CIRCLE
8
BLACK
10
39.5399999999999991
20
-52.
40
0.5
0
CIRCLE
8
BLACK
10
6.
20
-46.5
40
0.65
0
CIRCLE
8
BLACK
10
6.
20
-51.5799999999999983
40
0.65
0
CIRCLE
8
BLACK
10
7.
20
-38.2999999999999972
40
0.5
0
CIRCLE
8
BLACK
10
7.
20
-40.8399999999999963
40
0.5
0
CIRCLE
8
BLACK
10
8.
20
-3.1999999999999997
40
1.0999989999999999
0
CIRCLE
8
BLACK
10
30.
20
-52.2999999999999972
40
0.5
0
CIRCLE
8
BLACK
10
32.5399999999999991
20
-52.2999999999999972
40
0.5
  0
ENDSEC
  0
EOF
